<svg width="16" height="16" viewBox="0 0 16 16" fill="none" xmlns="http://www.w3.org/2000/svg">
<g clip-path="url(#clip0_1339_1514)">
<path d="M11.3338 15.5H3.00047C2.33266 15.5 1.70487 15.2399 1.2327 14.7677C0.76053 14.2955 0.500488 13.6677 0.500488 13V4.66666C0.500488 3.99887 0.760559 3.37108 1.23273 2.89891C1.70489 2.42675 2.33269 2.16668 3.0005 2.16668H6.33383C6.79409 2.16668 7.16716 2.53975 7.16716 3.00001C7.16716 3.46028 6.79409 3.83335 6.33383 3.83335H3.00047C2.77787 3.83335 2.56862 3.92004 2.41125 4.07741C2.25388 4.23478 2.16716 4.44406 2.16716 4.66666V13C2.16716 13.2226 2.25385 13.4318 2.41125 13.5893C2.56862 13.7466 2.77787 13.8333 3.00047 13.8333H11.3338C11.5564 13.8333 11.7656 13.7466 11.923 13.5892C12.0804 13.4318 12.1671 13.2226 12.1671 13V9.66666C12.1671 9.2064 12.5402 8.83335 13.0004 8.83335C13.4607 8.83335 13.8338 9.20643 13.8338 9.66666V13C13.8338 13.6678 13.5737 14.2955 13.1015 14.7678C12.6293 15.2399 12.0015 15.5 11.3338 15.5ZM6.33383 10.5C6.12054 10.5 5.90727 10.4186 5.74458 10.2559C5.41915 9.93049 5.41915 9.40281 5.74458 9.07738L12.6553 2.16668H9.66715C9.20689 2.16668 8.83384 1.7936 8.83384 1.33334C8.83384 0.873077 9.20689 0.5 9.66715 0.5H14.6671C14.7824 0.5 14.8922 0.523405 14.992 0.565702C15.0852 0.605117 15.1727 0.662231 15.2493 0.737074L15.2493 0.737132C15.2499 0.737685 15.2504 0.738209 15.251 0.738762C15.2511 0.738908 15.2513 0.739082 15.2514 0.739228C15.2519 0.739635 15.2523 0.740072 15.2527 0.740509C15.253 0.7408 15.2533 0.741062 15.2536 0.741353C15.2539 0.741673 15.2542 0.742022 15.2545 0.742284C15.2551 0.742867 15.2557 0.743478 15.2563 0.744089C15.2569 0.744671 15.2575 0.745312 15.2581 0.745894C15.2584 0.746185 15.2588 0.746564 15.259 0.746826C15.2593 0.747117 15.2596 0.747379 15.2599 0.74767C15.2603 0.748106 15.2607 0.748514 15.2611 0.74898C15.2613 0.749096 15.2615 0.7493 15.2616 0.749445C15.2622 0.749999 15.2627 0.750552 15.2632 0.751105L15.2633 0.751163C15.3381 0.827781 15.3953 0.915286 15.4346 1.00844C15.4769 1.10829 15.5004 1.21803 15.5004 1.33331V6.33331C15.5004 6.79357 15.1273 7.16665 14.667 7.16665C14.2067 7.16665 13.8337 6.79357 13.8337 6.33331V3.3452L6.92293 10.2559C6.76035 10.4187 6.54709 10.5 6.33383 10.5Z" fill="#F1C357"/>
</g>
<defs>
<clipPath id="clip0_1339_1514">
<rect width="15" height="15" fill="white" transform="translate(0.5 0.5)"/>
</clipPath>
</defs>
</svg>
