<svg width="17" height="16" viewBox="0 0 17 16" fill="none" xmlns="http://www.w3.org/2000/svg">
<path fill-rule="evenodd" clip-rule="evenodd" d="M15.9242 10.9858C16.2956 10.0633 16.5 9.0555 16.5 8C16.5 3.58172 12.9183 0 8.5 0C4.08172 0 0.5 3.58172 0.5 8C0.5 9.05548 0.704404 10.0632 1.07579 10.9858C1.10667 10.9675 1.13844 10.9501 1.17107 10.9338L3.05848 9.99008C3.62811 9.7049 4.14811 9.33008 4.59848 8.87971L5.537 7.94193C6.09255 7.38564 6.84663 7.07378 7.63181 7.07378H7.94448V6.14844C7.94448 5.91659 8.08818 5.70992 8.30522 5.62844C8.30522 5.62844 8.59707 5.51585 8.89041 5.27733C9.14967 5.06622 9.42596 4.75066 9.42596 4.29659C9.42596 3.78547 9.01115 3.37066 8.50004 3.37066C7.98893 3.37066 7.57411 3.78547 7.57411 4.29659C7.57411 4.60325 7.32522 4.85214 7.01855 4.85214C6.71189 4.85214 6.463 4.60325 6.463 4.29659C6.463 3.17214 7.37559 2.25955 8.50004 2.25955C9.62448 2.25955 10.5371 3.17214 10.5371 4.29659C10.5371 4.97881 10.2334 5.50918 9.85855 5.8951C9.58967 6.17288 9.28522 6.37066 9.05559 6.49733V7.07378H9.36811C10.1533 7.07378 10.9074 7.38564 11.4629 7.94193L12.4014 8.87971C12.8518 9.33008 13.3718 9.7049 13.9414 9.99008L15.8288 10.9338C15.8615 10.9501 15.8933 10.9675 15.9242 10.9858ZM14.318 13.491C13.9806 13.3224 13.2452 12.9549 12.6163 12.6405C11.7614 12.213 10.9814 11.6508 10.3059 10.9753L9.80144 10.4708C9.62811 10.2967 9.39255 10.1997 9.14663 10.1997H7.85255C7.60737 10.1997 7.37181 10.2967 7.19848 10.4708L6.69403 10.9753C6.01848 11.6508 5.23848 12.213 4.38366 12.6405C3.75478 12.9549 3.01942 13.3224 2.68198 13.491C4.14054 15.0359 6.20768 16 8.5 16C10.7923 16 12.8594 15.0359 14.318 13.491Z" fill="#00FFA3"/>
</svg>
