<svg width="17" height="16" viewBox="0 0 17 16" fill="none" xmlns="http://www.w3.org/2000/svg">
<path d="M10.9115 15.9754C11.9108 15.9754 12.7684 15.9229 13.4849 15.7636C14.2105 15.6024 14.8395 15.3213 15.3301 14.8306C15.8208 14.34 16.1019 13.711 16.2631 12.9853C16.4224 12.2689 16.4749 11.4113 16.4749 10.412V8.00029C16.4749 7.11936 15.7608 6.40527 14.8799 6.40527H8.4998C7.61887 6.40527 6.90479 7.11936 6.90479 8.00029V14.3804C6.90479 15.2613 7.61887 15.9754 8.4998 15.9754H10.9115Z" fill="#5771F2"/>
<path d="M0.524902 10.412C0.524902 11.4113 0.57741 12.2689 0.736657 12.9854C0.897913 13.711 1.17903 14.34 1.66967 14.8306C2.16031 15.3213 2.78929 15.6024 3.51488 15.7636C3.58437 15.779 3.6542 15.7935 3.72433 15.8071C4.58923 15.9742 5.30995 15.2421 5.30995 14.3612V8.00029C5.30995 7.11936 4.59584 6.40527 3.71493 6.40527H2.11992C1.23901 6.40527 0.524902 7.11936 0.524902 8.00029V10.412Z" fill="#5771F2"/>
<path d="M6.08845 0.0253906C5.08907 0.0253906 4.23155 0.0778986 3.51501 0.237145C2.78942 0.398401 2.16044 0.679515 1.6698 1.17016C1.17916 1.6608 0.898043 2.28978 0.736787 3.01537C0.723549 3.07495 0.711092 3.13472 0.699392 3.19467C0.528422 4.07088 1.27384 4.81044 2.16657 4.81044H14.8611C15.742 4.81044 16.474 4.08972 16.3069 3.22482C16.2934 3.15469 16.2789 3.08485 16.2635 3.01537C16.1021 2.28978 15.8211 1.6608 15.3304 1.17016C14.8398 0.679515 14.2108 0.398401 13.4852 0.237145C12.7686 0.0778986 11.9112 0.0253906 10.9118 0.0253906H6.08845Z" fill="#5771F2"/>
</svg>
