<svg width="17" height="16" viewBox="0 0 17 16" fill="none" xmlns="http://www.w3.org/2000/svg">
<g clip-path="url(#clip0_1339_1505)">
<path d="M16.485 5.379L15.58 1.757C15.469 1.312 15.069 1 14.61 1H2.391C1.932 1 1.532 1.312 1.42 1.757L0.515 5.379C0.505 5.418 0.5 5.459 0.5 5.5C0.5 6.878 1.565 8 2.875 8C3.636 8 4.315 7.621 4.75 7.033C5.185 7.621 5.864 8 6.625 8C7.386 8 8.065 7.621 8.5 7.033C8.935 7.621 9.613 8 10.375 8C11.137 8 11.815 7.621 12.25 7.033C12.685 7.621 13.363 8 14.125 8C15.435 8 16.5 6.878 16.5 5.5C16.5 5.459 16.495 5.418 16.485 5.379Z" fill="#F25757"/>
<path d="M14.125 9.00011C13.444 9.00011 12.797 8.79211 12.25 8.41211C11.156 9.17311 9.594 9.17311 8.5 8.41211C7.406 9.17311 5.844 9.17311 4.75 8.41211C4.203 8.79211 3.556 9.00011 2.875 9.00011C2.384 9.00011 1.921 8.88511 1.5 8.68911V14.0001C1.5 14.5521 1.948 15.0001 2.5 15.0001H6.5V11.0001H10.5V15.0001H14.5C15.052 15.0001 15.5 14.5521 15.5 14.0001V8.68911C15.079 8.88511 14.616 9.00011 14.125 9.00011Z" fill="#F25757"/>
</g>
<defs>
<clipPath id="clip0_1339_1505">
<rect width="16" height="16" fill="white" transform="translate(0.5)"/>
</clipPath>
</defs>
</svg>
