<svg width="182" height="100" viewBox="0 0 182 100" fill="none" xmlns="http://www.w3.org/2000/svg">
<path d="M167.24 1.92999H14.46C7.19189 1.92999 1.30005 7.82196 1.30005 15.09V84.95C1.30005 92.2181 7.19189 98.11 14.46 98.11H167.24C174.508 98.11 180.4 92.2181 180.4 84.95V15.09C180.4 7.82196 174.508 1.92999 167.24 1.92999Z" fill="url(#paint0_radial_8_88291)"/>
<path d="M166.62 97.14C167.4 97.15 167.12 96.99 167.24 96.96C165.94 97 166.66 97.19 166.62 97.14Z" fill="white"/>
<path d="M153.75 97.52L153.98 97.45L152.08 97.62L153.75 97.52Z" fill="white"/>
<path d="M141.72 97.52C142.86 97.8 146.08 97.47 148.22 97.58L148.57 97.64L149.54 97.41C146.93 97.45 143.55 97.6 141.72 97.52Z" fill="white"/>
<path d="M135.31 96.9C135.71 97.01 133.92 97 136.81 96.93C136.67 96.92 136.62 96.91 136.54 96.9C136.28 96.9 135.92 96.9 135.31 96.9Z" fill="white"/>
<path d="M136.53 96.91C135.7 96.82 137.8 96.91 136.53 96.91V96.91Z" fill="white"/>
<path d="M130.68 96.97L132.35 96.87C132 96.8 130.52 96.79 131.07 96.74C129.36 96.79 129.71 96.86 130.68 96.97Z" fill="white"/>
<path d="M129.1 97.18L129.96 97.14C129.81 97.11 129.58 97.1 129.1 97.18Z" fill="white"/>
<path d="M131.8 97.05L129.97 97.14C130.21 97.19 130.24 97.28 130.81 97.11C130.66 97.19 131.02 97.11 131.8 97.05Z" fill="white"/>
<path d="M132.83 97.09C133.77 97.15 134.98 97.19 133.3 97.29C136.49 97.25 136.02 97.05 132.83 97.09Z" fill="white"/>
<path d="M141.11 97.81L142.36 97.89L143.44 97.79C142.9 97.84 141.03 97.71 141.11 97.8V97.81Z" fill="white"/>
<path d="M120.28 96.83C120.18 96.89 120.84 96.99 120.97 97.07L122.2 97C121.57 96.96 120.37 96.92 120.28 96.83Z" fill="white"/>
<path d="M120.97 97.07L119.13 97.17C120.78 97.18 121.08 97.13 120.97 97.07Z" fill="white"/>
<path d="M128.8 97.5L131.83 97.28L128.22 97.5H128.8Z" fill="white"/>
<path d="M113.24 96.82L114.28 96.68L112.42 96.89L113.24 96.82Z" fill="white"/>
<path d="M108.56 96.84C109.33 96.72 107.5 96.64 108.32 96.57C107.05 96.59 105.97 96.69 104.99 96.78C106.03 96.73 107.13 96.74 108.56 96.84Z" fill="white"/>
<path d="M103.35 96.92C103.87 96.89 104.4 96.84 104.99 96.79C104.44 96.82 103.9 96.86 103.35 96.92Z" fill="white"/>
<path d="M115.98 97.14C115.84 97.1 115.56 97.01 114.53 96.97L115.26 97.14C115.48 97.14 115.73 97.14 115.99 97.14H115.98Z" fill="white"/>
<path d="M115.28 97.14H115.25C114.46 97.13 113.92 97.13 113.68 97.13C113.88 97.13 114.36 97.13 115.27 97.14H115.28Z" fill="white"/>
<path d="M116.16 97.14C116.09 97.14 116.04 97.14 115.98 97.14C116.05 97.16 116.09 97.16 116.16 97.14Z" fill="white"/>
<path d="M123.96 97.34C122.88 97.43 120.62 97.54 122.8 97.68C123.58 97.56 122.33 97.48 123.96 97.34Z" fill="white"/>
<path d="M117.06 97.35L119.02 97.39C119.02 97.39 118.63 97.28 119.16 97.23L117.06 97.35Z" fill="white"/>
<path d="M116.11 97.41L117.06 97.35L116.34 97.34L116.11 97.41Z" fill="white"/>
<path d="M106.71 97.08C105.86 97.15 104.94 97.16 103.89 97.17C105.01 97.2 106.17 97.22 107.27 97.22C107.43 97.17 107.91 97.07 106.71 97.08Z" fill="white"/>
<path d="M110.87 97.12C110.81 97.12 110.74 97.12 110.68 97.12C110.8 97.13 110.89 97.14 110.87 97.12Z" fill="white"/>
<path d="M93.6 97.17C93.66 97.18 93.71 97.19 93.77 97.2L93.8101 97.17H93.61H93.6Z" fill="white"/>
<path d="M107.46 97.25C108.3 97.28 108.81 97.25 109.29 97.19C108.66 97.19 107.99 97.21 107.28 97.22C107.21 97.24 107.2 97.26 107.47 97.25H107.46Z" fill="white"/>
<path d="M100.48 97C100.92 97.03 101.42 97.06 101.94 97.09C101.51 97.04 100.64 96.95 100.48 97Z" fill="white"/>
<path d="M110.4 97.09C110.4 97.09 110.48 97.09 110.53 97.09C110.25 97.05 110.29 97.07 110.4 97.09Z" fill="white"/>
<path d="M110.4 97.09C109.97 97.11 109.63 97.16 109.28 97.19C109.79 97.17 110.27 97.15 110.68 97.13C110.58 97.12 110.47 97.1 110.4 97.08V97.09Z" fill="white"/>
<path d="M90.48 98.26C90.63 98.1 92.8401 97.96 94.7601 98.13C96.6401 98.01 95.4101 97.49 93.7701 97.2C93.7101 97.27 93.7101 97.33 91.7801 97.43C92.4601 97.52 96.08 97.63 94.44 97.77C91.88 97.85 92.34 97.71 91.09 97.63C92.15 97.83 87.8301 97.92 88.3901 98.2L90.6401 98.1C90.6401 98.1 89.87 98.22 90.49 98.26H90.48Z" fill="white"/>
<path d="M97.45 97.21L98.25 97.19C97.34 97.16 96.69 97.1 95.49 96.98C94.16 97.06 93.89 97.12 93.8 97.17L97.72 97.19L97.45 97.21Z" fill="white"/>
<path d="M101.82 97.19C101.2 97.36 99.28 97.43 100.46 97.62C102.8 97.61 102.1 97.48 103.5 97.4C99.73 97.44 104.58 97.3 101.86 97.21C102.6 97.18 103.27 97.17 103.9 97.16C103.22 97.13 102.57 97.11 101.95 97.08C101.98 97.08 102.01 97.08 102.04 97.09H102.06C102.22 97.11 102.28 97.12 102.09 97.11C102.08 97.11 102.03 97.11 102.01 97.11C101.98 97.13 101.91 97.15 101.84 97.17C100.75 97.13 101.67 97.13 102.01 97.11C102.02 97.11 102.05 97.09 102.06 97.08C102.06 97.08 102.06 97.08 102.05 97.08L98.27 97.17C99.07 97.19 100.07 97.19 101.85 97.17L101.82 97.19Z" fill="white"/>
<path d="M120.79 98.05C120.67 98.03 120.68 98.02 120.67 98.01C120.43 98.03 120.33 98.05 120.79 98.05Z" fill="white"/>
<path d="M119.24 97.95C119.52 97.93 119.74 97.86 120.64 97.88C121.41 97.93 120.64 97.96 120.68 98.02C121.22 97.97 122.56 97.9 120.88 97.81L120.61 97.83C119.09 97.77 117.13 97.56 117.4 97.53C117.84 97.68 118.24 97.79 119.25 97.95H119.24Z" fill="white"/>
<path d="M110.42 97.61L107.27 97.69L108.87 97.84L108.79 97.75C110.58 97.78 110.19 97.68 110.42 97.61Z" fill="white"/>
<path d="M93.24 97.08L93.65 96.9L91.84 97.16L93.24 97.08Z" fill="white"/>
<path d="M89.15 97.1L89.3 96.95L88.22 97.04L89.15 97.1Z" fill="white"/>
<path d="M59.39 0.97998L60.3101 0.940002C59.8701 0.950002 59.59 0.96998 59.39 0.97998Z" fill="white"/>
<path d="M52.6899 0.969971L52.53 1.04999C52.84 1.00999 52.9699 0.979971 52.6899 0.969971Z" fill="white"/>
<path d="M2.29004 79.85C2.44004 78.5 2.65999 77 2.48999 77.16L2.31995 77.57C2.34995 78.51 2.33004 79.23 2.29004 79.85Z" fill="white"/>
<path d="M1.88 11.11C1.82 11.23 1.77998 11.35 1.72998 11.48C1.70998 11.81 1.68003 12.12 1.66003 12.4C1.73003 12.02 1.79 11.57 1.88 11.11Z" fill="white"/>
<path d="M1.55005 9.95001C1.81005 9.38001 2.12996 8.84 2.45996 8.31C2.21996 8.65 1.91005 9.18001 1.55005 9.95001Z" fill="white"/>
<path d="M95.9599 0.799988L97.04 0.619995C95.35 0.619995 96.0899 0.709988 95.9599 0.799988Z" fill="white"/>
<path d="M47.26 97.17C46.1 97.1 45.17 97.07 44.36 97.07C45.76 97.17 46.89 97.32 47.26 97.17Z" fill="white"/>
<path d="M56.76 2.81C57.33 2.78 57.57 2.74002 57.55 2.71002C56.97 2.74002 56.64 2.77 56.76 2.81Z" fill="white"/>
<path d="M41 97.06C41.21 97.07 41.41 97.09 41.61 97.1C42.46 97.07 43.31 97.05 44.35 97.06C43.32 96.99 42.13 96.94 40.99 97.06H41Z" fill="white"/>
<path d="M181.39 55.75C181.39 55.85 181.38 55.96 181.37 56.05C181.39 56.08 181.39 55.95 181.39 55.75Z" fill="white"/>
<path d="M176.58 93.09C176.83 92.83 177.15 92.34 177.49 91.91C177.31 92.11 177.08 92.5 176.58 93.09Z" fill="white"/>
<path d="M72.6899 97.03C72.8299 97.01 73.5599 97.02 72.6899 97.03V97.03Z" fill="white"/>
<path d="M76.91 97.71C76.73 97.73 76.5901 97.75 76.5601 97.79C76.6301 97.75 76.75 97.72 76.91 97.71Z" fill="white"/>
<path d="M32.36 98.14C32.36 98.14 32.31 98.14 32.28 98.14C32.54 98.17 32.49 98.17 32.36 98.14Z" fill="white"/>
<path d="M74 97.11C73.67 97.09 73.3 97.08 72.89 97.06C73.07 97.06 73.41 97.08 74 97.11Z" fill="white"/>
<path d="M73.8199 97.02C74.1199 97.02 74.35 97.03 74.58 97.04C74.69 97.01 74.5899 96.99 73.8199 97.02Z" fill="white"/>
<path d="M71.48 97.04C71.98 97.04 72.44 97.05 72.88 97.06C72.71 97.05 72.6401 97.04 72.6801 97.03C72.4301 97.03 72.07 97.03 71.47 97.03L71.48 97.04Z" fill="white"/>
<path d="M157.51 1.40999C157.57 1.40999 157.63 1.42001 157.7 1.43001C158.57 1.36001 158.19 1.36999 157.51 1.40999Z" fill="white"/>
<path d="M0.380005 54.16C0.590005 55.49 0.57002 56.24 0.52002 57.25L1.02002 56.22L0.380005 54.16Z" fill="white"/>
<path d="M75.4201 0.940002L73.23 0.789978C75.87 0.539978 77.78 0.619973 75.73 0.409973C75.42 0.949973 67.2301 0.47 66.9201 1L65.48 0.890015C65.89 0.890015 65.96 0.859995 66.37 0.869995C63.57 0.609995 64.2901 1.25999 60.6701 1.17999C59.4101 1.13999 58.5301 1.06 59.3901 1L56.58 1.13C55.76 1.12 55.9601 1.02998 56.7801 1.03998L52.5 1.08002L52.5301 1.06C51.9201 1.14 50.54 1.28002 49.86 1.33002C48.77 1.25002 50.41 1.27002 50.13 1.21002L47.76 1.34003C46.79 1.20003 48.7601 1.06002 50.4001 1.08002C48.1901 0.540017 48.4301 1.22002 43.6601 0.900024L45.9001 0.830017C44.4601 0.520017 42.7101 0.630002 40.1801 0.440002C40.7801 0.540002 45.2501 0.919998 42.6701 1.06C41.9501 1.02 40.99 0.999985 39.6 1.10999C39.59 0.919985 38.2301 0.96998 36.5401 0.97998L36.6601 0.72998C34.8301 0.79998 34.9701 0.929988 33.8901 1.04999C31.8501 1.01999 31.42 0.829973 30.94 0.659973C27.67 0.619973 33.2 0.98002 29.33 1.02002C26.61 0.92002 24.7 1.01999 21.44 1.17999C19.54 1.08999 21.77 1.02001 21.09 0.950012L19.4001 1.15002C18.9901 1.15002 19.12 1.07999 19.19 1.04999C17.77 1.12999 19.07 1.3 16.84 1.37C16.53 1.52 15.41 1.38003 13.95 1.34003C12.47 1.28003 10.64 1.55002 9.36002 2.27002C8.66002 2.45002 9.63005 2.00999 9.39005 1.98999C8.47005 2.41999 7.84004 2.76998 7.38004 3.09998C6.91004 3.40998 6.58008 3.64997 6.29008 3.90997C6.00008 4.15997 5.71006 4.37999 5.40006 4.73999C5.07006 5.07999 4.68 5.49997 4.21 6.15997C3.56 6.80997 2.99002 7.54001 2.48002 8.32001C3.74002 6.70001 2.38007 8.97 1.91007 11.12C2.24007 10.5 2.50001 9.97001 2.72001 9.64001C2.47001 10.16 2.34006 10.72 2.15006 11.26C2.05006 11.82 1.86999 12.37 1.82999 12.94C1.72999 13.34 1.69009 12.99 1.68009 12.41C1.65009 12.65 1.65005 12.87 1.64005 13.05C1.36005 14.26 1.3101 13.62 1.3101 12.69C1.4101 12.27 1.61004 11.88 1.75004 11.49C1.84004 10.62 2.01008 9.78001 1.79008 9.89001C1.74008 10.12 1.59999 10.56 1.44999 11.03C1.48999 10.8 1.50999 10.64 1.44999 10.74C1.36999 10.84 1.32003 11.23 1.24003 11.82C1.08003 12.06 0.910067 12.31 0.780067 12.57L0.860023 12.79C0.680023 13.57 0.620096 14.38 0.560096 15.17L0.470008 17.45C0.760008 20.71 1.18008 23.55 1.29008 28.73C1.08008 27.45 0.949988 28.45 0.699988 28.38C0.959988 26.97 0.590052 24.37 0.640052 21.68C0.610052 23.08 0.499988 22.77 0.449988 22.42L0.689979 27.21C0.489979 27.1 0.539998 28.23 0.459998 29.48C0.859998 28.53 0.730013 33.05 0.850013 35C0.720013 35.12 0.580023 34.65 0.610023 32.28C0.310023 34.9 1.07998 35.67 0.819984 38.24C0.819984 37.66 0.840057 37.35 0.770057 37.12C0.890057 38.48 0.790091 41.79 0.680091 41.01V40.43C0.630091 44.28 0.680047 52.16 1.01005 52.73C0.970047 52.77 0.600067 52.23 0.530067 51.99L1.67008 58.86C1.38008 58.25 0.690057 60.58 0.520057 57.38C0.480057 58.3 0.430067 59.43 0.530067 61.37C0.570067 60.74 0.950018 59.81 0.980018 60.67C0.660018 63.02 0.810067 62.3 0.530067 65.19C0.590067 64.25 1.05007 65.29 1.03007 66.78C0.960067 66.55 0.580067 66.9 0.530067 66.36L0.980018 70.05C0.900018 69.13 0.600008 69.89 0.470008 70.71C0.560008 70.33 0.470047 73.9 0.510047 74.88L0.610023 73.32C0.540023 77.49 1.24001 77.43 1.22001 81.57C1.13001 81.07 0.650013 80.33 0.600013 82.44C0.930013 83.35 1.29008 86.89 2.92008 89.99L3.09 90.65C3.53 91.44 4.08007 92.16 4.66007 92.84C4.01007 92.3 2.85004 91.11 2.00004 89.5C1.11004 87.92 0.660076 85.92 0.540076 84.54C0.480076 85.33 0.479998 85.46 0.459998 85.68C0.459998 85.9 0.410042 86.23 0.630042 87.46C0.650042 88.36 0.200008 86.14 0.220008 85.38C0.250008 87.34 0.690047 89.3 1.51005 91.1C1.54005 91.01 1.70007 91.22 1.91007 91.56C2.12007 91.9 2.46006 92.35 2.77006 92.82C3.13006 93.25 3.48005 93.69 3.76005 93.97C4.06005 94.25 4.26005 94.4 4.26005 94.32C2.80005 92.86 1.62998 91.06 0.939979 89.05C0.989979 88.97 1.10999 89.14 1.32999 89.48C1.53999 89.82 1.79999 90.34 2.19999 90.94C2.93999 92.15 4.11999 93.69 5.57999 95C6.25999 95.76 4.69998 94.85 4.68998 94.96C4.91998 95.1 5.64009 95.75 6.43009 96.27C7.21009 96.79 8.02009 97.24 8.18009 97.34C7.63009 97.14 7.14002 96.85 6.61002 96.59C7.54002 97.25 8.42002 97.62 9.36002 97.91C9.84002 98.04 10.31 98.22 10.85 98.33C11.12 98.4 11.3901 98.47 11.6801 98.56C11.9801 98.62 12.29 98.69 12.62 98.77C13.08 98.88 13.7801 98.95 14.3901 99.06C14.9701 99.13 15.4401 99.17 15.5201 99.09C14.0601 98.79 13.79 97.81 14.75 97.61C15.06 97.63 19.4201 97.9 20.4301 98.05C21.8901 98.29 18.23 98.62 19.48 98.83C19.53 98.76 20.3401 98.67 20.6801 98.64C21.6101 98.7 20.29 98.87 22.32 98.83C22.66 98.56 26.4501 98.85 23.2801 98.6C25.2601 98.52 25.39 98.66 27.72 98.64C26.98 98.46 29.8101 98.04 31.8001 97.97C31.6801 98.04 32.13 98.13 32.35 98.17C36.42 98.19 38.6001 98.32 42.4001 98.32C42.7501 98.39 44.5801 98.46 43.8001 98.58C44.3501 98.53 44.8501 98.44 46.0201 98.43C48.2801 98.66 43.4101 98.47 45.1401 98.75C45.2901 98.59 48.17 98.53 49.83 98.43C49.32 98.19 45.9801 98.38 44.3101 98.48C44.3101 98.14 47.2101 97.79 51.1701 97.64C54.3201 97.56 52.54 97.86 53.08 97.81C59 97.87 58.1201 97.22 63.0401 97.47C64.9901 97.68 63.1301 97.9 63.5601 98.05C60.9901 98.13 59.62 97.91 57.88 97.92L60.0201 98.02C59.2001 98.09 57.4901 98.14 56.5601 98.08C58.1901 98.27 66.56 98.12 71.13 98.29C71.94 98.22 73.3401 98.14 72.6801 98.06L71.24 98.09C69.91 97.92 73.96 97.85 72.13 97.77C74.07 97.65 76.24 97.46 78.97 97.56L79.48 97.8C79.42 97.73 77.7001 97.65 76.9301 97.73C78.0701 97.62 81.11 98.06 82.36 97.74L80.45 97.57C82.4 97.45 84.8 97.19 87.22 97.27C86.12 97.03 86.66 97.3 84.94 97.02C86.43 97.37 78.7501 97.01 81.1501 97.37C79.3901 97.04 78.1001 97.23 75.7901 96.95C75.8601 97.03 76.61 97.1 74.58 97.06C74.49 97.08 74.27 97.11 74.13 97.13C74.07 97.13 74.05 97.13 73.99 97.13C74.03 97.13 74.06 97.13 74.1 97.13C74.01 97.14 74.0001 97.14 74.1401 97.13C74.6201 97.17 75.0201 97.21 75.1701 97.25C74.1601 97.43 70.93 97.43 69.84 97.52C68.64 97.48 70.34 97.43 69.69 97.34L68.0601 97.48C67.9001 97.3 64.86 97.18 67.7 97.08H65.1501C63.6501 96.97 61.5801 96.93 60.3001 97.01C59.1001 96.97 57.2601 97.21 58.3101 97.07L54.3001 97.18L54.26 97.14C50.31 97.12 46.12 97.44 41.6 97.11C40.27 97.16 38.8901 97.21 36.6701 97.16L36.24 97.01C34.53 97.06 31.11 96.86 30.38 97.01C28.54 96.59 22.09 96.92 19.08 96.85L18.97 97.05C17.94 97.05 16.92 97.05 15.85 97.08C15.32 97.08 14.74 97.12 14.2 97.11C13.66 97.11 13.1 97.11 12.51 97.01L12.63 97.21C10.52 97.13 7.40005 95.57 5.26005 93.09C5.36005 93.15 5.55004 93.33 5.75004 93.56C5.97004 93.78 6.22009 94.02 6.43009 94.23C5.11009 92.8 3.82008 91.2 3.04008 89.34L2.75004 88.65L2.53007 87.94C2.36007 87.47 2.3 86.98 2.21 86.5C2.12 86.02 2.14002 85.54 2.11002 85.07C2.11002 84.59 2.14008 84.09 2.17008 83.62C2.11008 82.67 2.13008 81.99 2.17008 81.33C2.17008 81.42 2.17008 81.5 2.17008 81.56C2.17008 81.46 2.17008 81.32 2.17008 81.17C2.20008 80.75 2.23005 80.32 2.26005 79.86C2.22005 80.26 2.18007 80.63 2.16007 80.96C2.16007 80.23 2.13 79.13 2.09 78.04L2.28007 77.58C2.28007 77.49 2.28007 77.42 2.28007 77.33C2.35007 76.27 2.19009 76.47 2.05009 77.04C2.02009 76.49 1.98009 75.99 1.93009 75.61C2.24009 74.75 1.83007 72.77 2.16007 71.59C2.00007 70.86 2.03999 66.14 1.69999 65.56C1.73999 65.52 1.76006 65.2 1.77006 65.79C1.81006 64.58 1.85004 63.37 1.75004 62.29L1.99003 61.78L1.66007 59.14C1.81007 57.54 1.88999 56.87 2.07999 58.46C1.78999 54.62 1.96998 55.34 1.68998 52.07L1.85001 52.23C1.85001 51.06 1.63005 49.19 1.76005 48.49C2.06005 45.88 1.79999 35.56 2.07999 28.85C1.61999 30.15 2.29009 25.73 1.93009 25.47C2.04009 25.08 2.09999 24.14 2.19999 25.23C2.08999 21.81 2.36998 20.09 2.06998 17.72C2.17998 17.33 2.23009 18.45 2.30009 18.1C2.28009 17.83 2.20006 17.01 2.27006 16.66C2.34006 16.31 2.36007 17.16 2.41007 17.7C2.41007 15.96 2.30001 14.97 2.22001 14.48C2.12001 13.95 1.95999 13.79 1.82999 13.65C2.17999 11.97 2.49003 11.2 2.74003 9.96002C3.11003 9.46002 3.58007 8.62002 2.78007 10.52C2.98007 9.98002 3.75 8.34999 4.84 7.10999C5.88 5.82999 7.13001 4.96 7.10001 4.81C7.27001 4.71 7.60999 4.49998 7.94999 4.28998C8.27999 4.05998 8.62005 3.85998 8.76005 3.78998C9.06005 3.64998 9.3201 3.52997 9.5601 3.40997C9.8101 3.31997 10.03 3.23998 10.23 3.16998C10.63 3.00998 10.98 2.92998 11.33 2.84998C11.67 2.75998 12.02 2.67 12.44 2.62C12.65 2.59 12.88 2.55001 13.13 2.51001C13.39 2.49001 13.67 2.48002 14 2.46002H13.2801C14.2701 2.07002 15.4801 2.32998 17.6401 2.28998L17.58 2.32001C22.56 2.54001 19.7301 2.20997 24.6401 2.46997L24.37 2.28003C24.83 1.87003 28.72 2.52 31.57 2.37L30.5401 2.26001C32.1001 2.12001 34.89 2.82 36.46 2.87C36.8 2.91 35.92 2.93001 35.45 2.95001C39.54 3.19001 35.9801 2.70001 39.0301 2.64001C39.5901 2.77001 38.31 2.98001 40.36 3.01001C41.38 3.12001 46.32 2.57002 49.12 2.83002C48.5 2.73002 47.8901 2.61998 49.3101 2.53998C51.4801 2.49998 55.1801 2.92999 57.1401 2.60999C57.4201 2.63999 57.5201 2.67 57.5301 2.69C59.1901 2.61 62.9301 2.55 63.9301 2.37C65.4601 3.03 74.25 2.04997 74.21 2.65997L79.32 2.63L79.19 2.69C82.45 2.73 83.61 2.58 84.76 2.44C85.51 2.48 84.9601 2.54001 84.9001 2.57001C89.6701 2.69001 90.1401 2.66999 94.1401 2.35999L94.5601 2.56C95.6401 2.45 101.46 2.87001 106.13 2.64001C106.08 2.66001 105.99 2.69998 105.62 2.72998C110.88 2.49998 118.22 3.28 120.15 2.56L123.62 2.38C119.13 2.32 124.29 2.07001 122.44 1.95001C124.21 1.91001 127.01 2.17001 124.84 2.20001L124.5 2.15997C123.7 2.52997 130.08 2.28999 129.96 2.54999C138.8 2.52999 147.42 2.74 155.7 2.75L154.75 2.46002L157.64 2.47998C158.4 2.54998 158.66 2.71001 156.6 2.70001C157.68 2.86001 160.06 2.56 160.12 2.5C164.16 2.62 158.54 2.83998 159.78 2.84998L161.46 2.83002L161.08 2.79999C162.44 2.67999 162.56 2.56001 165.04 2.57001C166.61 2.63001 165.84 2.75001 166.46 2.76001C166.46 2.78001 166.68 2.78003 167.4 2.78003C168.54 2.81003 169.66 2.98 170.75 3.31C170.33 3.14 169.91 2.90003 169.47 2.78003C171.01 2.93003 172.58 3.77 171.15 2.94C171.68 3.24 172.72 3.64002 173.84 4.40002C174.97 5.13002 176.19 6.17998 177.14 7.41998C178.1 8.64998 178.8 10.03 179.17 11.21C179.35 11.8 179.48 12.32 179.56 12.75C179.62 13.18 179.66 13.5 179.67 13.68C179.85 14.72 179.89 15.85 179.9 17.04C179.92 18.23 179.91 19.47 179.9 20.85C179.95 20.16 180.21 19.75 180.17 22.13C179.64 21.26 179.94 26.49 179.56 28.42C179.81 26.7 179.62 35.19 179.98 32.49C179.94 34.48 179.78 32.61 179.66 34.12C179.87 38.85 179.53 44.55 179.6 50.4C179.67 50.49 179.78 49.51 179.88 50.77L179.53 53.86C179.56 55.02 179.93 54.92 179.69 57.03C179.75 56.73 179.84 56.29 179.86 57.06C179.69 62.79 179.76 68.64 179.79 74.52C179.81 77.46 179.81 80.4 179.78 83.34C179.77 84.84 179.74 86.22 179.4 87.56C179.07 88.9 178.48 90.16 177.71 91.28C178.57 90.08 178.11 90.94 177.51 91.9C177.93 91.29 177.65 92.01 177.8 91.94C176.86 93.19 175.7 94.25 174.39 95.06C174.14 95.42 173.07 96.09 171.96 96.55C171.4 96.76 170.85 96.97 170.39 97.08C169.94 97.22 169.61 97.32 169.49 97.39C169.98 97.31 170.44 97.13 170.92 97.01C170 97.37 170.72 97.44 171.65 97.27C171.89 97.23 172.13 97.19 172.38 97.15C172.61 97.09 172.84 97.04 173.04 96.99C173.43 96.9 173.71 96.87 173.69 96.99C174.65 96.27 176.01 95.51 177.3 94.27C178.58 93.06 179.76 91.35 180.17 89.41C180.54 88.62 180.03 90.15 180.27 89.74C180.47 88.74 180.81 87.58 180.99 85.36L181.02 85.61C181.05 79.54 181.16 77.01 181.28 70.25L181.09 70.75C181.12 69.3 181.17 68.99 181.22 68.32C180.93 66.66 181.2 72.39 180.89 70.88C181.27 68.96 180.89 60.65 181.33 59.35C181.33 57.12 181.11 60 181.11 57.77L181.23 57.18L181.08 56.62C181.11 55.16 181.25 54.42 181.35 54.36C181.34 54.71 181.38 55.37 181.39 55.75C181.53 53.85 181.34 50.4 181.39 49.75L181.32 51.89C181.21 45.8 181.36 38.37 181.12 32.49L181.03 32.94C180.87 28.45 181.13 29.34 181.05 24.41L181.07 24.59C180.98 23.6 180.94 22.28 180.95 20.94C181.05 22.19 181.15 18.6 181.27 20.23C181.08 15.35 181.16 17.83 180.78 14.59L180.89 13.81C180.57 12.71 180.65 12.58 179.79 10.21C180.63 12.13 179.44 8.59 180.4 10.75C179.66 8.11 178.3 6.45003 177.1 5.34003C175.88 4.22003 174.79 3.55999 173.81 2.73999C172.58 2.38999 173.66 2.88999 174.74 3.60999C175.83 4.32999 176.87 5.32 176.33 4.88C176.71 5.33 176.3 5.01002 175.6 4.52002C174.9 4.04002 173.88 3.39999 173.13 3.04999C172.75 2.85999 172.42 2.65998 172.04 2.47998C171.67 2.28998 171.28 2.06001 170.78 1.89001C169.83 1.46001 168.36 1.13997 166.27 1.15997C166.68 1.15997 166.71 1.13 167.12 1.13C165.57 1.03 164.07 1.26998 162.17 1.09998C161.1 1.34998 159.69 1.09002 159.39 1.40002L163.2 1.33002C161.04 1.41002 159.01 1.77998 155.46 1.59998C155.74 1.53998 156.8 1.44997 157.52 1.40997C156.48 1.31997 155.52 1.47 154.44 1.38C154.75 1.07 159.07 1.31001 161.38 1.07001C160.26 0.940007 157 1.30002 158.17 0.960022C156.5 1.39002 154.08 0.90999 151.26 1.23999L151.45 1.04999C151 1.07999 150.08 1.16997 149.26 1.15997L150.74 0.919983C148.46 1.12998 146.35 0.739976 144.17 0.849976C148.74 0.849976 145.2 1.08002 147.13 1.21002C141.49 1.46002 143.89 0.719998 137.57 0.809998C138.43 0.779998 140.78 0.92001 139.44 1.01001C138.24 0.97001 136.65 0.899988 135.91 0.799988C131.73 0.839988 136.55 0.989985 134.77 1.10999C133.35 0.879985 132.72 1.20003 130.88 1.28003V1.09003C126.1 0.970027 129.6 1.49003 125.31 1.34003L127.12 1.07001L124.88 1.14001L125.34 0.919983C122.91 1.07998 122.15 1.03998 119.76 0.97998C120.31 1.11998 119.45 1.33002 117.34 1.33002C115.9 1.22002 118.15 1.14999 115.15 1.17999C115.83 1.05999 116.57 0.910027 117.87 1.09003C118 1.03003 118.54 0.969973 118.67 0.909973C117.12 0.779973 114.77 0.880005 113.69 0.880005C114.11 0.880005 114.61 0.899983 114.86 0.919983L110.52 1.19C109.84 1.12 110.38 1.06 110.92 1C110.04 1.02 109.43 1.11 108.14 1.13C108.47 0.970005 108.39 0.80999 110.22 0.73999L106.09 0.909973C105.81 0.839973 103.97 0.719983 104.5 0.669983C102.21 0.579983 98.88 0.969976 95.84 0.849976C95.68 0.879976 95.37 0.909993 94.72 0.929993C91.86 0.889993 89.33 0.699983 85.95 0.919983L84.0301 0.640015C81.3801 0.700015 86.63 0.989976 82.22 1.09998C79.09 1.18998 81.05 0.860029 79.96 0.780029C78.41 0.920029 75.7 1.20998 72.83 0.97998C73.78 0.92998 74.5301 0.970012 75.4101 0.950012L75.4201 0.940002ZM42.72 1.06C43.35 1.02 44.62 0.90001 45.08 1.01001C44.36 1.23001 43.8 1.12 42.72 1.06ZM0.890052 15.87C0.810052 15.41 0.870027 14.66 0.990027 13.82C0.980027 14.43 0.920052 15.13 0.890052 15.87ZM63.1801 97.18C63.1801 97.18 63.13 97.18 63.11 97.18C61.7 97.11 62.2001 97.13 63.1801 97.18ZM66.11 97.26C66.4 97.23 66.3801 97.21 66.26 97.18C66.0601 97.23 65.4001 97.23 64.6501 97.22C64.8601 97.27 65.24 97.3 66.11 97.26ZM166.77 2.69L166.2 2.64001C167.49 2.58001 167.13 2.64 166.77 2.69Z" fill="white"/>
<path d="M1.57996 10.1C1.67996 9.92996 1.73002 9.89998 1.77002 9.86998C1.83002 9.61998 1.79996 9.58996 1.57996 10.1Z" fill="white"/>
<path d="M95.76 0.830017H95.86C95.91 0.830017 95.94 0.809988 95.96 0.799988L95.76 0.830017Z" fill="white"/>
<path d="M20.66 98.89C20.06 98.86 19.72 98.83 19.49 98.79C19.46 98.84 19.73 98.88 20.66 98.89Z" fill="white"/>
<path d="M81.67 96.94L79.79 96.99C80.7 96.99 81.02 97.02 81.48 97.05C81.44 97.01 81.08 96.94 81.67 96.94Z" fill="white"/>
<path d="M97.9899 98.13C98.2599 98.11 98.5699 98.13 98.8399 98.1L98.76 98.01C97.59 98.01 96.7699 98.09 97.9799 98.13H97.9899Z" fill="white"/>
<path d="M83.41 97.58C83.56 97.74 84.74 97.69 86.05 97.66H85.8199C86.2099 97.43 84.8 97.51 83.41 97.58Z" fill="white"/>
<path d="M86.36 97.6501C86.77 97.6501 87.18 97.6401 87.58 97.6501C87.73 97.5601 87.09 97.6301 86.36 97.6501Z" fill="white"/>
<path d="M69.8399 97.16C70.4599 97.2 70.2299 96.95 70.5899 97.02C71.2899 96.81 66.4299 97.27 69.8399 97.16Z" fill="white"/>
<path d="M84.48 98.11L84 97.91L83.27 98.07L84.48 98.11Z" fill="white"/>
<path d="M74.0799 97.96L76.18 98.02C76.18 98.02 76.4199 97.97 76.7399 97.95C75.4399 97.95 74.0199 97.9 74.0699 97.96H74.0799Z" fill="white"/>
<path d="M76.75 97.95C77.43 97.95 78.0699 97.95 78.4399 97.92C78.0699 97.92 77.29 97.92 76.75 97.95Z" fill="white"/>
<path d="M81.6 98.17L80.98 98.13L79.49 98.11L81.6 98.17Z" fill="white"/>
<path d="M51.4599 97.92L49.16 97.98C48.93 98.05 49.55 98.09 50.41 98.06C50.96 98.01 51.8099 97.99 51.4599 97.92Z" fill="white"/>
<path d="M58.4 98.47C57.78 98.43 57.74 98.38 57.39 98.32L57.3199 98.57L58.4 98.47Z" fill="white"/>
<path d="M51.7099 98.53C51.4799 98.6 48.38 98.73 51.29 98.71C51.52 98.64 53.8199 98.59 51.7099 98.53Z" fill="white"/>
<path d="M17.11 98.22L17.6899 98.21L17.61 97.81L17.11 98.22Z" fill="white"/>
<path d="M0.230003 77.76C0.130003 80.48 0.480008 78.41 0.360008 80.87C0.460008 81.51 0.460061 78.86 0.540061 79.52C0.440061 77.88 0.500003 77.02 0.230003 77.77V77.76Z" fill="white"/>
<path d="M0.540039 79.51C0.560039 79.77 0.579976 80.05 0.599976 80.35C0.569976 79.87 0.560039 79.65 0.540039 79.51Z" fill="white"/>
<path d="M171.6 96.32L170.83 96.56L170.04 96.72C170.38 96.67 170.74 96.66 171.08 96.57L171.6 96.32Z" fill="white"/>
<path d="M168.62 97.36C168.48 97.3 168.34 97.21 168.21 97.13L167.23 97.41C167.6 97.37 168.33 97.33 168.62 97.35V97.36Z" fill="white"/>
<path d="M37.86 0.539978L37.73 0.599976C38 0.669976 38.41 0.669993 39.23 0.679993L37.86 0.539978Z" fill="white"/>
<path d="M61.59 0.72998H61.1899L61.95 0.960022L61.59 0.72998Z" fill="white"/>
<path d="M81.51 0.429993C80.7 0.439993 79.7401 0.450022 78.9301 0.460022C80.7001 0.420022 81.73 0.719993 81.51 0.429993Z" fill="white"/>
<defs>
<radialGradient id="paint0_radial_8_88291" cx="0" cy="0" r="1" gradientUnits="userSpaceOnUse" gradientTransform="translate(90.85 50.02) scale(92.01 92.01)">
<stop stop-color="#B83232"/>
<stop offset="0.3" stop-color="#B53030"/>
<stop offset="0.52" stop-color="#AC2B29"/>
<stop offset="0.7" stop-color="#9C231E"/>
<stop offset="0.87" stop-color="#86170F"/>
<stop offset="1" stop-color="#700B00"/>
</radialGradient>
</defs>
</svg>
