<svg width="25" height="25" viewBox="0 0 25 25" fill="none" xmlns="http://www.w3.org/2000/svg">
<g clip-path="url(#clip0_2852_3941)">
<path d="M6.42839 18.2258C3.18424 14.9816 3.18764 9.69859 6.43699 6.44924C9.68634 3.19989 14.9694 3.19649 18.2135 6.44064C21.4581 9.68525 21.4543 14.9678 18.2049 18.2172C14.9555 21.4665 9.67254 21.4699 6.42839 18.2258ZM17.3006 7.3535C14.5587 4.6116 10.0944 4.61486 7.34852 7.36077C4.60261 10.1067 4.59935 14.571 7.34125 17.3129C10.0832 20.0548 14.5475 20.0515 17.2934 17.3056C20.0393 14.5597 20.0425 10.0954 17.3006 7.3535Z" fill="white"/>
<path d="M9.05463 13.0218L15.5049 13.0171C15.8609 13.0168 16.1501 12.7276 16.1504 12.3716C16.1506 12.0155 15.8619 11.7267 15.5058 11.727L9.05557 11.7317C8.69952 11.732 8.41032 12.0212 8.41006 12.3772C8.4098 12.7333 8.69857 13.022 9.05463 13.0218Z" fill="white"/>
</g>
<defs>
<clipPath id="clip0_2852_3941">
<rect width="16.6423" height="16.6667" fill="white" transform="matrix(0.707107 0.707107 0.707107 -0.707107 0.544434 12.3418)"/>
</clipPath>
</defs>
</svg>
