<svg width="17" height="14" viewBox="0 0 17 14" fill="none" xmlns="http://www.w3.org/2000/svg">
<g clip-path="url(#clip0_1339_1501)">
<path d="M16.5 5.25C16.5 4.78587 16.2893 4.34075 15.9142 4.01256C15.5391 3.68437 15.0304 3.5 14.5 3.5H12.5C12.5 2.57174 12.0786 1.6815 11.3284 1.02513C10.5783 0.368749 9.56087 0 8.5 0C7.43913 0 6.42172 0.368749 5.67157 1.02513C4.92143 1.6815 4.5 2.57174 4.5 3.5H2.5C1.96957 3.5 1.46086 3.68437 1.08579 4.01256C0.710714 4.34075 0.5 4.78587 0.5 5.25L0.5 11.0833C0.501059 11.8566 0.852588 12.5979 1.47748 13.1447C2.10237 13.6915 2.9496 13.9991 3.83333 14H13.1667C14.0504 13.9991 14.8976 13.6915 15.5225 13.1447C16.1474 12.5979 16.4989 11.8566 16.5 11.0833V5.25ZM5.83333 3.5C5.83333 2.88116 6.11428 2.28767 6.61438 1.85008C7.11448 1.4125 7.79276 1.16667 8.5 1.16667C9.20724 1.16667 9.88552 1.4125 10.3856 1.85008C10.8857 2.28767 11.1667 2.88116 11.1667 3.5H5.83333Z" fill="#F1C357"/>
</g>
<defs>
<clipPath id="clip0_1339_1501">
<rect width="16" height="14" fill="white" transform="translate(0.5)"/>
</clipPath>
</defs>
</svg>
