<svg width="13" height="11" viewBox="0 0 13 11" fill="none" xmlns="http://www.w3.org/2000/svg">
<path fill-rule="evenodd" clip-rule="evenodd" d="M6.92089 9.33745C6.45881 9.33745 6.08373 9.70989 6.08373 10.1687C6.08373 10.6276 6.45881 11 6.92089 11C7.38298 11 7.75805 10.6276 7.75805 10.1687C7.75805 9.70989 7.38298 9.33745 6.92089 9.33745ZM3.27959 9.33745C2.8175 9.33745 2.44242 9.70989 2.44242 10.1687C2.44242 10.6276 2.8175 11 3.27959 11C3.74167 11 4.11675 10.6276 4.11675 10.1687C4.11675 9.70989 3.74167 9.33745 3.27959 9.33745ZM12.4796 1.03341H11.297C11.0667 1.03341 10.8644 1.18594 10.8028 1.40667C10.4044 2.83071 9.54311 5.9082 9.14306 7.3376C8.95531 8.00932 8.3392 8.47394 7.63775 8.47394H2.58313C1.86586 8.47394 1.24059 7.98906 1.067 7.29792C0.714814 5.90034 0.0154428 3.12213 0.0154428 3.12213C-0.0232725 2.96795 0.0116968 2.80425 0.110358 2.679C0.20902 2.55334 0.360133 2.48018 0.520406 2.48018H7.75805C8.0453 2.48018 8.27842 2.71166 8.27842 2.99688C8.27842 3.2821 8.0453 3.51358 7.75805 3.51358H1.18689L2.07692 7.04825C2.13479 7.27891 2.34376 7.44053 2.58313 7.44053H7.63775C7.87212 7.44053 8.07777 7.28511 8.14063 7.06107C8.54068 5.63166 9.40157 2.55417 9.79997 1.13013C9.98605 0.462553 10.5988 0 11.297 0H12.4796C12.7669 0 13 0.231483 13 0.516703C13 0.801924 12.7669 1.03341 12.4796 1.03341Z" fill="white"/>
</svg>
