<svg width="25" height="25" viewBox="0 0 25 25" fill="none" xmlns="http://www.w3.org/2000/svg">
<g clip-path="url(#clip0_1939_5848)">
<path d="M12.5 25C19.4036 25 25 19.4036 25 12.5C25 5.59644 19.4036 0 12.5 0C5.59644 0 0 5.59644 0 12.5C0 19.4036 5.59644 25 12.5 25Z" fill="#FFD93B"/>
<path d="M25.0004 12.5004C25.0004 19.4066 19.4012 25.0004 12.5004 25.0004C8.56836 25.0004 5.06289 23.1879 2.77148 20.3496C4.91211 22.084 7.64648 23.1207 10.6152 23.1207C17.5215 23.1207 23.1152 17.527 23.1152 10.6207C23.1152 7.64648 22.084 4.91758 20.3496 2.77148C23.1824 5.06289 25.0004 8.57305 25.0004 12.5004Z" fill="#F4C534"/>
<path d="M10.8234 11.6664C10.8234 12.5414 10.1203 13.2547 9.23984 13.2547C8.35938 13.2547 7.65156 12.5414 7.65156 11.6664C7.65156 11.5203 7.67266 11.375 7.70859 11.2445H5.94297C5.62031 11.2445 5.35938 10.9844 5.35938 10.6609C5.35938 10.3375 5.62031 10.0781 5.94375 10.0781H9.24062C10.1203 10.0781 10.8234 10.7867 10.8234 11.6664Z" fill="#3E4347"/>
<path d="M19.6418 11.6664C19.6418 12.5414 18.9387 13.2547 18.0582 13.2547C17.1832 13.2547 16.4699 12.5414 16.4699 11.6664C16.4699 11.5203 16.491 11.375 16.527 11.2445H14.7613C14.4387 11.2445 14.1777 10.9844 14.1777 10.6609C14.1777 10.3375 14.4387 10.0781 14.7613 10.0781H18.0582C18.9387 10.0781 19.6418 10.7867 19.6418 11.6664Z" fill="#3E4347"/>
<path d="M10.74 7.59965C10.9533 7.74574 11.0056 8.03168 10.8595 8.24574C10.7189 8.45902 10.4275 8.51137 10.2134 8.37074C8.64545 7.30277 6.50482 7.70902 5.43764 9.27152C5.2931 9.48012 5.01498 9.53949 4.78685 9.39652C4.57826 9.25043 4.52123 8.95902 4.66732 8.75043C6.02123 6.76059 8.74467 6.24496 10.74 7.59965Z" fill="#E9B02C"/>
<path d="M20.2092 9.39695C20.003 9.53445 19.7147 9.48992 19.5631 9.27195C18.4951 7.70945 16.3545 7.3032 14.7873 8.37117C14.574 8.51179 14.2819 8.45945 14.1412 8.24617C13.9951 8.03289 14.0475 7.74617 14.2608 7.60007C16.2506 6.24617 18.9795 6.76179 20.3334 8.75086C20.4795 8.95945 20.4225 9.25086 20.2092 9.39695Z" fill="#E9B02C"/>
<path d="M17.5578 19.4539C17.0312 19.7602 15.2148 18.3344 12.6406 18.4117C10.0656 18.3336 8.25 19.7594 7.72344 19.4539C7.07891 19.2125 8.55391 16.1984 12.6406 16.1914C16.7273 16.1984 18.2031 19.2133 17.5578 19.4539Z" fill="#3E4347"/>
</g>
<defs>
<clipPath id="clip0_1939_5848">
<rect width="25" height="25" fill="white"/>
</clipPath>
</defs>
</svg>
