<svg width="18" height="17" viewBox="0 0 18 17" fill="none" xmlns="http://www.w3.org/2000/svg">
<g clip-path="url(#clip0_1925_950)">
<path d="M8.91199 16.666C4.32407 16.666 0.59082 12.928 0.59082 8.33268C0.59082 3.7374 4.32407 -0.000650406 8.91199 -0.000650406C13.5006 -0.000650406 17.2332 3.7374 17.2332 8.33268C17.2332 12.928 13.4999 16.666 8.91199 16.666ZM8.91199 1.29033C5.03436 1.29033 1.87992 4.44938 1.87992 8.33268C1.87992 12.216 5.03436 15.375 8.91199 15.375C12.7896 15.375 15.9441 12.216 15.9441 8.33268C15.9441 4.44938 12.7896 1.29033 8.91199 1.29033Z" fill="white"/>
<path d="M10.7351 11.1282L6.17746 6.56386C5.92587 6.31191 5.92587 5.90293 6.17746 5.65098C6.42904 5.39903 6.83742 5.39903 7.08901 5.65098L11.6467 10.2153C11.8983 10.4673 11.8983 10.8762 11.6467 11.1282C11.3951 11.3802 10.9867 11.3802 10.7351 11.1282Z" fill="white"/>
<path d="M7.08909 11.1282L11.6468 6.56386C11.8983 6.31191 11.8983 5.90293 11.6468 5.65098C11.3952 5.39903 10.9868 5.39903 10.7352 5.65098L6.17753 10.2153C5.92595 10.4673 5.92595 10.8762 6.17753 11.1282C6.42912 11.3802 6.8375 11.3802 7.08909 11.1282Z" fill="white"/>
</g>
<defs>
<clipPath id="clip0_1925_950">
<rect width="16.6423" height="16.6667" fill="white" transform="matrix(1 0 0 -1 0.59082 16.666)"/>
</clipPath>
</defs>
</svg>
