<svg width="18" height="17" viewBox="0 0 18 17" fill="none" xmlns="http://www.w3.org/2000/svg">
<g clip-path="url(#clip0_1892_39490)">
<path d="M8.91248 16.667C4.32456 16.667 0.591309 12.9289 0.591309 8.33366C0.591309 3.73838 4.32456 0.000326157 8.91248 0.000326157C13.5011 0.000326157 17.2337 3.73838 17.2337 8.33366C17.2337 12.9289 13.5004 16.667 8.91248 16.667ZM8.91248 1.29131C5.03485 1.29131 1.88041 4.45036 1.88041 8.33366C1.88041 12.217 5.03485 15.376 8.91248 15.376C12.7901 15.376 15.9446 12.217 15.9446 8.33366C15.9446 4.45036 12.7901 1.29131 8.91248 1.29131Z" fill="#F25757"/>
<path d="M10.7356 11.1302L6.17794 6.56582C5.92636 6.31387 5.92636 5.90488 6.17794 5.65293C6.42953 5.40098 6.83791 5.40098 7.0895 5.65293L11.6472 10.2173C11.8988 10.4692 11.8988 10.8782 11.6472 11.1302C11.3956 11.3821 10.9872 11.3821 10.7356 11.1302Z" fill="#F25757"/>
<path d="M7.08957 11.1302L11.6473 6.56582C11.8988 6.31387 11.8988 5.90488 11.6473 5.65293C11.3957 5.40098 10.9873 5.40098 10.7357 5.65293L6.17802 10.2173C5.92644 10.4692 5.92644 10.8782 6.17802 11.1302C6.42961 11.3821 6.83799 11.3821 7.08957 11.1302Z" fill="#F25757"/>
</g>
<defs>
<clipPath id="clip0_1892_39490">
<rect width="16.6423" height="16.6667" fill="white" transform="matrix(1 0 0 -1 0.591309 16.667)"/>
</clipPath>
</defs>
</svg>
