<svg width="24" height="16" viewBox="0 0 24 16" fill="none" xmlns="http://www.w3.org/2000/svg">
<path d="M20.7047 2.22092C18.108 0.357637 15.6885 0.280176 15.2262 0.270508L14.9311 0.550527C18.2458 1.47742 19.849 2.92574 19.849 2.92574C17.0039 1.55166 14.3228 1.06844 12 1.03938C9.67727 1.06867 6.99608 1.55166 4.151 2.92574C4.151 2.92574 5.75425 1.47742 9.06895 0.550527L8.77382 0.270508C8.31157 0.280176 5.89194 0.357403 3.2953 2.22092C3.2953 2.22092 0.393738 7.08725 0.393738 13.0639C0.492058 12.9481 2.19368 15.6323 6.58048 15.7288C6.58048 15.7288 7.31817 14.9081 7.84926 14.1839C5.29194 13.4598 4.32807 12.0115 4.32807 12.0115C6.98671 13.6555 9.46997 14.288 12 14.2058C14.53 14.2878 17.0133 13.6555 19.6719 12.0115C19.6719 12.0115 18.708 13.4598 16.1504 14.1839C16.6816 14.9081 17.4193 15.7288 17.4193 15.7288C21.806 15.6323 23.5076 12.9481 23.6059 13.0639C23.6062 7.08725 20.7047 2.22092 20.7047 2.22092ZM8.42934 11.1908C7.30803 11.1908 6.40317 10.2638 6.40317 9.12449C6.40317 7.98514 7.30803 7.05824 8.42934 7.05824V7.06791C9.54081 7.06791 10.4555 7.99486 10.4555 9.13416C10.4557 10.2638 9.55077 11.1908 8.42958 11.1908H8.42934ZM15.5702 11.1908C14.4489 11.1908 13.544 10.2638 13.544 9.13416C13.544 7.99486 14.4587 7.06791 15.5702 7.06791V7.05824C16.6915 7.05824 17.5963 7.9852 17.5963 9.12449C17.5963 10.2638 16.6917 11.1908 15.5704 11.1908H15.5702Z" fill="white"/>
</svg>
