<svg width="141" height="35" viewBox="0 0 141 35" fill="none" xmlns="http://www.w3.org/2000/svg">
<path d="M5.12 33.896H0V13.64H9.024C11.0507 13.64 12.672 13.8853 13.888 14.376C15.104 14.8666 15.9787 15.6666 16.512 16.776C17.0453 17.8853 17.312 19.3893 17.312 21.288C17.312 23.08 17.0453 24.5413 16.512 25.672C15.9787 26.7813 15.104 27.6026 13.888 28.136C12.672 28.6693 11.0507 28.936 9.024 28.936H5.12V33.896ZM8.192 17.832H5.12V24.744H8.192C9.70667 24.744 10.72 24.488 11.232 23.976C11.744 23.464 12 22.568 12 21.288C12 20.072 11.744 19.1973 11.232 18.664C10.72 18.1093 9.70667 17.832 8.192 17.832Z" fill="white"/>
<path d="M20.0312 33.896V13.64H35.0713V17.8H25.1513V21.64H33.7593V25.8H25.1513V29.736H35.0713V33.896H20.0312Z" fill="white"/>
<path d="M42.745 33.896H37.625V13.64H47.289C49.8277 13.64 51.673 14.216 52.825 15.368C53.9983 16.4986 54.585 18.1733 54.585 20.392C54.585 22.056 54.169 23.4853 53.337 24.68C52.505 25.8533 51.4063 26.5893 50.041 26.888L50.009 26.984C50.5423 27.3253 51.129 27.8906 51.769 28.68C52.409 29.4693 53.0383 30.3333 53.657 31.272C54.297 32.1893 54.8623 33.0533 55.353 33.864V33.896H49.401L45.945 28.776C45.6463 28.328 45.401 28.008 45.209 27.816C45.0383 27.624 44.825 27.5066 44.569 27.464C44.3343 27.4213 43.9503 27.4 43.417 27.4H42.745V33.896ZM46.457 17.8H42.745V23.24H46.457C47.5237 23.24 48.2597 23.0266 48.665 22.6C49.0917 22.1733 49.305 21.48 49.305 20.52C49.305 19.56 49.0917 18.8666 48.665 18.44C48.2597 18.0133 47.5237 17.8 46.457 17.8Z" fill="white"/>
<path d="M57.738 28.68C58.6767 29 59.7007 29.256 60.81 29.448C61.9407 29.6186 63.0607 29.704 64.17 29.704C65.6847 29.704 66.8047 29.64 67.53 29.512C68.2767 29.3626 68.7673 29.1386 69.002 28.84C69.2367 28.5413 69.354 28.1573 69.354 27.688C69.354 27.2826 69.2687 26.9626 69.098 26.728C68.9273 26.4933 68.5967 26.312 68.106 26.184C67.6153 26.0346 66.89 25.9173 65.93 25.832L63.818 25.64C62.2393 25.4906 60.9913 25.16 60.074 24.648C59.178 24.136 58.538 23.4533 58.154 22.6C57.7913 21.7253 57.61 20.68 57.61 19.464C57.61 18.0133 57.898 16.84 58.474 15.944C59.0713 15.048 60.0313 14.3973 61.354 13.992C62.6767 13.5653 64.4367 13.352 66.634 13.352C69.4927 13.352 71.85 13.7253 73.706 14.472L73.61 18.824L73.514 18.952C71.402 18.2053 69.194 17.832 66.89 17.832C65.7807 17.832 64.9273 17.896 64.33 18.024C63.7327 18.1306 63.3167 18.312 63.082 18.568C62.8473 18.824 62.73 19.1866 62.73 19.656C62.73 20.1253 62.8047 20.4773 62.954 20.712C63.1247 20.9466 63.4553 21.128 63.946 21.256C64.4367 21.3626 65.1513 21.4693 66.09 21.576L68.106 21.8C69.8127 21.992 71.1247 22.3333 72.042 22.824C72.9593 23.3146 73.5887 23.976 73.93 24.808C74.2927 25.6186 74.474 26.6106 74.474 27.784C74.474 29.2133 74.1647 30.408 73.546 31.368C72.9487 32.3066 71.9673 33.0106 70.602 33.48C69.2367 33.9493 67.4127 34.184 65.13 34.184C63.6367 34.184 62.2927 34.1093 61.098 33.96C59.9033 33.7893 58.7407 33.5653 57.61 33.288V28.776L57.738 28.68Z" fill="white"/>
<path d="M77.0475 23.752C77.0475 21.1706 77.3355 19.1226 77.9115 17.608C78.5088 16.0933 79.5222 15.0053 80.9515 14.344C82.4022 13.6826 84.4182 13.352 86.9995 13.352C88.9408 13.352 90.5515 13.5333 91.8315 13.896C93.1115 14.2586 94.1248 14.8453 94.8715 15.656C95.6182 16.4666 96.1408 17.544 96.4395 18.888C96.7595 20.2106 96.9195 21.832 96.9195 23.752C96.9195 25.6933 96.7595 27.336 96.4395 28.68C96.1408 30.0026 95.6182 31.0693 94.8715 31.88C94.1248 32.6906 93.1115 33.2773 91.8315 33.64C90.5515 34.0026 88.9408 34.184 86.9995 34.184C85.0582 34.184 83.4475 34.0026 82.1675 33.64C80.8875 33.2773 79.8742 32.6906 79.1275 31.88C78.3808 31.0693 77.8475 30.0026 77.5275 28.68C77.2075 27.336 77.0475 25.6933 77.0475 23.752ZM86.9995 29.704C88.3648 29.704 89.3888 29.5333 90.0715 29.192C90.7542 28.8506 91.2128 28.2533 91.4475 27.4C91.6822 26.5253 91.7995 25.3093 91.7995 23.752C91.7995 22.216 91.6822 21.0213 91.4475 20.168C91.2128 19.3146 90.7542 18.7173 90.0715 18.376C89.3888 18.0133 88.3648 17.832 86.9995 17.832C85.6555 17.832 84.6315 18.0133 83.9275 18.376C83.2448 18.7173 82.7755 19.3146 82.5195 20.168C82.2848 21.0213 82.1675 22.216 82.1675 23.752C82.1675 25.3093 82.2848 26.5253 82.5195 27.4C82.7755 28.2533 83.2448 28.8506 83.9275 29.192C84.6315 29.5333 85.6555 29.704 86.9995 29.704Z" fill="white"/>
<path d="M113.245 13.64H118.365V33.896H113.277L107.517 25.32C107.069 24.6373 106.696 24.0613 106.397 23.592C106.098 23.1226 105.821 22.6533 105.565 22.184C105.309 21.7146 105.021 21.16 104.701 20.52L104.605 20.648C104.904 21.672 105.085 22.632 105.149 23.528C105.213 24.4026 105.245 25.256 105.245 26.088V33.896H100.125V13.64H105.213L110.973 22.216C111.421 22.8773 111.794 23.4533 112.093 23.944C112.392 24.4133 112.669 24.8826 112.925 25.352C113.181 25.8213 113.469 26.376 113.789 27.016L113.885 26.888C113.672 25.992 113.512 25.128 113.405 24.296C113.298 23.4426 113.245 22.6 113.245 21.768V13.64Z" fill="white"/>
<path d="M140.779 33.8V33.896H135.339C135.189 33.384 135.008 32.7973 134.795 32.136C134.603 31.4746 134.389 30.7706 134.155 30.024H127.243C126.816 31.5173 126.421 32.808 126.059 33.896H120.619V33.832L127.179 13.64H134.219L140.779 33.8ZM130.635 17.288C130.421 18.376 130.112 19.6986 129.707 21.256C129.301 22.8133 128.875 24.4026 128.427 26.024H133.003C132.533 24.4026 132.096 22.8133 131.691 21.256C131.285 19.6986 130.976 18.376 130.763 17.288H130.635Z" fill="white"/>
<path d="M2.796 8.184H0.852V0.18H4.452C5.412 0.18 6.152 0.396 6.672 0.828C7.2 1.26 7.464 1.912 7.464 2.784C7.464 3.672 7.196 4.356 6.66 4.836C6.132 5.316 5.396 5.556 4.452 5.556H2.796V8.184ZM4.212 4.056C4.604 4.056 4.892 3.956 5.076 3.756C5.268 3.548 5.364 3.268 5.364 2.916C5.364 2.1 4.98 1.692 4.212 1.692H2.796V4.056H4.212Z" fill="white"/>
<path d="M15.9848 8.184L14.4008 5.424H13.2008V8.184H11.2568V0.18H15.1567C16.0767 0.18 16.7887 0.392 17.2927 0.816C17.7967 1.24 18.0487 1.872 18.0487 2.712C18.0487 3.232 17.9048 3.716 17.6168 4.164C17.3288 4.604 16.9287 4.9 16.4167 5.052L18.4567 8.184H15.9848ZM14.8328 3.996C15.5768 3.996 15.9487 3.6 15.9487 2.808C15.9487 2.44 15.8608 2.16 15.6848 1.968C15.5088 1.776 15.2527 1.68 14.9167 1.68H13.2008V3.996H14.8328Z" fill="white"/>
<path d="M25.413 8.352C24.189 8.352 23.233 8.004 22.545 7.308C21.857 6.612 21.513 5.572 21.513 4.188C21.513 2.828 21.849 1.796 22.521 1.092C23.201 0.38 24.165 0.0240004 25.413 0.0240004C26.637 0.0240004 27.593 0.372 28.281 1.068C28.977 1.756 29.325 2.792 29.325 4.176C29.325 5.536 28.985 6.572 28.305 7.284C27.633 7.996 26.669 8.352 25.413 8.352ZM25.413 6.756C26.045 6.756 26.521 6.556 26.841 6.156C27.161 5.756 27.321 5.096 27.321 4.176C27.321 3.256 27.161 2.6 26.841 2.208C26.529 1.808 26.053 1.608 25.413 1.608C24.781 1.608 24.305 1.808 23.985 2.208C23.673 2.608 23.517 3.272 23.517 4.2C23.517 5.112 23.673 5.768 23.985 6.168C24.305 6.56 24.781 6.756 25.413 6.756Z" fill="white"/>
<path d="M34.5847 8.34C33.9607 8.34 33.3327 8.192 32.7007 7.896V6.12C33.0207 6.344 33.2847 6.512 33.4927 6.624C33.7007 6.728 33.9087 6.78 34.1167 6.78C34.8527 6.78 35.2207 6.408 35.2207 5.664V0.18H37.1647V5.748C37.1647 6.668 36.9167 7.332 36.4207 7.74C35.9247 8.14 35.3127 8.34 34.5847 8.34Z" fill="white"/>
<path d="M41.2991 0.18H46.7831V1.68H43.2431V3.42H46.3151V4.932H43.2431V6.684H46.7831V8.184H41.2991V0.18Z" fill="white"/>
<path d="M54.3884 8.34C51.7644 8.34 50.4524 6.956 50.4524 4.188C50.4524 1.396 51.7644 0 54.3884 0C55.1964 0 56.0444 0.196 56.9324 0.588V2.28C56.1644 1.768 55.4044 1.512 54.6524 1.512C53.9164 1.512 53.3644 1.72 52.9964 2.136C52.6364 2.544 52.4564 3.228 52.4564 4.188C52.4564 5.148 52.6404 5.828 53.0084 6.228C53.3844 6.628 53.9604 6.828 54.7364 6.828C55.0564 6.828 55.4044 6.768 55.7804 6.648C56.1564 6.528 56.5404 6.34 56.9324 6.084V7.776C56.6044 7.944 56.2044 8.08 55.7324 8.184C55.2604 8.288 54.8124 8.34 54.3884 8.34Z" fill="white"/>
<path d="M62.523 1.68H60.279V0.18H66.747V1.68H64.467V8.184H62.523V1.68Z" fill="white"/>
</svg>
