<svg width="20" height="20" viewBox="0 0 20 20" fill="none" xmlns="http://www.w3.org/2000/svg">
<g clip-path="url(#clip0_863_1055)">
<path d="M9.99799 0C4.47624 0 0 4.47624 0 9.99799C0 15.5197 4.47624 19.9962 9.99799 19.9962C15.5197 19.9962 19.9962 15.5197 19.9962 9.99799C19.9899 4.4788 15.5174 0.00622435 9.99799 0ZM9.99799 18.9962C5.02838 18.9962 0.999744 14.9676 0.999744 9.99799C0.999744 5.02838 5.02838 0.999744 9.99799 0.999744C14.9676 0.999744 18.9962 5.02838 18.9962 9.99799C18.9906 14.9652 14.9652 18.9906 9.99799 18.9962Z" fill="white"/>
<path d="M8.82729 6.12262C8.61932 5.94084 8.30353 5.96207 8.12174 6.16986C7.94013 6.37782 7.96137 6.69362 8.16915 6.87541L11.7383 9.99821L8.16897 13.1212C7.961 13.303 7.93995 13.6188 8.12156 13.8266C8.30334 14.0345 8.61914 14.0558 8.82711 13.874L12.8263 10.3746C12.9348 10.2798 12.9971 10.1425 12.9971 9.99821C12.9971 9.85395 12.9348 9.71683 12.8263 9.62182L8.82729 6.12262Z" fill="white"/>
</g>
<defs>
<clipPath id="clip0_863_1055">
<rect width="20" height="20" fill="white"/>
</clipPath>
</defs>
</svg>
