<svg width="22" height="20" viewBox="0 0 22 20" fill="none" xmlns="http://www.w3.org/2000/svg">
<path d="M21.0991 12.4114V13.5387C21.0991 13.6034 21.0607 13.6609 21.0048 13.6861C20.6625 13.8371 19.4905 14.3909 19.0032 15.0885C17.7596 16.8703 16.8095 19.418 14.6856 19.418H5.82515C2.6848 19.418 0.140015 16.7894 0.140015 13.5459V13.4416C0.140015 13.3553 0.208128 13.2851 0.291957 13.2851H5.23133C5.32913 13.2851 5.40076 13.3786 5.39203 13.4775C5.35709 13.8084 5.41647 14.1464 5.56842 14.4538C5.86184 15.0669 6.46968 15.4499 7.12637 15.4499H9.57161V13.4847H7.15433C7.0303 13.4847 6.95698 13.3373 7.02857 13.233C7.05478 13.1917 7.08448 13.1485 7.11591 13.1C7.34469 12.7655 7.67132 12.2459 7.99617 11.6544C8.218 11.2553 8.43284 10.8291 8.60575 10.4012C8.64069 10.3239 8.66861 10.2448 8.69657 10.1675C8.74372 10.0308 8.79264 9.90317 8.82754 9.77554C8.86249 9.66766 8.89044 9.55438 8.9184 9.44829C9.00049 9.0851 9.0354 8.70034 9.0354 8.30118C9.0354 8.14477 9.02841 7.98117 9.01443 7.82472C9.00748 7.65392 8.98651 7.48312 8.96555 7.31232C8.95157 7.16127 8.92539 7.01205 8.89743 6.85564C8.86249 6.62729 8.8136 6.40076 8.75769 6.1724L8.7385 6.08611C8.69657 5.9297 8.66162 5.78044 8.61274 5.62403C8.47474 5.13318 8.31581 4.65492 8.14815 4.20723C8.08702 4.02924 8.01713 3.85844 7.94728 3.68764C7.84423 3.43051 7.73943 3.19678 7.64336 2.97562C7.59448 2.87494 7.55254 2.78324 7.51065 2.68975C7.46346 2.58366 7.41458 2.47761 7.36566 2.37689C7.33075 2.29958 7.29055 2.22767 7.2626 2.15577L6.96397 1.5876C6.92203 1.51029 6.99188 1.41859 7.07397 1.44196L8.94284 1.96338H8.94809C8.95157 1.96338 8.95331 1.96517 8.95508 1.96517L9.20132 2.03529L9.47207 2.11439L9.57161 2.14317V0.999678C9.57161 0.447689 10.0013 0 10.5322 0C10.7977 0 11.0388 0.111455 11.2117 0.293066C11.3846 0.474677 11.4929 0.722789 11.4929 0.999678V2.69694L11.692 2.75446C11.7077 2.75987 11.7234 2.76706 11.7374 2.77783C11.7863 2.81559 11.8561 2.87136 11.9452 2.93965C12.0151 2.99721 12.0902 3.06732 12.181 3.13923C12.3609 3.28848 12.5757 3.48087 12.8115 3.70199C12.8744 3.75776 12.9355 3.81527 12.9914 3.87283C13.2953 4.16407 13.6359 4.5057 13.9608 4.88328C14.0516 4.98933 14.1407 5.09721 14.2315 5.21049C14.3224 5.32556 14.4184 5.43884 14.5023 5.55213C14.6123 5.70313 14.731 5.85954 14.8341 6.02319C14.883 6.1005 14.9389 6.1796 14.986 6.25691C15.1188 6.46368 15.2358 6.67765 15.3476 6.89158C15.3948 6.99047 15.4436 7.09835 15.4856 7.20444C15.6096 7.49031 15.7074 7.78159 15.7703 8.07287C15.7895 8.13579 15.8034 8.20412 15.8104 8.26525V8.2796C15.8314 8.36593 15.8384 8.45763 15.8454 8.55112C15.8733 8.84956 15.8593 9.14803 15.7964 9.44829C15.7703 9.57596 15.7353 9.6964 15.6934 9.82407C15.6515 9.94634 15.6096 10.074 15.5554 10.1944C15.4506 10.4443 15.3266 10.6943 15.1799 10.928C15.1328 11.0143 15.0769 11.106 15.021 11.1923C14.9599 11.284 14.897 11.3703 14.8411 11.4548C14.7642 11.5627 14.6822 11.676 14.5983 11.7766C14.5232 11.8827 14.4463 11.9888 14.3625 12.0823C14.2455 12.2243 14.1337 12.3592 14.0167 12.4887C13.9468 12.5732 13.8717 12.6595 13.7949 12.7368C13.7198 12.8231 13.6429 12.9004 13.573 12.9723C13.456 13.0928 13.3582 13.1862 13.2761 13.2636L13.084 13.4452C13.056 13.4703 13.0194 13.4847 12.9809 13.4847H11.4929V15.4499H13.3652C13.7844 15.4499 14.1826 15.2971 14.504 15.0166C14.614 14.9177 15.0943 14.4898 15.662 13.8443C15.6812 13.8227 15.7056 13.8066 15.7336 13.7994L20.9052 12.2603C21.0013 12.2315 21.0991 12.307 21.0991 12.4114Z" fill="white"/>
</svg>
