<svg width="17" height="11" viewBox="0 0 17 11" fill="none" xmlns="http://www.w3.org/2000/svg">
<path d="M8.5 0.433594C11.748 0.433594 14.6935 2.21062 16.867 5.09699C17.0443 5.33346 17.0443 5.66383 16.867 5.9003C14.6935 8.79014 11.748 10.5672 8.5 10.5672C5.25197 10.5672 2.30649 8.79014 0.133017 5.90378C-0.0443382 5.6673 -0.0443382 5.33694 0.133017 5.10047C2.30649 2.21062 5.25197 0.433594 8.5 0.433594ZM8.267 9.06835C10.4231 9.20397 12.2036 7.42695 12.068 5.26739C11.9567 3.48688 10.5135 2.0437 8.733 1.93242C6.57692 1.79679 4.79641 3.57382 4.93204 5.73338C5.04679 7.51041 6.48998 8.95359 8.267 9.06835ZM8.37481 7.41999C9.53631 7.49302 10.4961 6.53669 10.4196 5.37519C10.3605 4.41539 9.58152 3.63989 8.62171 3.5773C7.46021 3.50427 6.50041 4.4606 6.57692 5.6221C6.63951 6.58538 7.41848 7.36087 8.37481 7.41999Z" fill="#F2C357"/>
</svg>
