<svg width="20" height="20" viewBox="0 0 20 20" fill="none" xmlns="http://www.w3.org/2000/svg">
<g clip-path="url(#clip0_864_1064)">
<path d="M10.002 20C15.5238 20 20 15.5238 20 10.002C20 4.48027 15.5238 0.00384482 10.002 0.00384434C4.48027 0.00384386 0.00384657 4.48026 0.00384609 10.002C0.0100712 15.5212 4.48265 19.9938 10.002 20ZM10.002 1.00377C14.9716 1.00377 19.0003 5.0324 19.0003 10.002C19.0003 14.9716 14.9716 19.0003 10.002 19.0003C5.0324 19.0003 1.00377 14.9716 1.00377 10.002C1.00945 5.03478 5.03479 1.00945 10.002 1.00377Z" fill="white"/>
<path d="M11.1727 13.8774C11.3807 14.0592 11.6965 14.0379 11.8783 13.8301C12.0599 13.6222 12.0386 13.3064 11.8308 13.1246L8.26172 10.0018L11.831 6.8788C12.039 6.69702 12.0601 6.38122 11.8784 6.17344C11.6967 5.96547 11.3809 5.94423 11.1729 6.12602L7.17374 9.6254C7.06518 9.72023 7.00293 9.85753 7.00293 10.0018C7.00293 10.146 7.06518 10.2832 7.17374 10.3782L11.1727 13.8774Z" fill="white"/>
</g>
<defs>
<clipPath id="clip0_864_1064">
<rect width="20" height="20" fill="white" transform="translate(20 20) rotate(-180)"/>
</clipPath>
</defs>
</svg>
