<svg width="13" height="13" viewBox="0 0 13 13" fill="none" xmlns="http://www.w3.org/2000/svg">
<g clip-path="url(#clip0_814_631)">
<path d="M6.5 13C2.91619 13 0 10.0843 0 6.5C0 2.91568 2.91619 0 6.5 0C10.0843 0 13 2.91568 13 6.5C13 10.0843 10.0838 13 6.5 13ZM6.5 1.00697C3.47103 1.00697 1.00697 3.47103 1.00697 6.5C1.00697 9.52897 3.47103 11.993 6.5 11.993C9.52897 11.993 11.993 9.52897 11.993 6.5C11.993 3.47103 9.52897 1.00697 6.5 1.00697Z" fill="white"/>
<path d="M9.01736 7.04883H3.9825C3.70457 7.04883 3.479 6.82326 3.479 6.54533C3.479 6.26741 3.70457 6.04184 3.9825 6.04184H9.01736C9.29529 6.04184 9.52086 6.26741 9.52086 6.54533C9.52086 6.82326 9.29529 7.04883 9.01736 7.04883Z" fill="white"/>
</g>
<defs>
<clipPath id="clip0_814_631">
<rect width="13" height="13" fill="white" transform="matrix(1 0 0 -1 0 13)"/>
</clipPath>
</defs>
</svg>
