<svg width="9" height="9" viewBox="0 0 9 9" fill="none" xmlns="http://www.w3.org/2000/svg">
<g clip-path="url(#clip0_1778_3073)">
<path d="M4.5 9C2.0189 9 0 6.98145 0 4.5C0 2.01855 2.0189 0 4.5 0C6.98145 0 9 2.01855 9 4.5C9 6.98145 6.9811 9 4.5 9ZM4.5 0.697131C2.40302 0.697131 0.697131 2.40302 0.697131 4.5C0.697131 6.59698 2.40302 8.30287 4.5 8.30287C6.59698 8.30287 8.30287 6.59698 8.30287 4.5C8.30287 2.40302 6.59698 0.697131 4.5 0.697131Z" fill="#F2C357"/>
<path d="M6.24294 4.87988H2.75727C2.56486 4.87988 2.40869 4.72372 2.40869 4.53131C2.40869 4.3389 2.56486 4.18273 2.75727 4.18273H6.24294C6.43535 4.18273 6.59151 4.3389 6.59151 4.53131C6.59151 4.72372 6.43535 4.87988 6.24294 4.87988Z" fill="#F2C357"/>
</g>
<defs>
<clipPath id="clip0_1778_3073">
<rect width="9" height="9" fill="white" transform="matrix(1 0 0 -1 0 9)"/>
</clipPath>
</defs>
</svg>
