<svg width="25" height="25" viewBox="0 0 25 25" fill="none" xmlns="http://www.w3.org/2000/svg">
<g clip-path="url(#clip0_1939_5873)">
<path d="M12.5 25C19.4036 25 25 19.4036 25 12.5C25 5.59644 19.4036 0 12.5 0C5.59644 0 0 5.59644 0 12.5C0 19.4036 5.59644 25 12.5 25Z" fill="#FFD93B"/>
<path d="M25 12.5C25 19.4062 19.4023 25 12.5 25C8.57031 25 5.0625 23.1875 2.76953 20.3477C4.91406 22.082 7.64453 23.1172 10.6172 23.1172C17.5195 23.1172 23.1172 17.5234 23.1172 10.6172C23.1172 7.64453 22.082 4.91406 20.3477 2.76953C23.1836 5.0625 25 8.57031 25 12.5Z" fill="#F4C534"/>
<path d="M20.6221 10.7074C20.9713 13.1668 19.6635 15.3801 17.7018 15.659C15.7393 15.9379 13.8674 14.1762 13.5174 11.7168C13.1682 9.25743 14.4745 7.03634 16.437 6.75743C18.3995 6.47852 20.2729 8.24884 20.6221 10.7074Z" fill="white"/>
<path d="M18.7227 12.626C18.7227 13.5947 17.9414 14.3838 16.9727 14.3838C15.9961 14.3838 15.207 13.5947 15.207 12.626C15.207 11.6572 15.9961 10.8682 16.9727 10.8682C17.9414 10.8682 18.7227 11.6572 18.7227 12.626Z" fill="#3E4347"/>
<path d="M17.9497 12.3604C17.8169 12.4933 17.5513 12.4464 17.356 12.2511C17.1607 12.0479 17.106 11.7823 17.2388 11.6495C17.3716 11.5167 17.6294 11.5636 17.8326 11.7589C18.0279 11.962 18.0826 12.2276 17.9497 12.3604Z" fill="white"/>
<path d="M14.9191 5.42188C14.9191 5.42188 16.2324 7.31094 20.6793 6.76875C20.6793 6.76875 14.366 9.62109 14.9191 5.42188Z" fill="#3E4347"/>
<path d="M4.37674 10.7074C4.02753 13.1668 5.33534 15.3801 7.29706 15.659C9.25956 15.9379 11.1314 14.1762 11.4814 11.7168C11.8306 9.25743 10.5244 7.03634 8.5619 6.75743C6.5994 6.47852 4.72596 8.24884 4.37674 10.7074Z" fill="white"/>
<path d="M9.79297 12.626C9.79297 13.5947 9.01172 14.3838 8.04297 14.3838C7.06641 14.3838 6.27734 13.5947 6.27734 12.626C6.27734 11.6572 7.06641 10.8682 8.04297 10.8682C9.01172 10.8682 9.79297 11.6572 9.79297 12.626Z" fill="#3E4347"/>
<path d="M9.0181 12.3604C8.88529 12.4933 8.61967 12.4464 8.42435 12.2511C8.22904 12.0479 8.17435 11.7823 8.30717 11.6495C8.43998 11.5167 8.69779 11.5636 8.90092 11.7589C9.09623 11.962 9.15092 12.2276 9.0181 12.3604Z" fill="white"/>
<path d="M9.09453 3.99316C9.09453 3.99316 8.625 6.24551 4.32031 7.48691C4.32109 7.48691 11.2477 7.64082 9.09453 3.99316Z" fill="#3E4347"/>
<path d="M16.4844 18.6885C16.4844 19.1572 16.1016 19.5322 15.6328 19.5322H9.36719C8.89844 19.5322 8.51562 19.1572 8.51562 18.6885C8.51562 18.2197 8.89844 17.8369 9.36719 17.8369H15.6328C16.1016 17.8369 16.4844 18.2197 16.4844 18.6885Z" fill="#3E4347"/>
</g>
<defs>
<clipPath id="clip0_1939_5873">
<rect width="25" height="25" fill="white"/>
</clipPath>
</defs>
</svg>
