<svg width="25" height="25" viewBox="0 0 25 25" fill="none" xmlns="http://www.w3.org/2000/svg">
<g clip-path="url(#clip0_1939_5824)">
<path d="M12.5 25C19.4036 25 25 19.4036 25 12.5C25 5.59644 19.4036 0 12.5 0C5.59644 0 0 5.59644 0 12.5C0 19.4036 5.59644 25 12.5 25Z" fill="#FFD93B"/>
<path d="M25 12.5C25 19.4062 19.4023 25 12.5 25C8.57031 25 5.0625 23.1875 2.76953 20.3477C4.91406 22.082 7.64453 23.1172 10.6172 23.1172C17.5195 23.1172 23.1172 17.5234 23.1172 10.6172C23.1172 7.64453 22.082 4.91406 20.3477 2.76953C23.1836 5.0625 25 8.57031 25 12.5Z" fill="#F4C534"/>
<path d="M16.2328 18.7885C16.2328 19.1533 15.9414 19.4393 15.582 19.4393H9.42031C9.06094 19.4393 8.76953 19.1525 8.76953 18.7885C8.76953 18.4291 9.06094 18.1377 9.42031 18.1377H15.582C15.9406 18.1377 16.2328 18.4291 16.2328 18.7885Z" fill="#3E4347"/>
<path d="M5.45971 12.7771C5.76518 12.5974 6.66909 13.5661 8.08862 13.6193C9.55815 13.674 10.4121 12.5974 10.7175 12.7771C11.098 12.9075 10.5792 15.3919 8.08862 15.4013C5.59877 15.3919 5.07924 12.9075 5.45971 12.7771Z" fill="#3E4347"/>
<path d="M4.87358 11.6853C4.58999 11.64 4.39624 11.3728 4.44233 11.0884C4.48842 10.8049 4.75092 10.6103 5.03921 10.6572C7.96733 11.1275 8.85717 9.03611 8.86577 9.01501C8.97358 8.74861 9.2767 8.62048 9.54467 8.72907C9.81108 8.83767 9.93921 9.14157 9.83061 9.40798C9.24311 10.847 7.3978 12.0908 4.87358 11.6853Z" fill="#E9B02C"/>
<path d="M19.5399 12.7771C19.2344 12.5974 18.3305 13.5661 16.911 13.6193C15.4414 13.674 14.5875 12.5974 14.282 12.7771C13.9016 12.9075 14.4203 15.3919 16.911 15.4013C19.4008 15.3919 19.9203 12.9075 19.5399 12.7771Z" fill="#3E4347"/>
<path d="M15.1695 9.40714C15.0609 9.14074 15.189 8.83683 15.4554 8.72824C15.7211 8.61964 16.0242 8.74699 16.1336 9.01183C16.1726 9.10558 17.0672 11.122 19.9609 10.6571C20.2476 10.6103 20.5125 10.8048 20.5578 11.0884C20.6031 11.3728 20.4101 11.64 20.1265 11.6853C17.6203 12.0884 15.7617 10.8595 15.1695 9.40714Z" fill="#E9B02C"/>
</g>
<defs>
<clipPath id="clip0_1939_5824">
<rect width="25" height="25" fill="white"/>
</clipPath>
</defs>
</svg>
