<svg width="22" height="22" viewBox="0 0 22 22" fill="none" xmlns="http://www.w3.org/2000/svg">
<path d="M2.31539 -9.61654e-07C2.77898 -9.21126e-07 3.2149 0.18064 3.54339 0.508576L12.8066 9.77195C13.1345 10.1 13.3154 10.5362 13.3154 11.0001C13.3154 11.464 13.1345 11.9002 12.8066 12.2282L3.54339 21.4914C3.2155 21.8195 2.77902 22 2.31539 22C1.85176 22 1.41528 21.8195 1.08738 21.4916C0.759444 21.1634 0.578547 20.7272 0.578547 20.2633C0.578547 19.7994 0.759487 19.3632 1.08738 19.0352L9.12263 11.0001L1.08743 2.96501C0.759491 2.63695 0.57859 2.20077 0.57859 1.73688C0.57859 1.27299 0.759534 0.836772 1.08743 0.508748C1.41588 0.18064 1.8518 -1.00218e-06 2.31539 -9.61654e-07Z" fill="#838693"/>
<path d="M10.4208 -9.61658e-07C10.8844 -9.21126e-07 11.3203 0.18064 11.6488 0.508576L20.9121 9.77191C21.24 10.1 21.4209 10.5362 21.4209 11C21.4209 11.4639 21.24 11.9002 20.9121 12.2282L11.6489 21.4914C11.3209 21.8195 10.8844 22 10.4208 22C9.95718 22 9.5207 21.8195 9.19281 21.4916C8.86487 21.1634 8.68397 20.7272 8.68397 20.2633C8.68397 19.7994 8.86487 19.3632 9.19281 19.0352L17.228 11.0001L9.19281 2.96501C8.86487 2.63695 8.68398 2.20077 8.68398 1.73688C8.68398 1.27299 8.86492 0.836772 9.19281 0.508748C9.52131 0.18064 9.95722 -1.00219e-06 10.4208 -9.61658e-07Z" fill="#838693"/>
</svg>
