<svg width="22" height="22" viewBox="0 0 22 22" fill="none" xmlns="http://www.w3.org/2000/svg">
<path d="M19.6846 22C19.221 22 18.7851 21.8194 18.4566 21.4914L9.19341 12.228C8.86547 11.9 8.68457 11.4638 8.68457 10.9999C8.68457 10.536 8.86551 10.0998 9.19341 9.77178L18.4566 0.508578C18.7845 0.180512 19.221 0 19.6846 0C20.1482 0 20.5847 0.180512 20.9126 0.508406C21.2406 0.836602 21.4215 1.27278 21.4215 1.73671C21.4215 2.20064 21.2405 2.63682 20.9126 2.96484L12.8774 10.9999L20.9126 19.035C21.2405 19.3631 21.4214 19.7992 21.4214 20.2631C21.4214 20.727 21.2405 21.1632 20.9126 21.4913C20.5841 21.8194 20.1482 22 19.6846 22Z" fill="#838693"/>
<path d="M11.5792 22C11.1156 22 10.6797 21.8194 10.3512 21.4914L1.08794 12.2281C0.76 11.9 0.579102 11.4638 0.579102 11C0.579102 10.5361 0.760043 10.0998 1.08794 9.77182L10.3511 0.508621C10.6791 0.180512 11.1156 0 11.5792 0C12.0428 0 12.4793 0.180512 12.8072 0.508406C13.1351 0.836602 13.316 1.27278 13.316 1.73671C13.316 2.20064 13.1351 2.63682 12.8072 2.96484L4.77199 10.9999L12.8072 19.035C13.1351 19.3631 13.316 19.7992 13.316 20.2631C13.316 20.727 13.1351 21.1632 12.8072 21.4913C12.4787 21.8194 12.0428 22 11.5792 22Z" fill="#838693"/>
</svg>
