<svg width="25" height="25" viewBox="0 0 25 25" fill="none" xmlns="http://www.w3.org/2000/svg">
<circle cx="12.5" cy="12.5" r="12.5" fill="white"/>
<path d="M7.52273 19L9.45455 7.36364H14.4773C15.3409 7.36364 16.0682 7.53409 16.6591 7.875C17.25 8.21591 17.6742 8.69508 17.9318 9.3125C18.1894 9.92992 18.25 10.6515 18.1136 11.4773C17.9773 12.3182 17.6742 13.0436 17.2045 13.6534C16.7386 14.2595 16.1439 14.7273 15.4205 15.0568C14.7008 15.3826 13.8939 15.5455 13 15.5455H10L10.4091 13.0909H12.7727C13.1515 13.0909 13.4848 13.0265 13.7727 12.8977C14.0606 12.7652 14.2936 12.5795 14.4716 12.3409C14.6496 12.0985 14.7652 11.8106 14.8182 11.4773C14.8712 11.1439 14.8466 10.8598 14.7443 10.625C14.6458 10.3864 14.4754 10.2045 14.233 10.0795C13.9943 9.95076 13.6894 9.88636 13.3182 9.88636H12.2045L10.6818 19H7.52273Z" fill="#5771F2"/>
</svg>
