<svg width="23" height="19" viewBox="0 0 23 19" fill="none" xmlns="http://www.w3.org/2000/svg">
<path d="M22.87 2.3049C22.0147 2.68605 21.1101 2.93927 20.1839 3.05672C21.1602 2.46594 21.89 1.53001 22.2348 0.426518C21.3211 0.979981 20.3212 1.36977 19.2786 1.579C18.6397 0.881736 17.81 0.396803 16.8973 0.187274C15.9847 -0.0222558 15.0314 0.053316 14.1614 0.404159C13.2914 0.755002 12.545 1.36488 12.0193 2.15446C11.4935 2.94405 11.2128 3.8768 11.2136 4.8314C11.2103 5.19576 11.2468 5.55937 11.3222 5.91553C9.46754 5.82257 7.65298 5.3314 5.99703 4.47409C4.34107 3.61679 2.88098 2.41264 1.71211 0.940302C1.1113 1.98769 0.925166 3.22969 1.19175 4.41244C1.45832 5.5952 2.15749 6.62941 3.14635 7.30369C2.40827 7.28339 1.68582 7.08211 1.04003 6.71685V6.7687C1.04211 7.86656 1.4145 8.93023 2.0946 9.7809C2.7747 10.6316 3.72105 11.2174 4.77458 11.4399C4.37589 11.5468 3.96504 11.5991 3.55283 11.5954C3.25602 11.601 2.95947 11.5742 2.66827 11.5153C2.9701 12.4595 3.55119 13.2851 4.33162 13.8785C5.11204 14.4719 6.05347 14.8039 7.0264 14.829C5.37766 16.1441 3.34514 16.8584 1.25251 16.8582C0.879649 16.8614 0.50699 16.8394 0.136993 16.7922C2.27073 18.1961 4.75786 18.9378 7.29662 18.9275C15.8766 18.9275 20.5673 11.6756 20.5673 5.38996C20.5673 5.18021 20.5673 4.97752 20.5512 4.77483C21.4647 4.10206 22.2504 3.26508 22.87 2.3049Z" fill="white"/>
</svg>
