<svg width="9" height="9" viewBox="0 0 9 9" fill="none" xmlns="http://www.w3.org/2000/svg">
<path d="M8.88881 8.51378C8.81464 8.58791 8.72671 8.6251 8.62512 8.6251C8.52357 8.6251 8.43578 8.58791 8.36146 8.51378L7.59979 7.75781C7.18183 8.15239 6.70325 8.45813 6.16423 8.67487C5.62525 8.89164 5.07041 9 4.50007 9C3.42581 9 2.48835 8.67485 1.68754 8.02441C0.886703 7.37405 0.359381 6.5255 0.105469 5.47855V5.43756C0.105469 5.38679 0.124001 5.34281 0.161128 5.30574C0.198254 5.26861 0.242174 5.25008 0.292948 5.25008H1.45895C1.54492 5.25008 1.60347 5.29503 1.63475 5.38482C1.79879 5.77541 1.90227 6.00392 1.94529 6.07035C2.2187 6.51567 2.58198 6.8653 3.03513 7.11921C3.48832 7.37311 3.97659 7.5001 4.49999 7.5001C5.28523 7.5001 5.96684 7.2325 6.54502 6.69734L5.73628 5.88878C5.66226 5.81455 5.62503 5.72661 5.62503 5.62504C5.62503 5.52349 5.66224 5.43559 5.73628 5.36138C5.8106 5.28715 5.89852 5.25006 6.00009 5.25006H8.62512C8.72669 5.25006 8.81461 5.28715 8.88881 5.36138C8.96296 5.43559 9.00004 5.52347 9.00004 5.62504V8.2501C9.00004 8.35167 8.96318 8.43953 8.88881 8.51378Z" fill="white"/>
<path d="M8.66596 3.74975H7.54097C7.45502 3.74975 7.39642 3.70487 7.36525 3.615C7.20127 3.22436 7.09767 2.99596 7.05475 2.92952C6.78126 2.48431 6.41796 2.13456 5.96493 1.88066C5.51172 1.62669 5.02345 1.49984 4.50003 1.49984C4.12115 1.49984 3.75588 1.57009 3.40436 1.71067C3.0528 1.85142 2.7383 2.05068 2.46099 2.30851L3.26376 3.11122C3.33795 3.18537 3.37507 3.27337 3.37507 3.37488C3.37507 3.47643 3.33795 3.56443 3.26376 3.63854C3.18952 3.71283 3.10166 3.75 3.0001 3.75H0.37504C0.273409 3.75 0.185509 3.71283 0.111297 3.63854C0.0370853 3.56441 0 3.47641 0 3.37486V0.749794C0 0.648307 0.0370853 0.560324 0.111318 0.486133C0.185591 0.412044 0.273492 0.374733 0.375061 0.374733C0.476609 0.374733 0.564469 0.412023 0.638722 0.486133L1.39457 1.24206C1.81256 0.843709 2.28819 0.536989 2.8214 0.322152C3.35461 0.107234 3.90638 -8.22544e-05 4.47665 -8.22544e-05C5.54704 -8.22544e-05 6.4806 0.325108 7.27747 0.975468C8.07434 1.62581 8.59779 2.47452 8.8479 3.52137C8.85182 3.52917 8.85367 3.54286 8.85367 3.56231C8.85367 3.61317 8.83505 3.65697 8.79795 3.69422C8.7608 3.73114 8.71682 3.74975 8.66596 3.74975Z" fill="white"/>
</svg>
