<svg width="24" height="22" viewBox="0 0 24 22" fill="none" xmlns="http://www.w3.org/2000/svg">
<path d="M10.2366 1.04922L0.338882 18.1913C0.160094 18.5009 0.0659511 18.8521 0.065918 19.2095C0.0658849 19.567 0.159963 19.9182 0.338693 20.2278C0.517424 20.5374 0.774508 20.7945 1.0841 20.9732C1.39369 21.152 1.74488 21.246 2.10237 21.246H21.8962C22.2537 21.246 22.6049 21.152 22.9145 20.9732C23.2241 20.7945 23.4812 20.5374 23.6599 20.2278C23.8386 19.9182 23.9327 19.567 23.9327 19.2095C23.9326 18.8521 23.8385 18.5009 23.6597 18.1913L13.763 1.04922C13.5843 0.739716 13.3273 0.482704 13.0178 0.304013C12.7083 0.125323 12.3572 0.03125 11.9998 0.03125C11.6424 0.03125 11.2913 0.125323 10.9818 0.304013C10.6723 0.482704 10.4153 0.739716 10.2366 1.04922Z" fill="#FFB400"/>
<path d="M12.1289 6.33594H11.8707C11.235 6.33594 10.7197 6.85124 10.7197 7.48689V12.9882C10.7197 13.6239 11.235 14.1392 11.8707 14.1392H12.1289C12.7645 14.1392 13.2798 13.6239 13.2798 12.9882V7.48689C13.2798 6.85124 12.7645 6.33594 12.1289 6.33594Z" fill="#FCF4D9"/>
<path d="M11.9998 18.5025C12.7067 18.5025 13.2798 17.9294 13.2798 17.2224C13.2798 16.5155 12.7067 15.9424 11.9998 15.9424C11.2928 15.9424 10.7197 16.5155 10.7197 17.2224C10.7197 17.9294 11.2928 18.5025 11.9998 18.5025Z" fill="#FCF4D9"/>
</svg>
