<svg width="7" height="5" viewBox="0 0 7 5" fill="none" xmlns="http://www.w3.org/2000/svg">
<path d="M6.32986 0.830017H5.32009V1.34H5.71999L3.28005 3.78L2.18996 2.91C2.18996 2.91 2.09005 2.86001 2.03005 2.85001C1.97005 2.85001 1.9199 2.86999 1.8699 2.89999L0.669945 3.83002C0.559945 3.92002 0.539906 4.06999 0.629906 4.17999C0.719906 4.28999 0.870004 4.31 0.980004 4.22L2.02004 3.41L3.12991 4.30002C3.12991 4.30002 3.24007 4.36001 3.30007 4.35001C3.36007 4.35001 3.41998 4.32 3.45998 4.28L6.06008 1.67999V2.08002H6.57009V1.07001C6.57009 1.00001 6.54002 0.940015 6.50002 0.890015C6.45002 0.840015 6.39009 0.820007 6.32009 0.820007L6.32986 0.830017Z" fill="white"/>
</svg>
