<svg width="93" height="129" viewBox="0 0 93 129" fill="none" xmlns="http://www.w3.org/2000/svg">
<path d="M92.24 117.2C92.24 117.82 92.34 117.6 92.35 117.69C92.33 116.65 92.21 117.23 92.24 117.2Z" fill="#FF2020"/>
<path d="M92.0001 106.97L92.0501 107.15L91.9401 105.64L92.0001 106.97Z" fill="#FF2020"/>
<path d="M92.0101 97.4C91.8301 98.3 92.0401 100.87 91.9801 102.57L91.9401 102.85L92.0801 103.62C92.0601 101.55 91.9601 98.86 92.0101 97.4Z" fill="#FF2020"/>
<path d="M92.39 92.3001C92.32 92.6101 92.33 91.2001 92.37 93.4901C92.37 93.3801 92.38 93.3401 92.39 93.2701C92.39 93.0601 92.39 92.7801 92.39 92.3001Z" fill="#FF2020"/>
<path d="M92.39 93.2701C92.39 94.2801 92.45 92.6101 92.39 93.2701V93.2701Z" fill="#FF2020"/>
<path d="M92.35 88.62L92.41 89.95C92.45 89.6701 92.46 88.49 92.49 88.93C92.46 87.57 92.42 87.85 92.35 88.62Z" fill="#FF2020"/>
<path d="M92.22 87.36L92.25 88.05C92.27 87.93 92.27 87.75 92.22 87.36Z" fill="#FF2020"/>
<path d="M92.3 89.51L92.24 88.05C92.21 88.24 92.15 88.26 92.26 88.72C92.21 88.6 92.26 88.89 92.3 89.51Z" fill="#FF2020"/>
<path d="M92.27 90.3401C92.23 91.0801 92.21 92.0501 92.15 90.7101C92.17 93.2501 92.3 92.8701 92.27 90.3401Z" fill="#FF2020"/>
<path d="M91.82 96.9101L91.77 97.9101L91.83 98.7701C91.8 98.3401 91.88 96.8501 91.83 96.9101H91.82Z" fill="#FF2020"/>
<path d="M92.44 80.3601C92.4 80.2801 92.34 80.8101 92.29 80.9101L92.33 81.8901C92.36 81.3901 92.38 80.4301 92.44 80.3601Z" fill="#FF2020"/>
<path d="M92.29 80.9001L92.22 79.4301C92.22 80.7401 92.24 80.9801 92.29 80.9001Z" fill="#FF2020"/>
<path d="M92.02 87.13L92.16 89.54L92.02 86.66V87.13Z" fill="#FF2020"/>
<path d="M92.44 74.75L92.53 75.59L92.4 74.11L92.44 74.75Z" fill="#FF2020"/>
<path d="M92.4301 71.0401C92.5001 71.6601 92.5501 70.2001 92.6001 70.8501C92.5901 69.8401 92.5201 68.9801 92.4701 68.2001C92.5001 69.0201 92.4901 69.9001 92.4301 71.0401Z" fill="#FF2020"/>
<path d="M92.38 66.9C92.41 67.31 92.43 67.73 92.46 68.2C92.44 67.76 92.42 67.33 92.38 66.9Z" fill="#FF2020"/>
<path d="M92.2401 76.94C92.2601 76.83 92.3201 76.61 92.3501 75.79L92.2401 76.37C92.2401 76.55 92.2401 76.75 92.2401 76.95V76.94Z" fill="#FF2020"/>
<path d="M92.24 77.0801C92.24 77.0301 92.24 76.9901 92.24 76.9301C92.23 76.9901 92.23 77.0201 92.24 77.0801Z" fill="#FF2020"/>
<path d="M92.12 83.2801C92.06 82.4201 92 80.6201 91.91 82.3601C91.98 82.9801 92.03 81.9801 92.12 83.2801Z" fill="#FF2020"/>
<path d="M92.11 77.8L92.09 79.36C92.09 79.36 92.16 79.05 92.19 79.48L92.12 77.81L92.11 77.8Z" fill="#FF2020"/>
<path d="M92.08 77.04L92.11 77.8L92.12 77.22L92.08 77.04Z" fill="#FF2020"/>
<path d="M92.2801 69.5701C92.2301 68.9001 92.2301 68.1601 92.2201 67.3301C92.2101 68.2201 92.2001 69.1401 92.1901 70.0201C92.2201 70.1401 92.2801 70.5301 92.2801 69.5701Z" fill="#FF2020"/>
<path d="M92.25 72.8801C92.25 72.8801 92.25 72.77 92.25 72.73C92.25 72.82 92.24 72.9001 92.25 72.8801Z" fill="#FF2020"/>
<path d="M92.23 59.1401L92.21 59.2701L92.23 59.3001V59.1401Z" fill="#FF2020"/>
<path d="M92.17 70.1601C92.15 70.8301 92.17 71.2301 92.21 71.6101C92.21 71.1101 92.2 70.58 92.19 70.01C92.17 69.95 92.16 69.9401 92.17 70.1601Z" fill="#FF2020"/>
<path d="M92.33 64.61C92.31 64.96 92.29 65.3601 92.27 65.7701C92.3 65.4301 92.36 64.73 92.33 64.61Z" fill="#FF2020"/>
<path d="M92.28 72.5001C92.28 72.5001 92.28 72.5601 92.28 72.6001C92.3 72.3801 92.29 72.4101 92.28 72.5001Z" fill="#FF2020"/>
<path d="M92.28 72.5C92.26 72.16 92.24 71.88 92.21 71.61C92.22 72.02 92.24 72.39 92.25 72.72C92.26 72.64 92.27 72.5601 92.28 72.4901V72.5Z" fill="#FF2020"/>
<path d="M91.54 56.6601C91.64 56.7801 91.73 58.5401 91.62 60.0601C91.69 61.5601 92.02 60.5801 92.2 59.2701C92.16 59.2201 92.12 59.2201 92.06 57.6801C92.01 58.2201 91.93 61.1001 91.84 59.8001C91.79 57.7601 91.88 58.1301 91.93 57.1401C91.81 57.9801 91.75 54.5501 91.57 54.9901L91.63 56.7801C91.63 56.7801 91.56 56.1701 91.53 56.6601H91.54Z" fill="#FF2020"/>
<path d="M92.2 62.2V62.83C92.23 62.11 92.27 61.59 92.35 60.64C92.3 59.59 92.26 59.37 92.23 59.29V62.41L92.2 62.19V62.2Z" fill="#FF2020"/>
<path d="M92.2101 65.6801C92.1001 65.1901 92.0601 63.6601 91.9401 64.6001C91.9401 66.4601 92.0301 65.9001 92.0801 67.0101C92.0501 64.0101 92.1401 67.8701 92.2001 65.7001C92.2101 66.2901 92.2201 66.8201 92.2301 67.3201C92.2501 66.7801 92.2601 66.2601 92.2801 65.7701C92.2801 65.8001 92.2801 65.8201 92.2801 65.8401V65.8501C92.2701 65.9801 92.2601 66.0201 92.2701 65.8801C92.2701 65.8701 92.2701 65.8301 92.2701 65.8201C92.2501 65.8001 92.2401 65.7401 92.2301 65.6801C92.2501 64.8101 92.2601 65.5401 92.2701 65.8201C92.2701 65.8201 92.2801 65.8501 92.2901 65.8601L92.2301 62.8401C92.2101 63.4801 92.2201 64.2701 92.2301 65.6801H92.2101Z" fill="#FF2020"/>
<path d="M91.67 80.7601C91.67 80.6701 91.69 80.6701 91.7 80.6601C91.69 80.4701 91.68 80.3901 91.67 80.7601Z" fill="#FF2020"/>
<path d="M91.7301 79.52C91.7501 79.74 91.7901 79.92 91.7801 80.63C91.7501 81.25 91.7301 80.63 91.6901 80.66C91.7201 81.09 91.7701 82.16 91.8201 80.82V80.61C91.8401 79.4 91.9801 77.85 91.9901 78.06C91.8901 78.41 91.8201 78.72 91.7301 79.53V79.52Z" fill="#FF2020"/>
<path d="M91.94 72.5201L91.89 70.0201L91.8 71.2901L91.86 71.2301C91.84 72.6501 91.91 72.3501 91.95 72.5201H91.94Z" fill="#FF2020"/>
<path d="M92.28 58.8501L92.39 59.19L92.23 57.7401L92.28 58.8501Z" fill="#FF2020"/>
<path d="M92.27 55.6001L92.37 55.72L92.31 54.86L92.27 55.6001Z" fill="#FF2020"/>
<path d="M1.26001 46.29L1.29001 47.03C1.28001 46.68 1.27001 46.46 1.26001 46.29Z" fill="#FF2020"/>
<path d="M1.26002 40.9701L1.21002 40.8401C1.24002 41.0901 1.26002 41.1901 1.26002 40.9701Z" fill="#FF2020"/>
<path d="M56.0101 9.75005C54.9401 9.66005 53.7401 9.51005 53.8701 9.63005L54.2001 9.74005C54.9501 9.72005 55.5201 9.74005 56.0101 9.76005V9.75005Z" fill="#FF2020"/>
<path d="M5.01006 0.730034C5.11006 0.740034 5.22006 0.750033 5.32006 0.760033C5.58006 0.720033 5.82006 0.690034 6.04006 0.660034C5.73006 0.680034 5.37006 0.710034 5.00006 0.730034H5.01006Z" fill="#FF2020"/>
<path d="M4.25005 1.18005L2.86005 1.12006C3.18005 1.13006 3.63005 1.16005 4.25005 1.18005Z" fill="#FF2020"/>
<path d="M1.37006 75.3601L1.48005 76.2201C1.48005 74.8801 1.42006 75.4701 1.37006 75.3601Z" fill="#FF2020"/>
<path d="M92.2301 22.3001C92.2701 21.3801 92.2901 20.6401 92.3001 19.9901C92.2401 21.1001 92.1401 22.0001 92.2301 22.3001Z" fill="#FF2020"/>
<path d="M0.110046 44.1901C0.130046 44.6401 0.150046 44.8301 0.180046 44.8201C0.160046 44.3601 0.140046 44.1001 0.110046 44.1901Z" fill="#FF2020"/>
<path d="M92.29 17.3201C92.29 17.4801 92.27 17.6401 92.26 17.8101C92.28 18.4901 92.29 19.1701 92.29 19.9901C92.34 19.1701 92.36 18.2301 92.29 17.3201Z" fill="#FF2020"/>
<path d="M60.86 126.94C60.94 126.94 61.03 126.94 61.1 126.95C61.12 126.94 61.02 126.93 60.86 126.94Z" fill="#FF2020"/>
<path d="M91.6301 126.8C91.4401 127.11 91.0101 127.55 90.4901 127.78C90.7301 127.67 91.1901 127.46 91.6301 126.8Z" fill="#FF2020"/>
<path d="M92.3101 42.5201C92.3101 43.2101 92.3201 42.6301 92.3101 42.5201V42.5201Z" fill="#FF2020"/>
<path d="M91.88 45.8701C91.87 45.7201 91.85 45.6101 91.83 45.5901C91.86 45.6501 91.87 45.7401 91.88 45.8701Z" fill="#FF2020"/>
<path d="M90.63 10.8001C90.63 10.8001 90.6 10.7801 90.58 10.7701C90.73 10.9001 90.71 10.8801 90.63 10.8001Z" fill="#FF2020"/>
<path d="M92.26 43.5601C92.26 43.3001 92.28 43.0001 92.29 42.6801C92.29 42.8201 92.27 43.0901 92.26 43.5601Z" fill="#FF2020"/>
<path d="M92.3201 43.42C92.3201 43.66 92.3201 43.8401 92.3101 44.0201C92.3301 44.1101 92.3401 44.02 92.3201 43.42Z" fill="#FF2020"/>
<path d="M92.31 41.5601C92.31 41.9501 92.31 42.3201 92.3 42.6801C92.3 42.5401 92.31 42.4901 92.32 42.5201C92.32 42.3201 92.32 42.0301 92.32 41.5601H92.31Z" fill="#FF2020"/>
<path d="M8.06006 117.57C8.06006 117.57 8.16006 117.57 8.21006 117.58C8.91006 117.53 8.60006 117.54 8.06006 117.57Z" fill="#FF2020"/>
<path d="M39.27 6.65007C39.27 6.65007 39.31 6.68007 39.33 6.70007C39.31 6.68007 39.28 6.65007 39.26 6.63007V6.65007H39.27Z" fill="#FF2020"/>
<path d="M37.42 5.01007C38.28 5.64007 38.7 6.06007 39.27 6.63007L38.89 5.84007L37.43 5.01007H37.42Z" fill="#FF2020"/>
<path d="M1.29004 59.0301L1.39004 57.2901C1.55004 59.3901 1.50004 60.9101 1.63004 59.2801C1.29004 59.0301 1.60004 52.5201 1.26004 52.2801L1.33004 51.1301C1.33004 51.4601 1.33004 51.5101 1.34004 51.8401C1.50004 49.6101 1.09004 50.1801 1.14004 47.3101C1.17004 46.3101 1.22004 45.6101 1.26004 46.2901L1.18004 44.0601C1.18004 43.4101 1.25004 43.5701 1.24004 44.2201L1.21004 40.8201V40.8501C1.17004 40.3601 1.08004 39.2601 1.05004 38.7301C1.10004 37.8701 1.09004 39.1601 1.13004 38.9401L1.05004 37.0601C1.14004 36.2901 1.22004 37.8501 1.21004 39.1601C1.55004 37.4001 1.12004 37.6001 1.32004 33.8001L1.36004 35.5801C1.55004 34.4301 1.48004 33.0401 1.60004 31.0301C1.54004 31.5101 1.30004 35.0601 1.21004 33.0101C1.24004 32.4301 1.25004 31.6701 1.18004 30.5701C1.30004 30.5601 1.27004 29.4801 1.26004 28.1301L1.42004 28.2201C1.37004 26.7601 1.29004 26.8801 1.22004 26.0201C1.24004 24.4001 1.36004 24.0601 1.46004 23.6801C1.49004 21.0801 1.26004 25.4801 1.23004 22.4001C1.29004 20.2401 1.23004 18.7201 1.13004 16.1301C1.19004 14.6201 1.23004 16.3901 1.27004 15.8501L1.14004 14.5101C1.14004 14.1801 1.18004 14.2901 1.20004 14.3401C1.15004 13.2101 1.04004 14.2501 1.00004 12.4701C0.820038 11.9901 1.26004 8.82006 1.06004 6.62006C1.11004 6.08006 1.16004 6.88006 1.22004 6.72006C1.15004 5.21006 1.13004 4.57006 1.10004 3.98006C1.08004 3.69006 1.07004 3.42006 1.05004 3.06006C1.03004 2.76006 1.04004 2.38006 1.30004 1.90006C1.68004 1.41006 2.27004 1.12006 2.85004 1.14006C2.21004 1.17006 2.25004 1.12006 2.70004 0.96006C3.17004 0.86006 4.13004 0.820063 4.99004 0.760063C4.43004 0.700063 3.96004 0.660058 3.65004 0.630058L6.42004 0.540062C6.75004 0.570062 6.48004 0.620063 6.02004 0.690063C6.21004 0.680063 6.39004 0.660063 6.53004 0.650063C7.52004 0.710063 7.01004 0.80006 6.30004 0.89006C5.96004 0.86006 5.63004 0.820062 5.30004 0.790062C4.62004 0.890062 3.98004 0.990057 4.12004 1.09006C4.30004 1.07006 4.65004 1.06006 5.03004 1.05006C4.85004 1.08006 4.74004 1.10006 4.82004 1.12006C4.91004 1.14006 5.20004 1.10006 5.66004 1.06006L6.29004 1.24006L6.44004 1.17006L10.07 1.28006C12.66 1.10006 14.92 0.840063 19.04 0.760063C18.02 0.890063 18.82 0.970058 18.76 1.13006C17.64 0.970058 15.57 1.20006 13.44 1.17006C14.55 1.19006 14.31 1.26006 14.03 1.29006L17.84 1.14006C17.75 1.27006 18.65 1.23006 19.64 1.29006C18.89 1.04006 22.48 1.12006 24.03 1.05006C24.13 1.13006 23.75 1.22006 21.87 1.20006C23.95 1.39006 24.56 0.910061 26.61 1.07006C26.15 1.07006 25.9 1.06006 25.72 1.10006C26.8 1.03006 29.43 1.08006 28.81 1.16006H28.35C29.12 1.16006 30.08 1.16006 31.11 1.17006C31.62 1.17006 32.15 1.17006 32.67 1.17006C33.15 1.15006 33.55 1.27006 33.9 1.50006C35.32 2.75006 36.62 3.94006 36.85 3.99006C36.85 4.03006 36.38 3.90006 36.22 3.80006L40.68 7.03006C40.2 6.83006 41.25 8.42006 39.33 6.75006C39.84 7.27006 40.48 7.91006 41.64 8.92006C41.3 8.56006 40.92 7.88006 41.43 8.33006C42.04 9.04006 42.25 9.29006 42.51 9.56006C42.64 9.70006 42.78 9.85006 42.98 10.0601C43.16 10.2601 43.56 10.6901 44.26 10.8601C43.8 10.7301 43.88 10.6501 44.19 10.6601C44.53 10.6801 45.03 10.5601 45.61 10.5801C45.43 10.6201 45.71 10.8601 45.28 10.8901L48.21 10.6101C47.48 10.6601 48.08 10.8501 48.74 10.9301C48.44 10.8701 51.28 10.9301 52.06 10.9101L50.82 10.8401C54.13 10.8801 54.09 10.4401 57.38 10.4601C56.98 10.5201 56.4 10.8201 58.07 10.8501C58.84 10.7101 61.46 10.1601 64.37 10.0501L64.93 10.1301L67.16 10.0401C65.77 10.2601 61.87 10.7101 59.75 10.8901C60.99 10.9601 60.09 10.9901 61.95 10.9801C62.61 11.0601 60.94 11.1001 60.39 11.1001L64.71 11.1501C64.52 10.9801 68.01 10.9801 67.85 10.8401L63.16 11.0101C62.97 10.8401 65.87 10.5301 68.93 10.5601C69.71 10.6301 68.35 10.8601 68.41 10.9201C68.81 10.8601 71.32 10.8101 71.6 10.8501L70.3 10.9401C72 11.0001 73.08 10.7201 75.13 10.8801C75.84 10.8901 77.24 11.1001 77.36 11.0001C76.21 10.8101 75.98 10.2101 76.75 10.0701C77 10.0801 80.46 10.2501 81.27 10.3501C82.43 10.5001 79.52 10.7101 80.51 10.8401C80.55 10.7901 81.2 10.7401 81.46 10.7201C82.2 10.7601 81.15 10.8601 82.77 10.8401C83.04 10.6701 86.05 10.8501 83.53 10.7001C85.11 10.6501 85.21 10.7401 87.06 10.7301C86.76 10.6701 87.18 10.5801 87.87 10.5001C88.21 10.4601 88.63 10.4201 89.05 10.3801C89.47 10.3301 89.94 10.3501 90.32 10.5101C90.22 10.5101 90.52 10.7101 90.64 10.8301C91.3 11.3001 91.61 12.0301 91.6 12.6801C91.59 13.3401 91.58 13.9601 91.57 14.5701C91.56 15.7901 91.54 16.9701 91.53 18.4801C91.49 18.7601 91.44 20.2101 91.37 19.5901C91.4 20.0201 91.46 20.4201 91.46 21.3501C91.31 23.1501 91.44 19.2801 91.26 20.6501C91.36 20.7701 91.4 23.0601 91.46 24.3801C91.61 23.9701 91.49 21.3201 91.43 19.9901C91.64 19.9901 91.86 22.2901 91.96 25.4501C92.01 27.9601 91.82 26.5401 91.85 26.9701C91.81 31.6801 92.22 30.9801 92.07 34.8901C91.94 36.4401 91.8 34.9601 91.71 35.3001C91.66 33.2601 91.8 32.1701 91.79 30.7801L91.73 32.4801C91.69 31.8301 91.65 30.4701 91.69 29.7301C91.57 31.0301 91.67 37.6801 91.56 41.3101C91.61 41.9601 91.65 43.0701 91.71 42.5401L91.69 41.3901C91.8 40.3301 91.84 43.5501 91.89 42.1001C91.97 43.6401 92.09 45.3701 92.02 47.5401L91.87 47.9501C91.87 47.9501 91.96 46.5301 91.91 45.9201C91.98 46.8201 91.7 49.2501 91.91 50.2401L92.02 48.7201C92.1 50.2701 92.26 52.1801 92.21 54.1001C92.36 53.2301 92.19 53.6601 92.37 52.2901C92.15 53.4701 92.37 47.3701 92.15 49.2701C92.36 47.8701 92.24 46.8401 92.41 45.0101C92.36 45.0701 92.31 45.6601 92.34 44.0501C92.33 43.9801 92.31 43.8101 92.3 43.7001C92.3 43.6501 92.3 43.6301 92.3 43.5901C92.3 43.6201 92.3 43.6501 92.3 43.6801C92.3 43.6101 92.3 43.6001 92.3 43.7101C92.28 44.0901 92.25 44.4101 92.22 44.5301C92.1 43.7301 92.11 41.1601 92.05 40.2901C92.07 39.3301 92.11 40.6901 92.16 40.1701L92.07 38.8701C92.18 38.7401 92.26 36.3301 92.32 38.5801V36.5501C92.39 35.3501 92.41 33.7101 92.37 32.7001C92.39 31.7401 92.25 30.2801 92.33 31.1201L92.26 27.9401L92.29 27.9101C92.3 24.7701 92.1 21.4401 92.31 17.8501C92.28 16.7901 92.25 15.7001 92.28 13.9301L92.38 13.5801C92.38 13.4101 92.38 13.2201 92.38 13.0101C92.38 12.9101 92.38 12.8001 92.38 12.6901C92.38 12.5501 92.38 12.4001 92.35 12.2601C92.28 11.6701 91.99 11.0701 91.58 10.6301C91.17 10.1801 90.64 9.90006 90.18 9.79006C89.72 9.67006 89.32 9.70006 89.21 9.72006C87.74 9.46006 82.62 9.66006 80.23 9.62006L80.14 9.75006C78.5 9.75006 76.92 9.78006 74.88 9.83006L75.01 9.94006C73.25 10.0301 70.49 9.86006 67.7 9.87006C67.89 9.83006 68.6 9.84006 69.09 9.87006C65.76 9.62006 62.07 10.0501 59.06 9.87006C58.31 9.91006 57.76 9.90006 57.24 9.87006C57.31 9.87006 57.37 9.87006 57.43 9.87006C57.35 9.87006 57.24 9.87006 57.12 9.87006C56.79 9.85006 56.44 9.83006 56.08 9.81006C56.39 9.84006 56.7 9.86006 56.96 9.87006C56.38 9.87006 55.5 9.89006 54.64 9.91006L54.27 9.79006C54.2 9.79006 54.14 9.79006 54.07 9.79006C53.22 9.75006 53.39 9.85006 53.84 9.94006C53.41 9.96006 53.01 9.98006 52.7 10.0101C52.01 9.82006 50.44 10.0801 49.5 9.87006C48.92 9.97006 45.16 9.95006 44.72 10.1601C44.7 10.1301 44.46 10.1201 44.9 10.1201C44.45 10.1201 44.09 9.99006 43.78 9.74006C43.47 9.46006 43.11 9.12006 42.78 8.86006L42.59 8.47006L40.92 7.18006C40.06 6.24006 39.71 5.84006 40.71 6.62006C38.36 4.65006 38.86 4.97006 36.85 3.31006L37.01 3.33006C36.33 2.69006 35.16 1.77006 34.81 1.33006C34.66 1.15006 34.35 0.820064 33.89 0.620064C33.66 0.510064 33.4 0.440063 33.1 0.400063C32.78 0.370063 32.55 0.380058 32.25 0.380058C31.1 0.380058 29.72 0.370062 28.23 0.360062C25.25 0.360062 21.87 0.360063 19.2 0.260063C20.23 0.550063 16.72 0.130062 16.51 0.360062C16.2 0.290062 15.46 0.250063 16.32 0.190063C13.6 0.260063 12.23 0.0800577 10.35 0.270058C10.04 0.200058 10.93 0.170058 10.66 0.130058C10.44 0.140058 9.80004 0.190063 9.51004 0.150063C9.23004 0.110063 9.91004 0.0900586 10.34 0.0600586C7.56004 0.0700586 7.28004 0.280064 7.08004 0.480064C5.67004 0.390064 4.97004 0.40006 3.95004 0.53006C3.46004 0.46006 2.64004 0.400064 4.37004 0.370064C4.13004 0.370064 3.63004 0.37006 3.03004 0.35006C2.33004 0.32006 1.46004 0.660062 0.940039 1.29006C0.390039 1.89006 0.250038 2.79006 0.310038 3.28006C0.320038 3.77006 0.350038 4.10006 0.390038 4.13006C0.350038 4.43006 0.380038 5.49006 0.390038 5.74006C0.390038 7.92006 0.390038 8.11006 0.390038 10.2501L0.420039 9.66006C0.610039 10.5101 0.460038 11.4401 0.490038 13.1701L0.470038 13.1201C0.330038 17.0801 0.540038 14.8301 0.380038 18.7301L0.500039 18.5201C0.760038 18.8801 0.350039 21.9801 0.450039 24.2501L0.520039 23.4301C0.610039 24.6701 0.170038 26.8901 0.140038 28.1301C0.120038 28.4001 0.100039 27.7001 0.0900387 27.3201C-0.0599613 30.5701 0.250039 27.7401 0.280039 30.1701C0.200039 30.6201 0.0600378 29.5901 0.0500378 31.2301C-0.0199622 32.0401 0.330038 35.9601 0.160038 38.1901C0.230038 37.7001 0.290039 37.2101 0.340039 38.3401C0.360039 40.0701 0.0900377 43.0101 0.300038 44.5701C0.280038 44.7901 0.270039 44.8701 0.250039 44.8801C0.300039 46.2001 0.340039 49.1701 0.450039 49.9601C0.0400393 51.1801 0.650039 58.1701 0.270039 58.1401L0.290039 62.2001L0.250039 62.0901C0.220039 64.6801 0.320038 65.6001 0.410038 66.5101C0.380038 67.1101 0.350038 66.6701 0.330038 66.6201C0.250038 70.4101 0.270038 70.7901 0.460038 73.9701L0.340039 74.3001C0.410039 75.1601 0.150039 79.7801 0.290039 83.5001C0.280039 83.4601 0.250038 83.3901 0.230038 83.0901C0.380038 87.2701 -0.109961 93.1101 0.340039 94.6401L0.450039 97.4001C0.490039 93.8301 0.650038 97.9301 0.720038 96.4601C0.750038 97.8601 0.580038 100.09 0.560038 98.3701L0.580038 98.1001C0.340038 97.4701 0.500039 102.54 0.340039 102.44C0.320039 105.95 0.300039 109.42 0.280039 112.84C0.280039 113.69 0.260039 114.54 0.260039 115.39C0.240039 115.79 0.290039 116.4 0.520039 116.84C0.730039 117.31 1.08004 117.71 1.51004 117.99C1.94004 118.27 2.44004 118.44 2.95004 118.45H4.22004C5.05004 118.46 5.88004 118.47 6.70004 118.47L5.94004 118.29H8.24004C8.84004 118.34 9.05004 118.44 7.41004 118.44C8.27004 118.54 10.16 118.35 10.2 118.31C13.41 118.38 8.95004 118.52 9.93004 118.53H11.27L10.97 118.49C12.05 118.42 12.15 118.34 14.12 118.35C15.37 118.39 14.76 118.46 15.25 118.47C15.25 118.47 15.29 118.48 15.4 118.48C15.51 118.48 15.7 118.48 16 118.48L18.89 118.5L17.73 118.36C19.01 118.29 20.45 118.36 19.12 118.2C21.08 118.45 29.91 118.29 31.12 118.37C31.57 118.35 32.02 118.33 32.47 118.31C32.96 118.29 33.29 118.28 33.65 118.48C33.96 118.65 34.32 119.06 34.69 119.39C35.05 119.74 35.43 120.1 35.83 120.48C35.45 120.08 35.33 119.74 36.69 121.06C35.96 120.83 39.11 123.55 40.06 124.78C39.18 123.72 44 128.45 42.6 126.81C43.15 127.36 43.2 127.42 43.15 127.43C43.12 127.43 42.98 127.46 43.59 127.85C44.09 128.1 44.76 128.11 45.21 128.09C45.7 128.09 46.21 128.09 46.72 128.09C47.75 128.09 48.81 128.11 49.9 128.12C52.08 128.15 54.38 128.19 56.7 128.17C56.77 128.13 55.99 128.06 56.99 127.99L59.45 128.21C60.37 128.19 60.3 127.96 61.97 128.11C61.73 128.07 61.38 128.02 62 128C66.56 128.11 71.21 128.06 75.88 128.04H82.89L86.39 128.11L88.13 128.16L89 128.19L89.44 128.21C89.62 128.21 89.8 128.21 89.98 128.17C89.17 128.23 89.16 128.14 89.31 128.15C89.47 128.14 90.06 128.13 90.58 127.87C89.88 128.13 90.56 127.77 90.4 127.77C91.09 127.52 91.68 126.96 91.95 126.25C92.1 125.91 92.14 125.48 92.15 125.16L92.19 124.19C92.03 123.48 92.19 120.04 92.03 119.63L92.06 120.86C91.88 119.23 91.64 123.14 91.4 122.9C91.45 123.36 91.46 123.89 91.44 124.47C91.43 124.76 91.41 125.06 91.4 125.38C91.38 125.66 91.3 125.93 91.16 126.18C90.89 126.68 90.37 127.06 89.79 127.18C89.52 127.24 89.15 127.22 88.77 127.24C88.4 127.26 88.02 127.28 87.65 127.32C86.99 127.27 88.21 127.24 87.86 127.19C87.1 127.29 86.18 127.31 84.48 127.27L84.67 127.24C79.89 127.27 77.85 127.16 72.48 127.1L72.88 127.22C71.73 127.2 71.48 127.17 70.94 127.14C69.62 127.32 74.18 127.15 72.97 127.35C71.44 127.11 64.84 127.35 63.81 127.07C62.04 127.07 64.33 127.21 62.56 127.21L62.09 127.14L61.64 127.24C60.48 127.22 59.89 127.13 59.85 127.07C60.13 127.07 60.65 127.05 60.95 127.05C59.44 126.96 56.7 127.08 56.18 127.05L57.88 127.1C55.46 127.1 52.77 127.12 50.1 127.13C48.77 127.13 47.44 127.14 46.15 127.15C45.83 127.15 45.51 127.15 45.19 127.16H44.73C44.61 127.16 44.49 127.16 44.37 127.13C43.87 127.04 43.55 126.74 43.08 126.32L43.3 126.6C40.63 124.22 41.26 124.59 38.38 121.93L38.49 122.02C37.88 121.52 37.1 120.82 36.32 120.08C37.08 120.71 35.05 118.71 36.05 119.55C35.33 118.91 34.87 118.51 34.57 118.24C34.24 117.94 33.97 117.82 33.8 117.76C33.62 117.7 33.47 117.67 33.19 117.65C32.88 117.64 32.55 117.7 31.91 117.75L31.32 117.66C30.45 117.74 30.38 117.79 28.42 117.81C30.03 117.73 27.17 117.67 28.97 117.56C24.86 117.36 22.87 117.76 20.98 117.47C19.09 117.73 24.54 117.61 23.48 117.67C24.36 117.75 21.92 117.86 20.63 117.84C19.32 117.84 18.4 117.51 15.1 117.52C15.43 117.52 15.45 117.52 15.78 117.5C14.54 117.43 13.36 117.59 11.84 117.48C10.99 117.64 9.87004 117.48 9.63004 117.67L12.66 117.62C10.94 117.67 9.33004 117.9 6.50004 117.79C6.72004 117.75 7.56004 117.7 8.14004 117.67C7.31004 117.61 6.55004 117.71 5.69004 117.65C5.93004 117.45 9.37004 117.61 11.21 117.46C10.32 117.38 7.73004 117.6 8.65004 117.39C7.32004 117.66 5.40004 117.36 3.16004 117.56L3.31004 117.44C3.11004 117.44 2.89004 117.48 2.66004 117.44C2.42004 117.41 2.16004 117.31 1.96004 117.15C2.24004 117.3 2.54004 117.35 2.83004 117.34C2.16004 117.34 1.59004 116.79 1.46004 116.18C1.43004 116.03 1.41004 115.87 1.42004 115.72L1.44004 115.08C1.45004 114.65 1.45004 114.22 1.44004 113.79C1.44004 115.61 1.41004 115.81 1.36004 115.74C1.33004 115.73 1.31004 115.63 1.28004 115.64C1.26004 115.66 1.21004 115.75 1.24004 116.06C1.18004 115.85 1.19004 115.63 1.18004 115.38C1.18004 115.15 1.18004 114.93 1.18004 114.74C1.18004 114.35 1.18004 114.04 1.19004 113.77C1.21004 113.24 1.25004 112.9 1.30004 112.54C1.39004 111.83 1.49004 111.05 1.47004 108.54C1.49004 109.22 1.40004 111.09 1.34004 110.03C1.36004 109.07 1.41004 107.81 1.47004 107.23C1.45004 103.9 1.35004 107.74 1.28004 106.32C1.42004 105.19 1.22004 104.69 1.17004 103.23H1.29004C1.37004 99.4301 1.04004 102.21 1.13004 98.8001L1.30004 100.24L1.26004 98.4601L1.40004 98.8301C1.30004 96.8901 1.32004 96.2901 1.36004 94.4001C1.27004 94.8401 1.14004 94.1501 1.14004 92.4701C1.21004 91.3201 1.25004 93.1101 1.24004 90.7301C1.32004 91.2701 1.41004 91.8601 1.30004 92.8901C1.34004 93.0001 1.38004 93.4201 1.41004 93.5301C1.49004 92.3001 1.43004 90.4301 1.43004 89.5701C1.43004 89.9001 1.42004 90.3001 1.40004 90.5001L1.23004 87.0501C1.28004 86.5101 1.31004 86.9401 1.35004 87.3601C1.34004 86.6601 1.28004 86.1801 1.27004 85.1501C1.37004 85.4201 1.47004 85.3501 1.52004 86.8101L1.41004 83.5201C1.45004 83.3001 1.53004 81.8301 1.56004 82.2601C1.62004 80.4401 1.37004 77.7901 1.45004 75.3701C1.43004 75.2401 1.41004 74.9901 1.40004 74.4801C1.42004 72.2101 1.54004 70.2001 1.40004 67.5101L1.58004 65.9801C1.54004 63.8701 1.36004 68.0501 1.29004 64.5401C1.23004 62.0601 1.44004 63.6101 1.49004 62.7401C1.40004 61.5001 1.22004 59.3601 1.36004 57.0701C1.39004 57.8301 1.36004 58.4201 1.38004 59.1201L1.29004 59.0301ZM1.21004 33.0301C1.24004 33.5301 1.31004 34.5401 1.24004 34.9101C1.10004 34.3401 1.17004 33.8901 1.21004 33.0301ZM8.83004 0.950058C8.46004 0.990058 7.88004 0.970059 7.22004 0.920059C7.69004 0.920059 8.23004 0.920058 8.83004 0.950058ZM92.21 34.9501C92.21 34.9501 92.21 34.9101 92.21 34.9001C92.26 33.7801 92.24 34.1801 92.21 34.9501ZM92.16 37.2801C92.18 37.5101 92.19 37.5001 92.21 37.4001C92.18 37.2401 92.18 36.7101 92.19 36.1201C92.16 36.2901 92.14 36.5901 92.16 37.2801ZM15.42 118.36L14.97 118.33C16 118.3 15.71 118.33 15.42 118.36Z" fill="#FF2020"/>
<path d="M4.35004 1.13006C4.21004 1.11006 4.17004 1.09006 4.13004 1.06006C3.93004 1.08006 3.93004 1.10006 4.35004 1.13006Z" fill="#FF2020"/>
<path d="M1.35004 75.2001V75.2801C1.35004 75.2801 1.36004 75.3501 1.37004 75.3601L1.35004 75.2001Z" fill="#FF2020"/>
<path d="M81.42 10.8701C80.94 10.8501 80.67 10.8301 80.49 10.8101C80.46 10.8401 80.68 10.8601 81.42 10.8701Z" fill="#FF2020"/>
<path d="M92.37 49.66L92.34 48.17C92.34 48.89 92.32 49.1501 92.3 49.5201C92.33 49.4901 92.37 49.2 92.37 49.67V49.66Z" fill="#FF2020"/>
<path d="M91.6201 62.6301C91.6201 62.8501 91.6301 63.0901 91.6401 63.3101L91.7001 63.2501C91.7001 62.3201 91.6501 61.6701 91.6301 62.6301H91.6201Z" fill="#FF2020"/>
<path d="M91.97 51.04C91.87 51.16 91.9 52.1 91.92 53.14V52.95C92.06 53.26 92.02 52.14 91.97 51.03V51.04Z" fill="#FF2020"/>
<path d="M91.92 53.3901C91.92 53.7101 91.92 54.0401 91.92 54.3601C91.98 54.4801 91.93 53.9701 91.92 53.3901Z" fill="#FF2020"/>
<path d="M92.2301 40.2501C92.2001 40.7501 92.3601 40.5601 92.3201 40.8401C92.4501 41.3901 92.1601 37.5301 92.2301 40.2501Z" fill="#FF2020"/>
<path d="M91.63 51.8901L91.76 51.5101L91.66 50.9301L91.63 51.8901Z" fill="#FF2020"/>
<path d="M91.73 43.6201L91.7 45.29C91.7 45.29 91.73 45.4801 91.74 45.7401C91.74 44.7101 91.77 43.5801 91.74 43.6201H91.73Z" fill="#FF2020"/>
<path d="M91.73 45.7401C91.73 46.2801 91.73 46.79 91.75 47.09C91.75 46.8 91.74 46.1801 91.73 45.7401Z" fill="#FF2020"/>
<path d="M91.6 49.6001L91.62 49.1101L91.63 47.9301L91.6 49.6001Z" fill="#FF2020"/>
<path d="M91.75 25.6401L91.71 23.8101C91.67 23.6201 91.6401 24.1201 91.6601 24.8001C91.6901 25.2401 91.71 25.9101 91.75 25.6301V25.6401Z" fill="#FF2020"/>
<path d="M91.41 31.16C91.44 30.67 91.46 30.63 91.51 30.35L91.35 30.29L91.41 31.15V31.16Z" fill="#FF2020"/>
<path d="M91.37 25.8401C91.33 25.6601 91.25 23.1901 91.26 25.5001C91.3 25.6901 91.34 27.5101 91.37 25.8401Z" fill="#FF2020"/>
<path d="M78.6 10.4401H79.06L79 10.1901L78.6 10.4401Z" fill="#FF2020"/>
<path d="M54.35 11.05C56.51 11.11 54.86 10.89 56.82 10.97C57.33 10.91 55.22 10.91 55.74 10.86C54.43 10.92 53.75 10.89 54.35 11.06V11.05Z" fill="#FF2020"/>
<path d="M55.7501 10.8601C55.9601 10.8501 56.1801 10.8401 56.4201 10.8201C56.0501 10.8401 55.8701 10.8501 55.7501 10.8601Z" fill="#FF2020"/>
<path d="M92.24 121.52L92.29 120.13L92.21 121.03L92.24 121.52Z" fill="#FF2020"/>
<path d="M92.05 118.85L92.21 118.52L92.06 117.68C92.06 117.99 92.08 118.6 92.04 118.84L92.05 118.85Z" fill="#FF2020"/>
<path d="M1.54001 29.1701L1.50001 29.0601C1.46001 29.2801 1.45001 29.6001 1.45001 30.2501L1.54001 29.1601V29.1701Z" fill="#FF2020"/>
<path d="M1.42002 48.0401V47.7201L1.27002 48.3201L1.42002 48.0401Z" fill="#FF2020"/>
<path d="M1.60001 63.8801C1.60001 63.2301 1.59001 62.4701 1.58001 61.8201C1.61001 63.2301 1.42001 64.0501 1.60001 63.8801Z" fill="#FF2020"/>
<path opacity="0.6" d="M0.870056 10.58V3.00003C0.870056 1.85003 1.80005 0.910034 2.96005 0.910034H32.8001C33.3301 0.910034 33.8401 1.11003 34.2301 1.48003L43.2601 10.01C43.6501 10.38 44.16 10.58 44.7001 10.58H89.3501C90.5001 10.58 91.4401 11.51 91.4401 12.67V117.68L91.4201 125.27C91.4201 126.42 90.4901 127.35 89.3301 127.35H44.7001C44.1701 127.35 43.6501 127.15 43.2601 126.78L34.2301 118.25C33.8401 117.88 33.3301 117.68 32.8001 117.68H2.96005C1.81005 117.68 0.870056 116.75 0.870056 115.59V10.58Z" fill="#890B0B"/>
</svg>
