<svg width="95" height="130" viewBox="0 0 95 130" fill="none" xmlns="http://www.w3.org/2000/svg">
<path d="M94.19 118.2C94.17 118.82 94.38 118.6 94.42 118.69C94.37 117.65 94.14 118.23 94.19 118.2Z" fill="white"/>
<path d="M93.71 107.97L93.8 108.15L93.59 106.64L93.71 107.97Z" fill="white"/>
<path d="M93.72 98.4C93.36 99.3 93.78 101.87 93.65 103.57L93.57 103.85L93.86 104.62C93.81 102.55 93.62 99.86 93.72 98.4Z" fill="white"/>
<path d="M94.49 93.3C94.35 93.61 94.37 92.2 94.45 94.49C94.47 94.38 94.47 94.34 94.49 94.27C94.49 94.06 94.49 93.78 94.49 93.3Z" fill="white"/>
<path d="M94.48 94.27C94.49 95.28 94.6 93.61 94.48 94.27V94.27Z" fill="white"/>
<path d="M94.4 89.62L94.52 90.95C94.6 90.6701 94.62 89.49 94.68 89.93C94.61 88.57 94.53 88.85 94.4 89.62Z" fill="white"/>
<path d="M94.14 88.36L94.19 89.05C94.22 88.93 94.24 88.75 94.14 88.36Z" fill="white"/>
<path d="M94.3 90.51L94.19 89.05C94.13 89.24 94.02 89.26 94.23 89.72C94.12 89.6 94.23 89.89 94.3 90.51Z" fill="white"/>
<path d="M94.25 91.34C94.17 92.08 94.12 93.05 94 91.71C94.05 94.25 94.3 93.87 94.25 91.34Z" fill="white"/>
<path d="M93.35 97.91L93.25 98.91L93.37 99.77C93.31 99.34 93.47 97.85 93.35 97.91Z" fill="white"/>
<path d="M94.58 81.36C94.5 81.28 94.38 81.81 94.28 81.91L94.37 82.89C94.42 82.39 94.47 81.43 94.58 81.36Z" fill="white"/>
<path d="M94.28 81.9L94.15 80.43C94.13 81.74 94.2 81.98 94.28 81.9Z" fill="white"/>
<path d="M93.74 88.13L94.02 90.54L93.74 87.66V88.13Z" fill="white"/>
<path d="M94.59 75.75L94.77 76.59L94.5 75.11L94.59 75.75Z" fill="white"/>
<path d="M94.56 72.04C94.71 72.66 94.81 71.2 94.9 71.85C94.87 70.84 94.75 69.98 94.64 69.2C94.7 70.02 94.69 70.9 94.57 72.04H94.56Z" fill="white"/>
<path d="M94.47 67.9C94.5 68.31 94.57 68.74 94.63 69.2C94.6 68.76 94.55 68.33 94.47 67.9Z" fill="white"/>
<path d="M94.19 77.94C94.24 77.83 94.36 77.61 94.41 76.79L94.2 77.37C94.2 77.55 94.2 77.75 94.2 77.95L94.19 77.94Z" fill="white"/>
<path d="M94.19 77.3801V77.36C94.2 76.73 94.21 76.3 94.21 76.11C94.21 76.27 94.21 76.6501 94.19 77.3801Z" fill="white"/>
<path d="M94.19 78.08C94.19 78.03 94.19 77.99 94.19 77.93C94.17 77.99 94.16 78.02 94.19 78.08Z" fill="white"/>
<path d="M93.94 84.28C93.82 83.42 93.69 81.62 93.51 83.36C93.66 83.98 93.76 82.98 93.94 84.28Z" fill="white"/>
<path d="M93.92 78.8L93.87 80.36C93.93 80.33 94.01 80.05 94.07 80.48L93.92 78.81V78.8Z" fill="white"/>
<path d="M93.86 78.04L93.92 78.8L93.94 78.22L93.86 78.04Z" fill="white"/>
<path d="M94.27 70.57C94.18 69.9 94.17 69.16 94.15 68.33C94.11 69.22 94.09 70.14 94.09 71.02C94.16 71.14 94.28 71.53 94.27 70.57Z" fill="white"/>
<path d="M94.21 73.8801C94.21 73.8801 94.21 73.77 94.2 73.73C94.18 73.82 94.18 73.9001 94.21 73.8801Z" fill="white"/>
<path d="M94.16 60.14L94.12 60.27L94.16 60.3V60.14Z" fill="white"/>
<path d="M94.05 71.1601C94.01 71.8301 94.06 72.2301 94.13 72.6101C94.11 72.1101 94.09 71.58 94.09 71.01C94.06 70.95 94.04 70.9401 94.05 71.1601Z" fill="white"/>
<path d="M94.37 65.61C94.33 65.96 94.29 66.3501 94.25 66.7701C94.32 66.4301 94.42 65.73 94.37 65.61Z" fill="white"/>
<path d="M94.26 73.5C94.26 73.5 94.26 73.56 94.26 73.6C94.31 73.38 94.28 73.41 94.26 73.5Z" fill="white"/>
<path d="M94.26 73.5C94.23 73.16 94.18 72.88 94.13 72.61C94.15 73.02 94.17 73.4 94.2 73.72C94.22 73.64 94.24 73.5501 94.26 73.4901V73.5Z" fill="white"/>
<path d="M92.79 57.66C92.99 57.78 93.17 59.54 92.96 61.06C93.11 62.56 93.76 61.58 94.12 60.27C94.03 60.22 93.95 60.22 93.84 58.68C93.73 59.22 93.59 62.1 93.41 60.8C93.31 58.76 93.48 59.13 93.58 58.14C93.33 58.98 93.22 55.55 92.86 55.99L92.99 57.78C92.93 57.81 92.84 57.17 92.79 57.66Z" fill="white"/>
<path d="M94.1 63.2L94.12 63.83C94.15 63.11 94.23 62.59 94.39 61.64C94.29 60.59 94.22 60.37 94.15 60.29L94.12 63.41L94.09 63.19L94.1 63.2Z" fill="white"/>
<path d="M94.1199 66.68C93.8999 66.19 93.81 64.66 93.58 65.6C93.59 67.46 93.76 66.9 93.85 68.01C93.8 65.01 93.97 68.87 94.09 66.7C94.13 67.29 94.1399 67.82 94.1499 68.32C94.1799 67.78 94.21 67.26 94.25 66.77C94.25 66.8 94.25 66.82 94.24 66.84V66.85C94.21 66.98 94.2 67.02 94.21 66.88C94.21 66.87 94.21 66.83 94.21 66.82C94.18 66.8 94.15 66.74 94.13 66.68C94.17 65.81 94.19 66.54 94.21 66.82C94.22 66.82 94.23 66.85 94.24 66.86L94.1199 63.84C94.0899 64.48 94.0999 65.27 94.1199 66.68Z" fill="white"/>
<path d="M93.04 81.76C93.06 81.67 93.07 81.67 93.09 81.66C93.06 81.47 93.05 81.39 93.04 81.76Z" fill="white"/>
<path d="M93.17 80.52C93.2 80.74 93.29 80.92 93.26 81.63C93.2 82.25 93.16 81.63 93.09 81.66C93.15 82.09 93.24 83.16 93.35 81.82L93.32 81.61C93.39 80.4 93.66 78.85 93.69 79.06C93.5 79.41 93.36 79.72 93.17 80.53V80.52Z" fill="white"/>
<path d="M93.59 73.52L93.48 71.02L93.29 72.29L93.4 72.23C93.36 73.65 93.49 73.35 93.58 73.52H93.59Z" fill="white"/>
<path d="M94.26 59.8501L94.49 60.19L94.17 58.7401L94.26 59.8501Z" fill="white"/>
<path d="M94.24 56.6001L94.44 56.72L94.32 55.86L94.24 56.6001Z" fill="white"/>
<path d="M3.19 47.29L3.25 48.03C3.23 47.68 3.21 47.46 3.19 47.29Z" fill="white"/>
<path d="M3.19997 41.97L3.09998 41.84C3.14998 42.09 3.18997 42.19 3.19997 41.97Z" fill="white"/>
<path d="M57.35 10.13C56.28 9.95 55.08 9.66 55.21 9.88L55.54 10.1C56.29 10.06 56.86 10.09 57.35 10.13Z" fill="white"/>
<path d="M6.33995 1.75999C6.43995 1.77999 6.54995 1.79999 6.64995 1.82999C6.90995 1.75999 7.14995 1.69 7.36995 1.62C7.05995 1.66 6.69996 1.70999 6.32996 1.75999H6.33995Z" fill="white"/>
<path d="M5.58997 2.65002L4.21997 2.52002C4.44997 2.56002 4.96997 2.61002 5.58997 2.65002Z" fill="white"/>
<path d="M3.41998 76.36L3.63998 77.22C3.63998 75.88 3.52998 76.47 3.41998 76.36Z" fill="white"/>
<path d="M94.16 23.3C94.24 22.38 94.28 21.64 94.29 20.99C94.17 22.1 93.98 23 94.16 23.3Z" fill="white"/>
<path d="M0.890015 45.1901C0.930015 45.6401 0.97002 45.8301 1.02002 45.8201C0.98002 45.3601 0.940015 45.1001 0.890015 45.1901Z" fill="white"/>
<path d="M94.29 18.32C94.27 18.48 94.26 18.64 94.24 18.81C94.28 19.49 94.31 20.17 94.29 20.99C94.38 20.17 94.44 19.23 94.29 18.32Z" fill="white"/>
<path d="M62.2 127.33C62.28 127.33 62.37 127.35 62.44 127.36C62.46 127.33 62.36 127.33 62.2 127.33Z" fill="white"/>
<path d="M93.36 128.07C93.14 128.44 92.64 128.96 92.03 129.23C92.31 129.1 92.85 128.86 93.36 128.07Z" fill="white"/>
<path d="M94.33 43.52C94.34 44.21 94.35 43.63 94.33 43.52V43.52Z" fill="white"/>
<path d="M93.47 46.87C93.45 46.72 93.41 46.61 93.36 46.59C93.41 46.65 93.45 46.74 93.47 46.87Z" fill="white"/>
<path d="M91.96 11.81C91.96 11.81 91.93 11.79 91.91 11.78C92.05 11.93 92.02 11.91 91.96 11.81Z" fill="white"/>
<path d="M94.23 44.56C94.26 44.3 94.28 44 94.29 43.68C94.27 43.82 94.25 44.09 94.23 44.56Z" fill="white"/>
<path d="M94.34 44.42C94.34 44.66 94.33 44.8401 94.32 45.0201C94.36 45.1101 94.38 45.02 94.34 44.42Z" fill="white"/>
<path d="M94.32 42.56C94.32 42.95 94.32 43.32 94.3 43.68C94.31 43.54 94.33 43.49 94.33 43.52C94.33 43.32 94.33 43.03 94.32 42.56Z" fill="white"/>
<path d="M9.39001 118.24C9.39001 118.24 9.49001 118.25 9.54001 118.26C10.24 118.17 9.93001 118.18 9.39001 118.24Z" fill="white"/>
<path d="M40.26 8.01999C40.26 8.01999 40.3 8.04999 40.32 8.06999C40.3 8.04999 40.27 8.01999 40.25 7.98999V8.01999H40.26Z" fill="white"/>
<path d="M38.35 6.44006C39.3 6.97006 39.72 7.40005 40.26 7.99005L40.09 6.97005L38.35 6.43005V6.44006Z" fill="white"/>
<path d="M3.24998 60.03L3.43998 58.29C3.75998 60.39 3.64998 61.91 3.91998 60.28C3.23998 60.03 3.84998 53.52 3.16998 53.28L3.30998 52.13C3.30998 52.46 3.33998 52.51 3.33998 52.84C3.66998 50.61 2.84998 51.18 2.94998 48.31C2.99998 47.31 3.09997 46.61 3.17997 47.29L3.00997 45.06C3.01997 44.41 3.13998 44.57 3.12998 45.22L3.07998 41.82L3.09999 41.85C2.98999 41.36 2.82997 40.26 2.75997 39.73C2.85997 38.87 2.82998 40.16 2.91998 39.94L2.75997 38.06C2.93997 37.29 3.10998 38.85 3.07998 40.16C3.75998 38.4 2.90998 38.6 3.30998 34.8L3.39997 36.58C3.78997 35.43 3.64998 34.04 3.88998 32.03C3.75998 32.51 3.27997 36.06 3.11997 34.01C3.16997 33.43 3.19998 32.67 3.05998 31.57C3.29998 31.56 3.23997 30.48 3.22997 29.13L3.54998 29.22C3.45998 27.76 3.28997 27.88 3.14997 27.02C3.17997 25.4 3.42998 25.06 3.63998 24.68C3.68998 22.08 3.23997 26.48 3.17997 23.4C3.29997 21.24 3.17997 19.72 2.97997 17.13C3.08997 15.62 3.17998 17.39 3.26998 16.85L3.00997 15.51C3.00997 15.18 3.08998 15.29 3.12998 15.34C3.02998 14.21 2.80998 15.25 2.71998 13.47C2.36998 12.99 3.22998 9.82003 2.82998 7.62003C2.91998 7.08003 3.02997 7.88002 3.14997 7.72002C3.01997 6.21002 2.95998 5.57003 2.90998 4.98003C2.87998 4.69003 2.83998 4.42002 2.79998 4.06002C2.75998 3.80002 2.71997 3.51002 2.89997 3.06002C3.25997 2.67002 3.75998 2.48002 4.21998 2.53002C3.70998 2.48002 3.67998 2.38003 4.07998 2.16003C4.49998 2.00003 5.49999 1.89002 6.34999 1.77002C5.79998 1.65002 5.32997 1.55002 5.00997 1.50002L7.77998 1.33002C8.10998 1.38002 7.83998 1.49002 7.37998 1.63002C7.56998 1.60002 7.74998 1.57003 7.88998 1.55003C8.87998 1.67003 8.36998 1.85002 7.65998 2.03002C7.31998 1.96002 6.98998 1.90002 6.65998 1.83002C5.97998 2.02002 5.33997 2.24002 5.47997 2.43002C5.65997 2.39002 6.00998 2.36002 6.38998 2.34002C6.20998 2.39002 6.09997 2.44002 6.17997 2.47002C6.26997 2.50002 6.55998 2.43002 7.01998 2.35002L7.64997 2.71002L7.79998 2.57002L11.43 2.79002C14.02 2.43002 16.28 1.90003 20.4 1.76003C19.38 2.02003 20.18 2.19002 20.12 2.50002C19 2.17002 16.93 2.64002 14.8 2.57002C15.91 2.60002 15.67 2.75003 15.39 2.80003L19.2 2.50002C19.11 2.75002 20.01 2.69002 21 2.79002C20.25 2.29002 23.84 2.46003 25.39 2.30003C25.49 2.47003 25.11 2.64002 23.23 2.60002C25.31 2.98002 25.92 2.01002 27.97 2.33002C27.51 2.33002 27.26 2.31002 27.08 2.39002C28.16 2.24002 30.79 2.36002 30.17 2.51003H29.71C30.48 2.51003 31.44 2.53002 32.47 2.53002C32.98 2.53002 33.51 2.53002 34.03 2.52002C34.46 2.50002 34.74 2.58002 35.04 2.76003C35.12 2.81002 35.16 2.84002 35.25 2.92002L35.52 3.16003C35.7 3.32003 35.88 3.47002 36.04 3.61002C36.38 3.90002 36.69 4.16003 36.97 4.37003C37.52 4.80003 37.93 5.07002 38.08 5.07002C38.06 5.13002 37.44 5.17002 37.24 5.10002L42.2 7.81002C41.6 7.74002 42.35 9.65003 40.36 8.05003C40.85 8.59003 41.47 9.25002 42.67 10.21C42.34 9.83002 42.13 8.97002 42.65 9.42002C43.19 10.21 43.39 10.47 43.63 10.76C43.75 10.91 43.88 11.06 44.08 11.29C44.25 11.5 44.72 12.05 45.54 12.28C44.99 12.11 45.12 11.95 45.49 11.91C45.67 11.88 45.95 11.84 46.19 11.78C46.42 11.73 46.69 11.7 46.99 11.7C46.81 11.79 47.09 12.27 46.66 12.32L49.59 11.76C48.86 11.86 49.46 12.24 50.12 12.4C49.82 12.29 52.66 12.41 53.44 12.35L52.2 12.22C55.51 12.3 55.47 11.43 58.76 11.46C58.36 11.58 57.78 12.17 59.45 12.25C60.22 11.96 62.84 10.86 65.75 10.64L66.31 10.8L68.54 10.61C67.15 11.04 63.25 11.96 61.13 12.31C62.37 12.44 61.48 12.5 63.33 12.49C63.99 12.64 62.32 12.72 61.77 12.73L66.09 12.83C65.9 12.49 69.39 12.49 69.23 12.21L64.54 12.56C64.35 12.22 67.25 11.61 70.31 11.67C71.09 11.8 69.73 12.27 69.79 12.38C70.19 12.26 72.7 12.16 72.98 12.24L71.68 12.42C73.38 12.55 74.46 11.97 76.51 12.3C77.22 12.32 78.62 12.73 78.74 12.53C77.59 12.15 77.36 10.96 78.13 10.67C78.38 10.7 81.84 11.04 82.65 11.23C83.81 11.53 80.9 11.95 81.89 12.21C81.93 12.12 82.58 12 82.84 11.97C83.58 12.05 82.53 12.25 84.15 12.21C84.42 11.87 87.43 12.24 84.91 11.92C86.49 11.82 86.59 11.99 88.44 11.98C88.15 11.87 88.56 11.68 89.25 11.51C89.59 11.42 90.01 11.34 90.43 11.28C90.84 11.2 91.35 11.19 91.75 11.35C91.63 11.39 91.92 11.65 92.02 11.79C92.68 12.26 92.97 12.99 92.95 13.62C92.93 14.28 92.91 14.9 92.89 15.51C92.85 16.73 92.81 17.91 92.81 19.42C92.73 19.7 92.63 21.15 92.48 20.53C92.54 20.96 92.66 21.36 92.66 22.29C92.37 24.09 92.61 20.22 92.26 21.59C92.46 21.71 92.53 24 92.66 25.32C92.97 24.91 92.72 22.26 92.6 20.93C93.02 20.93 93.46 23.23 93.66 26.39C93.76 28.9 93.39 27.48 93.45 27.91C93.38 32.62 94.19 31.92 93.88 35.83C93.61 37.38 93.35 35.9 93.15 36.24C93.05 34.2 93.32 33.11 93.31 31.72L93.18 33.42C93.09 32.77 93.02 31.41 93.1 30.67C92.86 31.97 93.05 38.62 92.83 42.25C92.92 42.9 93.01 44.01 93.12 43.48L93.08 42.33C93.3 41.27 93.38 44.49 93.48 43.04C93.63 44.58 93.87 46.31 93.75 48.48L93.44 48.89C93.53 48.84 93.62 47.47 93.53 46.86C93.67 47.76 93.12 50.19 93.52 51.18L93.73 49.66C93.88 51.21 94.21 53.12 94.11 55.04C94.41 54.17 94.08 54.6 94.43 53.23C93.99 54.41 94.45 48.31 93.99 50.21C94.4 48.81 94.16 47.78 94.51 45.95C94.41 46.01 94.32 46.6 94.37 44.99C94.34 44.92 94.3 44.75 94.28 44.64C94.28 44.59 94.28 44.57 94.28 44.53C94.28 44.56 94.28 44.59 94.27 44.62C94.25 44.55 94.25 44.54 94.27 44.65C94.23 45.03 94.17 45.35 94.12 45.47C93.89 44.67 93.9 42.1 93.78 41.23C93.83 40.27 93.9 41.63 94 41.11L93.82 39.81C94.04 39.68 94.19 37.27 94.32 39.52V37.49C94.46 36.29 94.51 34.65 94.41 33.64C94.46 32.68 94.16 31.22 94.34 32.06L94.2 28.88L94.26 28.85C94.29 25.71 93.89 22.38 94.29 18.79C94.23 17.73 94.16 16.64 94.23 14.87L94.42 14.52C94.42 14.35 94.42 14.16 94.41 13.95C94.41 13.85 94.41 13.74 94.41 13.63C94.41 13.46 94.41 13.28 94.37 13.1C94.28 12.37 93.94 11.62 93.43 11.07C92.92 10.51 92.27 10.16 91.7 10.02C91.13 9.87002 90.62 9.92002 90.54 9.97002C89.07 9.45002 83.95 9.86003 81.56 9.76003L81.47 10.01C79.83 10 78.25 10.07 76.21 10.17L76.34 10.39C74.58 10.57 71.82 10.23 69.03 10.25C69.22 10.16 69.93 10.19 70.42 10.24C67.09 9.73002 63.4 10.61 60.39 10.24C59.64 10.32 59.09 10.29 58.57 10.24C58.64 10.24 58.7 10.24 58.76 10.23C58.68 10.23 58.57 10.23 58.45 10.23C58.12 10.19 57.77 10.15 57.41 10.11C57.72 10.16 58.03 10.21 58.29 10.23C57.71 10.23 56.83 10.26 55.97 10.32L55.6 10.08C55.53 10.08 55.47 10.08 55.4 10.08C54.55 9.99002 54.72 10.19 55.17 10.38C54.74 10.42 54.34 10.47 54.03 10.53C53.34 10.14 51.77 10.66 50.83 10.25C50.26 10.45 46.48 10.4 46.06 10.83C46.06 10.77 45.83 10.74 46.22 10.75C45.82 10.75 45.56 10.62 45.31 10.42C45.04 10.17 44.65 9.82002 44.31 9.58002L44.22 9.08002L42.41 7.94003C41.61 6.93003 41.3 6.49003 42.38 7.19003C39.91 5.36003 40.48 5.59002 38.35 4.06002L38.58 4.00002C37.9 3.37002 36.64 2.54002 36.34 2.04002C36.22 1.86002 35.86 1.45002 35.35 1.21002C35.09 1.08002 34.79 0.99002 34.45 0.95002C34.07 0.91002 33.88 0.920027 33.57 0.910027C32.43 0.880027 31.04 0.880026 29.55 0.870026C26.57 0.870026 23.19 0.850023 20.52 0.680023C21.55 1.26002 18.04 0.420026 17.83 0.870026C17.52 0.730026 16.78 0.650022 17.64 0.530022C14.92 0.670022 13.55 0.310025 11.67 0.690025C11.36 0.550025 12.25 0.490027 11.98 0.410027C11.76 0.440027 11.12 0.53002 10.83 0.45002C10.55 0.37002 11.23 0.33002 11.66 0.27002C8.87998 0.29002 8.59997 0.720026 8.39997 1.12003C6.98997 0.930026 6.28998 0.960024 5.26998 1.22002C4.77998 1.09002 3.95998 0.950027 5.68998 0.910027C5.44998 0.910027 4.94999 0.89002 4.34999 0.88002C3.54999 0.84002 2.53997 1.23002 1.92997 1.96002C1.61997 2.32002 1.40998 2.74003 1.29998 3.16003C1.18998 3.56003 1.18999 4.03003 1.20999 4.23003C1.23999 4.72003 1.28997 5.05002 1.36997 5.08002C1.28997 5.38002 1.34998 6.44003 1.37998 6.69003C1.35998 8.87003 1.32998 9.06002 1.35998 11.2L1.40998 10.61C1.79998 11.46 1.49997 12.39 1.53997 14.12L1.49998 14.07C1.21998 18.03 1.62999 15.78 1.31999 19.68L1.55998 19.47C2.07998 19.83 1.25998 22.93 1.44998 25.2L1.58998 24.38C1.76998 25.62 0.889986 27.84 0.819986 29.08C0.779986 29.35 0.749986 28.65 0.709986 28.27C0.409986 31.52 1.01999 28.69 1.09999 31.12C0.929985 31.57 0.669978 30.54 0.639978 32.18C0.499978 32.99 1.18997 36.91 0.869974 39.14C0.999974 38.65 1.12997 38.16 1.22997 39.29C1.27997 41.02 0.739973 43.96 1.14997 45.52C1.10997 45.74 1.07998 45.82 1.04998 45.83C1.15998 47.15 1.22998 50.12 1.44998 50.91C0.619976 52.13 1.84998 59.12 1.08998 59.09L1.12998 63.15L1.04998 63.04C0.999982 65.63 1.17997 66.55 1.36997 67.46C1.31997 68.06 1.24999 67.62 1.20999 67.57C1.05999 71.36 1.08998 71.74 1.46998 74.92L1.21998 75.25C1.35998 76.11 0.829974 80.73 1.11997 84.45C1.08997 84.41 1.03997 84.34 1.00997 84.04C1.29997 88.22 0.319975 94.06 1.22997 95.59L1.44998 98.35C1.51998 94.78 1.83998 98.88 1.98998 97.41C2.03998 98.81 1.71998 101.04 1.66998 99.32L1.71998 99.05C1.24998 98.42 1.54997 103.49 1.22997 103.39C1.23997 106.9 1.17997 110.37 1.11997 113.79C1.09997 114.64 1.08999 115.49 1.06999 116.34C1.06999 116.52 1.04998 116.83 1.10998 117.13C1.14998 117.43 1.23997 117.72 1.36997 118C1.61997 118.55 2.02998 119.02 2.52998 119.36C3.02998 119.7 3.62998 119.89 4.23998 119.92L5.51998 119.94C6.34998 119.94 7.17998 119.95 7.99998 119.96L7.23998 119.59L9.53997 119.61C10.14 119.7 10.35 119.9 8.70999 119.88C9.56999 120.09 11.46 119.71 11.5 119.63C14.71 119.78 10.25 120.06 11.23 120.07L12.57 120.04L12.27 120C13.35 119.85 13.45 119.69 15.42 119.71C16.67 119.78 16.06 119.94 16.55 119.95C16.55 119.98 16.71 119.99 17.3 119.96L20.19 119.99L19.03 119.7C20.31 119.56 21.75 119.72 20.42 119.39C22.38 119.89 31.21 119.57 32.42 119.73C32.87 119.68 33.32 119.64 33.77 119.61L34.11 119.59C34.22 119.59 34.27 119.59 34.35 119.59C34.5 119.6 34.65 119.64 34.79 119.72C35.01 119.82 35.41 120.25 35.77 120.57C36.13 120.92 36.51 121.28 36.91 121.66C36.55 121.24 36.54 120.78 37.89 122.11C36.93 122.12 40.21 124.7 40.99 126.11C40.22 124.94 44.96 129.75 43.71 127.95C44.24 128.5 44.32 128.62 44.23 128.65C44.18 128.67 43.98 128.74 44.69 129.22C45 129.35 45.33 129.43 45.66 129.47C45.82 129.49 46.02 129.49 46.14 129.48H46.51C47 129.46 47.51 129.46 48.02 129.45C49.05 129.45 50.11 129.48 51.2 129.51C53.38 129.57 55.68 129.66 58 129.61C58.07 129.52 57.29 129.39 58.29 129.26L60.75 129.7C61.67 129.66 61.6 129.19 63.27 129.5C63.03 129.43 62.68 129.31 63.3 129.29C67.86 129.5 72.51 129.42 77.18 129.38C79.52 129.36 81.86 129.35 84.19 129.4C85.36 129.42 86.52 129.46 87.69 129.52L89.43 129.62L90.3 129.68L90.75 129.71C90.97 129.71 91.18 129.71 91.4 129.68C90.93 129.73 90.65 129.67 90.6 129.65C90.52 129.62 90.53 129.61 90.62 129.59C90.77 129.57 91.49 129.56 92.09 129.25C91.26 129.53 92.03 129.05 91.82 129C92.61 128.74 93.29 128.13 93.63 127.32C93.72 127.12 93.78 126.91 93.82 126.69C93.86 126.47 93.88 126.24 93.89 126.1L93.97 125.13C93.64 124.42 93.96 120.98 93.64 120.57L93.69 121.8C93.32 120.17 92.86 124.08 92.38 123.84C92.49 124.3 92.5 124.83 92.47 125.41C92.45 125.7 92.43 126.02 92.4 126.31C92.37 126.54 92.28 126.77 92.15 126.96C91.89 127.36 91.46 127.61 91.01 127.7C90.88 127.72 90.81 127.73 90.63 127.74C90.45 127.75 90.26 127.76 90.07 127.77C89.7 127.8 89.32 127.85 88.95 127.93C88.29 127.83 89.51 127.78 89.16 127.66C88.4 127.87 87.48 127.91 85.78 127.82L85.97 127.77C81.19 127.82 79.15 127.62 73.78 127.48L74.18 127.72C73.03 127.69 72.78 127.61 72.24 127.55C70.92 127.91 75.48 127.57 74.27 127.97C72.74 127.49 66.14 127.97 65.11 127.42C63.34 127.42 65.63 127.69 63.86 127.69L63.39 127.54L62.94 127.73C61.78 127.7 61.19 127.51 61.15 127.39C61.43 127.4 61.95 127.35 62.25 127.34C60.74 127.17 58 127.4 57.48 127.34L59.18 127.43C56.76 127.5 54.07 127.49 51.4 127.49C50.07 127.5 48.74 127.52 47.45 127.53C47.13 127.53 46.81 127.55 46.49 127.55H46.04C45.95 127.57 45.86 127.56 45.78 127.55C45.4 127.49 45.21 127.34 44.69 126.89L44.87 127.22C42.13 124.92 42.88 125.17 39.96 122.54L40.08 122.62C39.43 122.16 38.63 121.48 37.86 120.74C38.67 121.32 36.68 119.28 37.72 120.06C36.97 119.44 36.51 119.06 36.2 118.8C35.81 118.46 35.47 118.33 35.27 118.28C35.05 118.22 34.88 118.2 34.54 118.21C34.15 118.21 33.85 118.33 33.2 118.42L32.61 118.23C31.74 118.4 31.67 118.49 29.71 118.53C31.32 118.37 28.46 118.25 30.26 118.04C26.15 117.63 24.16 118.45 22.27 117.86C20.38 118.37 25.83 118.14 24.77 118.25C25.65 118.42 23.21 118.63 21.92 118.58C20.61 118.57 19.69 117.92 16.39 117.93C16.72 117.93 16.74 117.89 17.07 117.9C15.83 117.77 14.65 118.08 13.13 117.86C12.28 118.17 11.16 117.84 10.92 118.24L13.95 118.15C12.23 118.25 10.62 118.72 7.78997 118.49C8.00997 118.41 8.84997 118.31 9.42997 118.25C8.59997 118.13 7.83997 118.33 6.97997 118.21C7.21997 117.81 10.66 118.12 12.5 117.82C11.61 117.65 9.01998 118.11 9.93998 117.68C8.60998 118.23 6.68998 117.61 4.44998 118.03L4.59999 117.79C4.51999 117.79 4.41998 117.81 4.29998 117.83C4.22998 117.85 4.14998 117.85 4.05998 117.85C3.88998 117.85 3.68997 117.79 3.53997 117.67C3.77997 117.73 4.00998 117.69 4.19998 117.61C3.76998 117.7 3.37998 117.28 3.35998 116.9C3.35998 116.8 3.35997 116.71 3.36997 116.62L3.40998 115.99C3.42998 115.56 3.43998 115.13 3.40998 114.7C3.40998 116.52 3.33998 116.72 3.24998 116.64C3.19998 116.64 3.14999 116.55 3.09999 116.55C3.04999 116.58 2.98997 116.65 2.97997 116.88C2.95997 116.8 2.93997 116.72 2.92997 116.64C2.91997 116.54 2.90998 116.4 2.90998 116.29C2.90998 116.06 2.89998 115.84 2.88998 115.65C2.88998 115.26 2.88998 114.95 2.91998 114.68C2.95998 114.15 3.04998 113.81 3.13998 113.45C3.31998 112.74 3.52998 111.96 3.46998 109.45C3.49998 110.13 3.32998 112 3.21998 110.94C3.26998 109.98 3.35997 108.72 3.47997 108.14C3.42997 104.81 3.23998 108.65 3.08998 107.23C3.37998 106.1 2.96998 105.6 2.87998 104.14H3.11997C3.26997 100.34 2.61998 103.12 2.79998 99.71L3.12998 101.15L3.03997 99.37L3.30998 99.74C3.10998 97.8 3.15998 97.2 3.23998 95.31C3.06998 95.75 2.79997 95.06 2.78997 93.38C2.92997 92.23 3.01997 94.02 2.97997 91.64C3.12997 92.18 3.31999 92.77 3.09999 93.8C3.17999 93.91 3.24998 94.33 3.32998 94.44C3.48998 93.21 3.36997 91.34 3.36997 90.48C3.36997 90.81 3.34998 91.21 3.30998 91.41L2.97997 87.96C3.06997 87.42 3.13999 87.85 3.20999 88.27C3.17999 87.57 3.06998 87.09 3.04998 86.06C3.24998 86.33 3.44997 86.26 3.53997 87.72L3.31999 84.43C3.40999 84.21 3.54998 82.74 3.62998 83.17C3.74998 81.35 3.24997 78.7 3.39997 76.28C3.35997 76.15 3.32998 75.9 3.29998 75.39C3.33998 73.12 3.57999 71.11 3.31999 68.42L3.66998 66.89C3.58998 64.78 3.22998 68.96 3.08998 65.45C2.97998 62.97 3.38998 64.52 3.48998 63.65C3.30998 62.41 2.94998 60.27 3.23998 57.98C3.30998 58.74 3.24998 59.33 3.27998 60.03H3.24998ZM3.08998 34.03C3.13998 34.53 3.29997 35.54 3.14997 35.91C2.86997 35.34 3.00998 34.89 3.08998 34.03ZM10.17 2.21002C9.79998 2.29002 9.21998 2.25003 8.55998 2.16003C9.02998 2.14003 9.56998 2.15002 10.17 2.21002ZM94.13 35.95C94.13 35.95 94.13 35.91 94.12 35.9C94.21 34.78 94.18 35.18 94.13 35.95ZM94.03 38.28C94.06 38.51 94.1 38.5 94.13 38.4C94.07 38.24 94.06 37.71 94.08 37.12C94.02 37.29 93.97 37.59 94.03 38.28ZM16.76 119.85L16.31 119.79C17.34 119.72 17.05 119.79 16.76 119.85Z" fill="white"/>
<path d="M5.69001 2.55005C5.55001 2.51005 5.51001 2.46004 5.47001 2.42004C5.27001 2.46004 5.27001 2.51005 5.69001 2.55005Z" fill="white"/>
<path d="M3.38 76.2V76.28C3.38 76.28 3.41 76.35 3.42 76.36L3.38 76.2Z" fill="white"/>
<path d="M82.76 12.36C82.28 12.33 82.01 12.28 81.83 12.24C81.8 12.3 82.02 12.35 82.76 12.36Z" fill="white"/>
<path d="M94.44 50.66L94.38 49.17C94.39 49.89 94.34 50.1501 94.3 50.5201C94.36 50.4901 94.44 50.2 94.44 50.67V50.66Z" fill="white"/>
<path d="M92.95 63.63C92.98 63.85 92.95 64.09 92.98 64.31L93.09 64.25C93.09 63.32 92.99 62.67 92.94 63.63H92.95Z" fill="white"/>
<path d="M93.64 52.04C93.44 52.16 93.51 53.1 93.54 54.14V53.95C93.82 54.26 93.73 53.14 93.64 52.03V52.04Z" fill="white"/>
<path d="M93.55 54.39C93.55 54.71 93.56 55.04 93.55 55.36C93.66 55.48 93.57 54.97 93.55 54.39Z" fill="white"/>
<path d="M94.17 41.25C94.12 41.75 94.43 41.56 94.35 41.84C94.61 42.39 94.04 38.53 94.17 41.25Z" fill="white"/>
<path d="M92.97 52.89L93.22 52.51L93.02 51.93L92.97 52.89Z" fill="white"/>
<path d="M93.16 44.62L93.09 46.29C93.09 46.29 93.16 46.48 93.18 46.74C93.18 45.71 93.24 44.58 93.16 44.62Z" fill="white"/>
<path d="M93.17 46.7401C93.17 47.2801 93.17 47.79 93.21 48.09C93.21 47.8 93.2 47.1701 93.17 46.7401Z" fill="white"/>
<path d="M92.9 50.6L92.95 50.11L92.97 48.93L92.9 50.6Z" fill="white"/>
<path d="M93.2 26.64L93.13 24.81C93.04 24.62 92.99 25.12 93.03 25.8C93.09 26.24 93.12 26.91 93.21 26.63L93.2 26.64Z" fill="white"/>
<path d="M92.52 32.16C92.57 31.67 92.63 31.63 92.71 31.35L92.4 31.29L92.52 32.15V32.16Z" fill="white"/>
<path d="M92.44 26.84C92.35 26.66 92.19 24.19 92.21 26.5C92.3 26.69 92.37 28.51 92.44 26.84Z" fill="white"/>
<path d="M79.94 11.51L80.4 11.5L80.33 11L79.94 11.51Z" fill="white"/>
<path d="M55.69 12.73C57.85 12.85 56.2 12.42 58.16 12.57C58.67 12.45 56.56 12.45 57.08 12.34C55.77 12.47 55.09 12.4 55.69 12.73Z" fill="white"/>
<path d="M57.08 12.34C57.29 12.32 57.51 12.29 57.75 12.26C57.37 12.29 57.19 12.32 57.08 12.34Z" fill="white"/>
<path d="M94.19 122.52L94.3 121.13L94.12 122.03L94.19 122.52Z" fill="white"/>
<path d="M93.81 119.85L94.14 119.52L93.85 118.68C93.86 118.99 93.89 119.6 93.82 119.84L93.81 119.85Z" fill="white"/>
<path d="M3.75 30.17L3.67 30.06C3.59 30.28 3.58001 30.6 3.57001 31.25L3.75 30.16V30.17Z" fill="white"/>
<path d="M3.50996 49.04V48.72L3.21997 49.32L3.50996 49.04Z" fill="white"/>
<path d="M3.88002 64.88C3.89002 64.23 3.83001 63.47 3.84001 62.82C3.89001 64.23 3.51002 65.05 3.88002 64.88Z" fill="white"/>
<path opacity="0.6" d="M2.20996 11.58V4.00003C2.20996 2.85003 3.13996 1.91003 4.29996 1.91003H34.14C34.67 1.91003 35.18 2.11003 35.57 2.48003L44.6 11.01C44.99 11.38 45.4999 11.58 46.0399 11.58H90.69C91.84 11.58 92.78 12.51 92.78 13.67V118.68L92.7599 126.27C92.7599 127.42 91.83 128.35 90.67 128.35H46.0399C45.5099 128.35 44.99 128.15 44.6 127.78L35.57 119.25C35.18 118.88 34.67 118.68 34.14 118.68H4.29996C3.14996 118.68 2.20996 117.75 2.20996 116.59V11.58Z" fill="#890B0B"/>
</svg>
