<svg width="99" height="27" viewBox="0 0 99 27" fill="none" xmlns="http://www.w3.org/2000/svg">
<path d="M92.18 3.68002H7.22003C4.70161 3.68002 2.66003 5.7216 2.66003 8.24002V19.5201C2.66003 22.0385 4.70161 24.08 7.22003 24.08H92.18C94.6984 24.08 96.74 22.0385 96.74 19.5201V8.24002C96.74 5.7216 94.6984 3.68002 92.18 3.68002Z" fill="white"/>
<path d="M91.92 1.85004C92.25 1.88004 92.13 1.56004 92.18 1.51004C91.63 1.58004 91.94 1.93004 91.92 1.85004Z" fill="#202020"/>
<path d="M86.53 2.57004L86.63 2.44003L85.84 2.75003L86.53 2.57004Z" fill="#202020"/>
<path d="M81.5 2.56003C81.98 3.10003 83.33 2.47003 84.22 2.66003L84.37 2.78003L84.78 2.35004C83.69 2.42004 82.27 2.70002 81.5 2.55002V2.56003Z" fill="#202020"/>
<path d="M78.81 1.40002C78.98 1.61002 78.23 1.58003 79.44 1.47003C79.38 1.45003 79.36 1.43004 79.33 1.42004C79.22 1.42004 79.07 1.42003 78.82 1.41003L78.81 1.40002Z" fill="#202020"/>
<path d="M79.32 1.42004C78.97 1.24004 79.85 1.41004 79.32 1.42004V1.42004Z" fill="#202020"/>
<path d="M76.87 1.54004L77.57 1.35004C77.42 1.23004 76.8 1.20002 77.03 1.11002C76.31 1.21002 76.46 1.33004 76.87 1.54004Z" fill="#202020"/>
<path d="M76.21 1.93004L76.57 1.85005C76.51 1.80005 76.41 1.78004 76.21 1.93004Z" fill="#202020"/>
<path d="M77.3401 1.68002L76.5701 1.85004C76.6701 1.94004 76.6801 2.11004 76.9201 1.79004C76.8601 1.95004 77.0101 1.79002 77.3401 1.68002Z" fill="#202020"/>
<path d="M77.77 1.76003C78.16 1.88003 78.67 1.95003 77.97 2.14003C79.31 2.07003 79.11 1.69003 77.77 1.76003Z" fill="#202020"/>
<path d="M81.24 3.12002L81.76 3.28003L82.21 3.10003C81.98 3.19003 81.2 2.95002 81.23 3.12002H81.24Z" fill="#202020"/>
<path d="M72.52 1.26004C72.48 1.37004 72.76 1.56002 72.81 1.71002L73.33 1.58002C73.06 1.50002 72.56 1.43004 72.53 1.26004H72.52Z" fill="#202020"/>
<path d="M72.8 1.71002L72.03 1.91003C72.72 1.93003 72.85 1.84002 72.8 1.71002Z" fill="#202020"/>
<path d="M76.08 2.52002L77.35 2.11002L75.84 2.53003L76.08 2.52002Z" fill="#202020"/>
<path d="M69.56 1.24002L70 0.980042L69.22 1.38004L69.56 1.24002Z" fill="#202020"/>
<path d="M67.61 1.29004C67.93 1.07004 67.17 0.920039 67.51 0.790039C66.98 0.830039 66.52 1.02003 66.12 1.19003C66.55 1.10003 67.02 1.12002 67.62 1.30002L67.61 1.29004Z" fill="#202020"/>
<path d="M65.4299 1.43002C65.6499 1.38002 65.8699 1.28002 66.1199 1.18002C65.8899 1.23002 65.6599 1.30002 65.4299 1.43002Z" fill="#202020"/>
<path d="M70.71 1.85004C70.65 1.78004 70.54 1.60002 70.1 1.52002L70.4 1.84003C70.49 1.84003 70.6 1.84003 70.7 1.84003L70.71 1.85004Z" fill="#202020"/>
<path d="M70.42 1.85004H70.41C70.08 1.83004 69.85 1.82004 69.75 1.82004C69.83 1.82004 70.03 1.83004 70.42 1.85004Z" fill="#202020"/>
<path d="M70.7899 1.85004C70.7899 1.85004 70.74 1.85004 70.71 1.85004C70.74 1.88004 70.7599 1.89004 70.7899 1.85004Z" fill="#202020"/>
<path d="M74.06 2.23004C73.61 2.41004 72.66 2.60003 73.58 2.87003C73.91 2.65003 73.38 2.49004 74.06 2.23004Z" fill="#202020"/>
<path d="M71.17 2.25003L71.9901 2.32004C71.9701 2.24004 71.83 2.11002 72.05 2.02002L71.17 2.24002V2.25003Z" fill="#202020"/>
<path d="M70.77 2.35004L71.17 2.25003L70.86 2.22003L70.77 2.35004Z" fill="#202020"/>
<path d="M66.83 1.73004C66.48 1.87004 66.09 1.88003 65.65 1.90003C66.12 1.96003 66.6 2.00003 67.07 2.00003C67.14 1.90003 67.34 1.72004 66.83 1.73004Z" fill="#202020"/>
<path d="M68.58 1.82004C68.58 1.82004 68.53 1.83003 68.5 1.84003C68.55 1.87003 68.59 1.88004 68.58 1.82004Z" fill="#202020"/>
<path d="M61.34 1.90002L61.41 1.96002L61.42 1.90002H61.34Z" fill="#202020"/>
<path d="M67.15 2.06003C67.5 2.12003 67.71 2.04003 67.91 1.94003C67.65 1.97003 67.37 1.99003 67.07 2.00003C67.04 2.05003 67.04 2.08003 67.15 2.06003Z" fill="#202020"/>
<path d="M64.22 1.58001C64.4 1.65001 64.61 1.70004 64.83 1.76004C64.65 1.66004 64.28 1.50001 64.22 1.58001Z" fill="#202020"/>
<path d="M68.38 1.75004H68.4299C68.3099 1.67004 68.33 1.70004 68.38 1.75004Z" fill="#202020"/>
<path d="M68.38 1.75003C68.2 1.80003 68.06 1.88004 67.91 1.95004C68.12 1.92004 68.32 1.89003 68.5 1.84003C68.46 1.82003 68.41 1.78003 68.38 1.75003Z" fill="#202020"/>
<path d="M60.03 3.96002C60.09 3.66002 61.02 3.39002 61.82 3.71002C62.61 3.49002 62.09 2.51002 61.4 1.96002C61.38 2.09002 61.38 2.21004 60.56 2.38004C60.84 2.54004 62.36 2.76003 61.68 3.03003C60.61 3.18003 60.8 2.92002 60.28 2.77002C60.72 3.14002 58.91 3.31004 59.15 3.85004L60.09 3.66003C60.11 3.74003 59.77 3.88002 60.03 3.96002Z" fill="#202020"/>
<path d="M62.95 1.99002L63.28 1.95004C62.9 1.90004 62.6301 1.78002 62.1301 1.55002C61.5701 1.69002 61.46 1.81002 61.42 1.90002L63.06 1.94003L62.95 1.98004V1.99002Z" fill="#202020"/>
<path d="M64.78 1.95004C64.52 2.27004 63.72 2.41004 64.21 2.76004C65.19 2.74004 64.9 2.49004 65.48 2.35004C63.9 2.43004 65.93 2.17002 64.79 1.99002C65.1 1.94002 65.38 1.92002 65.64 1.90002C65.36 1.86002 65.08 1.81003 64.82 1.75003C64.83 1.75003 64.84 1.76002 64.86 1.77002C64.93 1.81002 64.95 1.83003 64.87 1.81003C64.87 1.81003 64.85 1.81003 64.84 1.81003C64.83 1.85003 64.8 1.89002 64.77 1.93002C64.31 1.86002 64.7 1.85003 64.84 1.81003C64.84 1.79003 64.86 1.78004 64.86 1.76004L63.28 1.93002C63.62 1.97002 64.03 1.97002 64.78 1.93002V1.95004Z" fill="#202020"/>
<path d="M72.73 3.57004C72.73 3.57004 72.68 3.52002 72.68 3.49002C72.58 3.53002 72.54 3.56004 72.73 3.57004Z" fill="#202020"/>
<path d="M72.08 3.37003C72.2 3.32003 72.29 3.20004 72.67 3.23004C72.99 3.33004 72.67 3.38002 72.69 3.49002C72.92 3.40002 73.48 3.26004 72.77 3.10004L72.66 3.14005C72.02 3.03005 71.2 2.63002 71.32 2.58002C71.51 2.87002 71.67 3.08002 72.09 3.36002L72.08 3.37003Z" fill="#202020"/>
<path d="M68.3901 2.74002L67.0701 2.90002L67.7401 3.18002L67.7101 3.01004C68.4601 3.08004 68.3001 2.87002 68.3901 2.74002Z" fill="#202020"/>
<path d="M61.19 1.74002L61.36 1.40002L60.6 1.88004L61.19 1.74002Z" fill="#202020"/>
<path d="M59.47 1.78003L59.54 1.48004L59.09 1.66003L59.47 1.78003Z" fill="#202020"/>
<path d="M26.04 22.3L26.43 22.22C26.25 22.25 26.13 22.27 26.04 22.3Z" fill="#202020"/>
<path d="M23.23 22.2801L23.16 22.43C23.29 22.35 23.34 22.2901 23.23 22.2801Z" fill="#202020"/>
<path d="M17.4 1.81003C16.84 1.53003 16.21 1.10004 16.27 1.44004L16.44 1.77003C16.83 1.71003 17.14 1.75004 17.39 1.82004L17.4 1.81003Z" fill="#202020"/>
<path d="M2.75003 19.7101C2.78003 19.6601 2.81003 19.6 2.84003 19.55C2.73003 19.41 2.62003 19.29 2.53003 19.17C2.60003 19.33 2.66003 19.5201 2.75003 19.7101Z" fill="#202020"/>
<path d="M4.11001 19.93C4.06001 20.11 4.03001 20.29 4.01001 20.49C4.05001 20.35 4.07001 20.17 4.11001 19.93Z" fill="#202020"/>
<path d="M41.35 21.95L41.8 21.62C41.09 21.62 41.4 21.79 41.35 21.95Z" fill="#202020"/>
<path d="M41.93 1.90002C41.44 1.77002 41.06 1.72004 40.72 1.70004C41.31 1.89004 41.78 2.17002 41.93 1.90002Z" fill="#202020"/>
<path d="M24.93 25.75C25.17 25.69 25.27 25.62 25.26 25.55C25.02 25.61 24.88 25.67 24.93 25.75Z" fill="#202020"/>
<path d="M39.3101 1.70004C39.4001 1.73004 39.4801 1.75003 39.5701 1.78003C39.9301 1.73003 40.2801 1.68004 40.7201 1.70004C40.2901 1.56004 39.7901 1.48004 39.3101 1.70004Z" fill="#202020"/>
<path d="M94.5 20.9C94.5 20.9 94.55 20.87 94.57 20.86C94.54 20.83 94.52 20.86 94.5 20.9Z" fill="#202020"/>
<path d="M97.3201 5.17004C97.4501 5.33004 97.6001 5.64003 97.7401 5.94003C97.6901 5.79003 97.6001 5.54004 97.3201 5.17004Z" fill="#202020"/>
<path d="M52.58 1.64004C52.64 1.60004 52.94 1.62004 52.58 1.64004V1.64004Z" fill="#202020"/>
<path d="M54.35 2.92004C54.27 2.96004 54.21 3.00002 54.2 3.08002C54.23 3.00002 54.28 2.95004 54.35 2.92004Z" fill="#202020"/>
<path d="M35.69 3.73004C35.69 3.73004 35.67 3.73004 35.66 3.73004C35.77 3.79004 35.75 3.78004 35.69 3.73004Z" fill="#202020"/>
<path d="M53.1301 1.78003C52.9901 1.74003 52.84 1.71002 52.67 1.68002C52.75 1.71002 52.8901 1.74003 53.1301 1.78003Z" fill="#202020"/>
<path d="M53.0601 1.63004C53.1901 1.64004 53.2801 1.65003 53.3801 1.66003C53.4301 1.61003 53.3801 1.57004 53.0601 1.63004Z" fill="#202020"/>
<path d="M52.08 1.65002C52.29 1.65002 52.48 1.66002 52.67 1.68002C52.6 1.66002 52.57 1.64004 52.59 1.63004C52.48 1.63004 52.33 1.63002 52.08 1.65002Z" fill="#202020"/>
<path d="M67.14 23.0901C67.14 23.0901 67.19 23.11 67.22 23.12C67.59 22.98 67.43 23.0101 67.14 23.0901Z" fill="#202020"/>
<path d="M7.94994 5.19003C7.94994 5.19003 7.97994 5.18004 7.98994 5.17004C7.96994 5.17004 7.94994 5.17003 7.93994 5.16003V5.19003H7.94994Z" fill="#202020"/>
<path d="M6.85999 5.46002C7.11999 5.02002 7.51999 5.08003 7.92999 5.16003L7.49998 4.22003C7.17998 4.62003 6.97999 5.03004 6.85999 5.45004V5.46002Z" fill="#202020"/>
<path d="M32.75 22.2L31.83 21.91C32.94 21.43 33.74 21.59 32.88 21.18C32.75 22.2 29.32 21.28 29.19 22.3L28.59 22.0901C28.76 22.0901 28.79 22.04 28.96 22.05C27.79 21.56 28.09 22.79 26.57 22.64C26.04 22.56 25.67 22.41 26.03 22.29L24.85 22.54C24.51 22.52 24.59 22.34 24.93 22.36L23.14 22.44V22.41C22.9 22.57 22.32 22.82 22.03 22.92C21.57 22.77 22.26 22.81 22.14 22.68L21.15 22.93C20.75 22.67 21.57 22.41 22.25 22.45C21.32 21.43 21.43 22.71 19.43 22.11L20.37 21.98C19.77 21.4 19.03 21.61 17.97 21.25C18.22 21.44 20.09 22.16 19.01 22.41C18.71 22.33 18.31 22.3 17.72 22.5C17.72 22.14 17.15 22.23 16.44 22.25L16.49 21.77C15.72 21.91 15.78 22.15 15.33 22.37C14.47 22.32 14.3 21.95 14.1 21.64C12.73 21.56 15.05 22.24 13.42 22.33C12.28 22.15 11.48 22.34 10.12 22.63C9.32 22.46 10.26 22.34 9.97 22.2L9.26 22.58C9.09 22.58 9.14 22.45 9.17 22.39C8.57 22.54 9.12 22.87 8.18 23C8.08 23.26 7.52 23.08 7.03 22.88C6.58 22.67 6.21 22.4 5.72 22.48C5.6 22.27 5.94 22.26 5.96 22.06C5.42 22.01 5.19 21.88 4.98 21.81C4.77 21.72 4.55 21.67 4.05 21.37C3.98 21.06 3.97 20.75 3.99 20.47C3.92 20.81 3.73 20.86 3.46 20.7C3.21 20.54 2.9 20.14 2.72 19.69C2.55 19.98 2.45 20.26 2.41 20.45C2.22 19.96 2.14 19.4 2.06 18.93C2.14 18.75 2.3 18.9 2.5 19.14C2.46 19.04 2.42 18.95 2.39 18.87C2.57 18.35 2.84 18.62 3.11 18.99L2.82 19.51C3.12 19.86 3.48 20.08 3.75 19.98C3.68 19.92 3.62 19.78 3.59 19.62C3.67 19.69 3.75 19.73 3.79 19.7C3.84 19.64 3.72 19.59 3.6 19.33L4.13 19L3.92 18.92L4.25 17.01C3.71 15.64 2.92 14.45 2.7 12.29C3.09 12.83 3.34 12.41 3.81 12.43C3.32 13.02 4.02 14.11 3.92 15.23C3.97 14.64 4.19 14.77 4.27 14.92L3.82 12.91C4.2 12.96 4.1 12.4801 4.26 11.9601C3.51 12.3601 3.76 10.47 3.53 9.65002C3.78 9.60002 4.04 9.79001 3.98 10.79C4.55 9.69001 3.1 9.37004 3.58 8.29004C3.58 8.53004 3.55 8.66004 3.68 8.76004C3.62 8.62004 3.59 8.42003 3.58 8.22003C3.58 8.05003 3.58 7.88004 3.63 7.73004C3.71 7.44004 3.87 7.27004 3.94 7.42004C3.93 7.48004 3.91 7.53003 3.91 7.59003C4.04 7.01003 4.43 6.20003 4.99 5.63003C5.52 5.04003 6.15 4.68004 6.18 4.35004C6.21 4.43004 6.22 5.13003 6.21 5.28003C6.4 4.84003 6.72 4.40004 7.15 4.04004L8.58 2.96002C8.33 3.51002 9.3 4.81002 7.96 5.12002C8.34 5.20002 8.82 5.29004 9.63 5.10004C9.37 5.02004 8.98 4.31004 9.33 4.26004C10.31 4.87004 10.01 4.59001 11.22 5.11001C10.83 4.99001 11.26 4.13003 11.88 4.16003C11.78 4.29003 11.93 5.01004 11.7 5.10004L13.25 4.26004C12.86 4.41004 13.18 4.97002 13.53 5.21002C13.37 5.04002 14.87 5.23004 15.28 5.14004L14.63 4.94003C16.37 5.07003 16.35 3.75002 18.08 3.80002C17.87 3.97002 17.56 4.87004 18.44 4.98004C18.84 4.55004 20.23 2.90004 21.76 2.57004L22.05 2.82004L23.22 2.54004C22.49 3.19004 20.44 4.56003 19.31 5.09003C19.96 5.29003 19.49 5.38001 20.47 5.36001C20.82 5.59001 19.94 5.71003 19.65 5.72003L21.93 5.87002C21.83 5.37002 23.67 5.36003 23.58 4.94003L21.11 5.46002C21.01 4.96002 22.54 4.03002 24.15 4.12002C24.56 4.32002 23.84 5.02003 23.88 5.19003C24.09 5.02003 25.41 4.86004 25.56 4.98004L24.88 5.25003C25.78 5.44003 26.35 4.58003 27.42 5.06003C27.79 5.09003 28.53 5.71003 28.6 5.41003C27.99 4.83003 27.87 3.05002 28.28 2.62002C28.41 2.66002 30.24 3.17004 30.66 3.45004C31.27 3.90004 29.74 4.53003 30.26 4.91003C30.28 4.77003 30.62 4.60002 30.76 4.55002C31.15 4.67002 30.6 4.98003 31.45 4.91003C31.59 4.40003 33.18 4.95004 31.85 4.48004C32.68 4.33004 32.73 4.59003 33.71 4.56003C33.4 4.23003 34.59 3.44004 35.42 3.29004C35.37 3.42004 35.56 3.59004 35.65 3.67004C37.35 3.72004 38.27 3.95004 39.86 3.95004C40.01 4.07004 40.77 4.22003 40.45 4.44003C40.68 4.35003 40.89 4.18003 41.38 4.16003C42.33 4.60003 40.29 4.23004 41.01 4.76004C41.07 4.46004 42.28 4.35003 42.98 4.16003C42.77 3.70003 41.37 4.07004 40.67 4.26004C40.67 3.63004 41.88 2.96004 43.54 2.67004C44.86 2.51004 44.11 3.08002 44.34 2.99002C46.82 3.10002 46.45 1.88003 48.51 2.34003C49.33 2.74003 48.55 3.14002 48.73 3.43002C47.65 3.58002 47.08 3.17003 46.35 3.19003L47.25 3.38003C46.91 3.51003 46.19 3.62003 45.8 3.50003C46.48 3.86003 49.99 3.57002 51.9 3.90002C52.24 3.76002 52.83 3.62002 52.55 3.46002L51.94 3.52002C51.38 3.19002 53.08 3.07004 52.31 2.92004C53.12 2.69004 54.03 2.33002 55.17 2.52002L55.38 2.98004C55.36 2.85004 54.63 2.71004 54.31 2.85004C54.79 2.65004 56.06 3.47002 56.58 2.87002L55.78 2.55002C56.6 2.32002 57.6 1.83004 58.62 1.98004C58.16 1.53004 58.39 2.03003 57.67 1.50003C58.29 2.16003 55.08 1.47004 56.08 2.17004C55.34 1.55004 54.8 1.91003 53.84 1.38003C53.87 1.53003 54.18 1.67004 53.33 1.60004C53.29 1.64004 53.2 1.70004 53.14 1.73004C53.11 1.73004 53.1 1.73003 53.08 1.72003L53.13 1.74002C53.13 1.74002 53.09 1.77002 53.15 1.74002C53.35 1.81002 53.52 1.89003 53.58 1.97003C53.16 2.32003 51.81 2.31002 51.35 2.49002C50.85 2.42002 51.56 2.32002 51.29 2.15002L50.61 2.42004C50.54 2.08004 49.27 1.86003 50.46 1.66003L49.39 1.64004C48.76 1.45004 47.89 1.38002 47.36 1.52002C46.86 1.45002 46.09 1.89003 46.52 1.63003L44.84 1.84003L44.82 1.76004C43.16 1.72004 41.41 2.32002 39.52 1.71002C38.96 1.79002 38.39 1.90002 37.45 1.80002L37.27 1.51004C36.55 1.61004 35.12 1.22002 34.81 1.52002C34.04 0.740018 31.34 1.35002 30.08 1.21002L30.03 1.59003C29.16 1.57003 28.33 1.68002 27.26 1.83002L27.33 2.17004C26.4 2.45004 24.95 1.93003 23.48 1.97003C23.58 1.84003 23.95 1.88004 24.21 1.95004C22.46 1.19004 20.51 2.50004 18.92 1.95004C18.52 2.07004 18.24 2.03004 17.96 1.95004C18 1.95004 18.03 1.95002 18.06 1.93002C18.02 1.93002 17.96 1.93002 17.9 1.93002C17.73 1.87002 17.55 1.80003 17.35 1.75003C17.52 1.83003 17.67 1.90002 17.81 1.93002C17.5 1.93002 17.04 1.98003 16.59 2.06003L16.4 1.70004C16.4 1.70004 16.33 1.70002 16.3 1.71002C15.85 1.58002 15.94 1.88002 16.18 2.15002C15.95 2.21002 15.74 2.28002 15.58 2.37002C15.22 1.79002 14.39 2.57003 13.9 1.94003C13.59 2.24003 11.62 2.17003 11.38 2.81003C11.36 2.73003 11.23 2.69002 11.48 2.68002C10.97 2.61002 10.47 2.53002 10.01 2.71002L9.8 2.25003L8.7 2.87002C8.03 2.59002 7.75 2.43004 8.42 2.07004C7.59 2.35004 7.34 2.38002 6.94 2.46002C6.58 2.53002 6.22 2.60003 5.52 3.09003L5.5 2.78003C4.89 2.97003 4.28 3.77002 3.88 3.80002C3.2 3.93002 1.78 5.22002 1.47 7.24002C1.37 7.73002 1.39 8.28004 1.38 8.64004L1.34 9.87002C1.3 10.69 1.24 11.48 1.1 12.19C1.97 11.65 0.709999 13.5 1.39 13.61C1.18 13.77 1.07 14.1701 0.889999 13.7101C1.09 15.1401 0.559997 15.86 1.13 16.85C0.919997 17.01 0.829997 16.54 0.699997 16.69C0.739997 16.8 0.880002 17.15 0.760002 17.29C0.640002 17.44 0.59 17.08 0.5 16.85C0.53 18.31 1.17 18.46 1.77 18.57C1.63 18.94 1.57 19.21 1.59 19.48C1.63 19.79 1.75 20.0601 2 20.3401C1.87 20.6601 1.77 21.26 1.49 20.14C1.5 20.46 1.62 21.47 2.09 22.29C2.54 23.11 3.22 23.67 3.4 23.5C3.45 23.73 4.05 24.09 4.23 24.12C4.81 24.51 5.18 24.64 5.53 24.77C5.89 24.87 6.26 24.99 6.95 25C6.82 24.97 6.7 24.9401 6.58 24.9001C7.18 24.3701 7.6 24.8 8.53 24.74L8.5 24.8C10.59 25.22 9.4 24.6 11.46 25.08L11.35 24.72C11.54 23.95 13.17 25.18 14.37 24.88L13.94 24.67C14.59 24.41 15.76 25.72 16.42 25.82C16.56 25.89 16.19 25.93 16 25.98C17.71 26.44 16.22 25.5101 17.5 25.4001C17.74 25.6501 17.2 26.0501 18.06 26.0901C18.49 26.3001 20.55 25.26 21.73 25.75C21.47 25.55 21.21 25.3601 21.81 25.2101C22.72 25.1401 24.27 25.95 25.09 25.33C25.21 25.38 25.25 25.43 25.25 25.48C25.95 25.32 27.51 25.22 27.93 24.88C28.57 26.12 32.25 24.28 32.24 25.42L34.38 25.36L34.32 25.48C35.69 25.56 36.17 25.28 36.65 25.01C36.97 25.09 36.74 25.19 36.71 25.25C38.71 25.48 38.91 25.43 40.58 24.86L40.75 25.23C41.2 25.01 43.64 25.81 45.6 25.38C45.58 25.42 45.54 25.49 45.38 25.55C47.58 25.11 50.66 26.58 51.46 25.23L52.91 24.9001C51.03 24.7901 53.19 24.3101 52.42 24.0901C53.16 24.0101 54.33 24.5 53.42 24.57L53.28 24.5C52.95 25.21 55.62 24.75 55.57 25.23C59.27 25.2 62.88 25.59 66.35 25.62L65.95 25.07L67.16 25.1C67.48 25.23 67.59 25.53 66.72 25.51C67.17 25.82 68.17 25.25 68.19 25.13C69.88 25.35 67.53 25.7701 68.05 25.7801L68.75 25.74L68.59 25.68C69.16 25.46 69.21 25.22 70.25 25.25C70.91 25.36 70.59 25.59 70.85 25.61C70.85 25.65 70.94 25.67 71.25 25.63L72.77 25.68L72.16 25.25C72.84 25.04 73.59 25.2701 72.89 24.7801C73.92 25.5401 78.58 25.05 79.21 25.29C80.16 24.97 81.09 24.98 82.25 25.02C81.96 24.93 81.79 24.44 82.79 24.5C82.43 25.5 84.62 24.94 85.42 25.66C84.7 25.18 88.26 25.54 87.13 24.86C87.96 24.94 87.18 25.24 87.81 25.47C88.8 25.28 89.89 25.34 91.04 25.43C91.62 25.46 92.14 25.57 93.02 25.5C93.82 25.42 94.62 25.16 95.31 24.7C95.27 24.57 94.74 24.6501 95.2 24.1501C95.76 24.0401 96.34 23.85 96.89 23.54C97.25 22.96 96.68 22.68 97.58 21.88C97.41 21.98 97.16 22.11 97.29 21.73C97.66 21.09 97.89 20.33 97.93 19.57C97.97 18.92 97.98 18.34 97.98 17.72C97.98 16.5 97.93 15.27 97.9 14.04C97.87 12.81 97.86 11.58 97.93 10.35C97.97 9.74001 98.02 9.12004 98.11 8.51004C98.15 8.25004 98.2 7.80002 98.2 7.40002C98.2 6.99002 98.18 6.57004 98.11 6.14004C98.11 7.08004 97.96 6.49003 97.71 5.88003C97.8 6.30003 97.4 5.99004 97.27 6.14004C97.12 5.31004 96.76 4.49002 96.22 3.77002C95.88 3.77002 95.34 3.36003 94.74 3.06003C94.15 2.75003 93.51 2.62004 93.34 2.82004C93.6 2.85004 93.86 2.89002 94.12 2.96002C93.53 3.05002 93.82 3.47004 94.05 3.92004C94.3 4.39004 94.44 4.92002 94.19 5.18002C94.69 5.14002 94.99 5.71003 95.1 6.28003C95.22 6.87003 95.25 7.35004 95.74 7.92004C95.61 8.19004 95.5 7.71002 95.34 7.87002C95.67 8.08002 95.73 8.64002 95.59 9.52002L95.51 9.42004C95.59 11.94 95.28 13.0101 95.08 15.8401L95.44 15.63C95.39 16.24 95.28 16.3701 95.19 16.6501C95.73 17.3501 95.22 14.94 95.81 15.58C95.45 15.98 95.45 17.0501 95.43 18.0901C95.43 18.6001 95.42 19.14 95.35 19.51C95.28 19.8 95.13 20 94.92 20.04C94.76 20.61 95.38 19.96 95.19 20.57C95.1 20.6 95.02 20.6301 94.93 20.6501C94.99 20.7301 95.06 20.82 95.12 20.92C94.87 21.3 94.5 21.29 94.36 21.18C94.43 21.12 94.47 20.94 94.5 20.85C94.27 20.99 94.1 21.2401 93.91 21.4601C93.72 21.68 93.53 21.87 93.44 21.87C93.62 21.83 93.79 21.76 93.97 21.68C93.69 21.97 93.31 22.19 92.88 22.31C92.67 22.37 92.44 22.3901 92.22 22.4001H91.19C89.78 22.4201 88.39 22.46 87.16 22.68L87.35 22.85C85.47 23.16 85.84 22.67 83.78 22.81L83.86 22.77C83.45 22.94 82.89 23.02 82.33 23C82.85 22.8 81.35 22.6201 82.03 22.4001C79.99 22.7301 81.02 22.6601 79.67 23.2801L79.36 23C78.9 23.25 78.86 23.3801 77.83 23.4601C78.68 23.2201 77.17 23.04 78.12 22.72C75.96 22.11 74.91 23.33 73.91 22.44C72.92 23.21 75.78 22.8701 75.23 23.0301C75.7 23.2801 74.41 23.6101 73.73 23.5301C73.04 23.5101 72.55 22.55 70.81 22.56C70.98 22.56 70.99 22.51 71.17 22.51C70.52 22.31 69.89 22.7801 69.1 22.4601C68.65 22.93 68.06 22.4301 67.93 23.0301L69.53 22.89C68.63 23.05 67.78 23.7401 66.29 23.4001C66.41 23.2801 66.85 23.1201 67.15 23.0301C66.71 22.8501 66.31 23.15 65.86 22.97C65.99 22.38 67.8 22.84 68.77 22.39C68.3 22.14 66.94 22.82 67.42 22.18C66.72 23 65.71 22.08 64.53 22.7L64.61 22.3401C64.42 22.4001 64.04 22.56 63.69 22.56L64.31 22.1C63.36 22.49 62.47 21.76 61.56 21.97C63.48 21.96 61.99 22.4 62.8 22.66C60.44 23.14 61.44 21.7301 58.8 21.9001C59.16 21.8501 60.14 22.1101 59.58 22.2801C59.08 22.2101 58.41 22.07 58.1 21.88C56.35 21.95 58.37 22.2501 57.62 22.4601C57.02 22.0301 56.76 22.6401 55.99 22.7801V22.42C53.99 22.19 55.46 23.17 53.66 22.89L54.42 22.39L53.48 22.52L53.67 22.11C52.65 22.42 52.33 22.34 51.33 22.22C51.56 22.47 51.2 22.88 50.31 22.89C49.71 22.68 50.65 22.55 49.39 22.6C49.67 22.37 49.98 22.09 50.53 22.42C50.59 22.3 50.81 22.19 50.87 22.08C50.22 21.83 49.24 22.0201 48.78 22.0301C48.95 22.0401 49.16 22.06 49.27 22.11L47.45 22.61C47.16 22.47 47.39 22.37 47.62 22.26C47.25 22.3 47 22.47 46.46 22.5C46.6 22.21 46.57 21.9 47.33 21.76L45.6 22.0901C45.48 21.9601 44.71 21.74 44.94 21.63C43.98 21.46 42.58 22.2 41.31 21.97C41.24 22.03 41.11 22.08 40.84 22.12C39.64 22.05 38.58 21.69 37.17 22.1L36.37 21.57C35.26 21.69 37.46 22.23 35.61 22.43C34.3 22.6 35.12 21.98 34.66 21.83C34.01 22.1 32.88 22.6401 31.67 22.2101C32.07 22.1101 32.38 22.1901 32.75 22.1501V22.2ZM19.05 22.43C19.32 22.35 19.84 22.12 20.04 22.33C19.74 22.74 19.5 22.55 19.05 22.43ZM3.43 17.69C3.55 17.89 3.49 18.19 3.35 18.54C3.32 18.29 3.33 18.01 3.43 17.69ZM48.6 1.92004L48.57 1.94003C47.98 1.80003 48.19 1.85004 48.6 1.92004ZM49.83 2.08002C49.95 2.03002 49.95 1.98002 49.89 1.93002C49.8 2.02002 49.53 2.03003 49.21 2.00003C49.3 2.09003 49.46 2.16002 49.82 2.08002H49.83ZM71.02 25.52L70.78 25.43C71.32 25.33 71.17 25.43 71.02 25.52Z" fill="#202020"/>
<path d="M3.95002 19.91C3.90002 19.97 3.83002 20.0001 3.77002 20.0201C3.84002 20.0901 3.91002 20.08 3.95002 19.91Z" fill="#202020"/>
<path d="M41.27 22.01H41.31C41.31 22.01 41.35 21.97 41.35 21.95L41.27 22.01Z" fill="#202020"/>
<path d="M30.7901 5.16003C30.5401 5.11003 30.4001 5.04003 30.3001 4.97003C30.2901 5.06003 30.4001 5.13003 30.7901 5.16003Z" fill="#202020"/>
<path d="M56.34 1.47003L55.55 1.56003C55.93 1.54003 56.07 1.62002 56.26 1.68002C56.24 1.60002 56.09 1.47003 56.34 1.47003Z" fill="#202020"/>
<path d="M63.18 3.71002C63.3 3.67002 63.42 3.71003 63.54 3.66003L63.51 3.49002C63.02 3.50002 62.68 3.64002 63.18 3.71002Z" fill="#202020"/>
<path d="M57.0701 2.68001C57.1301 2.98001 57.6301 2.88003 58.1801 2.82003C58.1501 2.82003 58.1201 2.82003 58.0801 2.82003C58.2401 2.39003 57.6501 2.54001 57.0701 2.68001Z" fill="#202020"/>
<path d="M58.3101 2.81002C58.4801 2.80002 58.6501 2.79002 58.8201 2.81002C58.8801 2.64002 58.6101 2.77002 58.3101 2.81002Z" fill="#202020"/>
<path d="M51.39 1.89003C51.65 1.97003 51.55 1.50001 51.7 1.62001C51.99 1.23001 49.96 2.09003 51.39 1.89003Z" fill="#202020"/>
<path d="M57.52 3.68002L57.32 3.30002L57.01 3.61002L57.52 3.68002Z" fill="#202020"/>
<path d="M53.16 3.40004L54.04 3.50004C54.03 3.44004 54.14 3.40004 54.28 3.37004C53.74 3.36004 53.14 3.28006 53.16 3.39006V3.40004Z" fill="#202020"/>
<path d="M54.28 3.38004C54.56 3.38004 54.83 3.38004 54.99 3.32004C54.84 3.32004 54.51 3.34004 54.28 3.38004Z" fill="#202020"/>
<path d="M56.3099 3.79004L56.0499 3.71002L55.4299 3.69003L56.3099 3.79004Z" fill="#202020"/>
<path d="M43.69 3.33002L42.73 3.44003C42.63 3.57003 42.89 3.65004 43.25 3.60004C43.48 3.51004 43.84 3.46003 43.69 3.34003V3.33002Z" fill="#202020"/>
<path d="M46.6 4.36002C46.34 4.28002 46.32 4.20004 46.18 4.07004L46.15 4.54004L46.6 4.36002Z" fill="#202020"/>
<path d="M43.79 4.47003C43.69 4.60003 42.39 4.84003 43.61 4.81003C43.71 4.68003 44.67 4.57003 43.79 4.47003Z" fill="#202020"/>
<path d="M29.3 3.88004L29.55 3.87003L29.51 3.11002L29.3 3.88004Z" fill="#202020"/>
<path d="M16.53 5.71002C17.67 5.89002 16.8 5.24003 17.83 5.47003C18.1 5.29003 16.99 5.28004 17.26 5.13004C16.57 5.32004 16.21 5.21003 16.53 5.72003V5.71002Z" fill="#202020"/>
<path d="M17.26 5.12003C17.37 5.09003 17.49 5.05003 17.61 5.00003C17.41 5.05003 17.32 5.08003 17.26 5.12003Z" fill="#202020"/>
<path d="M94.92 2.47003C94.64 2.27003 94.32 2.10004 94 1.95004C94.2 2.09004 94.37 2.26003 94.55 2.41003C94.68 2.41003 94.79 2.45003 94.92 2.47003Z" fill="#202020"/>
<path d="M92.9599 2.47003C92.9099 2.30003 92.8499 2.12002 92.7899 1.96002C92.5699 2.09002 92.3699 2.23003 92.1799 2.37003C92.3899 2.36003 92.8099 2.33003 92.9599 2.47003Z" fill="#202020"/>
<path d="M17.02 21.4601L16.96 21.58C17.07 21.71 17.25 21.72 17.59 21.74L17.02 21.47V21.4601Z" fill="#202020"/>
<path d="M26.96 21.82L26.79 21.81L27.11 22.25L26.96 21.82Z" fill="#202020"/>
<path d="M35.3 21.26C34.96 21.24 34.56 21.34 34.22 21.32C34.96 21.24 35.39 21.81 35.3 21.26Z" fill="#202020"/>
</svg>
