<svg width="131" height="106" viewBox="0 0 131 106" fill="none" xmlns="http://www.w3.org/2000/svg">
<path d="M7.99008 4.78003H123.26C125.76 4.78003 127.79 6.81 127.79 9.31V98.22C127.79 100.72 125.76 102.75 123.26 102.75H7.99008C5.49008 102.75 3.46008 100.72 3.46008 98.22V9.31C3.46008 6.81 5.49008 4.78003 7.99008 4.78003Z" fill="white"/>
<path d="M122.74 2.34003C123.38 2.38003 123.15 1.96 123.25 1.88C122.17 1.97 122.77 2.45003 122.74 2.34003Z" fill="#202020"/>
<path d="M112.1 3.29999L112.29 3.12L110.72 3.53998L112.1 3.29999Z" fill="#202020"/>
<path d="M102.15 3.28998C103.09 3.99998 105.76 3.16999 107.53 3.42999L107.82 3.59003L108.62 3.02002C106.46 3.11002 103.66 3.48998 102.15 3.28998Z" fill="#202020"/>
<path d="M96.8401 1.73999C97.1701 2.01999 95.69 1.98002 98.08 1.83002C97.96 1.80002 97.93 1.78001 97.86 1.76001C97.65 1.76001 97.3501 1.75999 96.8501 1.73999H96.8401Z" fill="#202020"/>
<path d="M97.8501 1.76001C97.1601 1.53001 98.9001 1.74001 97.8501 1.76001V1.76001Z" fill="#202020"/>
<path d="M93.01 1.91998L94.39 1.66998C94.1 1.50998 92.87 1.46998 93.33 1.34998C91.91 1.48998 92.2 1.64998 93.01 1.91998Z" fill="#202020"/>
<path d="M91.7001 2.43998L92.4201 2.33C92.2901 2.26 92.1101 2.23998 91.7001 2.43998Z" fill="#202020"/>
<path d="M93.93 2.10999L92.41 2.33002C92.61 2.45002 92.63 2.68 93.11 2.25C92.99 2.46 93.29 2.24999 93.93 2.10999Z" fill="#202020"/>
<path d="M94.79 2.22C95.56 2.38 96.57 2.47 95.18 2.72C97.82 2.62 97.43 2.12 94.79 2.22Z" fill="#202020"/>
<path d="M101.64 4.03002L102.68 4.23998L103.58 3.99999C103.13 4.11999 101.58 3.81002 101.65 4.03002H101.64Z" fill="#202020"/>
<path d="M84.4101 1.54999C84.3201 1.69999 84.8701 1.95002 84.9801 2.15002L86 1.97998C85.48 1.87998 84.4801 1.78 84.4101 1.56V1.54999Z" fill="#202020"/>
<path d="M84.9801 2.15002L83.4501 2.40997C84.8101 2.43997 85.0601 2.32002 84.9801 2.15002Z" fill="#202020"/>
<path d="M91.4501 3.22998L93.9601 2.67999L90.9701 3.23999L91.4501 3.22998Z" fill="#202020"/>
<path d="M78.58 1.53003L79.44 1.17999L77.9 1.71002L78.58 1.53003Z" fill="#202020"/>
<path d="M74.71 1.59003C75.35 1.30003 73.83 1.09998 74.51 0.919983C73.46 0.969983 72.56 1.22001 71.76 1.45001C72.62 1.32001 73.53 1.35998 74.72 1.59998L74.71 1.59003Z" fill="#202020"/>
<path d="M70.4 1.77002C70.83 1.70002 71.27 1.58 71.76 1.44C71.3 1.51 70.86 1.60002 70.4 1.77002Z" fill="#202020"/>
<path d="M80.85 2.33002C80.73 2.24002 80.5 2.00002 79.65 1.90002L80.25 2.33002C80.43 2.33002 80.64 2.33002 80.85 2.33002Z" fill="#202020"/>
<path d="M80.2701 2.34003H80.2501C79.6001 2.31003 79.1501 2.30999 78.9501 2.29999C79.1201 2.29999 79.5101 2.32003 80.2701 2.34003Z" fill="#202020"/>
<path d="M81.0001 2.34003C80.9401 2.34003 80.9001 2.34003 80.8501 2.34003C80.9101 2.38003 80.9401 2.40003 81.0001 2.34003Z" fill="#202020"/>
<path d="M87.4501 2.84998C86.5501 3.08998 84.6801 3.35002 86.4901 3.71002C87.1301 3.42002 86.1001 3.20998 87.4501 2.84998Z" fill="#202020"/>
<path d="M81.75 2.87L83.37 2.96997C83.34 2.85997 83.05 2.69001 83.49 2.57001L81.75 2.87Z" fill="#202020"/>
<path d="M80.9501 3.01001L81.7501 2.87L81.1501 2.83002L80.9501 3.01001Z" fill="#202020"/>
<path d="M73.1801 2.16995C72.4801 2.35995 71.7101 2.37 70.8501 2.4C71.7801 2.48 72.7401 2.53 73.6501 2.53C73.7801 2.4 74.1801 2.14995 73.1801 2.16995Z" fill="#202020"/>
<path d="M76.6201 2.28998C76.6201 2.28998 76.5101 2.31 76.4601 2.31C76.5601 2.35 76.6301 2.35998 76.6201 2.28998Z" fill="#202020"/>
<path d="M62.3301 2.40002C62.3301 2.40002 62.4201 2.44998 62.4701 2.47998L62.5001 2.40997H62.3301V2.40002Z" fill="#202020"/>
<path d="M73.8 2.60999C74.5 2.68999 74.91 2.59002 75.31 2.46002C74.79 2.50002 74.24 2.53003 73.64 2.53003C73.58 2.59003 73.57 2.62999 73.8 2.60999Z" fill="#202020"/>
<path d="M68.03 1.96997C68.39 2.05997 68.8 2.13001 69.24 2.20001C68.89 2.06001 68.16 1.84997 68.03 1.96997Z" fill="#202020"/>
<path d="M76.2301 2.20004C76.2301 2.20004 76.3001 2.19002 76.3301 2.18002C76.1001 2.09002 76.1301 2.13004 76.2301 2.20004Z" fill="#202020"/>
<path d="M76.2301 2.20001C75.8701 2.26001 75.5901 2.37002 75.3101 2.46002C75.7301 2.43002 76.1301 2.38001 76.4701 2.32001C76.3801 2.29001 76.3001 2.24001 76.2401 2.20001H76.2301Z" fill="#202020"/>
<path d="M59.75 5.15002C59.87 4.75002 61.71 4.39 63.29 4.81C64.85 4.51 63.83 3.20998 62.47 2.47998C62.42 2.64998 62.42 2.80999 60.82 3.04999C61.38 3.26999 64.37 3.55997 63.02 3.90997C60.9 4.10997 61.28 3.77 60.25 3.56C61.13 4.05 57.55 4.28 58.01 5L59.87 4.73999C59.9 4.84999 59.23 5.03001 59.75 5.14001V5.15002Z" fill="#202020"/>
<path d="M65.52 2.52002L66.18 2.46997C65.43 2.39997 64.89 2.23999 63.9 1.92999C62.8 2.11999 62.58 2.27002 62.5 2.40002L65.75 2.46002L65.52 2.52002Z" fill="#202020"/>
<path d="M69.1401 2.46997C68.6301 2.89997 67.0401 3.07999 68.0101 3.54999C69.9401 3.51999 69.37 3.19 70.5201 3C67.4001 3.11 71.4201 2.76002 69.1601 2.52002C69.7701 2.45002 70.3301 2.41997 70.8501 2.40997C70.2901 2.35997 69.7501 2.29002 69.2401 2.21002C69.2701 2.22002 69.2901 2.22999 69.3101 2.23999H69.3201C69.4501 2.28999 69.5001 2.32999 69.3501 2.29999C69.3401 2.29999 69.3001 2.29999 69.2801 2.29999C69.2601 2.35999 69.2001 2.41002 69.1401 2.46002C68.2401 2.37002 69.0001 2.34999 69.2801 2.29999C69.2901 2.27999 69.3101 2.25999 69.3201 2.23999H69.3101L66.1801 2.46997C66.8401 2.52997 67.6701 2.51997 69.1401 2.46997Z" fill="#202020"/>
<path d="M84.8301 4.63C84.7301 4.59 84.7401 4.56003 84.7301 4.53003C84.5301 4.58003 84.4501 4.62 84.8301 4.63Z" fill="#202020"/>
<path d="M83.5401 4.37C83.7701 4.31 83.9601 4.13999 84.7001 4.17999C85.3401 4.30999 84.7001 4.39003 84.7301 4.53003C85.1801 4.42003 86.2901 4.22001 84.8901 4.01001L84.6701 4.07001C83.4101 3.92001 81.7901 3.38002 82.0101 3.33002C82.3801 3.72002 82.7001 3.99 83.5401 4.37Z" fill="#202020"/>
<path d="M76.25 3.53003L73.65 3.73999L74.98 4.10999L74.91 3.89001C76.39 3.98001 76.07 3.70003 76.26 3.53003H76.25Z" fill="#202020"/>
<path d="M62.03 2.19L62.38 1.72998L60.87 2.38L62.03 2.19Z" fill="#202020"/>
<path d="M58.65 2.23999L58.77 1.84998L57.88 2.09003L58.65 2.23999Z" fill="#202020"/>
<path d="M45.15 100.37L45.92 100.26C45.56 100.29 45.33 100.33 45.15 100.37Z" fill="#202020"/>
<path d="M39.6101 100.34L39.4701 100.53C39.7301 100.42 39.8301 100.34 39.6101 100.34Z" fill="#202020"/>
<path d="M0.970076 34.64C0.600076 35.75 0.0300763 37 0.470076 36.86L0.900069 36.52C0.820069 35.74 0.870082 35.14 0.960082 34.64H0.970076Z" fill="#202020"/>
<path d="M3.56003 91.56C3.60003 91.45 3.65003 91.34 3.69003 91.23C3.54003 90.96 3.40003 90.71 3.28003 90.48C3.37003 90.81 3.46003 91.17 3.56003 91.56Z" fill="#202020"/>
<path d="M5.36008 92.34L5.08008 93.81C5.18008 93.48 5.27008 93.01 5.36008 92.34Z" fill="#202020"/>
<path d="M75.41 99.91L76.3 99.47C74.9 99.47 75.52 99.7 75.41 99.91Z" fill="#202020"/>
<path d="M23.9901 2.40002C23.0301 2.23002 22.2601 2.16001 21.5901 2.14001C22.7501 2.39001 23.6801 2.76002 23.9901 2.40002Z" fill="#202020"/>
<path d="M42.97 104.97C43.44 104.89 43.64 104.8 43.62 104.71C43.14 104.78 42.87 104.87 42.97 104.97Z" fill="#202020"/>
<path d="M18.8101 2.13999C18.9801 2.17999 19.1501 2.20996 19.3201 2.23996C20.0201 2.16996 20.7301 2.10999 21.5901 2.13999C20.7301 1.94999 19.7501 1.83999 18.8101 2.13999Z" fill="#202020"/>
<path d="M125.31 43.45C125.33 43.37 125.34 43.27 125.36 43.2C125.3 43.18 125.3 43.29 125.31 43.45Z" fill="#202020"/>
<path d="M129.68 11.49C129.71 11.8 129.71 12.32 129.71 12.8C129.74 12.56 129.74 12.17 129.68 11.49Z" fill="#202020"/>
<path d="M45.03 2.04999C45.14 1.99999 45.75 2.01999 45.03 2.04999V2.04999Z" fill="#202020"/>
<path d="M48.52 3.77002C48.37 3.82002 48.25 3.87998 48.23 3.97998C48.29 3.87998 48.39 3.81002 48.52 3.77002Z" fill="#202020"/>
<path d="M11.6701 4.84003C11.6701 4.84003 11.6301 4.84003 11.6101 4.84003C11.8201 4.92003 11.7901 4.91003 11.6701 4.84003Z" fill="#202020"/>
<path d="M46.1101 2.25C45.8401 2.2 45.5301 2.15 45.1901 2.12C45.3401 2.15 45.6201 2.2 46.1101 2.25Z" fill="#202020"/>
<path d="M45.9701 2.05001C46.2201 2.07001 46.4101 2.08005 46.6001 2.09005C46.6901 2.02005 46.6101 1.97001 45.9701 2.05001Z" fill="#202020"/>
<path d="M44.03 2.08002C44.44 2.08002 44.82 2.09 45.19 2.12C45.05 2.09 44.99 2.06999 45.03 2.04999C44.82 2.04999 44.52 2.06001 44.03 2.07001V2.08002Z" fill="#202020"/>
<path d="M125.28 100.71C125.28 100.71 125.35 100.68 125.39 100.67C125.64 100.19 125.5 100.37 125.28 100.71Z" fill="#202020"/>
<path d="M5.48006 53.32C5.48006 53.32 5.46007 53.27 5.46007 53.24C5.46007 53.27 5.45006 53.32 5.44006 53.35L5.48006 53.33V53.32Z" fill="#202020"/>
<path d="M5.80006 55.9C5.26006 54.8 5.33006 54.18 5.44006 53.35L4.19006 54.2L5.80006 55.9Z" fill="#202020"/>
<path d="M58.42 100.24L56.61 99.85C58.79 99.21 60.38 99.43 58.68 98.88C58.42 100.24 51.64 99.02 51.39 100.38L50.2 100.09C50.54 100.1 50.6 100.02 50.93 100.04C48.61 99.39 49.21 101.02 46.22 100.83C45.18 100.73 44.4501 100.53 45.16 100.37L42.84 100.71C42.16 100.68 42.33 100.45 43 100.47L39.4601 100.58L39.4901 100.54C38.9801 100.75 37.84 101.08 37.28 101.22C36.38 101.03 37.73 101.08 37.5 100.91L35.54 101.24C34.74 100.89 36.37 100.55 37.72 100.6C35.89 99.24 36.09 100.94 32.14 100.15L33.9901 99.98C32.8001 99.21 31.35 99.49 29.26 99.01C29.76 99.26 33.4501 100.22 31.3201 100.56C30.7201 100.46 29.93 100.41 28.78 100.68C28.77 100.2 27.65 100.32 26.25 100.34L26.3501 99.7C24.8301 99.88 24.95 100.21 24.06 100.5C22.37 100.44 22.02 99.94 21.62 99.52C18.91 99.42 23.49 100.31 20.29 100.44C18.04 100.2 16.46 100.46 13.76 100.84C12.18 100.62 14.04 100.45 13.47 100.27L12.0701 100.78C11.7301 100.77 11.84 100.61 11.89 100.53C10.71 100.73 11.79 101.17 9.94005 101.34C9.82005 101.52 9.52005 101.54 9.10005 101.49C8.89005 101.46 8.66004 101.42 8.40004 101.37C8.27004 101.34 8.14005 101.31 8.00005 101.28C7.91005 101.25 7.81005 101.21 7.72005 101.17C6.94005 100.84 6.46005 100.29 5.72005 99.98C5.66005 99.6 6.13004 99.87 6.26004 99.63C5.57004 99.14 5.44005 98.69 5.30005 98.36L5.25005 98.22C5.23005 98.15 5.22004 98.07 5.20004 97.99C5.16004 97.84 5.12005 97.67 5.08005 97.49C4.98005 97.12 4.86005 96.67 4.69005 96.02L5.11005 93.82C4.63005 95.43 4.06004 93.37 3.59004 91.56C3.36004 92.13 3.16004 92.62 3.06004 92.95L2.72005 90.07C2.82005 89.72 3.04004 90.01 3.31004 90.48C3.26004 90.28 3.21005 90.1 3.16005 89.95C3.40005 88.92 3.77004 89.45 4.12004 90.19C3.99004 90.54 3.85004 90.89 3.73004 91.23C4.12004 91.94 4.55004 92.61 4.92004 92.46C4.85004 92.27 4.78005 91.91 4.75005 91.51C4.86005 91.7 4.95004 91.82 5.01004 91.73C5.08004 91.63 4.94005 91.33 4.77005 90.86L5.48004 90.2L5.20004 90.04L5.65004 86.27C4.93004 83.57 3.88005 81.22 3.58005 76.94C4.10005 78 4.43005 77.17 5.05005 77.23C4.39005 78.4 5.33004 80.55 5.20004 82.77C5.27004 81.61 5.56004 81.87 5.67004 82.16L5.07005 78.2C5.58005 78.29 5.45005 77.36 5.66005 76.32C4.66005 77.1 4.99005 73.37 4.69005 71.76C5.03005 71.66 5.37004 72.05 5.29004 74.01C6.04004 71.84 4.11005 71.21 4.75005 69.08C4.75005 69.56 4.71005 69.82 4.88005 70.01C4.58005 68.89 4.82005 66.15 5.11005 66.79V67.27C5.24005 64.08 5.12005 57.57 4.27005 57.09C4.38005 57.06 5.30005 57.51 5.47005 57.7L2.61005 52.01C3.34005 52.51 5.08005 50.59 5.49005 53.23C5.59005 52.47 5.72005 51.53 5.46005 49.93C5.36005 50.45 4.40004 51.22 4.34004 50.51C5.15004 48.57 4.77005 49.16 5.47005 46.77C5.31005 47.55 4.17004 46.68 4.20004 45.46C4.37004 45.65 5.33004 45.36 5.45004 45.81L4.33005 42.76C4.53005 43.52 5.28005 42.89 5.60005 42.21C5.38005 42.53 5.62004 39.57 5.51004 38.76L5.25005 40.05C5.42005 36.6 3.67004 36.65 3.73004 33.23C3.96004 33.64 5.16005 34.25 5.30005 32.51C4.72005 31.71 2.53004 28.98 2.09004 25.96L2.42004 25.38L2.04004 23.06C2.91004 24.51 4.73005 28.56 5.44005 30.77C5.70005 29.48 5.83005 30.41 5.80005 28.48C6.11005 27.8 6.27004 29.53 6.29004 30.1L6.49005 25.6C5.82005 25.8 5.82004 22.16 5.26004 22.33L5.96005 27.21C5.29005 27.41 4.05004 24.39 4.17004 21.2C4.44004 20.39 5.37004 21.81 5.59004 21.74C5.36004 21.33 5.15004 18.72 5.31004 18.42L5.67004 19.77C5.92004 18 4.78004 16.88 5.42004 14.74C5.46004 14 6.29005 12.54 5.89005 12.42C5.12005 13.62 2.75004 13.85 2.17004 13.05C2.20004 12.92 2.39005 11.96 2.60005 10.92C2.71005 10.4 2.83004 9.86002 2.95004 9.40002C3.06004 8.91002 3.24004 8.5 3.37004 8.31C3.83004 7.77 4.01005 8.36003 4.32005 8.78003C4.46005 9.00003 4.64004 9.19003 4.79004 9.28003C4.95004 9.42003 5.09004 9.34 5.23004 9.19C5.04004 9.17 4.85005 8.68002 4.85005 8.46002C4.99005 8.21002 5.12004 8.32002 5.23004 8.33002C5.36004 8.35002 5.42005 8.28 5.64005 7.81C5.37005 7.55 5.76004 7.06 6.04004 6.88C6.18004 6.79 6.27005 6.72999 6.22005 6.73999C6.16005 6.73999 5.95005 6.77998 5.50005 7.03998C5.85005 6.51998 6.18005 6.36 6.52005 6.25C6.86005 6.15 7.23004 6.06001 7.92004 6.01001C7.27004 5.57001 9.60005 4.5 11.25 4.31C11.15 4.48 11.52 4.71 11.7 4.81C15.07 4.87 16.87 5.18 20.01 5.19C20.3 5.35 21.81 5.54998 21.17 5.84998C21.62 5.72998 22.04 5.49998 23 5.47998C24.87 6.06998 20.84 5.57003 22.2701 6.28003C22.3901 5.88003 24.77 5.72999 26.15 5.48999C25.73 4.87999 22.96 5.37 21.58 5.62C21.58 4.78 23.98 3.89 27.26 3.5C29.87 3.29 28.39 4.04999 28.84 3.92999C33.74 4.07999 33.01 2.46001 37.08 3.07001C38.69 3.61001 37.15 4.14003 37.51 4.53003C35.39 4.73003 34.25 4.19002 32.81 4.21002L34.58 4.46002C33.9 4.64002 32.4901 4.77 31.7101 4.62C33.0601 5.1 39.98 4.70997 43.76 5.15997C44.43 4.97997 45.59 4.79002 45.04 4.58002L43.84 4.65997C42.74 4.22997 46.09 4.05999 44.58 3.85999C46.18 3.55999 47.9801 3.08001 50.2401 3.32001L50.66 3.92999C50.6101 3.74999 49.18 3.56 48.55 3.75C49.49 3.48 52.01 4.58003 53.04 3.78003L51.4601 3.35999C53.0701 3.04999 55.06 2.40003 57.06 2.59003C56.15 1.98003 56.6 2.66001 55.18 1.95001C56.41 2.83001 50.06 1.91003 52.04 2.84003C50.58 2.02003 49.52 2.48998 47.61 1.78998C47.67 1.98998 48.29 2.18002 46.61 2.08002C46.53 2.14002 46.3601 2.21001 46.2401 2.26001C46.1901 2.26001 46.1701 2.25999 46.1301 2.23999C46.16 2.23999 46.19 2.26001 46.22 2.26001C46.15 2.29001 46.14 2.30001 46.25 2.26001C46.65 2.35001 46.97 2.45001 47.11 2.57001C46.28 3.03001 43.61 3.02001 42.7 3.26001C41.7 3.16001 43.1201 3.03 42.5701 2.81L41.22 3.16998C41.09 2.71998 38.57 2.41997 40.92 2.15997L38.81 2.14001C37.57 1.89001 35.85 1.78998 34.8 1.97998C33.8 1.87998 32.28 2.48 33.15 2.13L29.84 2.40997L29.81 2.29999C26.54 2.23999 23.08 3.03998 19.34 2.22998C18.24 2.33998 17.1 2.47998 15.26 2.34998L14.9 1.96002C13.49 2.10002 10.66 1.56998 10.05 1.97998C9.67005 1.71998 9.05005 1.57 8.30005 1.5C8.21005 1.5 8.11004 1.47998 8.01004 1.47998C7.84004 1.47998 7.67005 1.47998 7.49005 1.47998C7.14005 1.47998 6.78005 1.53998 6.41005 1.59998C5.68005 1.74998 4.93005 2.02998 4.24005 2.41998C2.85005 3.20998 1.73005 4.48002 1.11005 5.83002C0.780046 6.50002 0.590052 7.20003 0.460052 7.84003C0.410052 8.16003 0.350042 8.48002 0.340042 8.77002C0.320042 9.02002 0.310039 9.25998 0.290039 9.47998L0.800049 9.57001C0.770049 11.28 0.920041 12.92 1.12004 15.05L1.57005 14.92C1.94005 16.75 1.25005 19.63 1.30005 22.52C1.13005 22.32 1.17004 21.59 1.28004 21.07C0.270045 24.53 2.02004 28.37 1.28004 31.51C1.44004 32.29 1.39004 32.86 1.28004 33.41C1.28004 33.34 1.28004 33.27 1.26004 33.22C1.26004 33.3 1.26004 33.42 1.26004 33.54C1.18004 33.89 1.09005 34.24 1.02005 34.63C1.13005 34.3 1.22004 33.99 1.26004 33.72C1.26004 34.32 1.33005 35.24 1.44005 36.13L0.960052 36.51C0.960052 36.58 0.960047 36.64 0.970047 36.72C0.790047 37.6 1.20004 37.43 1.56004 36.96C1.64004 37.41 1.73005 37.83 1.85005 38.15C1.07005 38.86 2.11004 40.5 1.28004 41.48C1.68004 42.08 1.58004 45.99 2.43004 46.47C2.32004 46.5 2.27004 46.76 2.26004 46.28C2.16004 47.28 2.07004 48.28 2.31004 49.18L1.70004 49.6L2.52005 51.78C2.15005 53.11 1.93005 53.66 1.46005 52.34C2.18005 55.52 1.73004 54.92 2.45004 57.62L2.05005 57.49C2.07005 58.46 2.60005 60 2.27005 60.58C1.52005 62.74 2.17005 71.28 1.47005 76.83C2.64005 75.75 0.950052 79.41 1.85005 79.63C1.57005 79.95 1.42004 80.73 1.18004 79.83C1.45004 82.66 0.740046 84.09 1.50005 86.04C1.22005 86.36 1.10004 85.43 0.930038 85.72C0.990038 85.95 1.17004 86.62 1.01004 86.91C0.85004 87.2 0.780049 86.5 0.660049 86.05C0.710049 88.94 1.56005 89.24 2.35005 89.45C1.97005 90.92 2.03005 91.65 2.55005 92.71C2.29005 93.22 2.02004 94.07 1.92004 92.27C1.90004 92.78 1.81004 94.32 1.79004 95.75C1.79004 97.19 1.84005 98.46 2.19005 98.65C2.12005 98.86 2.16005 99.33 2.30005 99.76C2.43005 100.2 2.65005 100.59 2.77005 100.72C3.42005 102.04 4.07005 102.57 4.69005 103.05C5.34005 103.49 6.07005 103.91 7.52005 104.04C7.26005 103.98 7.00005 103.91 6.75005 103.82C7.35005 103.57 7.95005 103.55 8.49005 103.58C9.07005 103.62 9.76005 103.75 10.66 103.7L10.61 103.78C14.73 104.34 12.39 103.51 16.45 104.15L16.23 103.67C16.61 102.64 19.83 104.28 22.19 103.88L21.34 103.61C22.63 103.26 24.94 105.01 26.23 105.14C26.51 105.23 25.78 105.28 25.39 105.35C28.78 105.96 25.8301 104.72 28.3501 104.58C28.8201 104.92 27.75 105.44 29.45 105.5C30.3 105.77 34.38 104.4 36.69 105.05C36.18 104.79 35.67 104.53 36.84 104.33C38.64 104.24 41.7001 105.32 43.3201 104.49C43.5501 104.56 43.63 104.63 43.64 104.69C45.01 104.48 48.1 104.34 48.93 103.89C50.2 105.55 57.47 103.08 57.44 104.61L61.66 104.53L61.55 104.69C64.25 104.79 65.21 104.42 66.15 104.06C66.77 104.16 66.32 104.31 66.27 104.39C70.22 104.7 70.6101 104.63 73.9201 103.87L74.2601 104.37C75.1601 104.08 79.96 105.15 83.83 104.57C83.79 104.63 83.71 104.72 83.4 104.79C87.75 104.21 93.8201 106.17 95.4201 104.36L98.2901 103.92C94.5701 103.78 98.84 103.14 97.31 102.84C98.77 102.73 101.09 103.38 99.2901 103.48L99.0101 103.39C98.3501 104.33 103.63 103.72 103.53 104.36C107.19 104.34 110.8 104.46 114.35 104.58C116.13 104.64 117.89 104.7 119.63 104.77C120.5 104.79 121.37 104.82 122.24 104.84H122.89L123.21 104.86H123.67C124.3 104.81 124.93 104.69 125.52 104.47C125.07 104.38 124.65 104.23 124.27 104.05C125.3 103.89 126.29 103.43 127.1 102.77C127.47 102.57 127.77 102.45 127.77 102.61C127.77 102.76 127.5 103.27 126.43 103.89C127.11 103.77 127.92 103.01 128.32 102.22C128.74 101.43 128.78 100.7 128.73 100.64C129.23 99.64 129.31 99.17 129.43 99.12C129.53 99.06 129.6 99.41 129.57 99.86C129.55 100.78 128.96 102.05 129.34 101.37C129.66 100.74 129.85 100.05 129.95 99.36C129.9 99.51 129.84 99.66 129.77 99.8C129.8 99.38 129.76 99.05 129.72 98.76C129.67 98.47 129.61 98.18 129.55 98C129.44 97.58 129.37 97.04 129.39 96.02C129.54 94.72 129.84 95.35 129.87 94.84C129.92 94.84 129.95 94.67 129.89 94.06L129.95 91.05L129.37 92.25C129.09 90.92 129.4 89.42 128.75 90.81C129.76 88.77 129.11 79.58 129.43 78.33C129.01 76.46 129.02 74.62 129.07 72.33C128.95 72.9 128.3 73.24 128.38 71.27C129.72 71.99 128.96 67.66 129.93 66.07C129.29 67.49 129.77 60.47 128.86 62.7C128.97 61.05 129.36 62.6 129.68 61.35C129.16 57.43 130.02 52.72 129.84 47.88C129.66 47.8 129.4 48.62 129.13 47.58L130.01 45.02C129.92 44.06 128.99 44.14 129.61 42.39C129.46 42.64 129.24 43 129.18 42.36C130.04 32.88 128.48 22.99 130.09 13.36C129.75 14.66 129.72 13.79 129.7 12.8C129.62 13.45 129.27 12.79 129.03 12.91L129.36 10.89L129.53 9.88L129.61 9.38C129.64 9.21 129.65 8.93001 129.66 8.70001C129.31 8.21001 129.01 6.76001 128.12 5.64001C127.28 4.50001 126.02 3.84999 125.65 4.04999C126.16 4.22999 126.64 4.51003 127.09 4.84003C125.98 4.47003 126.46 5.28001 126.67 6.14001C126.92 7.04001 126.76 7.98999 126.27 8.04999C126.6 8.28999 126.74 8.73 126.69 9.19C126.64 9.74 126.49 10.45 126.36 11.14C126.09 12.55 125.87 14.1 126.48 15.66C126.28 16.35 126.17 15.07 125.95 15.44C126.36 16.23 126.45 17.19 126.26 18.95L126.16 18.75C126.26 23.72 125.86 25.85 125.59 31.43L126.06 31.02C126 32.22 125.85 32.47 125.73 33.03C126.45 34.41 125.77 29.66 126.56 30.91C125.6 32.5 126.55 39.37 125.45 40.45C125.45 42.3 126 39.91 125.99 41.75L125.69 42.24L126.07 42.71C126.01 43.92 125.64 44.53 125.39 44.58C125.42 44.29 125.32 43.75 125.3 43.43C124.95 45 125.42 47.85 125.3 48.39L125.48 46.62C125.76 51.66 125.37 57.81 125.97 62.67L126.19 62.3C126.6 66.02 125.94 65.28 126.14 69.36L126.09 69.21C126.31 70.03 126.43 71.12 126.4 72.23C126.14 71.2 125.89 74.17 125.6 72.82C126.04 76.85 125.95 74.81 126.78 77.47L126.41 78.08C126.75 78.99 126.92 79.06 127.02 81.1C126.7 79.43 126.45 82.4 126.03 80.53C125.22 84.81 126.85 86.88 125.66 88.84C126.69 90.8 126.23 85.14 126.45 86.24C126.79 85.32 127.22 87.86 127.11 89.2C127.09 90.57 125.8 91.52 125.82 94.96C125.82 94.62 125.75 94.59 125.75 94.25C125.62 94.89 125.71 95.52 125.78 96.19C125.81 96.52 125.84 96.87 125.84 97.22C125.84 97.4 125.83 97.58 125.8 97.77C125.77 97.94 125.74 98.2 125.68 98.27C125.99 98.53 125.91 98.86 125.83 99.11C125.76 99.36 125.68 99.56 125.97 99.84C126.14 99.51 126.24 99.15 126.29 98.8C126.3 98.62 126.31 98.44 126.3 98.26L126.26 97.51C126.29 97.73 126.32 97.95 126.37 98.18C126.4 98.34 126.46 98.5 126.48 98.67C126.55 99.01 126.56 99.39 126.47 99.8C126.32 100.59 125.6 101.55 124.36 101.72C124.5 101.51 125.03 101.06 125.27 100.68C124.96 100.78 124.74 100.95 124.49 101.11C124.24 101.25 123.94 101.38 123.62 101.29C123.67 100.88 124.23 100.79 124.79 100.37C125.36 99.98 125.79 99.18 125.56 98.62C125.36 98.82 125.36 99.27 125.19 99.61C125.03 99.95 124.86 100.1 124.73 99.63C124.89 100.25 124.39 100.58 123.86 100.62C123.73 100.65 123.59 100.64 123.45 100.64C123.38 100.64 123.32 100.64 123.23 100.64H122.83C122.29 100.66 121.73 100.74 121.15 100.95L121.3 100.48C120.93 100.55 120.17 100.78 119.49 100.77L120.72 100.15C118.84 100.67 117.09 99.69 115.28 99.98C119.06 99.97 116.13 100.55 117.73 100.9C113.06 101.54 115.05 99.66 109.82 99.89C110.53 99.82 112.48 100.18 111.37 100.39C110.38 100.29 109.06 100.11 108.45 99.86C104.99 99.96 108.98 100.35 107.51 100.64C106.33 100.06 105.81 100.88 104.29 101.06V100.58C100.33 100.27 103.23 101.59 99.68 101.21L101.18 100.54L99.33 100.71L99.71 100.16C97.7 100.57 97.0701 100.46 95.1001 100.31C95.5601 100.65 94.84 101.19 93.09 101.2C91.9 100.91 93.76 100.74 91.28 100.81C91.84 100.51 92.45 100.13 93.53 100.57C93.64 100.41 94.0801 100.27 94.2001 100.11C92.9201 99.78 90.97 100.03 90.08 100.04C90.43 100.06 90.84 100.08 91.05 100.15L87.46 100.82C86.89 100.64 87.3401 100.49 87.7901 100.35C87.0601 100.4 86.56 100.62 85.49 100.67C85.77 100.28 85.7 99.87 87.21 99.69L83.7901 100.13C83.5601 99.96 82.0301 99.66 82.4801 99.52C80.5801 99.29 77.83 100.28 75.31 99.98C75.18 100.06 74.9201 100.13 74.3801 100.19C72.0201 100.1 69.92 99.62 67.12 100.16L65.53 99.46C63.34 99.62 67.68 100.35 64.03 100.61C61.44 100.83 63.0601 100.01 62.16 99.81C60.87 100.16 58.64 100.89 56.26 100.31C57.05 100.18 57.66 100.28 58.4 100.23L58.42 100.24ZM31.37 100.55C31.89 100.45 32.9401 100.14 33.3201 100.42C32.7201 100.97 32.26 100.71 31.37 100.55ZM4.50005 87.57C4.66005 87.96 4.58004 88.56 4.40004 89.24C4.36004 88.75 4.38005 88.19 4.50005 87.57ZM37.18 2.44C37.18 2.44 37.14 2.45002 37.12 2.46002C35.95 2.27002 36.37 2.35 37.18 2.44ZM39.61 2.65002C39.85 2.58002 39.84 2.52001 39.73 2.45001C39.56 2.57001 39.02 2.57999 38.39 2.54999C38.56 2.67999 38.8801 2.75997 39.6001 2.65997L39.61 2.65002ZM129.73 94.57L129.6 95.04C129.46 93.97 129.59 94.27 129.73 94.57Z" fill="#202020"/>
<path d="M5.15001 92.24C5.07001 92.39 4.98001 92.43 4.89001 92.46C4.97001 92.67 5.06001 92.67 5.15001 92.24Z" fill="#202020"/>
<path d="M75.2401 99.99H75.3201C75.3201 99.99 75.3901 99.94 75.4001 99.91L75.2301 99.99H75.2401Z" fill="#202020"/>
<path d="M5.51006 8.69C5.37006 8.95 5.28006 9.10997 5.19006 9.21997C5.32006 9.23997 5.39006 9.1 5.51006 8.69Z" fill="#202020"/>
<path d="M52.46 1.84003L50.9 1.96997C51.65 1.94997 51.92 2.05 52.3 2.13C52.27 2.02 51.97 1.84998 52.45 1.84998L52.46 1.84003Z" fill="#202020"/>
<path d="M65.96 4.82001C66.19 4.76001 66.44 4.82 66.67 4.75L66.61 4.53003C65.64 4.54003 64.96 4.73001 65.97 4.82001H65.96Z" fill="#202020"/>
<path d="M53.9 3.44C54.02 3.85 55 3.71 56.09 3.63C56.02 3.63 55.96 3.63 55.9 3.63C56.22 3.06 55.06 3.25 53.9 3.44Z" fill="#202020"/>
<path d="M56.3401 3.61998C56.6801 3.59998 57.0201 3.58997 57.3501 3.60997C57.4801 3.37997 56.9401 3.55998 56.3401 3.61998Z" fill="#202020"/>
<path d="M42.67 2.39C43.19 2.49 42.99 1.86996 43.29 2.03996C43.87 1.51996 39.85 2.66 42.67 2.39Z" fill="#202020"/>
<path d="M54.78 4.78003L54.39 4.28003L53.78 4.67999L54.78 4.78003Z" fill="#202020"/>
<path d="M46.1801 4.40996L47.9201 4.54997C47.8901 4.46997 48.1101 4.41999 48.3901 4.37999C47.3201 4.35999 46.1401 4.25996 46.1801 4.40996Z" fill="#202020"/>
<path d="M48.39 4.38C48.95 4.38 49.48 4.37999 49.79 4.29999C49.49 4.29999 48.84 4.32 48.39 4.38Z" fill="#202020"/>
<path d="M52.4 4.92999L51.89 4.82001L50.66 4.78998L52.4 4.92999Z" fill="#202020"/>
<path d="M27.4701 4.31L25.5701 4.45001C25.3801 4.62001 25.8901 4.72997 26.6001 4.65997C27.0501 4.53997 27.7601 4.47 27.4701 4.31Z" fill="#202020"/>
<path d="M33.2101 5.67999C32.7001 5.57999 32.6601 5.45999 32.3701 5.29999L32.3101 5.91998L33.2101 5.67999Z" fill="#202020"/>
<path d="M27.67 5.83002C27.48 6.00002 24.91 6.31998 27.32 6.28998C27.51 6.11998 29.42 5.98002 27.67 5.83002Z" fill="#202020"/>
<path d="M3.73007 11.14L3.72008 10.66L2.70007 10.73L3.73007 11.14Z" fill="#202020"/>
<path d="M6.17001 36.37C6.41001 34.12 5.54002 35.84 5.85002 33.8C5.61002 33.27 5.60001 35.46 5.39001 34.92C5.64001 36.28 5.50001 36.99 6.17001 36.37Z" fill="#202020"/>
<path d="M5.38998 34.92C5.34998 34.7 5.29999 34.47 5.23999 34.23C5.29999 34.62 5.34998 34.81 5.38998 34.92Z" fill="#202020"/>
<path d="M128.64 4.87C128.22 4.25 127.69 3.69998 127.09 3.22998C127.45 3.58998 127.76 3.98001 128.02 4.39001C128.24 4.54001 128.44 4.71 128.65 4.87H128.64Z" fill="#202020"/>
<path d="M124.9 3.31C124.81 3.06 124.7 2.81 124.57 2.56C124.1 2.67 123.66 2.83002 123.26 3.02002C123.71 2.99002 124.61 3.05 124.9 3.31Z" fill="#202020"/>
<path d="M27.34 99.25L27.23 99.41C27.45 99.58 27.79 99.59 28.47 99.62L27.34 99.26V99.25Z" fill="#202020"/>
<path d="M46.98 99.73L46.64 99.72L47.27 100.3L46.98 99.73Z" fill="#202020"/>
<path d="M63.4601 98.98C62.7901 98.96 62.0001 99.09 61.3201 99.06C62.7901 98.95 63.6401 99.71 63.4601 98.98Z" fill="#202020"/>
</svg>
