<svg width="154" height="49" viewBox="0 0 154 49" fill="none" xmlns="http://www.w3.org/2000/svg">
<path d="M146.93 2.08002H6.04999C3.3935 2.08002 1.23999 4.23356 1.23999 6.89005V42.12C1.23999 44.7765 3.3935 46.93 6.04999 46.93H146.93C149.586 46.93 151.74 44.7765 151.74 42.12V6.89005C151.74 4.23356 149.586 2.08002 146.93 2.08002Z" fill="white"/>
<path d="M146.48 45.71C147.04 45.73 146.84 45.52 146.93 45.48C145.99 45.53 146.51 45.76 146.48 45.71Z" fill="#202020"/>
<path d="M137.16 46.18L137.33 46.1L135.95 46.31L137.16 46.18Z" fill="#202020"/>
<path d="M128.44 46.18C129.26 46.54 131.6 46.12 133.15 46.25L133.41 46.33L134.11 46.04C132.22 46.09 129.77 46.28 128.44 46.18Z" fill="#202020"/>
<path d="M123.8 45.41C124.09 45.55 122.79 45.53 124.88 45.45C124.78 45.43 124.75 45.43 124.68 45.41C124.49 45.41 124.23 45.41 123.79 45.41H123.8Z" fill="#202020"/>
<path d="M124.68 45.42C124.08 45.3 125.6 45.41 124.68 45.42V45.42Z" fill="#202020"/>
<path d="M120.45 45.49L121.66 45.37C121.41 45.29 120.33 45.27 120.73 45.21C119.49 45.28 119.74 45.36 120.45 45.49Z" fill="#202020"/>
<path d="M119.3 45.76L119.93 45.71C119.82 45.68 119.65 45.66 119.3 45.76Z" fill="#202020"/>
<path d="M121.25 45.59L119.92 45.7C120.1 45.76 120.11 45.87 120.53 45.66C120.42 45.77 120.68 45.66 121.25 45.59Z" fill="#202020"/>
<path d="M122.01 45.65C122.69 45.73 123.56 45.78 122.35 45.9C124.66 45.85 124.32 45.6 122.01 45.65Z" fill="#202020"/>
<path d="M128 46.55L128.91 46.65L129.69 46.53C129.3 46.59 127.94 46.43 128 46.55Z" fill="#202020"/>
<path d="M112.91 45.31C112.83 45.39 113.32 45.51 113.41 45.61L114.3 45.52C113.84 45.47 112.97 45.42 112.91 45.31Z" fill="#202020"/>
<path d="M113.41 45.61L112.07 45.74C113.26 45.76 113.48 45.69 113.41 45.61Z" fill="#202020"/>
<path d="M119.08 46.15L121.28 45.88L118.66 46.16L119.08 46.15Z" fill="#202020"/>
<path d="M107.81 45.3L108.57 45.12L107.22 45.39L107.81 45.3Z" fill="#202020"/>
<path d="M104.43 45.33C104.99 45.18 103.66 45.08 104.25 44.99C103.33 45.02 102.55 45.14 101.84 45.25C102.59 45.19 103.39 45.2 104.43 45.32V45.33Z" fill="#202020"/>
<path d="M100.65 45.42C101.03 45.39 101.41 45.32 101.84 45.26C101.44 45.29 101.05 45.34 100.65 45.42Z" fill="#202020"/>
<path d="M109.8 45.7C109.7 45.65 109.5 45.53 108.75 45.48L109.28 45.69C109.44 45.69 109.62 45.69 109.81 45.69L109.8 45.7Z" fill="#202020"/>
<path d="M109.29 45.71H109.27C108.7 45.7 108.3 45.69 108.13 45.69C108.28 45.69 108.62 45.69 109.28 45.71H109.29Z" fill="#202020"/>
<path d="M109.93 45.7C109.93 45.7 109.85 45.7 109.8 45.7C109.85 45.72 109.88 45.73 109.93 45.7Z" fill="#202020"/>
<path d="M115.58 45.96C114.79 46.08 113.16 46.21 114.74 46.39C115.3 46.24 114.4 46.14 115.58 45.96Z" fill="#202020"/>
<path d="M110.58 45.97L112 46.02C111.97 45.96 111.72 45.88 112.1 45.82L110.58 45.97Z" fill="#202020"/>
<path d="M109.89 46.04L110.58 45.97L110.06 45.95L109.89 46.04Z" fill="#202020"/>
<path d="M103.08 45.62C102.47 45.71 101.8 45.72 101.04 45.74C101.85 45.78 102.69 45.8 103.49 45.8C103.6 45.73 103.95 45.61 103.08 45.62Z" fill="#202020"/>
<path d="M106.1 45.68C106.1 45.68 106 45.68 105.96 45.69C106.04 45.71 106.11 45.71 106.1 45.68Z" fill="#202020"/>
<path d="M93.58 45.74L93.7 45.78L93.73 45.74H93.58Z" fill="#202020"/>
<path d="M103.63 45.84C104.24 45.88 104.6 45.83 104.95 45.76C104.49 45.78 104.01 45.8 103.49 45.8C103.44 45.83 103.43 45.85 103.63 45.84Z" fill="#202020"/>
<path d="M98.5699 45.52C98.8899 45.56 99.2499 45.6 99.6299 45.64C99.3199 45.57 98.6899 45.47 98.5699 45.52Z" fill="#202020"/>
<path d="M105.76 45.64C105.76 45.64 105.82 45.64 105.85 45.64C105.65 45.59 105.67 45.62 105.76 45.64Z" fill="#202020"/>
<path d="M105.76 45.64C105.45 45.67 105.2 45.72 104.95 45.77C105.32 45.75 105.67 45.73 105.96 45.7C105.88 45.68 105.81 45.66 105.75 45.64H105.76Z" fill="#202020"/>
<path d="M91.3199 47.11C91.4299 46.91 93.0299 46.73 94.4199 46.94C95.7799 46.79 94.8899 46.14 93.6999 45.78C93.6599 45.87 93.6599 45.95 92.2599 46.06C92.7499 46.17 95.3699 46.31 94.1899 46.49C92.3299 46.59 92.6699 46.42 91.7599 46.32C92.5299 46.57 89.3999 46.68 89.7999 47.04L91.4299 46.91C91.4599 46.97 90.8699 47.06 91.3199 47.11Z" fill="#202020"/>
<path d="M96.38 45.8L96.96 45.78C96.3 45.75 95.83 45.67 94.96 45.51C94 45.61 93.8 45.68 93.73 45.75L96.57 45.78L96.37 45.81L96.38 45.8Z" fill="#202020"/>
<path d="M99.5399 45.77C99.0899 45.99 97.6999 46.08 98.5499 46.31C100.24 46.3 99.7399 46.13 100.75 46.04C98.0199 46.09 101.54 45.92 99.5599 45.8C100.1 45.76 100.58 45.75 101.04 45.74C100.55 45.71 100.07 45.68 99.6299 45.64C99.6499 45.64 99.6699 45.64 99.6899 45.65H99.7C99.82 45.68 99.8599 45.69 99.7199 45.68C99.7099 45.68 99.6799 45.68 99.6599 45.68C99.6399 45.71 99.5899 45.74 99.5399 45.76C98.7499 45.72 99.4199 45.7 99.6599 45.68C99.6599 45.67 99.6899 45.66 99.6899 45.65H99.6799L96.9399 45.77C97.5199 45.8 98.2399 45.79 99.5299 45.77H99.5399Z" fill="#202020"/>
<path d="M113.28 46.85C113.2 46.83 113.2 46.82 113.19 46.8C113.01 46.83 112.95 46.84 113.28 46.85Z" fill="#202020"/>
<path d="M112.16 46.72C112.36 46.69 112.52 46.6 113.17 46.63C113.73 46.69 113.17 46.73 113.2 46.8C113.59 46.74 114.56 46.65 113.34 46.54L113.15 46.57C112.05 46.5 110.63 46.23 110.82 46.2C111.14 46.39 111.43 46.53 112.16 46.72Z" fill="#202020"/>
<path d="M105.77 46.3L103.49 46.41L104.65 46.6L104.59 46.49C105.89 46.53 105.61 46.4 105.77 46.31V46.3Z" fill="#202020"/>
<path d="M93.3199 45.63L93.6299 45.4L92.3099 45.72L93.3199 45.63Z" fill="#202020"/>
<path d="M90.3599 45.66L90.4699 45.46L89.6899 45.58L90.3599 45.66Z" fill="#202020"/>
<path d="M38.59 0.890045L39.26 0.830017C38.94 0.850017 38.74 0.870045 38.59 0.890045Z" fill="#202020"/>
<path d="M33.74 0.880005L33.62 0.980011C33.84 0.930011 33.94 0.890005 33.74 0.880005Z" fill="#202020"/>
<path d="M17.6 45.68C16.62 45.5 15.53 45.21 15.65 45.43L15.95 45.65C16.63 45.61 17.15 45.64 17.6 45.68Z" fill="#202020"/>
<path d="M1.19 11.38C1.17 11.47 1.15 11.57 1.12 11.67C1.19 11.91 1.26 12.13 1.33 12.33C1.29 12.05 1.24 11.72 1.19 11.39V11.38Z" fill="#202020"/>
<path d="M0.289917 10.7L0.429916 9.41003C0.379916 9.70003 0.329917 10.11 0.289917 10.7Z" fill="#202020"/>
<path d="M65.08 0.660065L65.86 0.440063C64.64 0.440063 65.18 0.550065 65.08 0.660065Z" fill="#202020"/>
<path d="M60.0199 45.74C59.1799 45.66 58.5099 45.62 57.9199 45.61C58.9299 45.73 59.7499 45.92 60.0199 45.74Z" fill="#202020"/>
<path d="M36.6799 3.19006C37.0899 3.15006 37.2699 3.11006 37.2499 3.06006C36.8299 3.10006 36.5899 3.14006 36.6799 3.19006Z" fill="#202020"/>
<path d="M55.48 45.61C55.63 45.63 55.77 45.64 55.93 45.66C56.55 45.62 57.17 45.59 57.92 45.61C57.17 45.52 56.31 45.46 55.49 45.61H55.48Z" fill="#202020"/>
<path d="M152.98 13.54C152.98 13.61 152.96 13.69 152.95 13.76C152.98 13.78 152.98 13.68 152.98 13.54Z" fill="#202020"/>
<path d="M150.79 41.53C150.78 41.25 150.78 40.8 150.77 40.38C150.76 40.59 150.76 40.93 150.79 41.53Z" fill="#202020"/>
<path d="M78.4399 45.56C78.5399 45.54 79.0699 45.55 78.4399 45.56V45.56Z" fill="#202020"/>
<path d="M81.5 46.42C81.37 46.44 81.26 46.48 81.25 46.53C81.3 46.48 81.39 46.44 81.5 46.42Z" fill="#202020"/>
<path d="M49.2199 46.96C49.2199 46.96 49.1899 46.96 49.1699 46.96C49.3599 47 49.3199 46.99 49.2199 46.96Z" fill="#202020"/>
<path d="M79.38 45.66C79.14 45.63 78.87 45.61 78.58 45.6C78.71 45.62 78.95 45.64 79.38 45.66Z" fill="#202020"/>
<path d="M79.26 45.56C79.48 45.56 79.65 45.57 79.81 45.58C79.89 45.54 79.81 45.52 79.26 45.56Z" fill="#202020"/>
<path d="M77.5599 45.57C77.9199 45.57 78.2499 45.57 78.5799 45.59C78.4599 45.58 78.3999 45.56 78.4399 45.56C78.2599 45.56 77.9999 45.56 77.5599 45.57Z" fill="#202020"/>
<path d="M109.67 1.42004C109.67 1.42004 109.76 1.43003 109.8 1.44003C110.43 1.35003 110.16 1.36004 109.67 1.42004Z" fill="#202020"/>
<path d="M1.15991 45.26C1.15991 45.26 1.18992 45.3 1.20992 45.33C1.18992 45.3 1.16991 45.26 1.15991 45.23V45.26Z" fill="#202020"/>
<path d="M0.0999756 42.72C0.529976 43.86 0.759973 44.44 1.15997 45.23C1.16997 44.87 1.22997 44.51 1.30997 44.19C0.849967 43.81 0.439976 43.31 0.0999756 42.73V42.72Z" fill="#202020"/>
<path d="M50.1999 0.830017L48.6199 0.640045C50.5299 0.320045 51.9199 0.430034 50.4299 0.160034C50.2099 0.840034 44.2699 0.230034 44.0499 0.910034L43.0099 0.77002C43.3099 0.77002 43.3599 0.740021 43.6499 0.740021C41.6199 0.410021 42.1399 1.23004 39.5199 1.13004C38.6099 1.08004 37.9699 0.980024 38.5899 0.900024L36.5599 1.07004C35.9699 1.06004 36.1099 0.940043 36.6999 0.950043L33.5999 1.00003L33.6199 0.980042C33.1799 1.09004 32.1799 1.25004 31.6899 1.32004C30.8999 1.22004 32.0899 1.25003 31.8799 1.16003L30.1599 1.32004C29.4599 1.14004 30.8799 0.970031 32.0699 1.00003C30.4699 0.320031 30.6499 1.17002 27.1799 0.77002L28.7999 0.680023C27.7499 0.290023 26.4899 0.430033 24.6599 0.190033C25.0899 0.320033 28.3299 0.800022 26.4699 0.960022C25.9399 0.910022 25.2499 0.88002 24.2499 1.02002C24.2499 0.78002 23.2599 0.840037 22.0299 0.850037L22.1099 0.530029C20.7799 0.620029 20.8899 0.790023 20.1099 0.930023C18.6299 0.900023 18.3199 0.650033 17.9699 0.440033C15.5999 0.390033 19.6099 0.840024 16.7999 0.900024C14.8299 0.780024 13.4399 0.900037 11.0899 1.10004C9.7099 0.990037 11.3299 0.900028 10.8399 0.810028L9.6199 1.07004C9.3199 1.07004 9.41991 0.990043 9.46991 0.950043C8.43991 1.05004 9.38991 1.27002 7.76991 1.36002C7.65991 1.45002 7.39991 1.46002 7.02991 1.43002C6.84991 1.41002 6.63991 1.39003 6.41991 1.37003C6.20991 1.34003 5.94991 1.31002 5.62991 1.30002C4.43991 1.23002 2.90992 1.77002 2.20992 2.77002C1.71992 3.10002 2.27992 2.43002 2.06992 2.46002C1.48992 3.08002 1.18991 3.62003 0.989914 4.03003C0.799914 4.46003 0.699913 4.78002 0.629913 5.08002C0.569913 5.39002 0.519903 5.68003 0.509903 6.06003C0.489903 6.44003 0.559908 6.92002 0.639908 7.46002L0.429901 9.38004C0.669901 7.97004 0.949911 9.77004 1.18991 11.35C1.30991 10.85 1.40992 10.42 1.45992 10.13L1.62991 12.66C1.57991 12.96 1.46991 12.71 1.32991 12.3C1.35991 12.47 1.38991 12.63 1.40991 12.76C1.28991 13.66 1.1099 13.19 0.929901 12.55C0.999901 12.25 1.05991 11.94 1.12991 11.64C0.939913 11.02 0.719907 10.43 0.529907 10.56C0.569907 10.72 0.599904 11.04 0.619904 11.39C0.569904 11.23 0.519914 11.12 0.489914 11.2C0.459914 11.29 0.529909 11.55 0.609909 11.96L0.249908 12.53L0.389908 12.67L0.169907 15.97C0.529907 18.33 1.05991 20.39 1.19991 24.14C0.939905 23.21 0.769915 23.94 0.459915 23.89C0.789915 22.87 0.319908 20.98 0.389908 19.04C0.359908 20.05 0.209912 19.83 0.159912 19.57L0.459915 23.04C0.209915 22.96 0.269907 23.78 0.169907 24.68C0.669907 24 0.499912 27.26 0.659912 28.68C0.489912 28.77 0.319909 28.43 0.359909 26.71C-0.0200909 28.61 0.949913 29.16 0.629913 31.03C0.629913 30.61 0.649916 30.38 0.569916 30.22C0.719916 31.2 0.599905 33.6 0.449905 33.04V32.62C0.389905 35.41 0.449904 41.11 0.869904 41.53C0.819904 41.56 0.359913 41.16 0.269913 41L0.639908 42.26C0.769908 42.73 0.969905 43.16 1.19991 43.54C1.68991 44.31 2.33991 44.89 3.05991 45.24C2.77991 45.24 2.7799 45.65 2.6499 45.93C2.5499 46.18 2.1499 46.37 1.2299 45.3C1.4399 45.64 1.68991 46.03 2.10991 46.41C2.51991 46.79 3.0899 47.2 3.8999 47.46C3.3799 47.2 3.00991 46.38 3.60991 46.71C4.34991 47.31 4.70991 47.41 5.07991 47.54C5.44991 47.66 5.97991 47.73 6.98991 47.89C6.30991 47.81 7.06991 47.24 8.13991 47.26C7.96991 47.35 8.22991 47.83 7.8399 47.88L10.5099 47.32C9.8399 47.42 10.3899 47.8 10.9899 47.96C10.7099 47.85 13.2999 47.97 14.0099 47.91L12.8799 47.78C15.8999 47.86 15.8599 46.99 18.8499 47.02C18.4899 47.14 17.9599 47.73 19.4799 47.81C20.1799 47.52 22.5699 46.42 25.2199 46.2L25.7299 46.36L27.7599 46.17C26.4899 46.6 22.9399 47.52 21.0099 47.87C22.1399 48 21.3199 48.06 23.0199 48.05C23.6199 48.2 22.0999 48.28 21.5999 48.29L25.5399 48.39C25.3599 48.05 28.5499 48.05 28.3999 47.77L24.1199 48.12C23.9499 47.78 26.5899 47.17 29.3799 47.23C30.0899 47.36 28.8499 47.83 28.9099 47.94C29.2699 47.82 31.5599 47.72 31.8099 47.8L30.6299 47.98C32.1799 48.11 33.1599 47.53 35.0299 47.86C35.6699 47.88 36.9499 48.29 37.0599 48.09C36.0099 47.71 35.7999 46.52 36.4999 46.23C36.7299 46.26 39.8799 46.6 40.6199 46.79C41.6799 47.09 39.0299 47.51 39.9299 47.77C39.9699 47.68 40.5499 47.56 40.7999 47.53C41.4799 47.61 40.5199 47.81 41.9899 47.77C42.2399 47.43 44.9799 47.8 42.6799 47.48C44.1199 47.38 44.2099 47.55 45.8999 47.54C45.3599 47.32 47.4199 46.79 48.8599 46.69C48.7799 46.78 49.0999 46.89 49.2599 46.94C52.2099 46.97 53.7899 47.13 56.5399 47.13C56.7899 47.21 58.1199 47.31 57.5499 47.46C57.9499 47.4 58.3099 47.28 59.1599 47.28C60.7999 47.57 57.2699 47.33 58.5199 47.68C58.6299 47.48 60.7099 47.41 61.9199 47.28C61.5499 46.97 59.1299 47.22 57.9199 47.34C57.9199 46.92 60.0199 46.48 62.8899 46.28C65.1699 46.18 63.8799 46.55 64.2799 46.49C68.5699 46.56 67.9299 45.75 71.4899 46.06C72.8999 46.33 71.5499 46.59 71.8699 46.79C70.0099 46.89 69.0099 46.62 67.7499 46.63L69.2999 46.76C68.7099 46.85 67.4699 46.92 66.7899 46.84C67.9699 47.08 74.0299 46.89 77.3399 47.11C77.9299 47.02 78.9399 46.93 78.4599 46.82L77.4099 46.86C76.4499 46.64 79.3799 46.56 78.0599 46.46C79.4599 46.31 81.0399 46.07 83.0099 46.19L83.3799 46.5C83.3399 46.41 82.0899 46.32 81.5299 46.41C82.3499 46.27 84.5599 46.82 85.4599 46.42L84.0699 46.21C85.4799 46.06 87.2199 45.73 88.9699 45.83C88.1699 45.53 88.5699 45.86 87.3199 45.51C88.3999 45.95 82.8399 45.49 84.5699 45.95C83.2899 45.54 82.3599 45.78 80.6899 45.43C80.7399 45.53 81.2799 45.62 79.8099 45.57C79.7399 45.6 79.5899 45.64 79.4899 45.66C79.4499 45.66 79.4299 45.66 79.3899 45.66C79.4199 45.66 79.4399 45.66 79.4699 45.67C79.4099 45.69 79.3999 45.69 79.4999 45.67C79.8499 45.71 80.1299 45.77 80.2499 45.82C79.5199 46.05 77.1799 46.04 76.3899 46.16C75.5199 46.11 76.7499 46.04 76.2799 45.94L75.0999 46.12C74.9799 45.9 72.7799 45.75 74.8399 45.62H72.9899C71.8999 45.48 70.3999 45.43 69.4799 45.53C68.6099 45.48 67.2799 45.78 68.0399 45.6L65.1399 45.74L65.1099 45.68C62.2499 45.65 59.2199 46.05 55.9399 45.65C54.9799 45.71 53.9799 45.78 52.3699 45.71L52.0599 45.52C50.8199 45.59 48.3399 45.33 47.8099 45.52C46.4699 45 41.7999 45.41 39.6299 45.31L39.5499 45.56C38.0499 45.55 36.6199 45.62 34.7599 45.72L34.8699 45.94C33.2699 46.12 30.7499 45.78 28.2099 45.8C28.3799 45.71 29.0299 45.74 29.4799 45.79C26.4499 45.28 23.0899 46.16 20.3399 45.79C19.6599 45.87 19.1599 45.84 18.6799 45.79C18.7399 45.79 18.7999 45.79 18.8499 45.78C18.7799 45.78 18.6799 45.78 18.5699 45.78C18.2699 45.74 17.9499 45.7 17.6199 45.66C17.9099 45.71 18.1799 45.76 18.4199 45.78C17.8899 45.78 17.0899 45.81 16.3099 45.87L15.9799 45.63C15.9199 45.63 15.8699 45.63 15.7999 45.63C15.0299 45.54 15.1799 45.74 15.5899 45.93C15.1899 45.97 14.8299 46.02 14.5499 46.08C13.9199 45.69 12.4899 46.21 11.6399 45.8C11.1099 46 7.68991 45.95 7.26991 46.38C7.23991 46.32 7.00991 46.3 7.43991 46.29C6.99991 46.27 6.55991 46.24 6.13991 46.24C5.75991 46.23 5.40991 46.22 5.05991 46.18C4.97991 46.05 4.8999 45.94 4.8399 45.8C4.30991 45.77 3.7499 45.62 3.2299 45.34C2.8999 44.93 2.7599 44.58 2.7599 44.46C2.7699 44.32 2.90991 44.42 3.29991 44.67C2.42991 43.95 2.2899 43.42 2.1499 43.04C2.0099 42.62 1.9499 42.3 1.7899 41.08L1.98991 41.2C1.98991 40.35 1.71991 39 1.87991 38.49C2.25991 36.6 1.92991 29.12 2.27991 24.26C1.69991 25.2 2.5399 22 2.0899 21.81C2.2299 21.53 2.3099 20.85 2.4299 21.64C2.2899 19.16 2.64991 17.91 2.26991 16.2C2.40991 15.92 2.46991 16.73 2.54991 16.48C2.51991 16.28 2.4299 15.69 2.5099 15.43C2.5899 15.18 2.62991 15.79 2.68991 16.19C2.66991 13.66 2.2399 13.4 1.8399 13.22C2.0299 11.94 1.99991 11.3 1.73991 10.37C1.86991 9.92003 2.00991 9.18003 2.04991 10.75C2.06991 9.92003 2.14991 6.11003 2.15991 5.50003C2.27991 5.29003 2.62991 4.55004 2.74991 4.38004C3.27991 3.70004 3.70991 3.47002 4.10991 3.24002C4.51991 3.05002 4.93991 2.83003 5.77991 2.75003C5.61991 2.73003 5.46991 2.75003 5.30991 2.75003C5.89991 2.25003 6.82991 2.61004 8.38991 2.54004L8.34991 2.58002C11.9599 2.86002 9.90991 2.45004 13.4699 2.76004L13.2799 2.52002C13.6099 2.00002 16.4299 2.82004 18.4999 2.63004L17.7499 2.49002C18.8799 2.31002 20.8999 3.19004 22.0399 3.26004C22.2899 3.30004 21.6499 3.33003 21.3099 3.37003C24.2799 3.67003 21.6899 3.06004 23.8999 2.98004C24.3099 3.15004 23.3699 3.41003 24.8599 3.44003C25.5999 3.58003 29.1699 2.89002 31.1999 3.21002C30.7499 3.08002 30.3099 2.95004 31.3399 2.85004C32.9099 2.80004 35.5899 3.34002 37.0099 2.93002C37.2099 2.97002 37.2899 3.00003 37.2899 3.03003C38.4899 2.92003 41.1999 2.85004 41.9199 2.63004C43.0299 3.46004 49.3999 2.23002 49.3699 2.99002L53.0699 2.95004L52.9699 3.03003C55.3299 3.08003 56.1699 2.90002 56.9999 2.71002C57.5499 2.76002 57.1499 2.83003 57.0999 2.87003C60.5499 3.02003 60.8999 2.99002 63.7899 2.61002L64.0899 2.86002C64.8799 2.72002 69.0799 3.25002 72.4699 2.96002C72.4399 2.99002 72.3699 3.04004 72.0999 3.07004C75.9099 2.78004 81.2299 3.76004 82.6199 2.85004L85.1399 2.63004C81.8899 2.56004 85.6199 2.24003 84.2899 2.09003C85.5699 2.04003 87.5999 2.36003 86.0299 2.41003L85.7799 2.36002C85.1999 2.83002 89.8199 2.53004 89.7399 2.85004C96.1399 2.83004 102.39 3.09002 108.39 3.11002L107.7 2.74002L109.79 2.76004C110.34 2.85004 110.53 3.05003 109.03 3.03003C109.82 3.24003 111.53 2.86003 111.58 2.78003C114.5 2.93003 110.44 3.21003 111.33 3.22003L112.55 3.19003L112.28 3.15002C113.27 3.00002 113.35 2.84002 115.15 2.86002C116.29 2.93002 115.73 3.09004 116.18 3.10004C116.18 3.13004 116.33 3.14002 116.87 3.11002L119.51 3.14005L118.46 2.85004C119.63 2.71004 120.94 2.87004 119.72 2.54004C121.51 3.04004 129.55 2.72004 130.65 2.88004C132.29 2.67004 133.9 2.67004 135.9 2.70004C135.4 2.64004 135.1 2.32004 136.83 2.35004C136.2 3.02004 139.99 2.64003 141.39 3.12003C140.14 2.80003 146.3 3.04003 144.34 2.59003C145.78 2.64003 144.43 2.84003 145.52 3.00003C145.95 2.97003 146.39 2.95002 146.84 2.93002C147.26 2.93002 147.6 2.93002 147.98 3.05002C148.72 3.24002 149.41 3.70002 149.91 4.33002C150.41 4.96002 150.71 5.75004 150.74 6.57004V6.88004V7.27002V8.06003C150.74 8.59003 150.74 9.11005 150.74 9.64005C150.83 9.71004 150.96 9.00003 151.09 9.91003L150.65 12.15C150.69 12.99 151.16 12.92 150.85 14.45C150.92 14.23 151.04 13.91 151.06 14.47C150.63 22.77 151.41 31.43 150.61 39.86C150.78 38.72 150.8 39.48 150.8 40.35C150.84 39.78 151.02 40.36 151.14 40.25L150.97 42.01C150.91 42.53 150.78 42.98 150.56 43.41C150.64 43.71 150.3 44.46 149.74 44.98C149.19 45.52 148.51 45.81 148.41 46C148.71 45.88 148.98 45.7 149.24 45.52C148.78 46 149.27 46.01 149.94 45.77C150.61 45.55 151.32 44.91 151.45 45.14C151.62 44.69 151.86 44.22 152.06 43.66C152.27 43.12 152.41 42.42 152.47 41.79C152.6 40.56 152.72 39.2 152.41 37.83C152.51 37.23 152.56 38.34 152.68 38.02C152.47 37.33 152.43 36.49 152.52 34.94L152.57 35.12C152.52 30.77 152.72 28.9 152.86 24.01L152.62 24.37C152.65 23.32 152.73 23.1 152.79 22.61C152.43 21.4 152.77 25.56 152.37 24.46C152.85 23.07 152.37 17.05 152.92 16.11C152.92 14.49 152.65 16.58 152.65 14.97L152.8 14.54L152.61 14.13C152.64 13.07 152.83 12.54 152.95 12.5C152.94 12.76 152.99 13.23 153 13.51C153.17 12.14 152.94 9.64003 153 9.16003L152.91 10.71C152.88 9.61002 152.86 8.44003 152.86 7.25003V6.79004L152.83 6.24002C152.78 5.87002 152.72 5.51002 152.61 5.15002C152.4 4.44002 152.04 3.76002 151.58 3.18002C150.66 2.01002 149.27 1.23002 147.85 1.05002C147.51 0.990018 147.11 1.00003 146.82 1.00003C146.53 1.01003 146.25 1.02003 145.96 1.03003C145.4 1.06003 144.85 1.09003 144.31 1.12003L144.63 1.23004C141.38 1.44004 142.02 1.11004 138.45 1.20004L138.58 1.17004C137.87 1.28004 136.91 1.34004 135.93 1.32004C136.83 1.19004 134.23 1.07004 135.42 0.920044C131.89 1.14004 133.67 1.09004 131.34 1.51004L130.8 1.32004C130.01 1.49004 129.94 1.58003 128.16 1.62003C129.62 1.46003 127.02 1.34004 128.66 1.13004C124.92 0.720035 123.1 1.54004 121.38 0.950043C119.66 1.46004 124.62 1.23003 123.66 1.34003C124.47 1.51003 122.24 1.72004 121.07 1.67004C119.87 1.66004 119.04 1.01002 116.03 1.02002C116.33 1.02002 116.35 0.980021 116.65 0.990021C115.52 0.860021 114.44 1.17004 113.06 0.950043C112.29 1.26004 111.27 0.930017 111.04 1.33002L113.8 1.24002C112.24 1.34002 110.77 1.81002 108.19 1.58002C108.39 1.50002 109.16 1.40003 109.68 1.34003C108.93 1.22003 108.23 1.42002 107.45 1.30002C107.67 0.900018 110.8 1.21003 112.48 0.910034C111.67 0.740034 109.31 1.20002 110.15 0.77002C108.94 1.32002 107.19 0.700026 105.15 1.12003L105.28 0.880035C104.96 0.920035 104.29 1.03002 103.7 1.02002L104.77 0.710022C103.12 0.970022 101.59 0.480026 100.01 0.620026C103.32 0.620026 100.75 0.910017 102.15 1.08002C98.0599 1.40002 99.7999 0.460038 95.2299 0.570038C95.8499 0.540038 97.5599 0.710038 96.5899 0.820038C95.7199 0.770038 94.5699 0.680028 94.0299 0.560028C90.9999 0.610028 94.4999 0.800043 93.2099 0.950043C92.1799 0.660043 91.7199 1.07003 90.3899 1.16003V0.920044C86.9299 0.770044 89.4599 1.42002 86.3599 1.24002L87.6699 0.910034L86.0499 1.00003L86.3799 0.730042C84.6199 0.930041 84.0699 0.880018 82.3399 0.800018C82.7399 0.970018 82.1099 1.24003 80.5799 1.25003C79.5399 1.11003 81.1599 1.02003 78.9999 1.06003C79.4899 0.910028 80.0299 0.720033 80.9699 0.940033C81.0699 0.860033 81.4499 0.790022 81.5499 0.710022C80.4299 0.550022 78.7299 0.670044 77.9399 0.670044C78.2399 0.670044 78.5999 0.690041 78.7899 0.730042L75.6499 1.06003C75.1599 0.970028 75.5499 0.900017 75.9399 0.830017C75.2999 0.860017 74.8599 0.970021 73.9299 0.990021C74.1699 0.790021 74.1099 0.590031 75.4399 0.500031L72.4399 0.720032C72.2399 0.630032 70.8999 0.490034 71.2899 0.410034C69.6299 0.290034 67.2199 0.790045 65.0199 0.640045C64.9099 0.680045 64.6799 0.710021 64.2099 0.740021C62.1399 0.700021 60.3099 0.460032 57.8599 0.720032L56.4699 0.370026C54.5499 0.450026 58.3499 0.810043 55.1599 0.950043C52.8999 1.06004 54.3099 0.650018 53.5199 0.550018C52.3899 0.730018 50.4399 1.09002 48.3599 0.800018C49.0499 0.730018 49.5899 0.79004 50.2299 0.76004L50.1999 0.830017ZM26.5099 0.990021C26.9699 0.940021 27.8799 0.780023 28.2199 0.930023C27.6999 1.21002 27.2899 1.07002 26.5099 0.990021ZM0.71991 14.88C0.63991 14.54 0.679913 14.01 0.769913 13.42C0.789913 13.85 0.77991 14.34 0.71991 14.88ZM71.5499 45.77C71.5499 45.77 71.5199 45.77 71.4999 45.78C70.4799 45.69 70.8399 45.72 71.5499 45.77ZM73.6799 45.87C73.8899 45.84 73.8799 45.8 73.7899 45.77C73.6399 45.83 73.1599 45.84 72.6199 45.82C72.7699 45.88 73.0499 45.93 73.6799 45.87ZM116.38 3.05002L115.97 2.99002C116.9 2.92002 116.64 2.99002 116.38 3.05002Z" fill="#202020"/>
<path d="M0.390015 10.79C0.430015 10.66 0.48002 10.62 0.52002 10.59C0.48002 10.41 0.430015 10.41 0.390015 10.79Z" fill="#202020"/>
<path d="M64.9299 0.700043H64.9999C64.9999 0.700043 65.0599 0.670034 65.0699 0.660034L64.9299 0.700043Z" fill="#202020"/>
<path d="M40.75 47.91C40.31 47.88 40.07 47.83 39.91 47.79C39.89 47.85 40.09 47.9 40.75 47.91Z" fill="#202020"/>
<path d="M84.94 45.45L83.58 45.51C84.24 45.5 84.47 45.55 84.81 45.59C84.78 45.53 84.52 45.45 84.95 45.45H84.94Z" fill="#202020"/>
<path d="M96.7599 46.95C96.9599 46.92 97.1799 46.95 97.3799 46.92L97.3299 46.81C96.4799 46.81 95.8899 46.91 96.7699 46.96L96.7599 46.95Z" fill="#202020"/>
<path d="M86.2 46.25C86.31 46.45 87.1599 46.38 88.1199 46.35H87.95C88.23 46.07 87.21 46.16 86.2 46.25Z" fill="#202020"/>
<path d="M88.34 46.34C88.63 46.34 88.93 46.33 89.22 46.34C89.33 46.23 88.86 46.32 88.34 46.34Z" fill="#202020"/>
<path d="M76.37 45.73C76.82 45.78 76.65 45.47 76.91 45.55C77.42 45.29 73.89 45.86 76.37 45.73Z" fill="#202020"/>
<path d="M86.98 46.92L86.63 46.67L86.1 46.87L86.98 46.92Z" fill="#202020"/>
<path d="M79.44 46.74L80.96 46.81C80.96 46.81 81.13 46.74 81.37 46.72C80.43 46.72 79.4 46.66 79.44 46.74Z" fill="#202020"/>
<path d="M81.38 46.72C81.87 46.72 82.33 46.72 82.61 46.68C82.35 46.68 81.78 46.69 81.38 46.72Z" fill="#202020"/>
<path d="M84.89 47L84.44 46.95L83.37 46.93L84.89 47Z" fill="#202020"/>
<path d="M63.06 46.69L61.4 46.76C61.23 46.85 61.68 46.9 62.3 46.86C62.7 46.8 63.32 46.77 63.06 46.68V46.69Z" fill="#202020"/>
<path d="M68.0899 47.38C67.6399 47.33 67.6099 47.27 67.3599 47.19L67.3099 47.5L68.0899 47.38Z" fill="#202020"/>
<path d="M63.2399 47.45C63.0699 47.54 60.8299 47.7 62.9299 47.68C63.0999 47.59 64.7599 47.52 63.2399 47.45Z" fill="#202020"/>
<path d="M38.1799 47.06L38.5999 47.05L38.5399 46.54L38.1799 47.06Z" fill="#202020"/>
<path d="M16.08 48.28C18.05 48.4 16.55 47.97 18.33 48.12C18.79 48 16.87 48 17.35 47.89C16.16 48.02 15.54 47.95 16.08 48.28Z" fill="#202020"/>
<path d="M17.35 47.89C17.54 47.87 17.74 47.84 17.96 47.81C17.62 47.84 17.45 47.87 17.35 47.89Z" fill="#202020"/>
<path d="M149.31 44.79C149.05 44.98 148.77 45.12 148.48 45.22C148.68 45.18 148.89 45.13 149.08 45.05C149.16 44.96 149.24 44.88 149.3 44.79H149.31Z" fill="#202020"/>
<path d="M147.79 45.98C147.69 45.9 147.59 45.8 147.5 45.7C147.33 45.84 147.13 45.93 146.93 46.04C147.17 46.02 147.61 45.95 147.8 45.97L147.79 45.98Z" fill="#202020"/>
<path d="M22.99 0.330017L22.89 0.410034C23.09 0.490034 23.38 0.50004 23.98 0.51004L22.99 0.330017Z" fill="#202020"/>
<path d="M40.18 0.570068L39.89 0.560059L40.44 0.860046L40.18 0.570068Z" fill="#202020"/>
<path d="M54.61 0.200043C54.02 0.190043 53.33 0.250021 52.74 0.240021C54.02 0.190021 54.77 0.570043 54.61 0.200043Z" fill="#202020"/>
</svg>
