<svg width="155" height="82" viewBox="0 0 155 82" fill="none" xmlns="http://www.w3.org/2000/svg">
<path d="M138.07 3.84003H17.22C9.41619 3.84003 3.08997 10.1662 3.08997 17.97V65.28C3.08997 73.0838 9.41619 79.41 17.22 79.41H138.07C145.874 79.41 152.2 73.0838 152.2 65.28V17.97C152.2 10.1662 145.874 3.84003 138.07 3.84003Z" fill="white"/>
<path d="M137.57 77.09C138.2 77.13 137.97 76.72 138.07 76.65C137.02 76.74 137.6 77.19 137.57 77.09Z" fill="#202020"/>
<path d="M127.21 78L127.39 77.84L125.87 78.24L127.21 78Z" fill="#202020"/>
<path d="M117.52 77.99C118.44 78.67 121.03 77.88 122.76 78.12L123.04 78.28L123.82 77.73C121.72 77.82 119 78.18 117.52 77.99Z" fill="#202020"/>
<path d="M112.36 76.52C112.68 76.79 111.24 76.75 113.56 76.6C113.44 76.57 113.41 76.55 113.34 76.53C113.13 76.53 112.84 76.53 112.35 76.51L112.36 76.52Z" fill="#202020"/>
<path d="M113.34 76.53C112.67 76.31 114.36 76.51 113.34 76.53V76.53Z" fill="#202020"/>
<path d="M108.63 76.68L109.97 76.44C109.69 76.28 108.49 76.25 108.94 76.13C107.56 76.26 107.84 76.42 108.63 76.67V76.68Z" fill="#202020"/>
<path d="M107.36 77.18L108.06 77.08C107.94 77.01 107.75 76.99 107.36 77.18Z" fill="#202020"/>
<path d="M109.53 76.87L108.05 77.08C108.24 77.19 108.27 77.41 108.73 77C108.61 77.2 108.9 77 109.53 76.86V76.87Z" fill="#202020"/>
<path d="M110.37 76.97C111.12 77.12 112.1 77.21 110.75 77.45C113.32 77.36 112.94 76.88 110.37 76.97Z" fill="#202020"/>
<path d="M117.03 78.7L118.04 78.9L118.91 78.67C118.47 78.78 116.97 78.49 117.03 78.7Z" fill="#202020"/>
<path d="M100.26 76.33C100.18 76.48 100.71 76.72 100.81 76.9L101.8 76.73C101.29 76.63 100.32 76.54 100.26 76.32V76.33Z" fill="#202020"/>
<path d="M100.81 76.9L99.3199 77.15C100.65 77.18 100.89 77.06 100.81 76.9Z" fill="#202020"/>
<path d="M107.12 77.94L109.56 77.42L106.65 77.95L107.12 77.94Z" fill="#202020"/>
<path d="M94.5899 76.31L95.4299 75.98L93.9299 76.48L94.5899 76.31Z" fill="#202020"/>
<path d="M90.8299 76.37C91.4499 76.09 89.9799 75.9 90.6299 75.73C89.6099 75.78 88.74 76.02 87.95 76.23C88.78 76.11 89.6699 76.14 90.8299 76.37Z" fill="#202020"/>
<path d="M86.6299 76.55C87.0499 76.48 87.4799 76.36 87.9499 76.24C87.5099 76.3 87.0699 76.4 86.6299 76.55Z" fill="#202020"/>
<path d="M96.7999 77.08C96.6899 76.99 96.4599 76.76 95.6299 76.67L96.2099 77.08C96.3899 77.08 96.5899 77.08 96.7899 77.08H96.7999Z" fill="#202020"/>
<path d="M96.2299 77.09H96.2099C95.5799 77.07 95.14 77.06 94.95 77.05C95.11 77.05 95.4999 77.07 96.2299 77.09Z" fill="#202020"/>
<path d="M96.9399 77.08C96.8899 77.08 96.8499 77.08 96.7899 77.08C96.8499 77.12 96.8799 77.13 96.9399 77.08Z" fill="#202020"/>
<path d="M103.23 77.57C102.36 77.8 100.54 78.04 102.3 78.39C102.93 78.11 101.92 77.91 103.23 77.57Z" fill="#202020"/>
<path d="M97.6699 77.59L99.2499 77.68C99.2199 77.57 98.9299 77.41 99.3699 77.3L97.6799 77.59H97.6699Z" fill="#202020"/>
<path d="M96.8999 77.72L97.6699 77.59L97.0899 77.56L96.8999 77.72Z" fill="#202020"/>
<path d="M89.3299 76.93C88.6499 77.11 87.8999 77.12 87.0599 77.15C87.9599 77.23 88.8999 77.27 89.7799 77.27C89.8999 77.14 90.2899 76.91 89.3299 76.93Z" fill="#202020"/>
<path d="M92.6899 77.04C92.6899 77.04 92.5799 77.06 92.5399 77.06C92.6299 77.09 92.7099 77.11 92.6899 77.04Z" fill="#202020"/>
<path d="M78.7699 77.15L78.9099 77.22L78.9399 77.15H78.7699Z" fill="#202020"/>
<path d="M89.9399 77.35C90.6199 77.43 91.0199 77.33 91.4099 77.2C90.8999 77.24 90.3699 77.27 89.7899 77.27C89.7299 77.33 89.7199 77.37 89.9399 77.35Z" fill="#202020"/>
<path d="M84.3199 76.74C84.6699 76.83 85.0699 76.9 85.4899 76.96C85.1399 76.83 84.4399 76.63 84.3199 76.74Z" fill="#202020"/>
<path d="M92.31 76.95C92.31 76.95 92.38 76.94 92.41 76.93C92.19 76.84 92.22 76.89 92.31 76.95Z" fill="#202020"/>
<path d="M92.3099 76.95C91.9599 77.01 91.6899 77.11 91.4099 77.2C91.8199 77.17 92.2099 77.12 92.5399 77.06C92.4599 77.03 92.3699 76.99 92.3099 76.95Z" fill="#202020"/>
<path d="M76.2599 79.77C76.3799 79.39 78.1599 79.04 79.6999 79.45C81.2199 79.17 80.2199 77.92 78.8999 77.22C78.8499 77.39 78.8499 77.54 77.2899 77.76C77.8399 77.97 80.7499 78.24 79.4299 78.59C77.3599 78.79 77.7399 78.46 76.7299 78.26C77.5799 78.73 74.0999 78.95 74.5499 79.64L76.3599 79.4C76.3899 79.51 75.7399 79.68 76.2399 79.78L76.2599 79.77Z" fill="#202020"/>
<path d="M81.8799 77.26L82.5199 77.21C81.7899 77.14 81.2699 76.99 80.2999 76.7C79.2299 76.88 79.0099 77.03 78.9399 77.15L82.0999 77.2L81.8799 77.26Z" fill="#202020"/>
<path d="M85.3999 77.21C84.8999 77.62 83.3599 77.8 84.2999 78.24C86.1799 78.21 85.6199 77.9 86.7399 77.72C83.6999 77.82 87.6099 77.49 85.4199 77.26C86.0199 77.19 86.5499 77.17 87.0599 77.15C86.5099 77.1 85.9899 77.04 85.4899 76.96C85.5199 76.97 85.5399 76.98 85.5599 76.99H85.5699C85.6999 77.04 85.7399 77.07 85.5999 77.04C85.5899 77.04 85.5499 77.04 85.5399 77.04C85.5199 77.1 85.4599 77.15 85.3999 77.2C84.5199 77.12 85.2599 77.09 85.5399 77.04C85.5499 77.02 85.5699 77 85.5799 76.98H85.5699L82.5299 77.2C83.1699 77.26 83.9799 77.25 85.4099 77.2L85.3999 77.21Z" fill="#202020"/>
<path d="M100.67 79.28C100.58 79.24 100.58 79.21 100.57 79.18C100.37 79.23 100.3 79.26 100.67 79.28Z" fill="#202020"/>
<path d="M99.4199 79.03C99.6399 78.97 99.8299 78.81 100.54 78.85C101.16 78.97 100.54 79.05 100.57 79.18C101 79.07 102.09 78.88 100.73 78.68L100.51 78.74C99.2799 78.6 97.7099 78.08 97.9199 78.03C98.2799 78.4 98.5899 78.66 99.4099 79.03H99.4199Z" fill="#202020"/>
<path d="M92.3199 78.22L89.7899 78.42L91.0799 78.78L91.0099 78.57C92.4499 78.65 92.1399 78.39 92.3199 78.23V78.22Z" fill="#202020"/>
<path d="M78.48 76.94L78.82 76.51L77.36 77.12L78.48 76.94Z" fill="#202020"/>
<path d="M75.1899 76.99L75.3099 76.62L74.4399 76.84L75.1899 76.99Z" fill="#202020"/>
<path d="M53.3899 1.57001L54.1299 1.46002C53.7799 1.49002 53.5499 1.53001 53.3899 1.57001Z" fill="#202020"/>
<path d="M47.99 1.54999L47.86 1.73999C48.11 1.63999 48.21 1.55999 47.99 1.54999Z" fill="#202020"/>
<path d="M5.46997 64.57C5.81997 63.49 6.36997 62.27 5.94997 62.4L5.53996 62.73C5.60996 63.49 5.56997 64.07 5.47997 64.56L5.46997 64.57Z" fill="#202020"/>
<path d="M5.66994 9.69C5.56994 9.75 5.46993 9.81 5.36993 9.87C5.32993 10.17 5.32994 10.46 5.30994 10.71C5.39994 10.4 5.49994 10.04 5.65994 9.69H5.66994Z" fill="#202020"/>
<path d="M4.78992 7.98999C5.18992 7.61999 5.63993 7.29997 6.04993 6.96997C5.74993 7.16997 5.31992 7.46999 4.78992 7.98999Z" fill="#202020"/>
<path d="M82.8299 1.13L83.6999 0.710022C82.3399 0.710022 82.9399 0.930005 82.8299 1.13Z" fill="#202020"/>
<path d="M41.4599 77.15C40.5199 76.99 39.7799 76.92 39.1199 76.9C40.2499 77.14 41.1599 77.5 41.4599 77.15Z" fill="#202020"/>
<path d="M51.26 5.96997C51.72 5.88997 51.91 5.80997 51.9 5.71997C51.43 5.78997 51.17 5.86997 51.26 5.96997Z" fill="#202020"/>
<path d="M36.4199 76.9C36.5799 76.94 36.7499 76.96 36.9099 77C37.5899 76.93 38.2799 76.87 39.1199 76.9C38.2899 76.72 37.3299 76.61 36.4199 76.9Z" fill="#202020"/>
<path d="M154.56 47.32C154.54 47.4 154.53 47.49 154.51 47.56C154.57 47.58 154.57 47.48 154.56 47.32Z" fill="#202020"/>
<path d="M145.41 75.15C145.61 74.97 145.96 74.72 146.25 74.42C146.08 74.54 145.85 74.77 145.41 75.15Z" fill="#202020"/>
<path d="M61.9399 76.81C62.0499 76.76 62.6399 76.78 61.9399 76.81V76.81Z" fill="#202020"/>
<path d="M65.3399 78.45C65.1899 78.5 65.0799 78.56 65.0599 78.65C65.1199 78.55 65.2099 78.49 65.3399 78.45Z" fill="#202020"/>
<path d="M29.4699 79.48C29.4699 79.48 29.4299 79.48 29.4099 79.48C29.6199 79.56 29.5799 79.55 29.4699 79.48Z" fill="#202020"/>
<path d="M62.99 77C62.73 76.95 62.43 76.91 62.1 76.88C62.24 76.91 62.52 76.95 62.99 77Z" fill="#202020"/>
<path d="M62.85 76.81C63.09 76.83 63.28 76.84 63.46 76.85C63.55 76.78 63.47 76.74 62.85 76.81Z" fill="#202020"/>
<path d="M60.97 76.84C61.37 76.84 61.74 76.85 62.1 76.88C61.96 76.85 61.91 76.83 61.94 76.81C61.74 76.81 61.45 76.82 60.97 76.83V76.84Z" fill="#202020"/>
<path d="M132.39 2.59002C132.39 2.59002 132.49 2.61 132.54 2.63C133.24 2.46 132.94 2.49002 132.39 2.59002Z" fill="#202020"/>
<path d="M1.15991 46.39C1.15991 46.39 1.1799 46.44 1.1799 46.47C1.1799 46.44 1.18991 46.4 1.18991 46.37L1.15991 46.39Z" fill="#202020"/>
<path d="M0.849976 43.88C1.36998 44.95 1.29997 45.56 1.18997 46.37L2.38997 45.54L0.849976 43.88Z" fill="#202020"/>
<path d="M66.29 1.45001L64.53 1.08002C66.66 0.470017 68.19 0.680024 66.54 0.150024C66.29 1.45002 59.69 0.280017 59.45 1.58002L58.29 1.31C58.62 1.32 58.68 1.25001 59 1.26001C56.74 0.64001 57.32 2.20001 54.41 2.01001C53.4 1.91001 52.69 1.72001 53.38 1.57001L51.12 1.89001C50.46 1.86001 50.62 1.63997 51.28 1.65997L47.83 1.76001L47.86 1.71997C47.37 1.91997 46.25 2.24 45.71 2.37C44.83 2.18 46.15 2.23001 45.93 2.07001L44.02 2.38C43.24 2.04 44.82 1.72002 46.14 1.77002C44.36 0.47002 44.56 2.10003 40.71 1.34003L42.51 1.17999C41.35 0.439993 39.94 0.71 37.9 0.25C38.38 0.49 41.98 1.40998 39.91 1.72998C39.33 1.62998 38.56 1.58998 37.44 1.84998C37.43 1.38998 36.34 1.50003 34.97 1.53003L35.06 0.919983C33.58 1.09998 33.7 1.40999 32.83 1.67999C31.18 1.61999 30.84 1.15 30.46 0.75C27.83 0.65 32.28 1.51 29.16 1.62C26.97 1.39 25.43 1.64 22.81 2C21.28 1.79 23.08 1.63001 22.53 1.45001L21.17 1.94C20.84 1.93 20.94 1.78001 21 1.70001C19.85 1.89001 20.91 2.30998 19.1 2.47998C18.84 2.82998 17.98 2.54999 16.75 2.35999C15.49 2.12999 13.88 2.19002 12.79 2.90002C12.14 2.89002 12.97 2.47003 12.73 2.28003C11.91 2.63003 11.37 2.97001 10.94 3.20001C10.53 3.47001 10.23 3.66999 9.96001 3.85999C9.68001 4.03999 9.45 4.26999 9.16 4.54999C8.86 4.82999 8.50001 5.17998 8.07001 5.72998C7.36001 6.05998 6.70999 6.51002 6.03999 6.96002C6.82999 6.52002 6.91 6.80999 6.67 7.35999C6.47 7.93999 5.98 8.80998 5.66 9.66998C6.18 9.34998 6.6 9.1 6.89 8.94C6.37 9.69 5.94 10.49 5.59 11.32C5.34 11.54 5.29 11.22 5.31 10.7C5.25 10.89 5.21 11.07 5.17 11.21C4.82 11.58 4.67 11.64 4.56 11.47C4.46 11.31 4.44 10.95 4.5 10.54C4.79 10.3 5.06999 10.06 5.37 9.85999C5.48 9.08998 5.58 8.26997 5.22 8.15997C5.15 8.35997 4.97 8.71 4.75 9.06C4.79 8.84 4.79 8.68998 4.69 8.72998C4.58 8.77998 4.47 9.09999 4.34 9.62C4.03 9.68999 3.71 9.77999 3.39 9.87L3.53 10.15C2.74 11.27 2.05001 12.5 1.57001 13.82C1.49001 15.35 1.81 16.81 2.16 18.27C2.53 19.69 2.86 21.3 3 23.39C2.5 22.36 2.18 23.17 1.59 23.11C2.22 21.96 1.31001 19.91 1.46001 17.69C1.37001 18.87 1.11 18.58 1 18.31L1.57001 22.16C1.09001 22.07 1.20999 22.98 1.00999 23.99C1.96999 23.23 1.65 26.86 1.94 28.43C1.62 28.53 1.29 28.15 1.37 26.24C0.649995 28.35 2.49 28.97 1.88 31.04C1.88 30.57 1.91999 30.32 1.75999 30.14C2.04999 31.23 1.81999 33.9 1.53999 33.27V32.8C1.41999 35.9 1.53 42.24 2.34 42.7C2.23 42.73 1.36 42.29 1.2 42.11L3.94 47.64C3.24 47.15 1.57999 49.02 1.17999 46.45C1.07999 47.19 0.960007 48.1 1.21001 49.66C1.31001 49.16 2.22 48.4 2.28 49.09C1.5 50.98 1.86 50.4 1.2 52.73C1.35 51.97 2.44 52.81 2.41 54.01C2.25 53.82 1.33 54.11 1.22 53.67L2.28999 56.64C2.09999 55.9 1.38 56.51 1.08 57.17C1.29 56.86 1.06 59.74 1.17 60.53L1.42 59.27C1.27 62.63 2.9 62.57 2.91 65.92C2.67 65.55 1.49 64.86 1.45 66.77C1.6 66.97 1.90001 67.29 2.24001 67.68C2.57001 68.07 3 68.51 3.47 68.98C3.9 69.46 4.44999 69.92 4.89999 70.42C5.41999 70.89 5.86001 71.4 6.32001 71.9V72.51C6.83001 73.01 7.32 73.5 7.89 73.9C7.15 73.73 5.85 73.16 4.58 72.18C3.34 71.2 2.2 69.8 1.61 68.67C1.66 69.39 1.61 69.51 1.59 69.71C1.57 69.91 1.63 70.19 2.02 71.2C2.04 72.03 1.12999 70.25 1.00999 69.59C1.39999 71.28 2.02 72.94 2.94 74.43C3.13 74.17 3.81999 74.9 4.53999 75.57C5.28999 76.21 6.04 76.81 6.17 76.54C4.76 75.46 3.49 74.11 2.47 72.56C2.71 72.32 3.45 72.85 4.39 73.65C5.36 74.44 6.53001 75.5 7.74001 76.57C7.98001 76.93 7.68 77.06 7.3 77.11C6.93 77.15 6.47 77.11 6.42 77.21C6.54 77.25 6.77 77.38 7.06 77.57C7.36 77.74 7.71 77.95 8.05 78.17C8.73 78.6 9.44 78.96 9.53 79.12C9.06 78.96 8.56 78.81 8.08 78.63C8.85 79.27 9.66 79.51 10.5 79.7C10.91 79.82 11.34 79.91 11.79 80.05C12.23 80.21 12.7 80.42 13.23 80.69C13.61 80.82 14.16 81.16 14.67 81.38C15.17 81.61 15.62 81.78 15.7 81.59C14.4 80.69 14.71 78.41 15.47 77.98C15.58 78.05 16.39 78.29 17.37 78.53C18.38 78.74 19.46 79 19.87 79.18C21.05 79.75 18.1 80.55 19.1 81.04C19.14 80.86 19.79 80.65 20.07 80.58C20.82 80.73 19.76 81.12 21.39 81.04C21.66 80.39 24.71 81.1 22.16 80.49C23.76 80.3 23.86 80.62 25.74 80.6C25.14 80.18 27.42 79.17 29.03 78.98C28.94 79.15 29.3 79.36 29.47 79.46C32.75 79.52 34.5 79.81 37.56 79.82C37.84 79.98 39.32 80.17 38.69 80.45C39.13 80.33 39.53 80.11 40.48 80.1C42.3 80.66 38.38 80.19 39.77 80.86C39.89 80.48 42.21 80.34 43.55 80.1C43.14 79.52 40.45 79.99 39.11 80.22C39.11 79.41 41.44 78.57 44.64 78.2C47.18 78 45.74 78.72 46.18 78.61C50.95 78.75 50.24 77.2 54.2 77.78C55.77 78.29 54.27 78.8 54.62 79.17C52.55 79.36 51.45 78.84 50.05 78.86L51.77 79.1C51.11 79.27 49.73 79.4 48.98 79.25C50.3 79.71 57.03 79.34 60.71 79.76C61.36 79.59 62.49 79.41 61.96 79.2L60.8 79.27C59.73 78.86 62.99 78.7 61.52 78.5C63.08 78.21 64.83 77.75 67.03 77.99L67.44 78.58C67.39 78.41 66 78.23 65.39 78.41C66.31 78.15 68.76 79.2 69.76 78.44L68.22 78.03C69.79 77.74 71.72 77.11 73.67 77.3C72.78 76.72 73.22 77.37 71.84 76.69C73.04 77.53 66.86 76.65 68.79 77.54C67.37 76.75 66.33 77.21 64.48 76.54C64.54 76.73 65.14 76.91 63.5 76.81C63.43 76.87 63.25 76.94 63.14 76.98C63.09 76.98 63.07 76.98 63.03 76.97C63.06 76.97 63.09 76.98 63.12 76.99C63.05 77.02 63.04 77.02 63.15 76.99C63.54 77.07 63.85 77.18 63.98 77.28C63.17 77.72 60.57 77.71 59.69 77.94C58.72 77.85 60.1 77.72 59.57 77.51L58.26 77.85C58.13 77.42 55.68 77.14 57.97 76.89L55.91 76.87C54.7 76.63 53.03 76.53 52.01 76.71C51.04 76.62 49.56 77.19 50.4 76.85L47.17 77.12L47.14 77.01C43.96 76.96 40.59 77.72 36.95 76.95C35.88 77.06 34.77 77.19 32.98 77.07L32.63 76.7C31.25 76.83 28.5 76.33 27.91 76.72C26.43 75.72 21.23 76.5 18.81 76.32L18.72 76.8C18.3 76.8 17.89 76.8 17.48 76.8C17.12 76.8 16.76 76.8 16.39 76.81C15.68 76.81 14.91 76.78 14.05 76.64V77.08C13.24 77.08 12.31 76.61 11.38 76.01C10.47 75.36 9.59 74.53 8.72 73.71C8.95 73.71 9.37 74.14 9.62 74.5C8.84 73.22 7.8 72.27 6.88 71.08C5.98 69.92 5.27 68.53 5.41 67.18C5.14 66.57 5.16999 66.07 5.25999 65.62C5.25999 65.68 5.26999 65.73 5.28999 65.78C5.28999 65.71 5.28999 65.62 5.28999 65.51C5.35999 65.19 5.43 64.86 5.5 64.5C5.4 64.81 5.3 65.15 5.28 65.36C5.25 64.82 5.21001 63.9 5.10001 63.04L5.56 62.67C5.56 62.6 5.56 62.54 5.55 62.47C5.72 61.61 5.33001 61.78 4.99001 62.24C4.91001 61.8 4.82001 61.4 4.71001 61.09C5.45001 60.39 4.46 58.8 5.25 57.85C4.86 57.26 4.95999 53.46 4.14999 53C4.25999 52.97 4.31 52.71 4.31 53.18C4.4 52.21 4.5 51.23 4.27 50.36L4.86 49.95L4.07001 47.83C4.43001 46.54 4.63 46 5.08 47.29C4.39 44.2 4.82 44.78 4.13 42.15L4.50999 42.28C4.49999 41.34 3.99 39.84 4.3 39.27C5.02 37.17 4.40001 28.86 5.07001 23.46C3.96001 24.51 5.57001 20.95 4.71001 20.74C4.97001 20.43 5.12001 19.67 5.35001 20.55C5.29001 19.86 5.27999 19.26 5.28999 18.71C5.29999 18.44 5.31 18.18 5.33 17.93C5.36 17.72 5.37999 17.52 5.39999 17.32C5.42999 16.93 5.47 16.57 5.5 16.19C5.51 15.82 5.46 15.43 5.41 14.99C5.73 14.8 5.66 15.56 5.87 15.37C5.87 15.19 5.82999 14.61 6.03999 14.42C6.24999 14.25 6.16 14.81 6.19 15.18C6.3 14.62 6.4 14.19 6.44 13.83C6.46 13.47 6.43999 13.18 6.39999 12.95C6.28999 12.48 5.99 12.2 5.69 11.94C6.15 11.44 6.49 11.09 6.69 10.7C6.94 10.34 7.04 9.93002 7.16 9.40002C7.68 9.22002 8.33 8.84002 7.38 10.08C7.66001 9.74002 8.62001 8.79 9.60001 8.06C9.85001 7.87 10.09 7.69002 10.31 7.52002C10.54 7.37002 10.76 7.22002 10.93 7.08002C11.27 6.79002 11.52 6.60001 11.46 6.45001C11.62 6.45001 11.91 6.33 12.17 6.19C12.44 6.05 12.71 5.92003 12.81 5.84003C13.28 5.66003 13.66 5.57 13.98 5.5C14.3 5.44 14.56 5.35001 14.83 5.32001C15.37 5.25001 15.89 5.14003 16.88 5.09003L16.33 5.02002C17.06 4.22002 18.06 4.80997 19.8 4.71997L19.75 4.79999C23.76 5.32999 21.48 4.55002 25.44 5.15002L25.22 4.69C25.59 3.7 28.72 5.27001 31.02 4.89001L30.19 4.63C31.44 4.29 33.69 5.97003 34.95 6.09003C35.22 6.18003 34.52 6.22998 34.13 6.28998C37.43 6.86998 34.56 5.68999 37.01 5.54999C37.46 5.86999 36.43 6.36999 38.08 6.42999C38.9 6.68999 42.88 5.38 45.13 6C44.63 5.75 44.14 5.5 45.28 5.31C47.03 5.22 50.01 6.24997 51.59 5.46997C51.81 5.53997 51.9 5.59998 51.91 5.66998C53.25 5.46998 56.25 5.32997 57.06 4.90997C58.3 6.48997 65.37 4.13998 65.34 5.59998L69.45 5.52002L69.34 5.66998C71.97 5.76998 72.9 5.42001 73.82 5.07001C74.43 5.17001 73.98 5.31 73.93 5.38C77.77 5.67 78.15 5.61 81.37 4.88L81.7 5.34998C82.57 5.06998 87.25 6.08998 91.02 5.53998C90.98 5.58998 90.91 5.69 90.61 5.75C94.85 5.19 100.75 7.06003 102.31 5.34003L105.11 4.90997C101.49 4.77997 105.65 4.16 104.16 3.87C105.58 3.77 107.84 4.38998 106.09 4.47998L105.82 4.39001C105.18 5.29001 110.32 4.71001 110.22 5.32001C117.34 5.28001 124.28 5.77 130.95 5.81L130.18 5.10999L132.51 5.15002C133.12 5.31002 133.33 5.69998 131.67 5.66998C132.54 6.06998 134.45 5.34 134.5 5.19C137.75 5.47 133.23 6.01002 134.23 6.02002L135.58 5.96997L135.27 5.89001C136.35 5.61001 136.51 5.27998 138.42 5.34998C139.53 5.54998 138.96 5.79999 139.39 5.85999C139.39 5.90999 139.52 5.95998 140.03 5.97998C140.45 6.02998 140.85 6.16002 141.25 6.27002C141.66 6.36002 142.04 6.54 142.43 6.69C142.18 6.41 141.93 6.09002 141.64 5.83002C142.83 5.90002 143.94 6.77 143.04 5.69C143.71 6.48 145.89 7.64002 147.43 9.46002C149.07 11.18 149.94 13.35 149.96 13.9C150.4 14.6 150.7 15.39 150.85 16.24C151 17.1 151 18 150.97 19.15C151.08 18.6 151.71 18.27 151.63 20.18C150.35 19.48 151.07 23.69 150.15 25.24C150.76 23.85 150.3 30.69 151.17 28.52C151.07 30.12 150.69 28.62 150.39 29.83C150.89 33.64 150.07 38.23 150.24 42.94C150.41 43.01 150.67 42.22 150.92 43.23L150.08 45.72C150.16 46.65 151.05 46.58 150.47 48.28C150.61 48.04 150.82 47.68 150.88 48.31C150.47 52.92 150.64 57.64 150.72 62.37L150.74 64.14C150.74 64.74 150.75 65.34 150.71 65.84C150.69 66.9 150.43 67.94 150.12 68.94C149.39 70.91 148.08 72.66 146.38 73.76C147.35 73.2 146.92 73.78 146.29 74.34C146.75 74.03 146.56 74.65 146.79 74.75C145.78 75.41 144.67 75.89 143.56 76.2C143.49 76.4 143.25 76.63 142.91 76.82C142.56 76.98 142.14 77.17 141.7 77.3C141.26 77.41 140.84 77.55 140.5 77.64C140.16 77.73 139.91 77.85 139.83 78.01C140.2 77.9 140.57 77.85 140.93 77.71C140.27 78.22 140.84 78.52 141.67 78.73C142.5 78.99 143.57 79 143.62 79.49C144.41 78.77 145.67 78.47 147.05 77.82C148.43 77.2 149.86 76.08 150.39 74.4C150.98 73.92 150.25 75.08 150.65 74.9C150.74 74.43 150.96 74.01 151.21 73.46C151.35 73.19 151.51 72.91 151.71 72.59C151.88 72.26 152.09 71.9 152.34 71.48V71.71C153.4 69.24 153.75 67.32 153.9 65.32C154.03 63.49 154.18 61.63 154.31 58.91L153.86 59.31C153.92 58.14 154.06 57.9 154.18 57.35C153.49 56.01 154.14 60.63 153.38 59.41C154.3 57.86 153.39 51.18 154.44 50.13C154.44 48.33 153.92 50.66 153.92 48.86L154.2 48.38L153.84 47.93C153.9 46.75 154.25 46.16 154.49 46.11C154.46 46.4 154.56 46.92 154.58 47.23C154.91 45.7 154.47 42.92 154.58 42.4L154.41 44.13C154.14 39.23 154.52 33.24 153.94 28.51L153.73 28.87C153.33 25.25 153.96 25.97 153.78 22L153.83 22.14C153.62 21.35 153.51 20.28 153.53 19.2C153.78 20.2 154.02 17.31 154.29 18.63C154.24 18.15 154.19 17.74 154.13 17.35C154.07 16.98 154.02 16.7 153.98 16.47C153.89 16.02 153.77 15.81 153.69 15.64C153.49 15.32 153.37 15.14 152.61 13.9C152.67 13.66 152.74 13.42 152.78 13.18C152.13 12.39 152.04 12.33 150.98 10.54C151.53 11.21 151.49 10.87 151.47 10.51C151.43 10.18 151.44 9.80999 152.1 10.61C151.36 8.33998 149.94 7.10002 148.82 6.27002C147.68 5.40002 146.74 4.93001 146.09 3.88C144.92 3.77 145.75 4.39 146.65 5C147.09 5.33 147.55 5.68002 147.84 5.90002C148.12 6.14002 148.22 6.25998 147.97 6.09998C148.22 6.55998 147.81 6.37 147.15 6.06C146.52 5.71 145.64 5.28001 145.08 4.89001C144.46 4.59001 144.09 3.99999 143.34 3.42999C143.16 3.27999 142.96 3.12997 142.73 2.96997C142.49 2.82997 142.23 2.7 141.93 2.56C141.34 2.26 140.57 2.08997 139.64 1.96997C140.01 2.00997 140.05 1.96001 140.42 2.01001C139.74 1.75001 139.02 1.82999 138.29 1.85999C137.6 1.90999 136.94 1.97001 136.17 1.76001C135.31 2.35001 134.18 1.72998 133.93 2.47998L137 2.31C135.26 2.51 133.63 3.39002 130.77 2.96002C130.99 2.81002 131.85 2.60999 132.43 2.48999C131.59 2.26999 130.82 2.63997 129.95 2.40997C130.2 1.64997 133.68 2.24998 135.54 1.66998C134.64 1.34998 132.02 2.22002 132.95 1.40002C131.6 2.44002 129.65 1.27 127.39 2.06L127.54 1.60999C127.18 1.67999 126.44 1.9 125.78 1.88L126.97 1.28998C125.14 1.78998 123.44 0.849995 121.68 1.12C125.36 1.11 122.51 1.67 124.06 2C119.52 2.61 121.45 0.810029 116.36 1.03003C117.05 0.970029 118.94 1.30001 117.87 1.51001C116.9 1.42001 115.62 1.24 115.03 1C111.66 1.09 115.55 1.47 114.11 1.75C112.96 1.2 112.46 1.98002 110.98 2.15002V1.69C107.13 1.39 109.95 2.64998 106.5 2.28998L107.96 1.65002L106.16 1.82001L106.53 1.29999C104.57 1.68999 103.96 1.59 102.04 1.44C102.49 1.76 101.79 2.27998 100.09 2.28998C98.93 2.01998 100.74 1.84998 98.33 1.91998C98.87 1.62998 99.47 1.27 100.52 1.69C100.63 1.54 101.06 1.4 101.17 1.25C99.92 0.94 98.03 1.17999 97.16 1.17999C97.5 1.19999 97.9 1.21998 98.1 1.28998L94.61 1.92999C94.06 1.75999 94.5 1.61998 94.93 1.47998C94.22 1.52998 93.73 1.74003 92.69 1.78003C92.96 1.41003 92.89 1.02003 94.37 0.840027L91.04 1.26001C90.82 1.10001 89.33 0.809983 89.76 0.669983C87.91 0.449983 85.23 1.39999 82.79 1.10999C82.66 1.17999 82.41 1.25 81.89 1.31C79.59 1.23 77.55 0.770029 74.83 1.28003L73.28 0.609985C71.15 0.759985 75.37 1.46002 71.82 1.71002C69.3 1.92002 70.88 1.14001 70 0.950012C68.75 1.29001 66.57 1.97999 64.26 1.42999C65.03 1.29999 65.63 1.39998 66.34 1.34998L66.29 1.45001ZM39.96 1.75C40.47 1.65 41.49 1.35 41.86 1.63C41.28 2.16 40.83 1.91 39.96 1.75ZM3.02 12.82C3.02 12.6 3.09001 12.35 3.21001 12.08C3.35001 11.82 3.55999 11.54 3.78999 11.26C3.59999 11.73 3.33 12.24 3.02 12.82ZM54.28 77.18C54.28 77.18 54.24 77.19 54.23 77.2C53.09 77.02 53.5 77.09 54.28 77.18ZM56.64 77.38C56.88 77.32 56.86 77.25 56.76 77.19C56.6 77.31 56.06 77.31 55.46 77.28C55.63 77.4 55.93 77.48 56.64 77.38ZM139.61 5.78998C139.48 5.72998 139.36 5.66 139.23 5.62C140.15 5.60999 139.88 5.69998 139.61 5.78998Z" fill="#202020"/>
<path d="M4.87988 8.21C5.03988 8.13 5.12988 8.14996 5.21988 8.16996C5.29988 7.94996 5.21988 7.88 4.87988 8.21Z" fill="#202020"/>
<path d="M82.6699 1.21002H82.7499C82.7499 1.21002 82.8199 1.16 82.8299 1.13L82.6699 1.21002Z" fill="#202020"/>
<path d="M20.0399 81.3C19.5499 81.23 19.2799 81.15 19.0999 81.06C19.0699 81.17 19.2899 81.27 20.0399 81.3Z" fill="#202020"/>
<path d="M69.1699 76.6L67.6599 76.72C68.3899 76.7 68.6499 76.8 69.0199 76.87C68.9899 76.76 68.6999 76.61 69.1699 76.6Z" fill="#202020"/>
<path d="M82.3099 79.46C82.5299 79.4 82.7799 79.46 82.9999 79.4L82.9399 79.19C81.9999 79.2 81.3399 79.38 82.3099 79.47V79.46Z" fill="#202020"/>
<path d="M70.5699 78.14C70.6899 78.53 71.6399 78.4 72.6999 78.32C72.6399 78.32 72.5799 78.32 72.5099 78.32C72.8199 77.78 71.6899 77.96 70.5699 78.14Z" fill="#202020"/>
<path d="M72.95 78.31C73.28 78.29 73.6099 78.28 73.9299 78.31C74.0499 78.09 73.53 78.26 72.95 78.31Z" fill="#202020"/>
<path d="M59.6499 77.13C60.1499 77.23 59.97 76.63 60.25 76.79C60.81 76.3 56.8999 77.39 59.6499 77.13Z" fill="#202020"/>
<path d="M71.4299 79.41L71.05 78.94L70.46 79.32L71.4299 79.41Z" fill="#202020"/>
<path d="M63.06 79.06L64.75 79.19C64.72 79.11 64.94 79.06 65.2 79.03C64.16 79.01 63.01 78.92 63.05 79.06H63.06Z" fill="#202020"/>
<path d="M65.21 79.03C65.75 79.03 66.27 79.03 66.57 78.95C66.28 78.95 65.64 78.97 65.21 79.03Z" fill="#202020"/>
<path d="M69.1099 79.56L68.6099 79.46L67.4199 79.42L69.1099 79.56Z" fill="#202020"/>
<path d="M44.85 78.97L43 79.11C42.81 79.27 43.32 79.37 44 79.31C44.44 79.2 45.13 79.13 44.84 78.97H44.85Z" fill="#202020"/>
<path d="M50.4399 80.28C49.9399 80.18 49.9099 80.07 49.6199 79.92L49.5599 80.51L50.4299 80.28H50.4399Z" fill="#202020"/>
<path d="M45.0499 80.42C44.8699 80.58 42.3699 80.89 44.7099 80.86C44.8999 80.7 46.7499 80.56 45.0499 80.42Z" fill="#202020"/>
<path d="M17.1899 79.67L17.6599 79.66L17.5899 78.69L17.1899 79.67Z" fill="#202020"/>
<path d="M0.509937 62.89C0.279937 65.09 1.10995 63.39 0.81995 65.41C1.04995 65.92 1.04994 63.77 1.24994 64.3C1.00994 62.98 1.13994 62.28 0.499942 62.89H0.509937Z" fill="#202020"/>
<path d="M1.25 64.3C1.29 64.51 1.32999 64.74 1.39999 64.98C1.33999 64.6 1.29 64.42 1.25 64.3Z" fill="#202020"/>
<path d="M141.27 76.62C140.87 76.64 140.49 76.71 140.09 76.68C140.36 76.76 140.62 76.81 140.9 76.84L141.27 76.62Z" fill="#202020"/>
<path d="M139.11 77.74L138.78 77.13L138.07 77.73C138.35 77.69 138.89 77.6 139.11 77.73V77.74Z" fill="#202020"/>
<path d="M36.0499 0.5L35.9399 0.650024C36.1599 0.810024 36.4899 0.819976 37.1499 0.849976L36.0499 0.5Z" fill="#202020"/>
<path d="M55.16 0.969971L54.83 0.950012L55.45 1.51001L55.16 0.969971Z" fill="#202020"/>
<path d="M71.1999 0.249999C70.5499 0.229999 69.7799 0.350016 69.1199 0.330016C70.5499 0.230016 71.3799 0.949999 71.1999 0.249999Z" fill="#202020"/>
</svg>
