<svg width="107" height="113" viewBox="0 0 107 113" fill="none" xmlns="http://www.w3.org/2000/svg">
<path d="M100.26 3.78003H7.11993C5.09993 3.78003 3.45996 5.97003 3.45996 8.66003V104.64C3.45996 107.34 5.09993 109.53 7.11993 109.53H100.26C102.28 109.53 103.92 107.34 103.92 104.64V8.66003C103.92 5.96003 102.28 3.78003 100.26 3.78003Z" fill="white"/>
<path d="M99.7801 1.50998C100.38 1.53998 100.16 1.14996 100.25 1.07996C99.2501 1.16996 99.8001 1.60998 99.7801 1.50998Z" fill="#202020"/>
<path d="M89.91 2.39999L90.08 2.23999L88.63 2.63L89.91 2.39999Z" fill="#202020"/>
<path d="M80.6699 2.39001C81.5399 3.06001 84.0199 2.27999 85.6599 2.51999L85.9299 2.67001L86.6699 2.13C84.6699 2.21 82.0699 2.57001 80.6699 2.39001Z" fill="#202020"/>
<path d="M75.75 0.950012C76.05 1.21001 74.68 1.17 76.9 1.03C76.79 0.999999 76.76 0.989991 76.69 0.959991C76.49 0.959991 76.22 0.960002 75.75 0.940002V0.950012Z" fill="#202020"/>
<path d="M76.6901 0.959981C76.0501 0.739981 77.6601 0.939981 76.6901 0.959981V0.959981Z" fill="#202020"/>
<path d="M72.2001 1.10995L73.4801 0.879974C73.2101 0.729974 72.0701 0.689956 72.5001 0.579956C71.1901 0.709956 71.4601 0.859955 72.2001 1.10995Z" fill="#202020"/>
<path d="M70.98 1.60001L71.64 1.5C71.52 1.44 71.35 1.41001 70.98 1.60001Z" fill="#202020"/>
<path d="M73.06 1.29004L71.65 1.50003C71.84 1.61003 71.86 1.82002 72.3 1.43002C72.18 1.63002 72.46 1.43002 73.06 1.30002V1.29004Z" fill="#202020"/>
<path d="M73.85 1.4C74.57 1.55 75.5 1.64001 74.21 1.87001C76.66 1.78001 76.3 1.31 73.85 1.4Z" fill="#202020"/>
<path d="M80.2001 3.08002L81.16 3.28003L81.9901 3.06003C81.5701 3.17003 80.1401 2.88003 80.2001 3.09003V3.08002Z" fill="#202020"/>
<path d="M64.2199 0.77002C64.1399 0.91002 64.6499 1.15002 64.7499 1.33002L65.6999 1.17004C65.2099 1.07004 64.2899 0.98002 64.2299 0.77002H64.2199Z" fill="#202020"/>
<path d="M64.7501 1.32996L63.3301 1.56998C64.5901 1.59998 64.8301 1.47996 64.7501 1.32996Z" fill="#202020"/>
<path d="M70.7601 2.33997L73.0801 1.82996L70.3101 2.34998L70.7601 2.33997Z" fill="#202020"/>
<path d="M58.8099 0.750031L59.6099 0.420044L58.1899 0.920044L58.8099 0.750031Z" fill="#202020"/>
<path d="M55.23 0.809998C55.82 0.539998 54.42 0.349993 55.04 0.179993C54.07 0.229993 53.23 0.460013 52.48 0.670013C53.28 0.550013 54.12 0.579998 55.22 0.809998H55.23Z" fill="#202020"/>
<path d="M51.23 0.980042C51.63 0.910042 52.04 0.800044 52.49 0.670044C52.07 0.730044 51.65 0.820042 51.23 0.980042Z" fill="#202020"/>
<path d="M60.92 1.49997C60.81 1.40997 60.6001 1.18997 59.8101 1.08997L60.3701 1.48996C60.5401 1.48996 60.7301 1.48996 60.9301 1.48996L60.92 1.49997Z" fill="#202020"/>
<path d="M60.3799 1.50998H60.3599C59.7599 1.48998 59.3399 1.47997 59.1599 1.46997C59.3099 1.46997 59.6799 1.48998 60.3799 1.50998Z" fill="#202020"/>
<path d="M61.0599 1.5C61.0099 1.5 60.9699 1.5 60.9199 1.5C60.9699 1.54 61.0099 1.55 61.0599 1.5Z" fill="#202020"/>
<path d="M67.05 1.97998C66.22 2.19998 64.48 2.43997 66.16 2.77997C66.76 2.50997 65.8 2.30998 67.05 1.97998Z" fill="#202020"/>
<path d="M61.75 1.99997L63.25 2.08997C63.22 1.97997 62.95 1.82997 63.36 1.71997L61.75 1.99997Z" fill="#202020"/>
<path d="M61.01 2.12997L61.75 1.99997L61.19 1.96997L61.01 2.12997Z" fill="#202020"/>
<path d="M53.8 1.35C53.15 1.52 52.44 1.54 51.64 1.57C52.5 1.65 53.39 1.69 54.23 1.69C54.35 1.56 54.72 1.34 53.8 1.35Z" fill="#202020"/>
<path d="M57 1.45996C57 1.45996 56.9 1.47998 56.86 1.47998C56.95 1.50998 57.02 1.51996 57 1.45996Z" fill="#202020"/>
<path d="M43.74 1.57001L43.86 1.64001L43.89 1.57001H43.74Z" fill="#202020"/>
<path d="M54.38 1.76001C55.03 1.84001 55.41 1.74 55.78 1.62C55.3 1.66 54.78 1.69 54.23 1.69C54.18 1.75 54.17 1.78001 54.37 1.76001H54.38Z" fill="#202020"/>
<path d="M49.02 1.15997C49.36 1.23997 49.74 1.30997 50.14 1.37997C49.81 1.24997 49.14 1.05997 49.02 1.15997Z" fill="#202020"/>
<path d="M56.64 1.37003C56.64 1.37003 56.7 1.36004 56.74 1.35004C56.53 1.26004 56.55 1.31003 56.64 1.37003Z" fill="#202020"/>
<path d="M56.64 1.37C56.31 1.43 56.05 1.52999 55.78 1.60999C56.17 1.57999 56.54 1.54001 56.86 1.48001C56.78 1.45001 56.7 1.41 56.64 1.37Z" fill="#202020"/>
<path d="M41.3401 4.13C41.4501 3.76 43.15 3.42 44.62 3.81C46.06 3.53 45.12 2.32001 43.86 1.64001C43.82 1.80001 43.82 1.95001 42.33 2.17001C42.85 2.37001 45.63 2.64001 44.37 2.98001C42.4 3.17001 42.76 2.84999 41.8 2.64999C42.61 3.10999 39.3 3.32 39.72 4L41.45 3.76001C41.48 3.87001 40.8601 4.03 41.3401 4.13Z" fill="#202020"/>
<path d="M46.7 1.67999L47.31 1.63C46.61 1.57 46.11 1.42 45.2 1.13C44.18 1.31 43.97 1.45001 43.9 1.57001L46.91 1.62L46.7 1.67999Z" fill="#202020"/>
<path d="M50.05 1.63C49.57 2.03 48.1001 2.20001 49.0001 2.64001C50.7901 2.61001 50.2601 2.3 51.3301 2.13C48.4301 2.23 52.1601 1.90999 50.0701 1.67999C50.6401 1.60999 51.1501 1.59001 51.6301 1.57001C51.1101 1.52001 50.6101 1.46001 50.1301 1.39001C50.1601 1.39001 50.1701 1.41001 50.2001 1.42001H50.2101C50.3301 1.47001 50.3801 1.5 50.2401 1.47C50.2401 1.47 50.2001 1.47 50.1801 1.47C50.1601 1.53 50.11 1.57 50.05 1.62C49.21 1.54 49.9201 1.52 50.1801 1.47C50.1801 1.45 50.21 1.43 50.22 1.41H50.2101L47.3101 1.63C47.9201 1.69 48.6901 1.67 50.0601 1.63H50.05Z" fill="#202020"/>
<path d="M64.61 3.64999C64.52 3.60999 64.52 3.59 64.52 3.56C64.33 3.61 64.26 3.63999 64.61 3.64999Z" fill="#202020"/>
<path d="M63.42 3.40002C63.63 3.34002 63.8101 3.18003 64.4901 3.22003C65.0801 3.34003 64.4901 3.41002 64.5201 3.55002C64.9301 3.44002 65.97 3.26004 64.67 3.07004L64.4601 3.12003C63.2901 2.98003 61.7901 2.48004 62.0001 2.42004C62.3401 2.78004 62.64 3.04002 63.42 3.40002Z" fill="#202020"/>
<path d="M56.65 2.62L54.23 2.82001L55.46 3.17001L55.4 2.95999C56.77 3.03999 56.48 2.78 56.65 2.62Z" fill="#202020"/>
<path d="M43.46 1.37L43.78 0.940002L42.39 1.54001L43.46 1.37Z" fill="#202020"/>
<path d="M40.32 1.42001L40.44 1.04999L39.61 1.26999L40.32 1.42001Z" fill="#202020"/>
<path d="M41.5901 107.31L42.3 107.21C41.96 107.24 41.7501 107.28 41.5901 107.31Z" fill="#202020"/>
<path d="M36.4601 107.29L36.3301 107.47C36.5701 107.37 36.6701 107.3 36.4601 107.29Z" fill="#202020"/>
<path d="M1.12996 45.82C0.779962 46.85 0.24994 48.01 0.66994 47.88L1.06996 47.56C0.999965 46.84 1.03996 46.28 1.12996 45.81V45.82Z" fill="#202020"/>
<path d="M3.54999 98.62C3.58999 98.52 3.62998 98.42 3.66998 98.32C3.52998 98.07 3.40003 97.83 3.28003 97.62C3.36003 97.92 3.44998 98.26 3.53998 98.62H3.54999Z" fill="#202020"/>
<path d="M5.22998 99.35L4.96997 100.71C5.05997 100.4 5.14998 99.97 5.22998 99.35Z" fill="#202020"/>
<path d="M69.6599 106.88L70.4899 106.47C69.1899 106.47 69.7599 106.68 69.6599 106.88Z" fill="#202020"/>
<path d="M8.16998 1.57001C7.94998 1.53001 7.73003 1.5 7.53003 1.47C7.45003 1.46 7.29 1.43999 7.13 1.42999C6.97 1.42999 6.81997 1.42999 6.65997 1.42999C6.04997 1.42999 5.50001 1.57999 5.01001 1.76999C5.89001 1.49999 6.71001 1.60001 7.32001 1.67001C7.77001 1.74001 8.00998 1.74999 8.16998 1.57999V1.57001Z" fill="#202020"/>
<path d="M39.57 111.61C40 111.54 40.19 111.45 40.18 111.36C39.73 111.43 39.48 111.51 39.57 111.61Z" fill="#202020"/>
<path d="M2.01001 4.60999C2.16001 4.42999 2.29002 4.24 2.46002 4.06C2.98002 3.17 3.79002 2.28001 5.02002 1.76001C4.37002 1.94001 3.71997 2.3 3.15997 2.81C2.87997 3.06 2.63999 3.35999 2.42999 3.67999C2.23999 3.98999 2.10001 4.28999 2.01001 4.60999Z" fill="#202020"/>
<path d="M101.6 40.2C101.62 40.13 101.63 40.0399 101.65 39.9699C101.6 39.9499 101.59 40.05 101.6 40.2Z" fill="#202020"/>
<path d="M105.69 10.55C105.72 10.84 105.72 11.32 105.72 11.77C105.75 11.55 105.75 11.18 105.69 10.55Z" fill="#202020"/>
<path d="M27.6899 1.24001C27.7999 1.20001 28.3599 1.21001 27.6899 1.24001V1.24001Z" fill="#202020"/>
<path d="M30.9299 2.83997C30.7899 2.88997 30.6799 2.93998 30.6599 3.03998C30.7099 2.93998 30.8099 2.87997 30.9299 2.83997Z" fill="#202020"/>
<path d="M3.52002 12.31C3.52002 12.31 3.52002 12.35 3.52002 12.37C3.60002 12.17 3.58002 12.21 3.52002 12.31Z" fill="#202020"/>
<path d="M28.6901 1.42001C28.4401 1.37001 28.1501 1.32999 27.8401 1.29999C27.9801 1.32999 28.2401 1.37001 28.6901 1.42001Z" fill="#202020"/>
<path d="M28.5601 1.23C28.7901 1.25 28.9701 1.25998 29.1401 1.26998C29.2201 1.19998 29.1401 1.16 28.5601 1.23Z" fill="#202020"/>
<path d="M26.76 1.26001C27.14 1.26001 27.5 1.26999 27.84 1.29999C27.71 1.26999 27.65 1.24999 27.69 1.23999C27.49 1.23999 27.22 1.25001 26.76 1.26001Z" fill="#202020"/>
<path d="M102.69 94.74C102.69 94.74 102.71 94.65 102.73 94.6C102.56 93.93 102.59 94.22 102.69 94.74Z" fill="#202020"/>
<path d="M5.34009 63.15C5.34009 63.15 5.33007 63.1 5.32007 63.07C5.32007 63.1 5.31006 63.14 5.31006 63.17L5.34009 63.15Z" fill="#202020"/>
<path d="M5.64001 65.54C5.14001 64.52 5.19999 63.94 5.29999 63.17L4.13 63.96L5.63 65.54H5.64001Z" fill="#202020"/>
<path d="M53.9 107.19L52.2199 106.83C54.2499 106.23 55.71 106.44 54.14 105.93C53.9 107.2 47.61 106.06 47.38 107.33L46.27 107.06C46.59 107.07 46.64 107 46.95 107.01C44.8 106.4 45.35 107.93 42.58 107.75C41.61 107.65 40.9399 107.47 41.5999 107.32L39.45 107.63C38.82 107.61 38.9799 107.39 39.5999 107.41L36.31 107.51L36.33 107.47C35.86 107.67 34.8 107.98 34.28 108.11C33.45 107.93 34.7 107.98 34.49 107.82L32.67 108.13C31.93 107.8 33.44 107.48 34.69 107.53C32.99 106.26 33.18 107.85 29.51 107.11L31.23 106.95C30.12 106.23 28.78 106.49 26.84 106.04C27.3 106.27 30.73 107.17 28.75 107.49C28.19 107.39 27.46 107.35 26.4 107.6C26.39 107.15 25.35 107.26 24.05 107.29L24.14 106.69C22.73 106.86 22.84 107.17 22.02 107.44C20.45 107.38 20.13 106.92 19.76 106.53C17.25 106.44 21.49 107.27 18.52 107.38C16.43 107.15 14.9699 107.4 12.4699 107.75C11.0099 107.54 12.73 107.38 12.2 107.21L10.9 107.69C10.58 107.68 10.69 107.53 10.74 107.46C9.64996 107.64 10.65 108.06 8.92997 108.22C8.80997 108.38 8.54 108.41 8.15 108.36C7.96 108.34 7.73997 108.29 7.49997 108.25C7.27997 108.2 7.16998 108.14 7.00998 108.07C6.70998 107.91 6.45997 107.66 6.24997 107.43C6.03997 107.21 5.83996 107.01 5.48996 106.75C5.48996 106.36 5.88996 106.73 6.04996 106.52C5.42996 105.85 5.31996 105.31 5.16996 104.93C5.09996 104.75 5.04 104.49 4.96 104.13C4.87 103.79 4.75 103.37 4.59 102.77L4.97995 100.73C4.52995 102.23 3.99997 100.31 3.55997 98.64C3.33997 99.17 3.14997 99.63 3.05997 99.93L2.73996 97.25C2.83996 96.93 3.03995 97.2 3.28995 97.63C3.23995 97.45 3.19 97.28 3.15 97.14C3.37 96.18 3.71996 96.68 4.04996 97.36C3.92996 97.68 3.79997 98.01 3.67997 98.32C4.03997 98.98 4.43995 99.6 4.78995 99.46C4.71995 99.29 4.65998 98.95 4.62998 98.58C4.72998 98.75 4.81998 98.86 4.87998 98.78C4.93998 98.69 4.80995 98.41 4.65995 97.97L5.32999 97.36L5.06998 97.21L5.48996 93.71C4.81996 91.21 3.82997 89.03 3.55997 85.05C4.04997 86.04 4.35998 85.26 4.93998 85.32C4.32998 86.4 5.19999 88.4 5.07999 90.46C5.13999 89.39 5.41999 89.62 5.51999 89.89L4.96 86.22C5.43 86.3 5.30998 85.44 5.50998 84.48C4.56998 85.21 4.88995 81.74 4.59995 80.25C4.90995 80.16 5.22995 80.52 5.15995 82.34C5.85995 80.33 4.05995 79.74 4.65995 77.76C4.65995 78.21 4.62 78.45 4.78 78.62C4.5 77.58 4.71997 75.04 4.99997 75.64V76.08C5.11997 73.12 5.00994 67.08 4.21994 66.64C4.31994 66.61 5.18 67.03 5.34 67.21L2.66996 61.93C3.34996 62.39 4.97996 60.61 5.35996 63.06C5.45996 62.36 5.56999 61.49 5.32999 60C5.22999 60.48 4.34 61.2 4.28 60.54C5.04 58.74 4.68999 59.29 5.32999 57.07C5.17999 57.79 4.11 56.99 4.15 55.85C4.31 56.03 5.20998 55.76 5.31998 56.17L4.26999 53.34C4.45999 54.05 5.16 53.46 5.46 52.83C5.25 53.12 5.47998 50.38 5.37998 49.63L5.13999 50.83C5.29999 47.63 3.65994 47.67 3.71994 44.5C3.93994 44.88 5.05998 45.45 5.18998 43.84C4.64998 43.1 2.59998 40.57 2.18998 37.76L2.49997 37.22L2.15 35.07C2.96 36.41 4.65999 40.17 5.32999 42.23C5.56999 41.03 5.68995 41.9 5.65995 40.11C5.94995 39.48 6.09996 41.09 6.10996 41.61L6.29996 37.44C5.66996 37.63 5.67 34.25 5.15 34.41L5.79996 38.94C5.16996 39.12 4.01998 36.32 4.12998 33.36C4.37998 32.61 5.25 33.92 5.46 33.86C5.24 33.48 5.04999 31.05 5.19999 30.78L5.53995 32.03C5.77995 30.38 4.70997 29.34 5.30997 27.37C5.34997 26.69 6.11997 25.33 5.74997 25.21C5.02997 26.32 2.82 26.54 2.28 25.8C2.33 25.56 2.95998 22.22 3.31998 21.44C3.87998 20.32 4.65999 23.13 5.13999 22.17C4.96999 22.13 4.75998 21.51 4.68998 21.25C4.83998 20.53 5.21999 21.55 5.13999 19.99C4.49999 19.73 5.18995 16.82 4.59995 19.25C4.41995 17.73 4.72999 17.63 4.69999 15.84C4.28999 16.41 3.29997 14.23 3.11997 12.71C3.27997 12.8 3.49 12.46 3.59 12.29C3.77 9.23001 3.44 7.24999 5.15 5.17999C5.29 5.13999 5.59996 4.94999 5.85996 4.89999C6.12996 4.83999 6.29997 4.88 6.17997 5.12C6.37997 4.89 6.57998 4.48999 7.31998 4.45999C7.68998 4.59999 7.82995 4.67 7.72995 4.72C7.68995 4.74 7.59996 4.75999 7.48996 4.76999C7.40996 4.76999 7.31 4.78999 7.21 4.79999C6.8 4.84999 6.46 5.05 6.96 5.25C6.96 5.16 7.02998 5.05001 7.18998 4.98001C7.26998 4.94001 7.35994 4.91 7.46994 4.88C7.62994 4.85 7.79995 4.82001 7.97995 4.79001C8.70996 4.68001 9.57994 4.59 10.2199 4.47C10.0199 4.18 9.27997 4.16001 8.42997 4.23001C8.02997 4.27001 7.49998 4.31999 7.18998 4.39999C6.83998 4.45999 6.54995 4.65001 6.34995 4.79001C6.17995 4.45001 6.42994 3.76 7.46994 3.44C8.40995 3.09 9.72997 2.78999 11.25 2.60999C13.67 2.40999 12.2999 3.12001 12.7199 3.01001C17.2599 3.15001 16.59 1.63001 20.36 2.20001C21.86 2.70001 20.43 3.2 20.76 3.56C18.79 3.75 17.73 3.24001 16.4 3.26001L18.04 3.5C17.41 3.67 16.1 3.78999 15.38 3.64999C16.63 4.09999 23.06 3.73999 26.56 4.14999C27.18 3.97999 28.26 3.80999 27.75 3.60999L26.64 3.67999C25.62 3.26999 28.73 3.11999 27.32 2.92999C28.81 2.64999 30.48 2.19999 32.57 2.42999L32.96 3C32.92 2.83 31.59 2.65999 31 2.82999C31.87 2.57999 34.21 3.59999 35.17 2.85999L33.7 2.45999C35.19 2.16999 37.04 1.56 38.9 1.75C38.06 1.18 38.47 1.80999 37.15 1.14999C38.29 1.96999 32.4 1.12001 34.24 1.98001C32.89 1.21001 31.9 1.65 30.13 1C30.18 1.19 30.76 1.35999 29.2 1.26999C29.13 1.32999 28.96 1.4 28.86 1.44C28.81 1.44 28.8 1.43999 28.75 1.42999C28.78 1.42999 28.8 1.44001 28.84 1.45001C28.77 1.48001 28.77 1.48001 28.87 1.45001C29.24 1.53001 29.5399 1.62999 29.6599 1.73999C28.8899 2.16999 26.41 2.16 25.57 2.38C24.65 2.29 25.96 2.15999 25.45 1.95999L24.2 2.29999C24.08 1.87999 21.74 1.59999 23.92 1.35999L21.96 1.34C20.81 1.1 19.22 1.01 18.24 1.19C17.32 1.1 15.9 1.64999 16.71 1.32999L13.64 1.59L13.61 1.48999C12.09 1.45999 10.53 1.64 8.91996 1.72C8.51996 1.74 8.10999 1.76001 7.69999 1.76001C7.53999 1.76001 7.18996 1.76 6.85996 1.78C6.53996 1.79 6.22 1.84 5.9 1.91C4.64 2.22 3.43999 2.99999 2.51999 4.04999C2.12999 4.71999 1.87 5.41 1.65 6.22C1.55 6.62 1.45999 7.06 1.38999 7.53C1.35999 7.77 1.31997 8.00999 1.30997 8.26999C1.29997 8.49999 1.27998 8.73001 1.25998 8.98001L0.899998 9.31C1.03 10.62 0.539957 13.25 0.919957 13.81C-0.060043 15.22 0.710003 20.17 0.530003 22.48L0.999974 22.57C0.969974 24.16 1.10996 25.68 1.29996 27.65L1.71994 27.53C2.05994 29.23 1.41994 31.9 1.46994 34.58C1.30994 34.4 1.34999 33.72 1.44999 33.23C0.499986 36.44 2.13999 40 1.44999 42.91C1.59999 43.64 1.54999 44.16 1.44999 44.67C1.44999 44.6 1.44997 44.54 1.42997 44.49C1.42997 44.56 1.42997 44.67 1.42997 44.79C1.35997 45.11 1.27 45.44 1.21 45.8C1.31 45.5 1.39997 45.21 1.42997 44.95C1.42997 45.51 1.48995 46.36 1.59995 47.19L1.15 47.54C1.15 47.61 1.14995 47.66 1.15995 47.73C0.989947 48.55 1.37 48.39 1.71 47.95C1.78 48.37 1.86995 48.75 1.97995 49.05C1.24995 49.71 2.21999 51.23 1.44999 52.14C1.82999 52.7 1.73 56.32 2.53 56.77C2.43 56.8 2.37997 57.04 2.36997 56.59C2.27997 57.52 2.18995 58.44 2.40995 59.28L1.84 59.67L2.60996 61.69C2.25996 62.92 2.05997 63.43 1.61997 62.21C2.29997 65.16 1.86996 64.6 2.54996 67.11L2.17997 66.99C2.18997 67.89 2.68998 69.32 2.37998 69.86C1.67998 71.87 2.27998 79.78 1.62998 84.93C2.71998 83.93 1.13996 87.32 1.98996 87.53C1.72996 87.83 1.58996 88.55 1.35996 87.71C1.60996 90.34 0.949947 91.66 1.65995 93.47C1.39995 93.77 1.27998 92.91 1.12998 93.18C1.18998 93.39 1.34999 94.01 1.19999 94.29C1.04999 94.56 0.979969 93.91 0.869969 93.49C0.909969 96.17 1.70999 96.45 2.44999 96.64C2.09999 98 2.14999 98.68 2.63999 99.66C2.39999 100.13 2.13996 100.92 2.04996 99.26C2.02996 99.73 1.93997 101.16 1.92997 102.49C1.92997 103.15 1.92996 103.79 1.98996 104.27C2.03996 104.71 2.15996 105.19 2.29996 105.18C2.14996 105.55 2.49998 106.75 2.68998 107C3.09998 108.21 3.52997 108.82 4.05997 109.39C4.59997 109.91 5.21 110.49 6.59 110.71C6.34 110.63 6.09998 110.55 5.87998 110.43C6.48998 110.27 7.01996 110.27 7.60996 110.29C8.14996 110.33 8.78997 110.45 9.61997 110.4L9.56998 110.47C13.39 110.99 11.22 110.22 14.99 110.81L14.78 110.36C15.13 109.4 18.12 110.93 20.31 110.56L19.52 110.3C20.72 109.97 22.86 111.61 24.06 111.73C24.32 111.81 23.65 111.86 23.28 111.93C26.42 112.5 23.69 111.34 26.03 111.21C26.46 111.53 25.47 112.01 27.05 112.07C27.84 112.33 31.62 111.04 33.77 111.65C33.3 111.41 32.8299 111.16 33.9099 110.98C35.5799 110.89 38.42 111.9 39.92 111.13C40.13 111.2 40.2099 111.26 40.2199 111.32C41.4899 111.12 44.36 110.99 45.13 110.57C46.31 112.12 53.05 109.82 53.02 111.24L56.94 111.16L56.84 111.31C59.35 111.4 60.23 111.06 61.11 110.72C61.69 110.82 61.2699 110.95 61.2199 111.03C64.8799 111.32 65.24 111.26 68.31 110.55L68.63 111.01C69.46 110.74 73.92 111.74 77.51 111.2C77.47 111.25 77.4 111.34 77.12 111.41C81.16 110.87 86.79 112.69 88.27 111.01L90.94 110.59C87.49 110.46 91.45 109.86 90.03 109.58C91.39 109.48 93.54 110.09 91.87 110.18L91.61 110.1C91 110.98 95.9 110.41 95.8 111.01C96.65 111.01 97.49 111.01 98.34 111.01L99.6 111.03C99.9399 111.03 100.65 111.07 101.21 110.95C102.39 110.73 103.43 109.99 104.18 109.05C104.88 108.14 105.31 107.15 105.53 106.12C105.65 105.61 105.7 105.08 105.72 104.57L105.77 103.34C105.8 102.52 105.83 101.71 105.85 100.9C105.9 99.28 105.94 97.67 105.95 96.09L105.27 96.82L105.31 94.6C105.47 94.02 105.84 93.82 105.82 95.4C106.21 94.57 105.5 92.75 105.35 92.7C105.63 89.6 106.15 93.91 106.16 92.96L106.11 91.67L106.03 91.96C105.75 90.91 105.45 90.82 105.49 88.92C105.63 87.72 105.91 88.3 105.94 87.83C105.99 87.83 106.01 87.67 105.96 87.1L106.02 84.31L105.48 85.43C105.21 84.19 105.51 82.8 104.9 84.09C105.84 82.2 105.24 73.67 105.53 72.51C105.14 70.78 105.14 69.06 105.19 66.94C105.08 67.47 104.47 67.78 104.55 65.95C105.8 66.62 105.09 62.6 105.99 61.12C105.39 62.44 105.84 55.92 104.99 57.99C105.09 56.46 105.46 57.9 105.75 56.74C105.27 53.11 106.07 48.74 105.9 44.25C105.74 44.18 105.48 44.93 105.24 43.97L106.06 41.6C105.98 40.71 105.11 40.78 105.68 39.16C105.54 39.39 105.33 39.73 105.28 39.14C106.08 30.34 104.62 21.17 106.13 12.24C105.81 13.45 105.78 12.64 105.77 11.72C105.69 12.32 105.36 11.71 105.14 11.82L105.45 9.95001L105.6 9.01999C105.62 8.85999 105.65 8.73 105.67 8.53L105.72 7.92999C105.39 7.51999 105.21 6.30001 104.63 5.20001C104.09 4.08001 103.04 3.20999 102.65 3.32999C103.1 3.60999 103.5 3.94001 103.84 4.32001C102.91 3.78001 103.18 4.60999 103.22 5.42999C103.27 6.28999 103.05 7.16999 102.58 7.17999C102.88 7.45999 102.98 7.91001 102.94 8.39001C102.9 8.87001 102.75 9.54999 102.63 10.18C102.38 11.48 102.17 12.93 102.74 14.37C102.56 15.01 102.45 13.83 102.24 14.17C102.62 14.9 102.7 15.79 102.53 17.43L102.44 17.24C102.53 21.85 102.16 23.83 101.9 29.01L102.34 28.63C102.28 29.74 102.14 29.98 102.03 30.5C102.7 31.78 102.07 27.37 102.81 28.54C101.91 30.02 102.8 36.39 101.77 37.39C101.77 39.1 102.28 36.89 102.28 38.6L102 39.05L102.36 39.48C102.3 40.6 101.96 41.17 101.72 41.21C101.75 40.94 101.65 40.44 101.63 40.14C101.3 41.6 101.74 44.24 101.63 44.74L101.8 43.09C102.06 47.76 101.7 53.47 102.26 57.98L102.47 57.64C102.86 61.09 102.24 60.4 102.42 64.19L102.37 64.05C102.58 64.81 102.68 65.82 102.66 66.86C102.42 65.9 102.18 68.66 101.91 67.4C102.32 71.14 102.24 69.25 103.01 71.72L102.66 72.29C102.97 73.13 103.14 73.2 103.23 75.09C102.93 73.54 102.7 76.3 102.31 74.56C101.55 78.53 103.07 80.45 101.97 82.27C102.93 84.09 102.5 78.84 102.71 79.86C103.02 79.01 103.43 81.36 103.33 82.61C103.31 83.88 102.1 84.76 102.12 87.95C102.12 87.63 102.05 87.61 102.06 87.29C101.82 88.48 102.39 89.63 101.99 91.09C102.57 91.91 101.96 92.99 102.7 93.23L102.53 90.31C102.72 91.97 103.59 93.52 103.17 96.25C103.02 96.04 102.82 95.22 102.72 94.67C102.5 95.47 102.86 96.21 102.64 97.04C101.9 96.8 102.48 93.49 101.91 91.71C101.6 92.57 102.45 95.07 101.64 94.18C102.66 95.46 101.51 97.32 102.29 99.48L101.85 99.34C101.92 99.68 102.13 100.39 102.12 101.02L101.55 99.88C101.8 100.75 101.69 101.6 101.55 102.43C101.48 102.85 101.41 103.26 101.37 103.68C101.35 103.89 101.34 104.1 101.34 104.3V104.6C101.36 104.66 101.37 104.73 101.38 104.79C101.39 104.41 101.4 104.11 101.41 103.88C101.42 103.62 101.45 103.43 101.47 103.3C101.52 103.04 101.6 103 101.69 103.03C101.87 103.09 102.08 103.4 102.25 102.65C102.32 103.19 102.36 103.64 102.37 104.01C102.37 104.2 102.37 104.37 102.37 104.52C102.37 104.67 102.34 104.75 102.32 104.85C102.22 105.23 102.02 105.44 101.8 105.62C101.37 105.93 100.81 106.44 100.43 106.73C100.5 106.67 100.65 106.63 100.81 106.61C100.95 106.58 101.13 106.59 101.08 106.81C100.78 107.06 100.27 107.05 100.11 106.79C100.11 106.8 99.6399 106.82 99.4699 106.84C99.2599 106.86 99.14 106.88 99.07 106.91C98.94 106.96 99.07 107.02 99.24 107.09C99.59 107.23 100.18 107.39 99.49 107.52C98.4 106.98 97.91 107.74 96.51 107.91V107.46C92.84 107.17 95.53 108.4 92.24 108.05L93.63 107.43L91.91 107.59L92.26 107.08C90.39 107.46 89.81 107.36 87.98 107.22C88.41 107.54 87.74 108.04 86.12 108.05C85.01 107.78 86.74 107.62 84.44 107.69C84.96 107.41 85.53 107.05 86.53 107.47C86.63 107.32 87.04 107.19 87.15 107.04C85.96 106.73 84.16 106.97 83.33 106.97C83.65 106.99 84.03 107.01 84.23 107.08L80.9 107.7C80.38 107.53 80.79 107.39 81.2 107.26C80.53 107.31 80.06 107.52 79.07 107.55C79.33 107.18 79.27 106.81 80.67 106.63L77.5 107.04C77.29 106.88 75.87 106.6 76.28 106.47C74.52 106.25 71.96 107.18 69.63 106.9C69.51 106.97 69.27 107.04 68.77 107.09C66.58 107.01 64.64 106.56 62.04 107.06L60.57 106.4C58.54 106.55 62.57 107.23 59.18 107.47C56.78 107.68 58.28 106.91 57.44 106.73C56.25 107.06 54.1699 107.73 51.9699 107.2C52.6999 107.08 53.27 107.17 53.95 107.12L53.9 107.19ZM28.8 107.48C29.29 107.39 30.26 107.09 30.61 107.36C30.06 107.88 29.63 107.63 28.8 107.48ZM4.41996 94.92C4.56996 95.28 4.49998 95.84 4.31998 96.47C4.27998 96.01 4.29996 95.49 4.41996 94.92ZM20.4 1.60001C20.4 1.60001 20.3599 1.61 20.3499 1.62C19.2699 1.44 19.65 1.51001 20.4 1.60001ZM22.65 1.79999C22.88 1.73999 22.86 1.66999 22.77 1.60999C22.61 1.71999 22.11 1.73001 21.53 1.70001C21.69 1.82001 21.98 1.89999 22.65 1.79999ZM105.72 87.63L105.6 88.07C105.47 87.08 105.59 87.36 105.72 87.63Z" fill="#202020"/>
<path d="M5.04004 99.25C4.96004 99.39 4.88005 99.43 4.80005 99.46C4.88005 99.65 4.96004 99.66 5.04004 99.25Z" fill="#202020"/>
<path d="M69.51 106.96H69.59C69.59 106.96 69.65 106.91 69.67 106.88L69.52 106.96H69.51Z" fill="#202020"/>
<path d="M5.30005 21.29C5.24005 21.75 5.15007 22.01 5.07007 22.18C5.18007 22.21 5.27005 21.99 5.30005 21.29Z" fill="#202020"/>
<path d="M34.58 1.04004L33.14 1.16003C33.84 1.14003 34.09 1.24003 34.44 1.31003C34.41 1.20003 34.13 1.05002 34.58 1.05002V1.04004Z" fill="#202020"/>
<path d="M47.11 3.82001C47.32 3.76001 47.56 3.82001 47.77 3.76001L47.71 3.54999C46.81 3.55999 46.18 3.73001 47.11 3.82001Z" fill="#202020"/>
<path d="M35.9199 2.52999C36.0299 2.90999 36.94 2.77998 37.95 2.70998C37.89 2.70998 37.83 2.70998 37.77 2.70998C38.07 2.17998 36.9899 2.35999 35.9199 2.52999Z" fill="#202020"/>
<path d="M38.1799 2.70004C38.4899 2.68004 38.8099 2.67004 39.1099 2.70004C39.2299 2.49004 38.7299 2.66004 38.1799 2.70004Z" fill="#202020"/>
<path d="M25.5 1.54999C25.98 1.64999 25.8 1.07 26.07 1.22C26.61 0.739999 22.87 1.79999 25.5 1.54999Z" fill="#202020"/>
<path d="M36.7401 3.78L36.3701 3.31L35.8101 3.69L36.7401 3.78Z" fill="#202020"/>
<path d="M28.7601 3.44001L30.3701 3.57001C30.3501 3.49001 30.5501 3.45001 30.8001 3.41001C29.8101 3.39001 28.7101 3.30001 28.7501 3.44001H28.7601Z" fill="#202020"/>
<path d="M30.8 3.40997C31.32 3.40997 31.81 3.40996 32.1 3.32996C31.82 3.32996 31.22 3.34997 30.8 3.40997Z" fill="#202020"/>
<path d="M34.53 3.92004L34.0499 3.82004L32.9099 3.79004L34.53 3.92004Z" fill="#202020"/>
<path d="M11.4 3.34998L9.63994 3.47998C9.45994 3.63998 9.93991 3.73998 10.5999 3.66998C11.0199 3.55998 11.6799 3.49997 11.4099 3.33997L11.4 3.34998Z" fill="#202020"/>
<path d="M16.73 4.63004C16.25 4.53004 16.22 4.43002 15.95 4.27002L15.9 4.85004L16.73 4.63004Z" fill="#202020"/>
<path d="M11.59 4.76001C11.41 4.92001 9.03002 5.22 11.27 5.19C11.45 5.03 13.21 4.90001 11.59 4.76001Z" fill="#202020"/>
<path d="M3.71002 24.01L3.70001 23.57L2.75 23.63L3.71002 24.01Z" fill="#202020"/>
<path d="M5.97998 47.42C6.20998 45.33 5.38999 46.92 5.67999 45.04C5.45999 44.55 5.45 46.58 5.25 46.08C5.49 47.34 5.34998 48 5.97998 47.42Z" fill="#202020"/>
<path d="M5.25 46.08C5.21 45.88 5.16999 45.66 5.10999 45.44C5.16999 45.81 5.21 45.98 5.25 46.08Z" fill="#202020"/>
<path d="M105.18 4.63C104.92 4.03 104.57 3.43 104.08 2.88C104.35 3.28 104.56 3.69001 104.71 4.10001C104.88 4.27001 105.04 4.44 105.18 4.62V4.63Z" fill="#202020"/>
<path d="M101.96 2.54999C101.89 2.30999 101.79 2.06 101.67 1.81C101.16 1.85 100.68 1.97999 100.25 2.14999C100.73 2.09999 101.69 2.26999 101.95 2.54999H101.96Z" fill="#202020"/>
<path d="M25.07 106.26L24.97 106.41C25.18 106.57 25.49 106.58 26.12 106.6L25.07 106.26Z" fill="#202020"/>
<path d="M43.29 106.72L42.97 106.71L43.56 107.25L43.29 106.72Z" fill="#202020"/>
<path d="M58.5701 106.02C57.9501 106 57.2101 106.12 56.5901 106.1C57.9501 106 58.7401 106.71 58.5701 106.02Z" fill="#202020"/>
</svg>
