<svg width="171" height="52" viewBox="0 0 171 52" fill="none" xmlns="http://www.w3.org/2000/svg">
<path d="M168.32 4.81995H2.62V48.48H168.32V4.81995Z" fill="white"/>
<path d="M167.83 46.05C168.45 46.09 168.23 45.67 168.32 45.59C167.29 45.68 167.86 46.16 167.83 46.05Z" fill="#202020"/>
<path d="M157.63 47L157.81 46.83L156.3 47.25L157.63 47Z" fill="#202020"/>
<path d="M148.09 46.99C148.99 47.7 151.55 46.87 153.25 47.13L153.53 47.29L154.3 46.72C152.23 46.81 149.55 47.19 148.09 46.99Z" fill="#202020"/>
<path d="M143 45.45C143.31 45.73 141.9 45.69 144.19 45.54C144.08 45.51 144.04 45.49 143.98 45.47C143.77 45.47 143.49 45.47 143.01 45.45H143Z" fill="#202020"/>
<path d="M143.97 45.46C143.31 45.23 144.98 45.44 143.97 45.46V45.46Z" fill="#202020"/>
<path d="M139.33 45.62L140.65 45.37C140.37 45.21 139.2 45.17 139.63 45.05C138.27 45.19 138.55 45.35 139.32 45.62H139.33Z" fill="#202020"/>
<path d="M138.07 46.14L138.76 46.04C138.64 45.97 138.46 45.95 138.07 46.14Z" fill="#202020"/>
<path d="M140.21 45.8199L138.76 46.04C138.95 46.16 138.97 46.39 139.43 45.96C139.31 46.17 139.6 45.9599 140.22 45.8199H140.21Z" fill="#202020"/>
<path d="M141.04 45.92C141.78 46.08 142.74 46.17 141.41 46.42C143.94 46.32 143.57 45.82 141.04 45.92Z" fill="#202020"/>
<path d="M147.6 47.73L148.59 47.94L149.45 47.7C149.02 47.82 147.54 47.51 147.6 47.73Z" fill="#202020"/>
<path d="M131.08 45.25C131 45.4 131.53 45.65 131.62 45.85L132.6 45.6801C132.1 45.5801 131.14 45.48 131.08 45.26V45.25Z" fill="#202020"/>
<path d="M131.63 45.85L130.17 46.11C131.48 46.14 131.72 46.02 131.63 45.85Z" fill="#202020"/>
<path d="M137.84 46.9301L140.24 46.39L137.37 46.9399L137.84 46.9301Z" fill="#202020"/>
<path d="M125.49 45.23L126.32 44.88L124.85 45.41L125.49 45.23Z" fill="#202020"/>
<path d="M121.79 45.29C122.4 45 120.95 44.8 121.6 44.62C120.59 44.67 119.73 44.92 118.96 45.15C119.78 45.02 120.66 45.06 121.79 45.3V45.29Z" fill="#202020"/>
<path d="M117.66 45.48C118.07 45.41 118.5 45.29 118.96 45.15C118.52 45.22 118.09 45.31 117.66 45.48Z" fill="#202020"/>
<path d="M127.67 46.04C127.56 45.95 127.34 45.71 126.52 45.61L127.1 46.04C127.28 46.04 127.47 46.04 127.68 46.04H127.67Z" fill="#202020"/>
<path d="M127.11 46.04H127.09C126.47 46.01 126.03 46.01 125.85 46C126.01 46 126.39 46.02 127.11 46.04Z" fill="#202020"/>
<path d="M127.82 46.04C127.77 46.04 127.73 46.04 127.67 46.04C127.73 46.08 127.76 46.1 127.82 46.04Z" fill="#202020"/>
<path d="M134 46.55C133.14 46.79 131.35 47.05 133.08 47.41C133.7 47.12 132.7 46.91 134 46.55Z" fill="#202020"/>
<path d="M128.53 46.5699L130.08 46.67C130.05 46.56 129.77 46.39 130.19 46.27L128.52 46.5699H128.53Z" fill="#202020"/>
<path d="M127.77 46.71L128.53 46.5699L127.95 46.54L127.77 46.71Z" fill="#202020"/>
<path d="M120.32 45.88C119.65 46.07 118.91 46.08 118.09 46.11C118.98 46.19 119.9 46.24 120.77 46.24C120.89 46.11 121.28 45.86 120.32 45.88Z" fill="#202020"/>
<path d="M123.62 46C123.62 46 123.51 46.02 123.47 46.02C123.56 46.06 123.64 46.07 123.62 46Z" fill="#202020"/>
<path d="M109.92 46.11L110.05 46.1801L110.08 46.11H109.92Z" fill="#202020"/>
<path d="M120.91 46.3199C121.58 46.3999 121.98 46.3 122.36 46.17C121.86 46.21 121.33 46.24 120.76 46.24C120.7 46.3 120.69 46.3399 120.91 46.3199Z" fill="#202020"/>
<path d="M115.38 45.6801C115.73 45.7701 116.12 45.85 116.54 45.91C116.2 45.77 115.51 45.5601 115.38 45.6801Z" fill="#202020"/>
<path d="M123.25 45.9C123.25 45.9 123.31 45.89 123.35 45.88C123.13 45.79 123.16 45.83 123.25 45.9Z" fill="#202020"/>
<path d="M123.25 45.9C122.91 45.96 122.64 46.07 122.36 46.16C122.77 46.13 123.14 46.08 123.47 46.02C123.39 45.99 123.3 45.94 123.24 45.9H123.25Z" fill="#202020"/>
<path d="M107.44 48.85C107.56 48.45 109.31 48.09 110.83 48.51C112.32 48.21 111.35 46.9101 110.04 46.1801C109.99 46.3501 109.99 46.51 108.46 46.75C109 46.97 111.87 47.26 110.57 47.61C108.54 47.81 108.9 47.47 107.91 47.26C108.75 47.75 105.32 47.98 105.77 48.7L107.55 48.4399C107.58 48.5499 106.94 48.73 107.43 48.84L107.44 48.85Z" fill="#202020"/>
<path d="M112.97 46.22L113.6 46.17C112.88 46.1 112.36 45.94 111.41 45.63C110.36 45.82 110.14 45.97 110.07 46.1L113.18 46.16L112.96 46.22H112.97Z" fill="#202020"/>
<path d="M116.44 46.17C115.95 46.6 114.43 46.78 115.36 47.25C117.21 47.22 116.66 46.89 117.77 46.7C114.78 46.81 118.63 46.46 116.47 46.22C117.06 46.15 117.59 46.12 118.09 46.11C117.55 46.06 117.03 45.99 116.54 45.91C116.57 45.92 116.59 45.9299 116.61 45.9399H116.62C116.75 45.9899 116.79 46.03 116.65 46C116.65 46 116.6 46 116.59 46C116.57 46.06 116.51 46.11 116.45 46.16C115.58 46.07 116.31 46.05 116.59 46C116.59 45.98 116.62 45.9599 116.63 45.9399H116.62L113.62 46.17C114.25 46.23 115.05 46.22 116.46 46.17H116.44Z" fill="#202020"/>
<path d="M131.49 48.33C131.4 48.29 131.4 48.26 131.39 48.23C131.2 48.28 131.12 48.32 131.49 48.33Z" fill="#202020"/>
<path d="M130.25 48.0699C130.47 48.0099 130.65 47.84 131.36 47.88C131.97 48.01 131.36 48.09 131.39 48.23C131.82 48.12 132.88 47.92 131.55 47.71L131.34 47.77C130.13 47.62 128.58 47.08 128.79 47.03C129.14 47.42 129.45 47.6899 130.26 48.0699H130.25Z" fill="#202020"/>
<path d="M123.26 47.23L120.76 47.4399L122.03 47.8101L121.97 47.59C123.39 47.68 123.08 47.4 123.26 47.23Z" fill="#202020"/>
<path d="M109.63 45.89L109.96 45.4399L108.52 46.08L109.63 45.89Z" fill="#202020"/>
<path d="M106.39 45.95L106.51 45.55L105.65 45.79L106.39 45.95Z" fill="#202020"/>
<path d="M38.25 2.44995L38.98 2.33997C38.63 2.36997 38.41 2.40995 38.25 2.44995Z" fill="#202020"/>
<path d="M32.9399 2.42004L32.8099 2.60999C33.0599 2.49999 33.1599 2.42004 32.9399 2.42004Z" fill="#202020"/>
<path d="M26.72 45.99C25.65 45.62 24.46 45.05 24.59 45.49L24.92 45.92C25.67 45.84 26.24 45.89 26.72 45.98V45.99Z" fill="#202020"/>
<path d="M2.51989 18.02C2.47989 18.12 2.42989 18.23 2.38989 18.33C2.53989 18.59 2.6799 18.83 2.7999 19.05C2.7099 18.74 2.61989 18.39 2.51989 18.02Z" fill="#202020"/>
<path d="M0.72998 17.26L1.00998 15.85C0.909979 16.17 0.81998 16.62 0.72998 17.26Z" fill="#202020"/>
<path d="M67.25 1.98999L68.11 1.55005C66.77 1.55005 67.36 1.77999 67.25 1.98999Z" fill="#202020"/>
<path d="M73.16 46.11C72.24 45.94 71.5 45.87 70.86 45.85C71.97 46.1 72.87 46.47 73.16 46.11Z" fill="#202020"/>
<path d="M36.1599 7.05005C36.6099 6.97005 36.7999 6.88004 36.7899 6.79004C36.3299 6.86004 36.0699 6.95005 36.1599 7.05005Z" fill="#202020"/>
<path d="M68.2 45.85C68.36 45.89 68.52 45.9199 68.69 45.9499C69.36 45.8799 70.0399 45.82 70.8699 45.85C70.0499 45.66 69.11 45.55 68.21 45.85H68.2Z" fill="#202020"/>
<path d="M170.8 8.93005C170.78 9.01005 170.77 9.10004 170.75 9.17004C170.81 9.19004 170.81 9.09005 170.8 8.93005Z" fill="#202020"/>
<path d="M166.42 39.5699C166.39 39.2699 166.39 38.7801 166.39 38.3101C166.36 38.5401 166.36 38.9199 166.42 39.5699Z" fill="#202020"/>
<path d="M93.34 45.7601C93.45 45.7101 94.03 45.7301 93.34 45.7601V45.7601Z" fill="#202020"/>
<path d="M96.6799 47.47C96.5299 47.52 96.4199 47.5801 96.4099 47.6801C96.4699 47.5801 96.5599 47.51 96.6799 47.47Z" fill="#202020"/>
<path d="M61.3499 48.55C61.3499 48.55 61.3099 48.55 61.2899 48.55C61.4899 48.64 61.4599 48.62 61.3499 48.55Z" fill="#202020"/>
<path d="M94.37 45.95C94.11 45.9 93.81 45.8499 93.49 45.8199C93.63 45.8499 93.9 45.9 94.37 45.95Z" fill="#202020"/>
<path d="M94.23 45.75C94.47 45.77 94.65 45.78 94.83 45.79C94.92 45.72 94.83 45.67 94.23 45.75Z" fill="#202020"/>
<path d="M92.3799 45.78C92.7699 45.78 93.1399 45.79 93.4899 45.83C93.3499 45.8 93.2999 45.78 93.3299 45.76C93.1299 45.76 92.8399 45.77 92.3699 45.78H92.3799Z" fill="#202020"/>
<path d="M116.07 3.51003C116.07 3.51003 116.17 3.53007 116.22 3.55007C116.91 3.37007 116.61 3.40003 116.07 3.51003Z" fill="#202020"/>
<path d="M8.80991 50.5C8.80991 50.5 8.85992 50.48 8.88992 50.48C8.85992 50.48 8.81992 50.47 8.78992 50.46L8.80991 50.5Z" fill="#202020"/>
<path d="M6.25989 50.8199C6.50989 50.7499 6.58989 50.69 6.71989 50.64C6.83989 50.59 6.94988 50.55 7.05988 50.52C7.27988 50.45 7.46988 50.41 7.66988 50.4C8.04988 50.36 8.39989 50.4 8.79989 50.47L7.97989 49.22L7.15989 50.03L6.74989 50.4301C6.59989 50.5601 6.51989 50.7 6.25989 50.83V50.8199Z" fill="#202020"/>
<path d="M50.9599 2.31995L49.2199 1.93005C51.3099 1.29005 52.8299 1.50996 51.1999 0.959961C50.9499 2.31996 44.4499 1.09996 44.2099 2.45996L43.0699 2.17004C43.3999 2.18004 43.4499 2.1 43.7699 2.12C41.5499 1.47 42.1199 3.10003 39.2499 2.91003C38.2499 2.81003 37.5499 2.60995 38.2299 2.44995L35.9999 2.79004C35.3499 2.76004 35.5099 2.53005 36.1599 2.55005L32.7599 2.66003L32.7899 2.62C32.3099 2.83 31.2099 3.16005 30.6699 3.30005C29.8099 3.11005 31.0999 3.15999 30.8799 2.98999L28.9999 3.31995C28.2299 2.96995 29.7899 2.63005 31.0899 2.68005C29.3299 1.32005 29.5299 3.01998 25.7399 2.22998L27.5199 2.06006C26.3799 1.29006 24.9899 1.56997 22.9799 1.08997C23.4599 1.33997 26.9999 2.30001 24.9599 2.64001C24.3899 2.54001 23.6299 2.49001 22.5299 2.76001C22.5199 2.28001 21.4499 2.40004 20.0999 2.42004L20.1899 1.78003C18.7399 1.96003 18.8499 2.28996 17.9999 2.57996C16.3799 2.51996 16.0399 2.01998 15.6599 1.59998C13.0699 1.49998 17.4499 2.39002 14.3799 2.52002C12.2199 2.28002 10.7099 2.54004 8.11994 2.92004C6.60994 2.70004 8.37994 2.52998 7.83994 2.34998L6.49994 2.85999C6.04994 2.84999 6.16994 2.68999 6.25994 2.60999C5.37994 2.70999 5.37994 2.87003 5.25994 3.03003C5.13994 3.19003 4.89994 3.34005 3.73994 3.43005C3.60994 3.74005 2.62994 3.58 1.11994 3.37C0.989942 4.06 0.829936 4.93004 0.769936 5.92004C0.709936 6.88004 0.729936 8.03006 0.949936 8.81006C0.769936 9.35006 0.559937 8.54996 0.309937 8.70996C0.829937 11.72 0.689941 11.29 1.39994 13.77L0.979942 15.88C1.45994 14.33 2.02994 16.31 2.49994 18.04C2.72994 17.49 2.92994 17.02 3.02994 16.71L3.36994 19.47C3.26994 19.8 3.04994 19.5299 2.77994 19.0699C2.82994 19.2599 2.87994 19.44 2.92994 19.58C2.68994 20.57 2.31994 20.06 1.96994 19.35C2.09994 19.02 2.23994 18.68 2.35994 18.35C1.96994 17.67 1.53994 17.03 1.16994 17.17C1.23994 17.35 1.30994 17.7 1.33994 18.08C1.22994 17.9 1.13994 17.79 1.07994 17.87C1.00994 17.96 1.14994 18.25 1.31994 18.7L0.60994 19.33L0.889938 19.48L0.439941 23.1C1.15994 25.69 2.20994 27.94 2.50994 32.05C1.98994 31.03 1.65994 31.83 1.03994 31.78C1.69994 30.66 0.759938 28.6 0.889938 26.47C0.819938 27.58 0.529937 27.34 0.419937 27.05L1.01994 30.85C0.509936 30.76 0.639939 31.66 0.429939 32.65C1.42994 31.9 1.09994 35.48 1.39994 37.02C1.05994 37.12 0.719942 36.75 0.799942 34.86C0.049942 36.94 1.97994 37.55 1.33994 39.59C1.33994 39.13 1.37994 38.88 1.20994 38.7C1.50994 39.77 1.26994 42.4 0.979942 41.78V41.3199C0.959942 41.7899 0.949941 42.3401 0.939941 42.9301C0.939941 43.5401 0.939941 44.19 0.939941 44.86C0.959941 46.69 1.01994 48.56 1.12994 49.96C3.16994 49.82 4.59994 49.61 4.89994 49.28C4.92994 49.39 4.01994 50.31 3.61994 50.48C5.22994 50 6.51994 49.53 7.29994 49.05L10.0299 47.62C9.54994 48.35 11.3899 50.09 8.85994 50.5C9.58994 50.6 10.4899 50.73 12.0199 50.47C11.5199 50.37 10.7799 49.41 11.4599 49.35C13.3199 50.16 12.7499 49.78 15.0499 50.48C14.3099 50.32 15.1299 49.18 16.3099 49.21C16.1299 49.38 16.4099 50.34 15.9799 50.46L18.9099 49.34C18.1799 49.54 18.7799 50.29 19.4399 50.61C19.1399 50.39 21.9699 50.63 22.7499 50.52L21.5099 50.26C24.8099 50.43 24.7699 48.68 28.0499 48.74C27.6499 48.97 27.0699 50.1701 28.7399 50.3101C29.4999 49.7301 32.1199 47.54 35.0199 47.1L35.5799 47.4301L37.7999 47.05C36.4099 47.92 32.5299 49.74 30.3999 50.45C31.6399 50.7099 30.7399 50.8401 32.5999 50.8101C33.2499 51.1201 31.5899 51.28 31.0499 51.3L35.3599 51.5C35.1699 50.83 38.6599 50.83 38.4899 50.27L33.8099 50.97C33.6199 50.3 36.5199 49.0601 39.5699 49.1801C40.3499 49.4501 38.9899 50.38 39.0499 50.6C39.4499 50.37 41.9499 50.1599 42.2299 50.3199L40.9299 50.6801C42.6299 50.9301 43.6999 49.7901 45.7499 50.4301C46.4599 50.4701 47.8599 51.3 47.9799 50.9C46.8299 50.13 46.6099 47.7601 47.3699 47.1801C47.6199 47.2301 51.0699 47.91 51.8799 48.29C53.0399 48.89 50.1399 49.72 51.1299 50.24C51.1699 50.06 51.8099 49.83 52.0799 49.76C52.8199 49.92 51.7699 50.33 53.3799 50.25C53.6499 49.57 56.6499 50.31 54.1399 49.67C55.7099 49.48 55.8099 49.81 57.6599 49.78C57.0699 49.34 59.3199 48.28 60.8999 48.09C60.8099 48.26 61.1599 48.49 61.3299 48.59C64.5599 48.65 66.2899 48.96 69.2999 48.97C69.5799 49.13 71.0299 49.33 70.4099 49.63C70.8399 49.51 71.2399 49.28 72.1699 49.26C73.9699 49.85 70.0999 49.3501 71.4699 50.0601C71.5899 49.6601 73.8699 49.51 75.1899 49.27C74.7799 48.66 72.1399 49.15 70.8099 49.4C70.8099 48.56 73.1099 47.67 76.2499 47.28C78.7499 47.07 77.3299 47.83 77.7699 47.71C82.4599 47.86 81.7699 46.24 85.6699 46.85C87.2199 47.39 85.7399 47.9201 86.0799 48.3101C84.0399 48.5101 82.9499 47.97 81.5699 47.99L83.2699 48.24C82.6199 48.42 81.2599 48.55 80.5199 48.4C81.8199 48.88 88.4499 48.4899 92.0699 48.9399C92.7099 48.7599 93.8199 48.57 93.2999 48.36L92.1499 48.4399C91.0999 48.0099 94.3099 47.84 92.8599 47.64C94.3999 47.34 96.1199 46.86 98.2899 47.1L98.6999 47.71C98.6499 47.53 97.2899 47.34 96.6799 47.53C97.5799 47.26 99.9999 48.3601 100.99 47.5601L99.4699 47.14C101.01 46.83 102.92 46.18 104.84 46.37C103.97 45.76 104.4 46.44 103.03 45.73C104.21 46.61 98.1199 45.69 100.02 46.62C98.6199 45.8 97.5999 46.2699 95.7699 45.5699C95.8299 45.7699 96.4199 45.96 94.8099 45.86C94.7399 45.92 94.5699 45.99 94.4599 46.04C94.4099 46.04 94.3899 46.04 94.3499 46.02C94.3799 46.02 94.4099 46.04 94.4399 46.04C94.3699 46.07 94.3599 46.08 94.4699 46.04C94.8499 46.13 95.1599 46.23 95.2899 46.35C94.4899 46.81 91.9299 46.8 91.0599 47.04C90.0999 46.94 91.4599 46.81 90.9399 46.59L89.6499 46.95C89.5199 46.5 87.1099 46.1999 89.3599 45.9399L87.3299 45.92C86.1399 45.67 84.4999 45.57 83.4799 45.76C82.5199 45.66 81.0699 46.26 81.8999 45.91L78.7199 46.1899L78.6899 46.08C75.5599 46.02 72.2399 46.82 68.6499 46.01C67.5899 46.12 66.4999 46.26 64.7399 46.13L64.3999 45.74C63.0499 45.88 60.3299 45.35 59.7499 45.76C58.2899 44.71 53.1699 45.53 50.7899 45.35L50.6999 45.86C49.0599 45.83 47.4899 45.9801 45.4499 46.1801L45.5799 46.63C43.8199 47 41.0699 46.31 38.2899 46.36C38.4799 46.19 39.1799 46.23 39.6799 46.34C36.3599 45.33 32.6799 47.08 29.6699 46.34C28.9199 46.5 28.3799 46.45 27.8499 46.34C27.9199 46.34 27.9799 46.3399 28.0399 46.3199C27.9599 46.3199 27.8499 46.3199 27.7299 46.3199C27.3999 46.2399 27.0599 46.15 26.6899 46.08C26.9999 46.19 27.2999 46.2799 27.5699 46.3199C26.9899 46.3199 26.1099 46.39 25.2599 46.5L24.8899 46.02C24.8199 46.02 24.7599 46.02 24.6899 46.03C23.8499 45.85 24.0099 46.26 24.4599 46.62C24.0299 46.7 23.6299 46.79 23.3199 46.91C22.6299 46.13 21.0599 47.17 20.1299 46.34C19.5499 46.74 15.8099 46.64 15.3499 47.49C15.3199 47.38 15.0699 47.3299 15.5299 47.3199C14.5699 47.2199 13.6099 47.13 12.7499 47.37L12.3399 46.76L10.2499 47.58C8.97994 47.21 8.44994 46.99 9.70994 46.52C6.71994 47.24 7.01994 46.79 5.13994 47.51L5.39994 47.11C5.01994 47.12 4.26994 47.37 3.71994 47.42C3.68994 47.22 3.71994 47 3.81994 46.8C4.00994 46.2901 4.10994 45.69 4.15994 45.01C4.15994 44.93 4.16994 44.84 4.17994 44.75C4.17994 44.61 4.18994 44.4699 4.19994 44.3199C4.19994 44.0099 4.20994 43.68 4.21994 43.34C4.21994 42.67 4.22994 41.95 4.23994 41.21C4.25994 38.24 4.26994 34.86 4.61994 32.2C3.44994 33.2299 5.13994 29.73 4.23994 29.52C4.51994 29.21 4.66994 28.47 4.90994 29.33C4.63994 26.61 5.34994 25.25 4.58994 23.38C4.86994 23.07 4.98994 23.9601 5.15994 23.6801C5.09994 23.4601 4.91994 22.82 5.07994 22.53C5.23994 22.25 5.30994 22.93 5.42994 23.36C5.37994 20.59 4.52994 20.31 3.73994 20.1C4.11994 18.69 4.05994 17.99 3.53994 16.98C3.79994 16.49 4.06994 15.67 4.16994 17.4C4.20994 16.43 4.54994 11.48 3.90994 11.38C4.06994 11.08 3.95994 10.02 3.87994 9.77002C3.89994 8.58002 3.91994 8.33994 3.92994 7.93994C3.93994 7.55994 3.93994 7.18997 3.90994 6.46997L3.80994 6.78003C3.53994 6.37003 3.43994 6.01998 3.40994 5.72998C3.89994 5.68998 4.65994 5.91999 5.43994 5.85999V5.93994C5.78994 5.99994 6.08994 6.04997 6.31994 6.08997C6.54994 6.11997 6.86994 6.14001 7.04994 6.14001C7.45994 6.15001 7.66994 6.11997 7.87994 6.08997C8.29994 6.02997 8.70994 5.99005 10.6599 6.30005L10.4499 5.81995C10.8099 4.78995 13.8999 6.43003 16.1599 6.03003L15.3399 5.76001C16.5699 5.41001 18.7899 7.16004 20.0299 7.29004C20.2999 7.38004 19.5999 7.43 19.2299 7.5C22.4799 8.11 19.6499 6.86998 22.0699 6.72998C22.5199 7.06998 21.4999 7.59002 23.1199 7.65002C23.9299 7.92002 27.8399 6.54995 30.0699 7.19995C29.5799 6.93995 29.0899 6.67998 30.2199 6.47998C31.9399 6.38998 34.8799 7.47001 36.4299 6.64001C36.6499 6.71001 36.7299 6.77997 36.7399 6.83997C38.0599 6.62997 41.0199 6.49004 41.8099 6.04004C43.0299 7.70004 49.9999 5.23001 49.9699 6.76001L54.0199 6.68005L53.9099 6.83997C56.4999 6.93997 57.4099 6.56996 58.3199 6.20996C58.9199 6.30996 58.4799 6.46004 58.4299 6.54004C62.2099 6.85004 62.5899 6.78002 65.7599 6.02002L66.0899 6.52002C66.9499 6.23002 71.5599 7.29997 75.2699 6.71997C75.2299 6.77997 75.1599 6.86994 74.8599 6.93994C79.0299 6.35994 84.8499 8.32001 86.3799 6.51001L89.1299 6.06995C85.5699 5.92995 89.6599 5.28999 88.1899 4.98999C89.5899 4.87999 91.8099 5.53 90.0899 5.63L89.8199 5.54004C89.1899 6.48004 94.2499 5.87001 94.1499 6.51001C101.16 6.46001 108 6.98002 114.57 7.02002L113.81 6.29004L116.1 6.32996C116.7 6.49996 116.91 6.9 115.27 6.87C116.13 7.27999 118.01 6.51999 118.06 6.35999C121.26 6.65999 116.81 7.20998 117.79 7.22998L119.12 7.18005L118.82 7.08997C119.9 6.78997 120 6.47001 121.96 6.51001C123.2 6.66001 122.6 6.95999 123.09 6.98999C123.09 7.03999 123.25 7.07001 123.84 7.01001L126.73 7.06995L125.58 6.48999C126.86 6.20999 128.29 6.52 126.96 5.87C128.92 6.88 137.73 6.23005 138.93 6.55005C140.72 6.13005 142.49 6.13994 144.68 6.18994C144.14 6.06994 143.81 5.42 145.7 5.5C145.01 6.84 149.16 6.08005 150.69 7.05005C149.32 6.41005 156.06 6.88998 153.92 5.97998C155.5 6.08998 154.02 6.48005 155.21 6.80005C157.09 6.54005 159.15 6.62 161.33 6.75C162.37 6.81 163.44 6.86994 164.52 6.93994C165.05 6.98994 165.54 7.00996 166.11 6.95996C166.32 6.79996 166.15 6.55995 166.81 6.31995C166.83 6.29995 166.86 6.31998 166.88 6.34998C166.59 7.15998 166.29 7.77997 166 8.21997C166.09 8.59997 167.02 8.24001 166.4 10.01C166.55 9.77001 166.77 9.42004 166.83 10.04C165.97 19.13 167.53 28.61 165.92 37.84C166.26 36.59 166.29 37.42 166.31 38.38C166.39 37.76 166.74 38.39 166.98 38.27L166.32 42.13C166.98 42.83 166.36 46.2701 167 46.6801L166.89 45.46C167.64 47.09 168.55 43.18 169.51 43.42C168.66 41.6 170.77 38.62 169.55 35.63C169.75 34.97 169.86 36.19 170.08 35.84C169.67 35.08 169.58 34.17 169.77 32.47L169.87 32.66C169.77 27.9 170.17 25.85 170.44 20.5L169.97 20.9C170.03 19.75 170.18 19.51 170.3 18.97C169.58 17.65 170.26 22.2 169.47 21C170.43 19.47 169.48 12.89 170.58 11.86C170.58 10.09 170.03 12.38 170.04 10.61L170.34 10.14L169.96 9.68994C170.02 8.70994 170.39 7.44 170.64 7.37C170.63 7.6 170.64 7.92 170.67 8.25C170.68 8.41 170.7 8.57999 170.71 8.73999C170.72 8.83999 170.73 8.93001 170.74 9.01001C170.75 8.94001 170.77 8.86003 170.79 8.78003C170.8 8.65003 170.81 8.52001 170.82 8.39001C170.84 8.11001 170.85 7.82002 170.86 7.52002C170.88 6.91002 170.87 6.27002 170.86 5.65002C170.83 4.40002 170.76 3.24005 170.73 2.43005C170.21 2.45005 169.84 2.45005 169.67 2.43005L170.67 2.5L170.56 4.28003C170.54 3.75003 170.53 3.22003 170.51 2.66003C168.65 2.70003 166.77 2.71998 164.86 2.72998C163.59 2.72998 162.29 2.72999 161 2.73999C158.53 2.75999 156.1 2.81998 153.93 3.09998L154.28 3.31995C150.72 3.72995 151.43 3.07002 147.51 3.27002L147.65 3.21997C146.87 3.43997 145.82 3.55003 144.75 3.53003C145.74 3.27003 142.89 3.01998 144.19 2.72998C140.33 3.16998 142.28 3.08003 139.73 3.91003L139.14 3.54004C138.27 3.88004 138.2 4.05002 136.24 4.15002C137.84 3.83002 134.99 3.59003 136.79 3.16003C132.69 2.35003 130.7 3.98004 128.82 2.79004C126.94 3.82004 132.37 3.35996 131.31 3.57996C132.19 3.91996 129.76 4.34999 128.47 4.23999C127.16 4.21999 126.24 2.92995 122.95 2.94995C123.28 2.94995 123.3 2.88 123.63 2.88C122.4 2.62 121.21 3.23006 119.7 2.81006C118.85 3.43006 117.74 2.76995 117.49 3.56995L120.51 3.39001C118.8 3.60001 117.19 4.51995 114.37 4.06995C114.59 3.90995 115.43 3.69996 116.01 3.57996C115.18 3.34996 114.42 3.73 113.57 3.5C113.81 2.71 117.24 3.32997 119.08 2.71997C118.19 2.38997 115.61 3.28994 116.53 2.43994C115.2 3.52994 113.28 2.30001 111.05 3.14001L111.2 2.67004C110.85 2.74004 110.12 2.96996 109.47 2.95996L110.65 2.33997C108.84 2.85997 107.17 1.88004 105.44 2.17004C109.07 2.16004 106.25 2.73997 107.79 3.08997C103.32 3.72997 105.22 1.84996 100.21 2.07996C100.89 2.00996 102.76 2.36996 101.7 2.57996C100.75 2.47996 99.4899 2.30005 98.8999 2.05005C95.5799 2.15005 99.4099 2.53996 97.9999 2.82996C96.8699 2.24996 96.3699 3.07 94.9199 3.25V2.77002C91.1299 2.46002 93.9099 3.78002 90.4999 3.40002L91.9399 2.72998L90.1699 2.90002L90.5399 2.34998C88.6099 2.75998 88.0099 2.65 86.1199 2.5C86.5599 2.84 85.8699 3.38001 84.1999 3.39001C83.0599 3.10001 84.8399 2.93 82.4699 3C83.0099 2.7 83.5899 2.32001 84.6299 2.76001C84.7399 2.60001 85.1599 2.46005 85.2699 2.30005C84.0399 1.97005 82.1799 2.21998 81.3199 2.22998C81.6499 2.24998 82.0499 2.26997 82.2499 2.33997L78.8099 3.01001C78.2699 2.83001 78.6999 2.68004 79.1199 2.54004C78.4199 2.59004 77.9399 2.80999 76.9199 2.85999C77.1899 2.46999 77.1199 2.06 78.5699 1.88L75.2899 2.31995C75.0699 2.14995 73.6099 1.84996 74.0299 1.70996C72.2099 1.47996 69.5699 2.47004 67.1599 2.17004C67.0299 2.25004 66.7799 2.32 66.2699 2.38C63.9999 2.29 61.9999 1.80998 59.3099 2.34998L57.7899 1.65002C55.6899 1.81002 59.8499 2.54005 56.3499 2.80005C53.8699 3.02005 55.4199 2.2 54.5599 2C53.3299 2.35 51.1799 3.08 48.9099 2.5C49.6599 2.37 50.2499 2.47004 50.9599 2.42004V2.31995ZM25.0299 2.63C25.5299 2.53 26.5299 2.22 26.8999 2.5C26.3299 3.05 25.8799 2.79 25.0299 2.63ZM1.58994 21.83C1.42994 21.46 1.50994 20.88 1.68994 20.23C1.72994 20.7 1.70994 21.24 1.58994 21.83ZM85.7899 46.14C85.7899 46.14 85.7499 46.15 85.7399 46.16C84.6199 45.97 85.0199 46.05 85.7899 46.14ZM88.1199 46.35C88.3499 46.28 88.3399 46.22 88.2399 46.15C88.0799 46.27 87.5499 46.28 86.9599 46.25C87.1299 46.38 87.4299 46.46 88.1199 46.36V46.35ZM123.42 6.75L122.97 6.62C123.99 6.48 123.71 6.61 123.42 6.75Z" fill="#202020"/>
<path d="M0.929932 17.3599C1.00993 17.2199 1.09993 17.18 1.18993 17.15C1.10993 16.95 1.01993 16.9499 0.929932 17.3599Z" fill="#202020"/>
<path d="M67.09 2.06995H67.17C67.17 2.06995 67.24 2.01999 67.25 1.98999L67.09 2.06995Z" fill="#202020"/>
<path d="M52.07 50.45C51.59 50.38 51.32 50.29 51.15 50.2C51.12 50.32 51.34 50.42 52.07 50.45Z" fill="#202020"/>
<path d="M100.46 45.54L98.97 45.67C99.69 45.65 99.95 45.75 100.31 45.83C100.28 45.72 99.99 45.55 100.46 45.55V45.54Z" fill="#202020"/>
<path d="M113.4 48.52C113.62 48.46 113.86 48.52 114.08 48.45L114.02 48.23C113.09 48.24 112.44 48.43 113.4 48.52Z" fill="#202020"/>
<path d="M101.84 47.14C101.96 47.55 102.89 47.4099 103.94 47.3299C103.88 47.3299 103.82 47.3299 103.76 47.3299C104.07 46.7599 102.95 46.95 101.85 47.14H101.84Z" fill="#202020"/>
<path d="M104.18 47.32C104.5 47.3 104.83 47.2901 105.15 47.3101C105.27 47.0801 104.76 47.26 104.18 47.32Z" fill="#202020"/>
<path d="M91.0699 46.09C91.5699 46.19 91.3799 45.57 91.6599 45.74C92.2099 45.22 88.3599 46.36 91.0699 46.09Z" fill="#202020"/>
<path d="M102.68 48.48L102.31 47.98L101.72 48.38L102.68 48.48Z" fill="#202020"/>
<path d="M94.44 48.11L96.11 48.25C96.08 48.17 96.3 48.12 96.56 48.08C95.53 48.06 94.4 47.96 94.44 48.11Z" fill="#202020"/>
<path d="M96.5499 48.08C97.0899 48.08 97.5999 48.08 97.8899 48C97.5999 48 96.9799 48.02 96.5499 48.08Z" fill="#202020"/>
<path d="M100.4 48.63L99.91 48.52L98.73 48.49L100.4 48.63Z" fill="#202020"/>
<path d="M76.5 48.01L74.68 48.15C74.49 48.32 74.99 48.43 75.67 48.36C76.11 48.24 76.78 48.17 76.5 48.01Z" fill="#202020"/>
<path d="M81.9999 49.39C81.5099 49.29 81.4699 49.17 81.1999 49.01L81.1399 49.63L81.9999 49.39Z" fill="#202020"/>
<path d="M76.69 49.53C76.51 49.7 74.05 50.02 76.36 49.99C76.54 49.82 78.37 49.68 76.69 49.53Z" fill="#202020"/>
<path d="M49.25 48.75L49.71 48.74L49.65 47.72L49.25 48.75Z" fill="#202020"/>
<path d="M25.0599 51.1801C27.2199 51.4201 25.5699 50.55 27.5199 50.86C28.0299 50.62 25.9299 50.61 26.4499 50.4C25.1499 50.65 24.4599 50.5101 25.0599 51.1801Z" fill="#202020"/>
<path d="M26.45 50.4C26.66 50.36 26.88 50.31 27.11 50.25C26.73 50.31 26.55 50.36 26.45 50.4Z" fill="#202020"/>
<path d="M165.87 44.66L165.66 46.04L166 45.15L165.87 44.66Z" fill="#202020"/>
<path d="M166.63 47.3199L165.98 47.65L166.57 48.48C166.54 48.17 166.49 47.5599 166.63 47.3199Z" fill="#202020"/>
<path d="M21.1699 1.32996L21.0599 1.48999C21.2699 1.65999 21.5999 1.66995 22.2499 1.69995L21.1699 1.33997V1.32996Z" fill="#202020"/>
<path d="M39.9999 1.81006L39.6699 1.80005L40.2799 2.38L39.9999 1.81006Z" fill="#202020"/>
<path d="M55.79 1.06009C55.15 1.04009 54.39 1.17004 53.74 1.14004C55.15 1.03004 55.96 1.79009 55.79 1.06009Z" fill="#202020"/>
</svg>
