<svg width="171" height="77" viewBox="0 0 171 77" fill="none" xmlns="http://www.w3.org/2000/svg">
<path d="M168.32 4.25H2.62V73.7H168.32V4.25Z" fill="white"/>
<path d="M167.77 71.26C168.46 71.3 168.22 70.88 168.32 70.8C167.16 70.89 167.8 71.37 167.77 71.26Z" fill="#202020"/>
<path d="M156.31 72.21L156.51 72.04L154.82 72.46L156.31 72.21Z" fill="#202020"/>
<path d="M145.59 72.2C146.6 72.91 149.47 72.08 151.38 72.34L151.69 72.5L152.55 71.9301C150.23 72.0201 147.21 72.4 145.58 72.2H145.59Z" fill="#202020"/>
<path d="M139.88 70.66C140.23 70.94 138.64 70.9 141.21 70.75C141.08 70.72 141.04 70.7001 140.97 70.6801C140.74 70.6801 140.42 70.68 139.88 70.66Z" fill="#202020"/>
<path d="M140.97 70.6801C140.23 70.4501 142.1 70.6601 140.97 70.6801V70.6801Z" fill="#202020"/>
<path d="M135.76 70.83L137.25 70.58C136.94 70.42 135.62 70.38 136.11 70.26C134.58 70.4 134.9 70.56 135.77 70.83H135.76Z" fill="#202020"/>
<path d="M134.35 71.36L135.12 71.26C134.98 71.19 134.78 71.17 134.35 71.36Z" fill="#202020"/>
<path d="M136.75 71.03L135.12 71.25C135.34 71.37 135.36 71.6 135.87 71.17C135.74 71.38 136.06 71.17 136.75 71.03Z" fill="#202020"/>
<path d="M137.68 71.14C138.51 71.3 139.59 71.39 138.1 71.64C140.94 71.54 140.53 71.04 137.68 71.14Z" fill="#202020"/>
<path d="M145.05 72.94L146.16 73.1501L147.12 72.9101C146.64 73.0301 144.97 72.72 145.04 72.94H145.05Z" fill="#202020"/>
<path d="M126.49 70.46C126.4 70.61 126.99 70.8601 127.1 71.0601L128.2 70.89C127.64 70.79 126.57 70.69 126.49 70.47V70.46Z" fill="#202020"/>
<path d="M127.11 71.0601L125.47 71.3199C126.94 71.3499 127.21 71.2301 127.11 71.0601Z" fill="#202020"/>
<path d="M134.08 72.15L136.78 71.6L133.56 72.16L134.08 72.15Z" fill="#202020"/>
<path d="M120.22 70.45L121.15 70.09L119.49 70.63L120.22 70.45Z" fill="#202020"/>
<path d="M116.06 70.51C116.75 70.22 115.11 70.02 115.84 69.84C114.71 69.89 113.74 70.14 112.87 70.37C113.79 70.24 114.78 70.28 116.05 70.51H116.06Z" fill="#202020"/>
<path d="M111.41 70.6899C111.87 70.6199 112.35 70.5 112.87 70.36C112.38 70.43 111.9 70.5199 111.41 70.6899Z" fill="#202020"/>
<path d="M122.66 71.25C122.53 71.16 122.29 70.9199 121.37 70.8199L122.02 71.25C122.22 71.25 122.44 71.25 122.67 71.25H122.66Z" fill="#202020"/>
<path d="M122.04 71.26H122.02C121.32 71.23 120.83 71.23 120.62 71.22C120.8 71.22 121.23 71.24 122.04 71.26Z" fill="#202020"/>
<path d="M122.83 71.25C122.77 71.25 122.73 71.25 122.67 71.25C122.73 71.29 122.77 71.31 122.83 71.25Z" fill="#202020"/>
<path d="M129.77 71.76C128.8 72 126.79 72.26 128.74 72.62C129.43 72.33 128.32 72.12 129.77 71.76Z" fill="#202020"/>
<path d="M123.63 71.79L125.38 71.89C125.35 71.78 125.03 71.61 125.51 71.49L123.64 71.79H123.63Z" fill="#202020"/>
<path d="M122.77 71.92L123.63 71.79L122.98 71.75L122.77 71.92Z" fill="#202020"/>
<path d="M114.4 71.09C113.65 71.28 112.82 71.29 111.89 71.32C112.89 71.4 113.92 71.45 114.9 71.45C115.04 71.32 115.47 71.07 114.4 71.09Z" fill="#202020"/>
<path d="M118.11 71.21C118.06 71.21 117.99 71.23 117.94 71.23C118.04 71.27 118.13 71.28 118.11 71.21Z" fill="#202020"/>
<path d="M102.72 71.3199C102.72 71.3199 102.82 71.37 102.87 71.4C102.88 71.37 102.89 71.35 102.9 71.33H102.72V71.3199Z" fill="#202020"/>
<path d="M115.07 71.53C115.82 71.61 116.27 71.51 116.7 71.38C116.14 71.42 115.54 71.45 114.91 71.45C114.85 71.51 114.84 71.55 115.08 71.53H115.07Z" fill="#202020"/>
<path d="M108.86 70.89C109.25 70.98 109.69 71.06 110.16 71.12C109.78 70.98 109 70.77 108.86 70.89Z" fill="#202020"/>
<path d="M117.69 71.11C117.69 71.11 117.76 71.1 117.8 71.09C117.55 71 117.58 71.04 117.69 71.11Z" fill="#202020"/>
<path d="M117.69 71.11C117.3 71.17 117 71.28 116.7 71.37C117.16 71.34 117.58 71.29 117.95 71.23C117.86 71.2 117.76 71.15 117.7 71.11H117.69Z" fill="#202020"/>
<path d="M99.94 74.0601C100.07 73.6601 102.05 73.3 103.75 73.72C105.43 73.42 104.33 72.12 102.87 71.39C102.82 71.56 102.82 71.72 101.09 71.96C101.69 72.18 104.92 72.4699 103.46 72.8199C101.18 73.0199 101.59 72.68 100.48 72.47C101.42 72.96 97.57 73.19 98.07 73.91L100.07 73.65C100.11 73.76 99.38 73.94 99.94 74.05V74.0601Z" fill="#202020"/>
<path d="M106.16 71.4399L106.87 71.39C106.06 71.32 105.48 71.16 104.42 70.85C103.24 71.04 102.99 71.1899 102.91 71.3199L106.4 71.38L106.16 71.4399Z" fill="#202020"/>
<path d="M110.05 71.39C109.5 71.82 107.79 72 108.84 72.47C110.92 72.44 110.3 72.11 111.54 71.92C108.18 72.03 112.51 71.6799 110.08 71.4399C110.74 71.3699 111.33 71.34 111.9 71.33C111.29 71.28 110.71 71.21 110.16 71.13C110.19 71.14 110.21 71.15 110.24 71.16H110.26C110.4 71.21 110.45 71.25 110.29 71.22C110.28 71.22 110.24 71.22 110.22 71.22C110.2 71.28 110.14 71.33 110.07 71.38C109.1 71.29 109.92 71.27 110.22 71.22C110.23 71.2 110.26 71.18 110.26 71.16H110.25L106.88 71.39C107.59 71.45 108.48 71.44 110.07 71.39H110.05Z" fill="#202020"/>
<path d="M126.95 73.55C126.85 73.51 126.85 73.48 126.84 73.45C126.62 73.5 126.54 73.54 126.95 73.55Z" fill="#202020"/>
<path d="M125.56 73.29C125.81 73.23 126.01 73.06 126.8 73.1C127.49 73.23 126.8 73.31 126.83 73.45C127.31 73.34 128.51 73.1401 127 72.9301L126.76 72.99C125.4 72.84 123.66 72.3 123.9 72.25C124.3 72.64 124.64 72.91 125.55 73.29H125.56Z" fill="#202020"/>
<path d="M117.71 72.45L114.91 72.66L116.34 73.03L116.27 72.8101C117.86 72.9001 117.52 72.62 117.72 72.45H117.71Z" fill="#202020"/>
<path d="M102.4 71.1L102.77 70.65L101.15 71.29L102.4 71.1Z" fill="#202020"/>
<path d="M98.7601 71.16L98.8901 70.76L97.9301 71L98.7601 71.16Z" fill="#202020"/>
<path d="M42.64 1.87L43.46 1.76001C43.07 1.79001 42.82 1.83 42.64 1.87Z" fill="#202020"/>
<path d="M36.67 1.83997L36.52 2.03003C36.8 1.92003 36.91 1.83997 36.67 1.83997Z" fill="#202020"/>
<path d="M9.27999 71.1999C8.07999 70.8299 6.73998 70.2599 6.87998 70.6999L7.24999 71.13C8.08999 71.05 8.72999 71.0999 9.27999 71.1899V71.1999Z" fill="#202020"/>
<path d="M2.52001 19.0699C2.48001 19.1799 2.43001 19.3 2.39001 19.42C2.54001 19.71 2.68002 19.98 2.80002 20.23C2.71002 19.88 2.62001 19.4799 2.52001 19.0699Z" fill="#202020"/>
<path d="M0.72998 18.22L1.00998 16.64C0.909979 17 0.81998 17.5 0.72998 18.22Z" fill="#202020"/>
<path d="M75.21 1.41003L76.17 0.969971C74.67 0.969971 75.33 1.20003 75.21 1.41003Z" fill="#202020"/>
<path d="M61.44 71.3199C60.4 71.1499 59.58 71.0801 58.86 71.0601C60.11 71.3101 61.11 71.6799 61.44 71.3199Z" fill="#202020"/>
<path d="M40.29 6.47998C40.79 6.39998 41.01 6.30997 40.99 6.21997C40.47 6.28997 40.18 6.37998 40.29 6.47998Z" fill="#202020"/>
<path d="M55.87 71.06C56.05 71.1 56.23 71.13 56.42 71.16C57.18 71.09 57.94 71.03 58.86 71.06C57.94 70.87 56.88 70.76 55.87 71.06Z" fill="#202020"/>
<path d="M170.8 29.27C170.78 29.36 170.77 29.46 170.75 29.54C170.81 29.57 170.81 29.45 170.8 29.27Z" fill="#202020"/>
<path d="M166.42 63.6899C166.39 63.3499 166.39 62.8 166.39 62.28C166.36 62.53 166.36 62.9599 166.42 63.6899Z" fill="#202020"/>
<path d="M84.1001 70.97C84.2201 70.92 84.8701 70.94 84.1001 70.97V70.97Z" fill="#202020"/>
<path d="M87.86 72.6801C87.7 72.7301 87.57 72.79 87.55 72.89C87.61 72.79 87.72 72.7201 87.86 72.6801Z" fill="#202020"/>
<path d="M48.1701 73.76C48.1701 73.76 48.1301 73.76 48.1001 73.76C48.3301 73.84 48.2901 73.83 48.1701 73.76Z" fill="#202020"/>
<path d="M85.26 71.17C84.97 71.12 84.64 71.07 84.27 71.04C84.43 71.07 84.73 71.12 85.26 71.17Z" fill="#202020"/>
<path d="M85.11 70.9599C85.38 70.9799 85.59 70.99 85.79 71C85.89 70.93 85.8 70.8799 85.11 70.9599Z" fill="#202020"/>
<path d="M83.02 70.99C83.46 70.99 83.87 71 84.27 71.04C84.12 71.01 84.05 70.99 84.1 70.97C83.87 70.97 83.55 70.98 83.02 70.99Z" fill="#202020"/>
<path d="M130.05 2.93001C130.1 2.94001 130.16 2.94993 130.22 2.96993C131 2.78993 130.66 2.82001 130.05 2.93001Z" fill="#202020"/>
<path d="M0.609985 60.24C0.609985 60.24 0.629982 60.3 0.629982 60.33C0.629982 60.29 0.639986 60.25 0.649986 60.22L0.609985 60.25V60.24Z" fill="#202020"/>
<path d="M0.280029 57.46C0.820029 58.64 0.75003 59.31 0.64003 60.21L1.89003 59.29L0.280029 57.46Z" fill="#202020"/>
<path d="M56.9201 1.75L54.9701 1.35999C57.3201 0.719985 59.0201 0.940015 57.1901 0.390015C56.9101 1.75001 49.6101 0.530015 49.3401 1.89001L48.0601 1.59998C48.4301 1.60998 48.4901 1.53005 48.8501 1.55005C46.3501 0.900049 46.9901 2.52997 43.7701 2.33997C42.6501 2.23997 41.8601 2.04 42.6301 1.88L40.1301 2.21997C39.4001 2.18997 39.5801 1.95998 40.3001 1.97998L36.4901 2.08997L36.5201 2.05005C35.9801 2.26005 34.7401 2.58998 34.1401 2.72998C33.1701 2.53998 34.6301 2.59004 34.3801 2.42004L32.2701 2.75C31.4101 2.4 33.1601 2.05999 34.6201 2.10999C32.6501 0.749985 32.8701 2.45003 28.6101 1.66003L30.6001 1.48999C29.3101 0.71999 27.7601 1.00002 25.5001 0.52002C26.0301 0.77002 30.0101 1.72995 27.7201 2.06995C27.0701 1.96995 26.2201 1.91994 24.9901 2.18994C24.9801 1.70994 23.7701 1.82998 22.2601 1.84998L22.3601 1.20996C20.7301 1.38996 20.8601 1.72001 19.9001 2.01001C18.0801 1.95001 17.7001 1.45003 17.2701 1.03003C14.3601 0.930029 19.2801 1.81995 15.8301 1.94995C13.4101 1.70995 11.7001 1.96998 8.80007 2.34998C7.10007 2.12998 9.10007 1.96003 8.49007 1.78003L6.99007 2.29004C6.62007 2.28004 6.74007 2.12004 6.80007 2.04004C6.63007 2.06004 6.54007 2.09 6.41007 2.12C6.27007 2.15 6.16007 2.18997 6.09007 2.21997C5.94006 2.28997 5.90007 2.36995 5.82007 2.44995C5.67007 2.60995 5.38007 2.75998 4.06007 2.84998C3.87007 3.15998 2.80007 3.00004 1.13007 2.79004C1.00007 3.58004 0.840067 4.57995 0.780067 5.69995C0.750067 6.25995 0.740071 6.83002 0.760071 7.40002C0.770071 7.67002 0.80007 7.98994 0.83007 8.18994C0.86007 8.36994 0.910068 8.54997 0.960068 8.71997C0.780068 9.32997 0.570068 8.42999 0.320068 8.60999C0.840068 11.99 0.700072 11.51 1.41007 14.29L0.990067 16.66C1.47007 14.92 2.04007 17.14 2.51007 19.09C2.74007 18.47 2.94007 17.95 3.04007 17.59L3.38007 20.7C3.28007 21.08 3.06007 20.76 2.79007 20.25C2.85007 20.46 2.90007 20.6599 2.94007 20.8199C2.70007 21.9299 2.33007 21.3501 1.98007 20.5601C2.11007 20.1801 2.25007 19.8099 2.37007 19.4399C1.98007 18.6699 1.55007 17.96 1.18007 18.12C1.25007 18.32 1.32007 18.71 1.35007 19.14C1.24007 18.94 1.15007 18.81 1.09007 18.9C1.02007 19.01 1.16007 19.33 1.33007 19.84L0.620071 20.55L0.90007 20.72L0.450066 24.78C1.17007 27.69 2.22007 30.22 2.52007 34.83C2.00007 33.69 1.67007 34.58 1.05007 34.52C1.71007 33.26 0.77007 30.9501 0.90007 28.5601C0.83007 29.8101 0.540069 29.53 0.430069 29.22L1.03007 33.48C0.520067 33.38 0.650071 34.39 0.440071 35.5C1.44007 34.66 1.11007 38.68 1.41007 40.41C1.07007 40.52 0.730066 40.1 0.810066 37.98C0.0600662 40.32 1.99007 41 1.35007 43.29C1.35007 42.77 1.39007 42.49 1.22007 42.29C1.52007 43.5 1.28007 46.45 0.990067 45.75V45.23C0.860067 48.66 0.98007 55.6799 1.83007 56.1899C1.72007 56.2199 0.800066 55.74 0.630066 55.53L3.49007 61.65C2.76007 61.11 1.02007 63.18 0.610069 60.34C0.510069 61.16 0.380068 62.17 0.640068 63.89C0.740068 63.33 1.70007 62.5 1.76007 63.26C0.950071 65.35 1.32007 64.71 0.630066 67.29C0.790066 66.45 1.93007 67.38 1.90007 68.7C1.73007 68.49 0.77007 68.81 0.65007 68.33C0.84007 68.9 1.02007 69.38 1.21007 70.02C1.40007 70.76 1.58007 71.42 1.77007 72C1.57007 71.08 0.820069 72.11 0.500069 73.49C0.610069 73.15 0.600071 74.32 0.58007 75.72C1.84007 75.74 3.29007 75.77 3.96007 75.72L2.05007 75.46C7.75007 75.63 6.93007 73.8799 10.7701 73.9399C10.3201 74.1699 9.67007 75.37 11.5401 75.51C12.4001 74.93 15.3401 72.7401 18.6001 72.3L19.2201 72.63L21.7201 72.25C20.1601 73.12 15.8001 74.94 13.4101 75.65C14.8001 75.91 13.8001 76.04 15.8801 76.01C16.6101 76.32 14.7501 76.48 14.1301 76.5L18.9701 76.7C18.7501 76.03 22.6701 76.03 22.4901 75.47L17.2301 76.17C17.0201 75.5 20.2701 74.26 23.7001 74.38C24.5701 74.65 23.0501 75.58 23.1201 75.8C23.5701 75.57 26.3801 75.36 26.6901 75.52L25.2301 75.88C27.1401 76.13 28.3501 74.99 30.6401 75.63C31.4301 75.67 33.0001 76.5 33.1401 76.1C31.8501 75.33 31.6001 72.96 32.4601 72.38C32.7401 72.43 36.6201 73.11 37.5201 73.49C38.8201 74.09 35.5601 74.9199 36.6701 75.4399C36.7201 75.2599 37.4401 75.03 37.7401 74.96C38.5701 75.12 37.4001 75.53 39.2001 75.45C39.5001 74.77 42.8801 75.51 40.0501 74.87C41.8201 74.68 41.9301 75.01 44.0101 74.98C43.3501 74.54 45.8701 73.48 47.6501 73.29C47.5501 73.46 47.9401 73.69 48.1401 73.79C51.7601 73.85 53.7101 74.16 57.0901 74.17C57.4001 74.34 59.0301 74.53 58.3401 74.83C58.8301 74.71 59.2701 74.48 60.3201 74.46C62.3401 75.05 58.0001 74.55 59.5301 75.26C59.6601 74.86 62.2301 74.71 63.7101 74.47C63.2501 73.86 60.2801 74.35 58.7901 74.6C58.7901 73.76 61.3701 72.87 64.9001 72.48C67.7101 72.27 66.1201 73.03 66.6001 72.91C71.8701 73.06 71.0901 71.44 75.4701 72.05C77.2101 72.59 75.5501 73.12 75.9301 73.51C73.6401 73.71 72.4201 73.1699 70.8701 73.1899L72.7801 73.4399C72.0501 73.6199 70.5301 73.75 69.6901 73.6C71.1501 74.08 78.6001 73.69 82.6701 74.14C83.3901 73.96 84.6401 73.7701 84.0501 73.5601L82.7601 73.64C81.5801 73.21 85.1801 73.04 83.5501 72.84C85.2801 72.54 87.2101 72.0601 89.6401 72.3L90.1001 72.91C90.0501 72.73 88.5101 72.54 87.8301 72.73C88.8401 72.46 91.5601 73.56 92.6701 72.76L90.9701 72.34C92.7001 72.03 94.8501 71.3799 97.0001 71.5699C96.0201 70.9599 96.5001 71.6401 94.9701 70.9301C96.3001 71.8101 89.4601 70.8899 91.5901 71.8199C90.0201 70.9999 88.8701 71.47 86.8201 70.77C86.8801 70.97 87.5501 71.1601 85.7401 71.0601C85.6601 71.1201 85.4701 71.19 85.3401 71.24C85.2801 71.24 85.2701 71.24 85.2201 71.22C85.2601 71.22 85.2801 71.24 85.3201 71.24C85.2401 71.27 85.2301 71.28 85.3601 71.24C85.7901 71.33 86.1401 71.43 86.2801 71.55C85.3801 72.01 82.5101 72 81.5301 72.24C80.4601 72.14 81.9801 72.01 81.3901 71.79L79.9401 72.15C79.8001 71.7 77.0901 71.4 79.6201 71.14L77.3401 71.12C76.0001 70.87 74.1601 70.77 73.0201 70.96C71.9501 70.86 70.3101 71.46 71.2401 71.11L67.6701 71.39L67.6401 71.28C64.1201 71.22 60.3901 72.02 56.3701 71.21C55.1801 71.32 53.9601 71.46 51.9801 71.33L51.5901 70.9399C50.0701 71.0799 47.0201 70.55 46.3701 70.96C44.7301 69.91 38.9801 70.73 36.3101 70.55L36.2101 71.0601C34.3701 71.0301 32.6001 71.18 30.3101 71.38L30.4501 71.83C28.4801 72.2 25.3801 71.5101 22.2601 71.5601C22.4701 71.3901 23.2601 71.43 23.8201 71.54C20.0901 70.53 15.9601 72.28 12.5801 71.54C11.7401 71.7 11.1301 71.65 10.5401 71.54C10.6201 71.54 10.6901 71.54 10.7501 71.52C10.6601 71.52 10.5401 71.52 10.4001 71.52C10.0301 71.44 9.65007 71.35 9.23007 71.28C9.58007 71.39 9.92007 71.48 10.2101 71.52C9.56007 71.52 8.58007 71.5799 7.61007 71.7L7.20007 71.22C7.12007 71.22 7.06007 71.22 6.98007 71.23C6.74007 71.19 6.58007 71.18 6.47007 71.2C6.39007 71.2199 6.40007 71.26 6.39007 71.33C6.39007 71.39 6.39007 71.4701 6.43007 71.5601C6.49007 71.6501 6.61007 71.74 6.73007 71.83C6.62007 71.85 6.46007 71.87 6.41007 71.89C6.35007 71.91 6.29007 71.94 6.23007 71.96C6.11007 72.01 5.99007 72.06 5.88007 72.12C5.79007 71.81 5.60007 71.7899 5.32007 71.8199C5.05007 71.8499 4.68007 71.94 4.51007 71.85C4.56007 71.67 4.65007 71.47 4.81007 71.25C4.61007 71.28 4.53007 70.75 4.40007 70.14L4.35007 69.89C4.33007 69.74 4.31007 69.6 4.29007 69.46C4.25007 69.18 4.20007 68.91 4.14007 68.67C4.02007 68.19 3.87007 67.83 3.66007 67.71C3.77007 67.68 3.82007 67.39 3.83007 67.91C3.93007 66.83 4.02007 65.76 3.78007 64.79L4.39007 64.33L3.57007 61.98C3.94007 60.55 4.16007 59.96 4.63007 61.38C3.91007 57.96 4.36007 58.5999 3.64007 55.6899L4.04007 55.83C4.02007 54.79 3.49007 53.13 3.82007 52.5C4.57007 50.17 3.92007 40.98 4.62007 35.01C3.45007 36.17 5.14007 32.23 4.24007 32C4.52007 31.65 4.67007 30.82 4.91007 31.79C4.64007 28.74 5.35007 27.21 4.59007 25.1C4.87007 24.75 4.99007 25.7499 5.16007 25.4399C5.10007 25.1999 4.92007 24.47 5.08007 24.15C5.24007 23.84 5.31007 24.6 5.43007 25.08C5.38007 21.96 4.53007 21.65 3.74007 21.42C4.12007 19.84 4.06007 19.05 3.54007 17.91C3.80007 17.36 4.07007 16.44 4.17007 18.38C4.21007 17.29 4.55007 11.73 3.91007 11.62C4.07007 11.28 3.96007 10.1001 3.88007 9.81006C3.91007 8.74006 3.92007 8.15997 3.93007 7.58997C3.94007 7.15997 3.94007 6.74994 3.91007 5.93994L3.81007 6.30005C3.54007 5.87005 3.44007 5.50004 3.41007 5.17004C3.96007 5.13004 4.79007 5.36005 5.67007 5.30005L5.65007 5.38C5.86007 5.41001 6.04007 5.43997 6.21007 5.46997C6.29007 5.47997 6.37007 5.49 6.44007 5.5C6.54007 5.5 6.64007 5.52003 6.73007 5.53003C7.09007 5.56003 7.38007 5.57996 7.60007 5.57996C8.06007 5.58996 8.29007 5.56003 8.53007 5.53003C9.00007 5.47003 9.47007 5.42999 11.6501 5.73999L11.4101 5.26001C11.8201 4.23001 15.2901 5.86997 17.8301 5.46997L16.9101 5.19995C18.3001 4.84995 20.7901 6.59998 22.1801 6.72998C22.4801 6.81998 21.7001 6.86994 21.2801 6.93994C24.9301 7.54994 21.7501 6.31004 24.4701 6.17004C24.9701 6.51004 23.8201 7.02997 25.6501 7.08997C26.5601 7.35997 30.9601 5.99001 33.4501 6.64001C32.9001 6.38001 32.3501 6.12004 33.6201 5.92004C35.5501 5.83004 38.8501 6.90996 40.6001 6.07996C40.8501 6.14996 40.9401 6.22003 40.9501 6.28003C42.4301 6.07003 45.7601 5.92998 46.6501 5.47998C48.0201 7.13998 55.8401 4.66995 55.8101 6.19995L60.3601 6.12L60.2401 6.28003C63.1501 6.38003 64.1801 6.01002 65.2001 5.65002C65.8701 5.75002 65.3801 5.89998 65.3301 5.97998C69.5801 6.28998 70.0001 6.21996 73.5601 5.45996L73.9301 5.95996C74.9001 5.66996 80.0701 6.74003 84.2401 6.16003C84.2001 6.22003 84.1101 6.31 83.7801 6.38C88.4701 5.8 95.0001 7.74995 96.7201 5.94995L99.8101 5.51001C95.8101 5.37001 100.41 4.73005 98.7601 4.43005C100.33 4.32005 102.83 4.96995 100.9 5.06995L100.6 4.97998C99.8901 5.91998 105.57 5.30995 105.47 5.94995C113.35 5.89995 121.02 6.41996 128.4 6.45996L127.55 5.72998L130.12 5.77002C130.8 5.94002 131.03 6.34006 129.19 6.31006C130.16 6.72006 132.27 5.96005 132.32 5.80005C135.91 6.10005 130.92 6.65004 132.02 6.67004L133.52 6.62L133.18 6.53003C134.39 6.23003 134.5 5.90995 136.71 5.94995C138.11 6.09995 137.43 6.40005 137.98 6.43005C137.98 6.48005 138.16 6.50995 138.82 6.44995L142.06 6.51001L140.76 5.93005C142.2 5.65005 143.81 5.96006 142.31 5.31006C144.51 6.32006 154.4 5.66999 155.75 5.98999C157.76 5.56999 159.75 5.58 162.21 5.63C161.6 5.51 161.23 4.85994 163.35 4.93994C163.18 5.23994 163.27 5.43006 163.55 5.56006C163.69 5.63006 163.87 5.67997 164.08 5.71997C164.25 5.74997 164.44 5.77995 164.66 5.81995C165.29 5.91995 166.14 5.93997 166.38 6.21997C166.31 6.41997 166.22 6.61003 166.12 6.78003C166.44 6.13003 166.48 6.83999 166.55 7.60999C166.57 7.79999 166.59 7.99003 166.62 8.16003C166.65 8.42003 166.68 8.7 166.73 8.87C166.82 9.22 166.96 9.24002 167.19 8.64001C167.08 10.41 166.69 8.74997 166.37 10.09C166.89 14.31 166.03 19.38 166.21 24.59C166.39 24.67 166.65 23.8 166.92 24.92L166.04 27.67C166.13 28.7 167.06 28.62 166.44 30.5C166.59 30.23 166.81 29.84 166.87 30.53C166.01 40.74 167.57 51.39 165.96 61.76C166.3 60.36 166.33 61.29 166.35 62.36C166.43 61.66 166.78 62.38 167.02 62.24L166.36 66.58C167.02 67.37 166.4 71.2299 167.04 71.6899L166.93 70.3199C167.68 72.1499 168.59 67.76 169.55 68.03C168.7 65.98 170.81 62.63 169.59 59.28C169.79 58.54 169.9 59.91 170.12 59.52C169.71 58.67 169.62 57.64 169.81 55.74L169.91 55.96C169.81 50.61 170.21 48.3101 170.48 42.3L170.01 42.75C170.07 41.46 170.22 41.19 170.34 40.58C169.62 39.1 170.3 44.21 169.51 42.86C170.47 41.15 169.52 33.75 170.62 32.59C170.62 30.6 170.07 33.1699 170.08 31.1899L170.38 30.66L170 30.16C170.06 28.86 170.43 28.2 170.68 28.15C170.65 28.47 170.75 29.05 170.77 29.39C171.12 27.7 170.65 24.63 170.77 24.05L170.59 25.96C170.31 20.54 170.7 13.91 170.1 8.67004L169.88 9.06995C169.84 8.70995 169.82 8.44999 169.8 8.10999C169.78 7.72999 169.77 7.37995 169.76 7.06995C169.74 6.44995 169.75 5.95 169.76 5.5C169.79 4.59 169.87 3.85001 169.93 2.76001C169.07 2.71001 167.82 2.69 165.82 2.75L166.06 2.69995C165.73 2.75995 165.38 2.79998 165.02 2.84998C164.71 2.87998 164.39 2.91995 164.06 2.94995C163.51 2.99995 162.91 3.02001 162.31 3.01001C163.42 2.75001 160.22 2.49996 161.68 2.20996C157.34 2.64996 159.53 2.56001 156.67 3.39001L156.01 3.02002C155.03 3.36002 154.95 3.53 152.76 3.63C154.56 3.31 151.36 3.07001 153.38 2.64001C148.78 1.83001 146.54 3.46002 144.43 2.27002C142.32 3.30002 148.41 2.84006 147.23 3.06006C148.22 3.40006 145.48 3.82997 144.04 3.71997C142.57 3.69997 141.54 2.41005 137.84 2.43005C138.21 2.43005 138.23 2.35999 138.6 2.35999C137.22 2.09999 135.89 2.71004 134.19 2.29004C133.24 2.91004 131.98 2.25005 131.71 3.05005L135.1 2.87C133.18 3.08 131.37 4.00005 128.2 3.55005C128.45 3.39005 129.39 3.18006 130.04 3.06006C129.11 2.83006 128.26 3.20998 127.29 2.97998C127.56 2.18998 131.41 2.80995 133.48 2.19995C132.49 1.86995 129.58 2.77004 130.62 1.92004C129.13 3.01004 126.97 1.78 124.47 2.62L124.64 2.15002C124.24 2.22002 123.42 2.44994 122.69 2.43994L124.01 1.81995C121.98 2.33995 120.1 1.36002 118.15 1.65002C122.22 1.64002 119.06 2.21995 120.79 2.56995C115.77 3.20995 117.9 1.33006 112.27 1.56006C113.03 1.49006 115.13 1.85006 113.94 2.06006C112.87 1.96006 111.45 1.78003 110.8 1.53003C107.07 1.63003 111.37 2.02006 109.79 2.31006C108.52 1.73006 107.96 2.54998 106.33 2.72998V2.25C102.07 1.94 105.19 3.26 101.37 2.88L102.99 2.20996L101 2.38L101.41 1.82996C99.2401 2.23996 98.5701 2.12998 96.4401 1.97998C96.9301 2.31998 96.1601 2.86 94.2801 2.87C93.0001 2.58 95.0001 2.40998 92.3301 2.47998C92.9301 2.17998 93.5901 1.79999 94.7501 2.23999C94.8701 2.07999 95.3401 1.94003 95.4701 1.78003C94.0901 1.45003 92.0001 1.69996 91.0301 1.70996C91.4001 1.72996 91.8501 1.74995 92.0701 1.81995L88.2001 2.48999C87.5901 2.30999 88.0701 2.16002 88.5501 2.02002C87.7701 2.07002 87.2301 2.28997 86.0701 2.33997C86.3701 1.94997 86.3001 1.53999 87.9301 1.35999L84.2501 1.80005C84.0001 1.63005 82.3601 1.32994 82.8401 1.18994C80.8001 0.959941 77.8301 1.95002 75.1201 1.65002C74.9801 1.73002 74.7001 1.79998 74.1201 1.84998C71.5801 1.75998 69.3201 1.27995 66.3101 1.81995L64.6001 1.12C62.2401 1.28 66.9201 2.01002 62.9801 2.27002C60.2001 2.49002 61.9401 1.66997 60.9601 1.46997C59.5801 1.81997 57.1701 2.54997 54.6101 1.96997C55.4601 1.83997 56.1201 1.94001 56.9101 1.89001L56.9201 1.75ZM27.7901 2.06006C28.3501 1.96006 29.4801 1.65005 29.8901 1.93005C29.2501 2.48005 28.7501 2.22006 27.7901 2.06006ZM1.59007 23.36C1.43007 22.94 1.51007 22.2901 1.69007 21.5601C1.73007 22.0901 1.71007 22.69 1.59007 23.36ZM75.6201 71.37C75.6201 71.37 75.5801 71.38 75.5601 71.39C74.3001 71.2 74.7501 71.28 75.6201 71.37ZM78.2301 71.58C78.4901 71.51 78.4701 71.45 78.3601 71.38C78.1801 71.5 77.5901 71.51 76.9201 71.48C77.1101 71.61 77.4401 71.69 78.2201 71.59L78.2301 71.58ZM138.29 6.18994L137.78 6.06006C138.93 5.92006 138.61 6.04994 138.29 6.18994Z" fill="#202020"/>
<path d="M0.930054 18.34C1.01005 18.18 1.10006 18.14 1.19006 18.1C1.11006 17.88 1.02005 17.87 0.930054 18.34Z" fill="#202020"/>
<path d="M75.03 1.48999H75.12C75.12 1.48999 75.19 1.44003 75.21 1.41003L75.03 1.48999Z" fill="#202020"/>
<path d="M37.75 75.66C37.21 75.59 36.91 75.5 36.71 75.41C36.68 75.53 36.93 75.63 37.75 75.66Z" fill="#202020"/>
<path d="M92.1001 70.75L90.4301 70.88C91.2401 70.86 91.5301 70.96 91.9401 71.04C91.9001 70.93 91.5801 70.76 92.1101 70.76L92.1001 70.75Z" fill="#202020"/>
<path d="M106.63 73.74C106.87 73.68 107.15 73.74 107.39 73.67L107.32 73.45C106.28 73.46 105.55 73.65 106.63 73.74Z" fill="#202020"/>
<path d="M93.65 72.35C93.78 72.76 94.83 72.6201 96.01 72.5401C95.94 72.5401 95.87 72.5401 95.8 72.5401C96.15 71.9701 94.9 72.16 93.65 72.35Z" fill="#202020"/>
<path d="M96.28 72.53C96.64 72.51 97.01 72.5 97.36 72.52C97.5 72.29 96.92 72.47 96.28 72.53Z" fill="#202020"/>
<path d="M81.56 71.3C82.12 71.4 81.91 70.7799 82.22 70.9499C82.84 70.4299 78.51 71.57 81.56 71.3Z" fill="#202020"/>
<path d="M94.6 73.6899L94.18 73.1899L93.52 73.59L94.6 73.6899Z" fill="#202020"/>
<path d="M85.33 73.3199L87.2 73.4599C87.17 73.3799 87.41 73.33 87.7 73.29C86.55 73.27 85.28 73.1699 85.32 73.3199H85.33Z" fill="#202020"/>
<path d="M87.7101 73.29C88.3101 73.29 88.8801 73.29 89.2201 73.21C88.8901 73.21 88.1901 73.23 87.7101 73.29Z" fill="#202020"/>
<path d="M92.03 73.84L91.48 73.74L90.16 73.7L92.03 73.84Z" fill="#202020"/>
<path d="M65.19 73.23L63.14 73.37C62.93 73.54 63.49 73.65 64.25 73.58C64.74 73.46 65.5 73.39 65.18 73.23H65.19Z" fill="#202020"/>
<path d="M71.37 74.6C70.82 74.5 70.78 74.38 70.47 74.22L70.41 74.84L71.37 74.6Z" fill="#202020"/>
<path d="M65.4101 74.74C65.2101 74.91 62.44 75.23 65.03 75.2C65.24 75.03 67.2901 74.89 65.4101 74.74Z" fill="#202020"/>
<path d="M34.5801 73.96L35.1001 73.95L35.0301 72.9301L34.5801 73.96Z" fill="#202020"/>
<path d="M7.42001 76.39C9.84001 76.63 8.00001 75.7599 10.19 76.0699C10.76 75.8299 8.40001 75.82 8.98001 75.61C7.52001 75.86 6.75001 75.72 7.42001 76.39Z" fill="#202020"/>
<path d="M8.97998 75.61C9.20998 75.57 9.45998 75.52 9.72998 75.46C9.30998 75.52 9.10998 75.57 8.97998 75.61Z" fill="#202020"/>
<path d="M165.87 69.4L165.66 70.96L166 69.95L165.87 69.4Z" fill="#202020"/>
<path d="M166.63 72.39L165.98 72.76L166.57 73.7C166.54 73.35 166.49 72.66 166.63 72.4V72.39Z" fill="#202020"/>
<path d="M23.4601 0.75L23.3401 0.910034C23.5801 1.08003 23.9501 1.09 24.6801 1.12L23.4601 0.76001V0.75Z" fill="#202020"/>
<path d="M44.6 1.23999L44.24 1.21997L44.92 1.81006L44.6 1.23999Z" fill="#202020"/>
<path d="M62.34 0.490019C61.62 0.470019 60.76 0.599975 60.04 0.569975C61.62 0.459975 62.54 1.22002 62.34 0.490019Z" fill="#202020"/>
</svg>
