<svg width="99" height="44" viewBox="0 0 99 44" fill="none" xmlns="http://www.w3.org/2000/svg">
<path d="M92.14 3.80002H7.17999C4.66157 3.80002 2.62 5.8416 2.62 8.36002V36.44C2.62 38.9585 4.66157 41 7.17999 41H92.14C94.6584 41 96.7 38.9585 96.7 36.44V8.36002C96.7 5.8416 94.6584 3.80002 92.14 3.80002Z" fill="white"/>
<path d="M91.84 1.97C92.22 2 92.08 1.68004 92.14 1.63004C91.51 1.70004 91.86 2.05 91.84 1.97Z" fill="#202020"/>
<path d="M85.64 2.69003L85.75 2.56003L84.83 2.87003L85.64 2.69003Z" fill="#202020"/>
<path d="M79.83 2.68002C80.38 3.22002 81.93 2.59006 82.97 2.78006L83.14 2.90005L83.61 2.47C82.35 2.54 80.72 2.82001 79.84 2.67001L79.83 2.68002Z" fill="#202020"/>
<path d="M76.74 1.52005C76.93 1.73005 76.07 1.70006 77.46 1.59006C77.39 1.57006 77.37 1.55001 77.33 1.54001C77.2 1.54001 77.03 1.54006 76.74 1.53006V1.52005Z" fill="#202020"/>
<path d="M77.33 1.54C76.93 1.36 77.94 1.53 77.33 1.54V1.54Z" fill="#202020"/>
<path d="M74.4999 1.66L75.3099 1.47C75.1399 1.35 74.43 1.32001 74.69 1.23001C73.86 1.33001 74.0299 1.45 74.4999 1.66Z" fill="#202020"/>
<path d="M73.74 2.05002L74.16 1.97C74.09 1.92 73.98 1.90002 73.74 2.05002Z" fill="#202020"/>
<path d="M75.04 1.80002L74.16 1.97C74.28 2.06 74.29 2.23 74.57 1.91C74.5 2.07 74.67 1.91002 75.05 1.80002H75.04Z" fill="#202020"/>
<path d="M75.54 1.88006C75.99 2.00006 76.58 2.07006 75.7701 2.26006C77.3101 2.19006 77.08 1.81006 75.54 1.88006Z" fill="#202020"/>
<path d="M79.54 3.24002L80.14 3.40006L80.66 3.22C80.4 3.31 79.5 3.07002 79.53 3.24002H79.54Z" fill="#202020"/>
<path d="M69.49 1.38004C69.44 1.49004 69.76 1.68005 69.82 1.83005L70.41 1.70004C70.1 1.62004 69.52 1.55004 69.48 1.38004H69.49Z" fill="#202020"/>
<path d="M69.8199 1.83005L68.9299 2.03006C69.7199 2.05006 69.8699 1.96005 69.8199 1.83005Z" fill="#202020"/>
<path d="M73.5999 2.64005L75.0599 2.23001L73.3099 2.65005L73.5999 2.64005Z" fill="#202020"/>
<path d="M66.0899 1.36002L66.5899 1.10001L65.6899 1.50003L66.0899 1.36002Z" fill="#202020"/>
<path d="M63.83 1.41C64.2 1.19 63.32 1.04 63.71 0.910004C63.1 0.950004 62.57 1.14003 62.1 1.31003C62.6 1.22003 63.13 1.24001 63.82 1.42001L63.83 1.41Z" fill="#202020"/>
<path d="M61.3199 1.55002C61.5699 1.50002 61.8299 1.40002 62.1099 1.30002C61.8399 1.35002 61.5799 1.42002 61.3199 1.55002Z" fill="#202020"/>
<path d="M67.41 1.97C67.34 1.9 67.21 1.72005 66.71 1.64005L67.06 1.96005C67.17 1.96005 67.29 1.96005 67.41 1.96005V1.97Z" fill="#202020"/>
<path d="M67.0701 1.97H67.06C66.68 1.95 66.42 1.94003 66.3 1.94003C66.4 1.94003 66.6301 1.95 67.0701 1.97Z" fill="#202020"/>
<path d="M67.5 1.97C67.5 1.97 67.44 1.97 67.41 1.97C67.44 2 67.46 2.01 67.5 1.97Z" fill="#202020"/>
<path d="M71.2599 2.35001C70.7399 2.53001 69.6499 2.72002 70.6999 2.99002C71.0799 2.77002 70.4699 2.61001 71.2599 2.35001Z" fill="#202020"/>
<path d="M67.9299 2.37003L68.8799 2.44003C68.8599 2.36003 68.6899 2.23005 68.9499 2.14005L67.9299 2.36002V2.37003Z" fill="#202020"/>
<path d="M67.47 2.47L67.93 2.37003L67.58 2.34006L67.47 2.47Z" fill="#202020"/>
<path d="M62.94 1.84998C62.53 1.98998 62.08 2.00002 61.58 2.02002C62.12 2.08002 62.68 2.12 63.21 2.12C63.28 2.02 63.52 1.83998 62.94 1.84998Z" fill="#202020"/>
<path d="M64.95 1.94003C64.95 1.94003 64.89 1.95005 64.86 1.96005C64.92 1.99005 64.96 2.00003 64.95 1.94003Z" fill="#202020"/>
<path d="M56.61 2.02005L56.69 2.08005L56.71 2.02005H56.61Z" fill="#202020"/>
<path d="M63.2999 2.18002C63.7099 2.24002 63.9499 2.16003 64.1799 2.06003C63.8799 2.09003 63.5499 2.11003 63.2099 2.12003C63.1799 2.17003 63.1699 2.20002 63.2999 2.18002Z" fill="#202020"/>
<path d="M59.9299 1.70004C60.1399 1.77004 60.3799 1.82003 60.6299 1.88003C60.4199 1.78003 59.9999 1.62004 59.9299 1.70004Z" fill="#202020"/>
<path d="M64.72 1.87003H64.78C64.65 1.79003 64.66 1.82003 64.72 1.87003Z" fill="#202020"/>
<path d="M64.7199 1.87003C64.5099 1.92003 64.3499 2.00004 64.1799 2.07004C64.4299 2.04004 64.6599 2.01005 64.8599 1.96005C64.8099 1.94005 64.7599 1.90003 64.7199 1.87003Z" fill="#202020"/>
<path d="M55.11 4.08005C55.18 3.78005 56.25 3.51005 57.17 3.83005C58.08 3.61005 57.48 2.63005 56.69 2.08005C56.66 2.21005 56.66 2.33003 55.73 2.50003C56.06 2.66003 57.8 2.88005 57.01 3.15005C55.77 3.30005 56 3.04005 55.39 2.89005C55.9 3.26005 53.82 3.43 54.09 3.97L55.18 3.78006C55.2 3.86006 54.81 4.00005 55.11 4.08005Z" fill="#202020"/>
<path d="M58.47 2.11002L58.85 2.07004C58.41 2.02004 58.1 1.90001 57.52 1.67001C56.88 1.81001 56.75 1.93005 56.7 2.02005L58.59 2.06003L58.46 2.10001L58.47 2.11002Z" fill="#202020"/>
<path d="M60.58 2.07004C60.28 2.39004 59.36 2.53004 59.92 2.88004C61.05 2.86004 60.71 2.61 61.38 2.47C59.56 2.55 61.9 2.29002 60.59 2.11002C60.95 2.06002 61.27 2.04005 61.57 2.02005C61.24 1.98005 60.93 1.93003 60.63 1.87003C60.65 1.87003 60.66 1.88005 60.67 1.89005C60.75 1.93005 60.77 1.95002 60.69 1.93002C60.69 1.93002 60.66 1.93002 60.65 1.93002C60.64 1.97002 60.6 2.01002 60.57 2.05002C60.04 1.98002 60.49 1.97002 60.65 1.93002C60.65 1.91002 60.67 1.90004 60.67 1.88004L58.85 2.05002C59.24 2.09002 59.72 2.09002 60.58 2.05002V2.07004Z" fill="#202020"/>
<path d="M69.73 3.69003C69.67 3.66003 69.68 3.64002 69.67 3.61002C69.55 3.65002 69.51 3.68003 69.73 3.69003Z" fill="#202020"/>
<path d="M68.98 3.49002C69.11 3.44002 69.22 3.32001 69.65 3.35001C70.02 3.45001 69.65 3.50002 69.67 3.61002C69.93 3.52002 70.58 3.38 69.76 3.22L69.63 3.26004C68.9 3.15004 67.95 2.75004 68.08 2.70004C68.29 2.99004 68.48 3.20001 68.97 3.48001L68.98 3.49002Z" fill="#202020"/>
<path d="M64.7299 2.86002L63.21 3.02005L63.9799 3.30002L63.94 3.13004C64.8 3.20004 64.62 2.99002 64.72 2.86002H64.7299Z" fill="#202020"/>
<path d="M56.44 1.86002L56.64 1.52005L55.76 2.00003L56.44 1.86002Z" fill="#202020"/>
<path d="M54.46 1.90005L54.54 1.60001L54.02 1.78006L54.46 1.90005Z" fill="#202020"/>
<path d="M28.86 39.22L29.31 39.14C29.1 39.17 28.96 39.19 28.86 39.22Z" fill="#202020"/>
<path d="M25.6301 39.2L25.55 39.35C25.7 39.27 25.7601 39.21 25.6301 39.2Z" fill="#202020"/>
<path d="M5.54001 2.15005C4.59001 2.09005 3.38001 2.32001 3.67001 2.54001L4.08002 2.67001C4.63002 2.32001 5.12001 2.17005 5.54001 2.14005V2.15005Z" fill="#202020"/>
<path d="M2.69998 35.57C2.72998 35.51 2.76999 35.44 2.79999 35.38C2.68999 35.22 2.57999 35.08 2.48999 34.94C2.54999 35.13 2.62998 35.34 2.69998 35.57Z" fill="#202020"/>
<path d="M4.03996 36.0301L3.93997 36.45L3.84998 36.7701C3.91998 36.6201 3.96996 36.4601 4.03996 36.0301Z" fill="#202020"/>
<path d="M46.4999 38.87L47.0199 38.54C46.2099 38.54 46.5599 38.71 46.4999 38.87Z" fill="#202020"/>
<path d="M34.25 2.02005C33.69 1.89005 33.24 1.84004 32.85 1.82004C33.53 2.01004 34.07 2.29005 34.25 2.02005Z" fill="#202020"/>
<path d="M27.5899 42.67C27.8599 42.61 27.9799 42.54 27.9699 42.47C27.6899 42.53 27.5299 42.59 27.5899 42.67Z" fill="#202020"/>
<path d="M31.23 1.82001C31.33 1.85001 31.43 1.87002 31.53 1.90002C31.94 1.85002 32.35 1.80001 32.85 1.82001C32.35 1.68001 31.78 1.60001 31.23 1.82001Z" fill="#202020"/>
<path d="M94.85 25.26C94.85 25.26 94.87 25.16 94.89 25.12C94.85 25.11 94.84 25.17 94.85 25.26Z" fill="#202020"/>
<path d="M97.7 6.13004C97.81 6.35004 97.94 6.72006 98.02 7.09006C97.99 6.91006 97.94 6.60004 97.7 6.13004Z" fill="#202020"/>
<path d="M46.52 1.76006C46.59 1.72006 46.94 1.74006 46.52 1.76006V1.76006Z" fill="#202020"/>
<path d="M48.56 3.04001C48.47 3.08001 48.4 3.12004 48.39 3.20004C48.42 3.12004 48.48 3.07001 48.56 3.04001Z" fill="#202020"/>
<path d="M27.07 3.85001C27.07 3.85001 27.05 3.85001 27.03 3.85001C27.15 3.91001 27.13 3.90001 27.07 3.85001Z" fill="#202020"/>
<path d="M47.15 1.90005C46.99 1.86005 46.81 1.83002 46.61 1.80002C46.7 1.83002 46.86 1.86005 47.15 1.90005Z" fill="#202020"/>
<path d="M47.0699 1.75005C47.2099 1.76005 47.3299 1.77008 47.4399 1.78008C47.4899 1.73008 47.4399 1.69005 47.0699 1.75005Z" fill="#202020"/>
<path d="M45.9399 1.77005C46.1799 1.77005 46.3999 1.78002 46.6199 1.80002C46.5399 1.78002 46.4999 1.76003 46.5299 1.75003C46.4099 1.75003 46.2299 1.75005 45.9499 1.77005H45.9399Z" fill="#202020"/>
<path d="M76.2 40.0101C76.2 40.0101 76.2599 40.03 76.2899 40.04C76.7099 39.9 76.53 39.9301 76.2 40.0101Z" fill="#202020"/>
<path d="M4.12997 13.2701C4.12997 13.2701 4.11997 13.24 4.10997 13.22C4.10997 13.24 4.10998 13.2601 4.09998 13.2801H4.12997V13.2701Z" fill="#202020"/>
<path d="M4.37993 14.7801C3.97993 14.1401 4.01992 13.78 4.10992 13.29L3.16992 13.79L4.37993 14.7801Z" fill="#202020"/>
<path d="M36.59 39.1301L35.53 38.8401C36.8 38.3601 37.73 38.52 36.74 38.11C36.59 39.13 32.64 38.21 32.49 39.23L31.79 39.0201C31.99 39.0201 32.02 38.97 32.22 38.98C30.87 38.49 31.21 39.7201 29.47 39.5701C28.86 39.4901 28.44 39.34 28.85 39.22L27.5 39.47C27.11 39.45 27.2 39.27 27.59 39.29L25.52 39.3701L25.54 39.3401C25.25 39.5001 24.58 39.75 24.25 39.85C23.73 39.7 24.51 39.74 24.38 39.61L23.24 39.86C22.77 39.6 23.72 39.3401 24.51 39.3801C23.44 38.3601 23.56 39.64 21.26 39.04L22.34 38.91C21.64 38.33 20.8 38.5401 19.58 38.1801C19.87 38.3701 22.02 39.0901 20.78 39.3401C20.43 39.2601 19.97 39.2301 19.3 39.4301C19.3 39.0701 18.64 39.1601 17.82 39.1801L17.88 38.7001C17 38.8401 17.07 39.08 16.55 39.3C15.56 39.25 15.36 38.8801 15.13 38.5701C13.55 38.4901 16.22 39.1701 14.35 39.2601C13.04 39.0801 12.12 39.2701 10.54 39.5601C9.61998 39.3901 10.7 39.2701 10.37 39.1301L9.55998 39.5101C9.35998 39.5101 9.41999 39.3801 9.45999 39.3201C8.76999 39.4701 9.39999 39.8001 8.31999 39.9301C8.24999 40.0601 8.06999 40.08 7.82999 40.04C7.70999 40.02 7.56998 39.9901 7.41998 39.9501C7.25998 39.9101 7.10998 39.8601 6.99998 39.8101C6.47998 39.6001 6.05998 39.2901 5.50998 39.3C5.37998 39.06 5.74998 39.11 5.77998 38.91C5.17998 38.78 4.93999 38.59 4.70999 38.47C4.49999 38.32 4.24998 38.24 3.77998 37.79C3.73998 37.43 3.77999 37.0801 3.84999 36.7601C3.71999 37.1201 3.52998 37.1401 3.28998 36.8901C3.05998 36.6601 2.86998 36.0901 2.69998 35.5601C2.52998 35.8901 2.36999 36.1801 2.29999 36.3701L2.03998 34.6901C2.11998 34.4901 2.27998 34.6601 2.47998 34.9301C2.43998 34.8201 2.39998 34.7101 2.36998 34.6201C2.54998 34.0201 2.81998 34.3301 3.08998 34.7601C2.98998 34.9601 2.88998 35.1701 2.78998 35.3701C3.07998 35.7901 3.39999 36.1701 3.68999 36.0901C3.62999 35.9801 3.58998 35.77 3.55998 35.54C3.63998 35.65 3.70998 35.72 3.75998 35.67C3.80998 35.61 3.69999 35.44 3.57999 35.16L4.10999 34.7801L3.89998 34.6901L4.22998 32.49C3.68998 30.92 2.89998 29.55 2.67998 27.05C3.06998 27.67 3.31998 27.18 3.78998 27.22C3.29998 27.9 3.99998 29.1601 3.89998 30.4501C3.94998 29.7701 4.16998 29.9201 4.24998 30.0901L3.79999 27.7801C4.17999 27.8301 4.07999 27.2901 4.23999 26.6901C3.48999 27.1501 3.73998 24.9701 3.50998 24.0301C3.75998 23.9701 4.01999 24.2001 3.95999 25.3401C4.52999 24.0701 3.07998 23.7101 3.55998 22.4601C3.55998 22.7401 3.52999 22.8901 3.65999 23.0001C3.43999 22.3501 3.60999 20.7501 3.82999 21.1201V21.4001C3.91999 19.5401 3.83998 15.7401 3.19998 15.4601C3.27998 15.4401 3.96999 15.7001 4.09999 15.8201L1.94998 12.5001C2.49998 12.7901 3.79999 11.6701 4.10999 13.2101C4.18999 12.7701 4.27998 12.22 4.08998 11.29C4.00998 11.59 3.29998 12.0401 3.24998 11.6301C3.85998 10.5001 3.57999 10.8401 4.09999 9.45007C3.97999 9.90007 3.11998 9.40005 3.14998 8.68005C3.27998 8.79005 3.99998 8.62006 4.08998 8.88006C3.94998 8.58006 3.80998 8.28007 3.67998 8.07007C3.55998 7.83007 3.45998 7.57009 3.38998 7.28009C3.44998 7.69009 4.05998 7.48009 4.36998 7.34009C4.26998 7.37009 4.34999 7.12004 4.51999 6.86004C4.67999 6.59004 4.94999 6.34006 5.01999 6.19006C4.85999 6.27006 4.68998 6.35003 4.53998 6.47003C5.00998 5.95003 5.11999 5.53005 5.31999 5.05005C5.51999 4.60005 5.85999 4.05003 6.82999 3.97003C6.58999 4.18003 6.48998 5.06006 7.22998 5.13006C7.68998 4.70006 9.28999 3.05003 11.05 2.72003L11.39 2.97003L12.74 2.69006C11.9 3.34006 9.52999 4.71005 8.23999 5.24005C8.98999 5.44005 8.44999 5.53007 9.57999 5.51007C9.97999 5.74007 8.96999 5.86005 8.62999 5.87005L11.25 6.02008C11.13 5.52008 13.26 5.51009 13.16 5.09009L10.31 5.61004C10.19 5.11004 11.96 4.18008 13.81 4.27008C14.28 4.47008 13.46 5.17009 13.5 5.34009C13.74 5.17009 15.26 5.01006 15.43 5.13006L14.64 5.40008C15.67 5.59008 16.33 4.73008 17.57 5.21008C18 5.24008 18.85 5.86006 18.93 5.56006C18.23 4.98006 18.09 3.20008 18.56 2.77008C18.71 2.81008 20.81 3.32004 21.3 3.60004C22.01 4.05004 20.24 4.68006 20.84 5.06006C20.87 4.92006 21.26 4.75007 21.42 4.70007C21.87 4.82007 21.23 5.13006 22.21 5.06006C22.37 4.55006 24.2 5.10006 22.67 4.63006C23.63 4.48006 23.69 4.74008 24.81 4.71008C24.45 4.38008 25.82 3.59006 26.78 3.44006C26.72 3.57006 26.94 3.74007 27.04 3.82007C29 3.87007 30.06 4.10004 31.89 4.10004C32.06 4.22004 32.94 4.37009 32.57 4.59009C32.83 4.50009 33.08 4.33006 33.64 4.31006C34.73 4.75006 32.38 4.38003 33.21 4.91003C33.28 4.61003 34.67 4.50006 35.47 4.31006C35.22 3.85006 33.61 4.22003 32.81 4.41003C32.81 3.78003 34.21 3.11007 36.12 2.82007C37.64 2.66007 36.78 3.23007 37.04 3.14007C39.9 3.25007 39.47 2.03005 41.84 2.49005C42.78 2.89005 41.88 3.29008 42.09 3.58008C40.85 3.73008 40.19 3.32009 39.35 3.34009L40.38 3.53009C39.99 3.66009 39.16 3.77008 38.71 3.65008C39.5 4.01008 43.54 3.72005 45.74 4.05005C46.13 3.91005 46.81 3.77005 46.49 3.61005L45.79 3.67004C45.15 3.34004 47.1 3.22007 46.22 3.07007C47.16 2.84007 48.2 2.48004 49.52 2.67004L49.77 3.13006C49.74 3.00006 48.91 2.86006 48.54 3.00006C49.09 2.80006 50.56 3.62008 51.16 3.02008L50.24 2.70007C51.18 2.47007 52.34 1.98006 53.51 2.13006C52.98 1.68006 53.24 2.18008 52.41 1.65008C53.13 2.31008 49.43 1.62007 50.58 2.32007C49.73 1.70007 49.11 2.06009 48 1.53009C48.03 1.68009 48.39 1.82006 47.41 1.75006C47.37 1.79006 47.26 1.85006 47.2 1.88006C47.17 1.88006 47.16 1.88005 47.13 1.87005L47.18 1.89007C47.18 1.89007 47.13 1.92007 47.2 1.89007C47.43 1.96007 47.62 2.04005 47.7 2.12005C47.21 2.47005 45.66 2.46007 45.13 2.64007C44.55 2.57007 45.37 2.47005 45.06 2.30005L44.27 2.57007C44.19 2.23007 42.73 2.01006 44.1 1.81006L42.87 1.79004C42.14 1.60004 41.15 1.53004 40.53 1.67004C39.95 1.60004 39.06 2.04009 39.57 1.78009L37.64 1.99005L37.62 1.91003C35.71 1.87003 33.69 2.47005 31.51 1.86005C30.87 1.94005 30.2 2.05007 29.13 1.95007L28.92 1.66003C28.1 1.76003 26.44 1.37004 26.09 1.67004C25.2 0.890043 22.09 1.50005 20.64 1.36005L20.59 1.74005C19.59 1.72005 18.64 1.83004 17.4 1.98004L17.48 2.32007C16.41 2.60007 14.73 2.08005 13.05 2.12005C13.16 1.99005 13.59 2.03004 13.9 2.10004C11.88 1.34004 9.63998 2.65004 7.80998 2.10004C7.57998 2.16004 7.38999 2.18005 7.20999 2.18005C6.98999 2.18005 6.74998 2.16006 6.53998 2.13006C6.59998 2.13006 6.64999 2.12004 6.68999 2.10004C6.62999 2.10004 6.52998 2.10005 6.42998 2.12005C6.14998 2.10005 5.84998 2.08005 5.52998 2.12005C5.81998 2.13005 6.07998 2.14008 6.28998 2.15008C5.80998 2.21008 5.09998 2.45008 4.50998 2.83008C4.36998 2.77008 4.21999 2.70008 4.06999 2.65008C4.01999 2.68008 3.97998 2.71006 3.92998 2.75006C3.22998 3.03006 3.53998 3.19004 3.99998 3.23004C3.72998 3.46004 3.52999 3.72005 3.40999 3.93005C3.01999 3.88005 2.70998 4.24008 2.44998 4.65008C2.18998 5.05008 1.97998 5.49007 1.53998 5.70007C1.55998 5.97007 1.27999 6.82005 1.29999 7.68005C1.29999 7.89005 1.32999 8.10005 1.34999 8.30005C1.37999 8.47005 1.41999 8.60005 1.45999 8.74005C1.54999 9.00005 1.65999 9.19007 1.81999 9.26007C1.73999 9.28007 1.69999 9.43008 1.68999 9.15008C1.61999 9.73008 1.53999 10.3201 1.71999 10.8401L1.25998 11.0901L1.87999 12.36C1.59999 13.13 1.43999 13.4501 1.07999 12.6901C1.61999 14.5401 1.27999 14.1901 1.81999 15.7701L1.51999 15.6901C1.52999 16.2501 1.92998 17.15 1.67998 17.49C1.11998 18.75 1.59999 23.73 1.07999 26.97C1.94999 26.34 0.68998 28.47 1.36998 28.6C1.15998 28.79 1.04998 29.24 0.86998 28.72C1.06998 30.37 0.539985 31.2001 1.10999 32.3401C0.899985 32.5301 0.809977 31.9901 0.679977 32.1501C0.719977 32.2801 0.85999 32.67 0.73999 32.85C0.61999 33.02 0.56998 32.61 0.47998 32.35C0.50998 34.04 1.14998 34.2101 1.74998 34.3301C1.46998 35.1901 1.50998 35.61 1.89998 36.23C1.79998 36.37 1.70999 36.6001 1.62999 36.6501C1.54999 36.7001 1.45998 36.48 1.42998 35.98C1.41998 36.18 1.28999 37.4 1.68999 38.41C2.02999 39.44 2.74998 40.1601 2.94998 40.0201C2.99998 40.2801 3.62999 40.7801 3.82999 40.8201C4.46999 41.3101 4.86998 41.5 5.27998 41.66C5.68998 41.82 6.10999 41.94 6.90999 41.97C6.76999 41.94 6.61998 41.91 6.47998 41.86C7.16998 41.36 7.65999 41.7701 8.71999 41.7101L8.68999 41.7701C11.09 42.1901 9.72999 41.57 12.1 42.05L11.97 41.6901C12.19 40.9201 14.07 42.15 15.45 41.85L14.95 41.6401C15.7 41.3801 17.05 42.69 17.8 42.79C17.96 42.86 17.54 42.9001 17.31 42.9501C19.29 43.4101 17.57 42.4801 19.04 42.3701C19.31 42.6201 18.69 43.0201 19.68 43.0601C20.17 43.2701 22.55 42.23 23.9 42.72C23.6 42.52 23.31 42.3301 23.99 42.1801C25.04 42.1101 26.82 42.92 27.77 42.3C27.9 42.35 27.95 42.4001 27.96 42.4501C28.76 42.2901 30.56 42.19 31.05 41.85C31.79 43.09 36.03 41.2501 36.01 42.3901L38.47 42.3301L38.41 42.4501C39.98 42.5301 40.54 42.25 41.1 41.98C41.46 42.06 41.2 42.16 41.17 42.22C43.47 42.45 43.7 42.4001 45.63 41.8301L45.83 42.2001C46.35 41.9801 49.16 42.78 51.41 42.35C51.39 42.39 51.34 42.4601 51.16 42.5201C53.7 42.0801 57.24 43.5501 58.17 42.2001L59.85 41.8701C57.68 41.7601 60.17 41.2801 59.28 41.0601C60.13 40.9801 61.48 41.47 60.44 41.54L60.28 41.47C59.9 42.18 62.97 41.7201 62.92 42.2001C67.19 42.1701 71.34 42.5601 75.34 42.5901L74.88 42.04L76.27 42.0701C76.64 42.2001 76.76 42.5 75.77 42.48C76.29 42.79 77.44 42.22 77.47 42.1C79.42 42.32 76.71 42.7401 77.31 42.7501L78.12 42.7101L77.94 42.6501C78.6 42.4301 78.66 42.19 79.85 42.22C80.61 42.33 80.24 42.5601 80.54 42.5801C80.54 42.6201 80.64 42.64 81 42.6L82.76 42.6501L82.06 42.22C82.84 42.01 83.71 42.2401 82.9 41.7501C84.09 42.5101 89.45 42.0201 90.18 42.2601C90.73 42.1001 91.27 42.0201 91.84 41.9901C92.1 41.9801 92.47 41.9701 92.84 41.9301C93.21 41.8801 93.59 41.8101 93.97 41.6901C93.77 41.7201 93.57 41.61 93.6 41.48C93.62 41.34 93.85 41.1901 94.43 40.9401C94.43 41.4901 95.07 41.3701 95.8 40.8701C96.54 40.3801 97.19 39.5101 97.77 39.0901C97.3 39.4801 97.84 38.52 97.94 37.54C98 37.06 97.98 36.5701 97.91 36.3801C97.84 36.1901 97.74 36.1701 97.56 36.5101C97.65 35.5401 97.94 36.45 98.17 35.72C97.78 33.44 98.42 30.6901 98.29 27.8701C98.16 27.8301 97.96 28.3001 97.76 27.6901L98.42 26.2001C98.36 25.6401 97.66 25.69 98.12 24.67C98.01 24.81 97.84 25.0301 97.8 24.6501C98.12 21.8901 97.99 19.06 97.93 16.23C97.9 14.81 97.89 13.39 97.96 11.98C98 11.27 98.05 10.56 98.14 9.86005C98.18 9.51005 98.23 9.15005 98.29 8.80005C98.32 8.60005 98.36 8.49004 98.38 8.23004C98.4 7.99004 98.43 7.75006 98.42 7.50006C98.25 8.56006 98.21 7.86005 98.06 7.12005C98.09 7.62005 97.74 7.17005 97.58 7.30005C97.55 6.34005 97.27 5.34008 96.71 4.46008C96.34 4.40008 95.79 3.85003 95.12 3.47003C94.46 3.08003 93.73 2.87008 93.54 3.08008C93.84 3.12008 94.13 3.20004 94.42 3.29004C93.75 3.34004 94.08 3.77008 94.33 4.27008C94.6 4.78008 94.75 5.37004 94.47 5.60004C95.03 5.63004 95.31 6.32008 95.37 6.96008C95.39 7.28008 95.42 7.60005 95.44 7.93005C95.47 8.09005 95.47 8.24004 95.53 8.42004C95.58 8.65004 95.65 8.87004 95.76 9.10004C95.61 9.50004 95.53 8.76003 95.36 8.97003C95.67 9.43003 95.73 9.99008 95.59 11.0201L95.51 10.9001C95.59 13.8001 95.28 15.04 95.08 18.3L95.44 18.0601C95.39 18.7601 95.28 18.91 95.19 19.23C95.73 20.03 95.22 17.2601 95.81 18.0001C95.09 18.9301 95.8 22.9301 94.98 23.5601C94.98 24.6401 95.39 23.2401 95.39 24.3201L95.17 24.61L95.46 24.8801C95.41 25.5901 95.13 25.94 94.95 25.97C94.97 25.8 94.9 25.48 94.88 25.3C94.62 26.22 94.97 27.8801 94.88 28.1901L95.02 27.16C95.23 30.09 94.94 33.7001 95.39 36.5101C95.45 36.4601 95.5 36.3701 95.56 36.3101C95.71 37.2201 95.51 37.5 95.34 37.8C95.12 38.08 94.94 38.3901 94.35 39.0201L94.37 38.9501C94.23 39.3001 93.84 39.6601 93.36 39.8101C93.54 39.6401 93.3 39.6301 93.1 39.5901C92.89 39.5401 92.73 39.4801 92.95 39.3101C92.61 39.4901 92.35 39.55 92.19 39.61C91.95 39.66 91.83 39.7001 91.73 39.7501C91.54 39.8501 91.45 39.99 90.67 40.3L90.31 40.0201C89.78 40.2701 89.74 40.4 88.55 40.48C89.52 40.24 87.79 40.0601 88.88 39.7401C86.39 39.1301 85.18 40.3501 84.03 39.4601C82.88 40.2301 86.19 39.89 85.55 40.05C86.09 40.3 84.6 40.6301 83.82 40.55C83.02 40.53 82.47 39.5701 80.46 39.5801C80.66 39.5801 80.67 39.5301 80.87 39.5301C80.12 39.3301 79.4 39.8 78.48 39.48C77.96 39.95 77.29 39.4501 77.14 40.05L78.98 39.91C77.94 40.07 76.96 40.76 75.24 40.42C75.37 40.3 75.88 40.14 76.24 40.05C75.74 39.87 75.27 40.1701 74.75 39.9901C74.9 39.4001 76.98 39.86 78.1 39.41C77.56 39.16 75.99 39.8401 76.55 39.2001C75.74 40.0201 74.58 39.1 73.22 39.72L73.31 39.36C73.1 39.42 72.65 39.5801 72.26 39.5801L72.98 39.1201C71.88 39.5101 70.86 38.7801 69.81 38.9901C72.02 38.9801 70.31 39.4201 71.24 39.6801C68.52 40.1601 69.67 38.75 66.63 38.92C67.04 38.87 68.18 39.1301 67.53 39.3C66.95 39.23 66.18 39.0901 65.83 38.9001C63.81 38.9701 66.14 39.27 65.28 39.48C64.59 39.05 64.29 39.66 63.4 39.8V39.4401C61.09 39.2101 62.78 40.19 60.71 39.91L61.59 39.41L60.51 39.54L60.73 39.1301C59.56 39.4401 59.19 39.3601 58.04 39.2401C58.31 39.4901 57.89 39.9 56.87 39.91C56.18 39.7 57.26 39.5701 55.81 39.6201C56.14 39.3901 56.49 39.1101 57.12 39.4401C57.18 39.3201 57.44 39.21 57.51 39.1C56.76 38.85 55.63 39.0401 55.11 39.05C55.31 39.06 55.55 39.0801 55.68 39.1301L53.59 39.6301C53.26 39.4901 53.52 39.3901 53.78 39.2801C53.36 39.3201 53.06 39.4901 52.44 39.5201C52.6 39.2301 52.56 38.9201 53.45 38.7801L51.46 39.11C51.33 38.98 50.44 38.7601 50.7 38.6501C49.59 38.4801 47.99 39.2201 46.52 38.9901C46.44 39.0501 46.29 39.1001 45.98 39.1401C44.6 39.0701 43.38 38.7101 41.75 39.1201L40.82 38.5901C39.54 38.7101 42.07 39.2501 39.94 39.4501C38.43 39.6201 39.38 39 38.85 38.85C38.1 39.12 36.8 39.66 35.41 39.23C35.87 39.13 36.23 39.21 36.66 39.17L36.59 39.1301ZM20.81 39.36C21.12 39.28 21.73 39.0501 21.95 39.2601C21.6 39.6701 21.33 39.48 20.81 39.36ZM3.38998 33.2501C3.50998 33.4801 3.44998 33.83 3.30998 34.23C3.27998 33.94 3.28998 33.6201 3.38998 33.2501ZM41.93 2.05005L41.9 2.07007C41.22 1.93007 41.46 1.98005 41.93 2.05005ZM43.35 2.21008C43.49 2.16008 43.48 2.11006 43.42 2.06006C43.32 2.15006 43 2.16006 42.64 2.13006C42.74 2.22006 42.92 2.29008 43.35 2.21008ZM80.67 42.4501L80.39 42.36C81.01 42.26 80.84 42.3601 80.67 42.4501Z" fill="#202020"/>
<path d="M3.88994 35.97C3.82994 36.06 3.75994 36.08 3.68994 36.1C3.74994 36.22 3.81994 36.22 3.88994 35.97Z" fill="#202020"/>
<path d="M46.4 38.93H46.45C46.45 38.93 46.49 38.89 46.5 38.87L46.4 38.93Z" fill="#202020"/>
<path d="M21.42 5.28006C21.13 5.23006 20.97 5.16006 20.86 5.09006C20.84 5.18006 20.98 5.25006 21.42 5.28006Z" fill="#202020"/>
<path d="M50.86 1.59006L49.95 1.68002C50.39 1.66002 50.55 1.74002 50.77 1.80002C50.75 1.72002 50.58 1.59006 50.86 1.59006Z" fill="#202020"/>
<path d="M58.7299 3.83005C58.8599 3.79005 59.01 3.83006 59.14 3.78006L59.1 3.61002C58.54 3.62002 58.14 3.76005 58.72 3.83005H58.7299Z" fill="#202020"/>
<path d="M51.7 2.80004C51.77 3.10004 52.3399 3.00005 52.9799 2.94005C52.9399 2.94005 52.9099 2.94005 52.8699 2.94005C53.0599 2.51005 52.38 2.66004 51.71 2.80004H51.7Z" fill="#202020"/>
<path d="M53.12 2.93001C53.32 2.92001 53.52 2.91001 53.71 2.93001C53.78 2.76001 53.47 2.89001 53.12 2.93001Z" fill="#202020"/>
<path d="M45.1499 2.01003C45.4499 2.09003 45.3399 1.62001 45.5099 1.74001C45.8499 1.35001 43.4999 2.21003 45.1499 2.01003Z" fill="#202020"/>
<path d="M52.21 3.80002L51.98 3.42001L51.63 3.73001L52.21 3.80002Z" fill="#202020"/>
<path d="M47.19 3.52006L48.21 3.62004C48.19 3.56004 48.32 3.52003 48.48 3.49003C47.85 3.48003 47.17 3.40005 47.19 3.51005V3.52006Z" fill="#202020"/>
<path d="M48.48 3.50003C48.81 3.50003 49.12 3.50003 49.3 3.44003C49.12 3.44003 48.74 3.46003 48.48 3.50003Z" fill="#202020"/>
<path d="M50.8199 3.91L50.5199 3.83005L49.8099 3.81003L50.8199 3.91Z" fill="#202020"/>
<path d="M36.28 3.45004L35.17 3.56003C35.06 3.69003 35.36 3.77 35.77 3.72C36.04 3.63 36.45 3.58005 36.28 3.46005V3.45004Z" fill="#202020"/>
<path d="M39.63 4.48001C39.33 4.40001 39.31 4.32003 39.14 4.19003L39.11 4.66L39.63 4.48001Z" fill="#202020"/>
<path d="M36.4 4.59006C36.29 4.72006 34.79 4.96002 36.2 4.93002C36.31 4.80002 37.42 4.69006 36.4 4.59006Z" fill="#202020"/>
<path d="M19.71 4.00003L19.99 3.99002L19.95 3.23001L19.71 4.00003Z" fill="#202020"/>
<path d="M6.00997 6.11002C6.73997 6.01002 5.99997 5.56003 6.75997 5.62003C6.92997 5.39003 6.11998 5.56004 6.26998 5.38004C5.81998 5.73004 5.58997 5.79003 6.00997 6.12003V6.11002Z" fill="#202020"/>
<path d="M6.27002 5.38004C6.35002 5.33004 6.43001 5.27004 6.51001 5.20004C6.36001 5.29004 6.30002 5.34004 6.27002 5.38004Z" fill="#202020"/>
<path d="M95.27 2.78006C94.95 2.54006 94.61 2.33005 94.24 2.15005C94.46 2.32005 94.67 2.48002 94.86 2.68002C95 2.71002 95.14 2.74006 95.28 2.78006H95.27Z" fill="#202020"/>
<path d="M93.04 2.60001C92.98 2.43001 92.92 2.25005 92.84 2.08005C92.59 2.20005 92.36 2.34001 92.14 2.48001C92.38 2.46001 92.87 2.45001 93.04 2.60001Z" fill="#202020"/>
<path d="M18.47 38.38L18.41 38.5C18.54 38.63 18.74 38.64 19.13 38.66L18.47 38.39V38.38Z" fill="#202020"/>
<path d="M29.92 38.74L29.72 38.73L30.09 39.17L29.92 38.74Z" fill="#202020"/>
<path d="M39.53 38.18C39.14 38.16 38.68 38.26 38.28 38.24C39.14 38.16 39.63 38.73 39.53 38.18Z" fill="#202020"/>
</svg>
