<svg width="99" height="50" viewBox="0 0 99 50" fill="none" xmlns="http://www.w3.org/2000/svg">
<path d="M92.6201 3.24002H7.6601C5.14168 3.24002 3.1001 5.2816 3.1001 7.80002V43.32C3.1001 45.8385 5.14168 47.88 7.6601 47.88H92.6201C95.1385 47.88 97.1801 45.8385 97.1801 43.32V7.80002C97.1801 5.2816 95.1385 3.24002 92.6201 3.24002Z" fill="white"/>
<path d="M92.31 1.41003C92.71 1.44003 92.5701 1.12004 92.6301 1.07004C91.9601 1.14004 92.33 1.49003 92.31 1.41003Z" fill="#202020"/>
<path d="M85.7401 2.13004L85.8501 2.00003L84.8801 2.31003L85.7401 2.13004Z" fill="#202020"/>
<path d="M79.5901 2.12003C80.1701 2.66003 81.8201 2.03003 82.9101 2.22003L83.0901 2.34003L83.5801 1.91003C82.2501 1.98003 80.5201 2.26002 79.5801 2.11002L79.5901 2.12003Z" fill="#202020"/>
<path d="M76.3201 0.960022C76.5201 1.17002 75.6101 1.14003 77.0801 1.03003C77.0101 1.01003 76.9801 0.990042 76.9401 0.980042C76.8101 0.980042 76.6201 0.980032 76.3101 0.970032L76.3201 0.960022Z" fill="#202020"/>
<path d="M76.9401 0.980035C76.5201 0.800035 77.5901 0.970035 76.9401 0.980035V0.980035Z" fill="#202020"/>
<path d="M73.9501 1.10004L74.8001 0.910034C74.6201 0.790034 73.8601 0.760044 74.1501 0.670044C73.2801 0.770044 73.4601 0.890037 73.9501 1.10004Z" fill="#202020"/>
<path d="M73.15 1.49003L73.59 1.41005C73.51 1.36005 73.4 1.34003 73.15 1.49003Z" fill="#202020"/>
<path d="M74.5201 1.24002L73.5801 1.41003C73.7001 1.50003 73.7201 1.67004 74.0101 1.35004C73.9301 1.51004 74.1201 1.35002 74.5201 1.24002Z" fill="#202020"/>
<path d="M75.05 1.32003C75.53 1.44003 76.1501 1.51003 75.2901 1.70003C76.9201 1.63003 76.68 1.25003 75.05 1.32003Z" fill="#202020"/>
<path d="M79.28 2.68002L79.92 2.84002L80.47 2.66003C80.19 2.75003 79.24 2.51002 79.28 2.68002Z" fill="#202020"/>
<path d="M68.6401 0.820038C68.5901 0.930038 68.9301 1.12002 68.9901 1.27002L69.6201 1.14005C69.3001 1.06005 68.6801 0.990038 68.6401 0.820038Z" fill="#202020"/>
<path d="M68.9901 1.27002L68.05 1.47003C68.89 1.49003 69.0501 1.40002 68.9901 1.27002Z" fill="#202020"/>
<path d="M72.9901 2.08002L74.5401 1.67004L72.7001 2.09003L72.9901 2.08002Z" fill="#202020"/>
<path d="M65.0501 0.800018L65.5801 0.540039L64.6301 0.940033L65.0501 0.800018Z" fill="#202020"/>
<path d="M62.6601 0.850037C63.0601 0.630037 62.1201 0.480037 62.5401 0.350037C61.8901 0.390037 61.3401 0.580031 60.8401 0.750031C61.3701 0.660031 61.9301 0.680016 62.6601 0.860016V0.850037Z" fill="#202020"/>
<path d="M60.0001 0.990021C60.2601 0.940021 60.5401 0.840021 60.8401 0.740021C60.5601 0.790021 60.2801 0.860021 60.0001 0.990021Z" fill="#202020"/>
<path d="M66.4501 1.41003C66.3801 1.34003 66.2401 1.16002 65.7101 1.08002L66.0801 1.40002C66.1901 1.40002 66.3201 1.40002 66.4501 1.40002V1.41003Z" fill="#202020"/>
<path d="M66.09 1.41003H66.08C65.68 1.39003 65.4 1.38004 65.28 1.38004C65.38 1.38004 65.63 1.39003 66.09 1.41003Z" fill="#202020"/>
<path d="M66.5401 1.41003C66.5401 1.41003 66.4801 1.41003 66.4501 1.41003C66.4901 1.44003 66.5101 1.45003 66.5401 1.41003Z" fill="#202020"/>
<path d="M70.5201 1.79004C69.9701 1.97004 68.8101 2.16002 69.9301 2.43002C70.3301 2.21002 69.6901 2.05004 70.5201 1.79004Z" fill="#202020"/>
<path d="M67.0001 1.81003L68.0001 1.88004C67.9801 1.80004 67.8001 1.67002 68.0701 1.58002L67.0001 1.80002V1.81003Z" fill="#202020"/>
<path d="M66.5101 1.91003L67.0001 1.81003L66.6301 1.78003L66.5101 1.91003Z" fill="#202020"/>
<path d="M61.71 1.29004C61.28 1.43004 60.81 1.44003 60.27 1.46003C60.84 1.52003 61.43 1.56003 62 1.56003C62.08 1.46003 62.33 1.28004 61.71 1.29004Z" fill="#202020"/>
<path d="M63.8401 1.38004C63.8401 1.38004 63.7701 1.39002 63.7401 1.40002C63.8001 1.43002 63.8501 1.44004 63.8401 1.38004Z" fill="#202020"/>
<path d="M55.02 1.46002L55.1 1.52002L55.12 1.46002H55.02Z" fill="#202020"/>
<path d="M62.1001 1.62003C62.5301 1.68003 62.7901 1.60003 63.0301 1.50003C62.7101 1.53003 62.3701 1.55003 62.0001 1.56003C61.9601 1.61003 61.9601 1.64003 62.1001 1.62003Z" fill="#202020"/>
<path d="M58.53 1.14004C58.75 1.21004 59.01 1.26004 59.28 1.32004C59.06 1.22004 58.61 1.06004 58.53 1.14004Z" fill="#202020"/>
<path d="M63.6001 1.31003H63.6601C63.5201 1.23003 63.5401 1.26003 63.6001 1.31003Z" fill="#202020"/>
<path d="M63.6 1.31003C63.38 1.36003 63.2 1.44004 63.03 1.51004C63.29 1.48004 63.53 1.45002 63.75 1.40002C63.7 1.38002 63.64 1.34003 63.6 1.31003Z" fill="#202020"/>
<path d="M53.4201 3.52002C53.5001 3.22002 54.6301 2.95002 55.6001 3.27002C56.5601 3.05002 55.9301 2.07002 55.0901 1.52002C55.0601 1.65002 55.0601 1.77003 54.0701 1.94003C54.4201 2.10003 56.2601 2.32003 55.4301 2.59003C54.1201 2.74003 54.3601 2.48002 53.7201 2.33002C54.2601 2.70002 52.0501 2.87003 52.3401 3.41003L53.4901 3.22003C53.5101 3.30003 53.1001 3.44002 53.4101 3.52002H53.4201Z" fill="#202020"/>
<path d="M56.9801 1.55002L57.3901 1.51004C56.9301 1.46004 56.5901 1.34002 55.9801 1.11002C55.3001 1.25002 55.1601 1.37002 55.1201 1.46002L57.1201 1.50003L56.9801 1.54004V1.55002Z" fill="#202020"/>
<path d="M59.2201 1.51004C58.9001 1.83004 57.9301 1.97004 58.5201 2.32004C59.7101 2.30004 59.3601 2.05003 60.0701 1.91003C58.1401 1.99003 60.6201 1.73002 59.2301 1.55002C59.6101 1.50002 59.9501 1.48002 60.2701 1.46002C59.9201 1.42002 59.5901 1.37003 59.2701 1.31003C59.2901 1.31003 59.3001 1.32002 59.3101 1.33002C59.3901 1.37002 59.4201 1.39003 59.3301 1.37003C59.3301 1.37003 59.3001 1.37003 59.2901 1.37003C59.2801 1.41003 59.2401 1.45002 59.2001 1.49002C58.6401 1.42002 59.1101 1.41003 59.2901 1.37003C59.2901 1.35003 59.3101 1.34004 59.3101 1.32004L57.3801 1.49002C57.7901 1.53002 58.3001 1.53002 59.2101 1.49002L59.2201 1.51004Z" fill="#202020"/>
<path d="M68.9 3.13004C68.84 3.10004 68.84 3.08002 68.84 3.05002C68.72 3.09002 68.67 3.12004 68.9 3.13004Z" fill="#202020"/>
<path d="M68.1101 2.93002C68.2501 2.88002 68.3701 2.76004 68.8201 2.79004C69.2201 2.89004 68.8201 2.94002 68.8401 3.05002C69.1101 2.96002 69.8001 2.82003 68.9401 2.66003L68.8001 2.70004C68.0201 2.59004 67.0201 2.19005 67.1601 2.14005C67.3901 2.43005 67.5901 2.64004 68.1001 2.92004L68.1101 2.93002Z" fill="#202020"/>
<path d="M63.6101 2.30002L62.0001 2.46002L62.8201 2.74002L62.7801 2.57004C63.6901 2.64004 63.5001 2.43002 63.6101 2.30002Z" fill="#202020"/>
<path d="M54.8301 1.30002L55.0501 0.960022L54.1201 1.44003L54.8301 1.30002Z" fill="#202020"/>
<path d="M52.74 1.34003L52.82 1.04004L52.27 1.22003L52.74 1.34003Z" fill="#202020"/>
<path d="M30.6001 46.1L31.0701 46.0201C30.8501 46.0501 30.7001 46.07 30.6001 46.1Z" fill="#202020"/>
<path d="M27.1801 46.08L27.1001 46.23C27.2601 46.15 27.3201 46.09 27.1801 46.08Z" fill="#202020"/>
<path d="M1.37007 6.48004C1.14007 6.92004 0.92008 7.46002 0.82008 7.83002C0.72008 8.10002 0.700073 8.27004 0.860073 8.23004L1.19007 8.02002C1.16007 7.82002 1.17007 7.45004 1.19007 7.20004C1.23007 6.93004 1.30007 6.69004 1.37007 6.48004Z" fill="#202020"/>
<path d="M3.18008 41.98C3.21008 41.91 3.25009 41.8501 3.28009 41.7801C3.17009 41.6101 3.06009 41.46 2.97009 41.32C3.03009 41.52 3.11008 41.75 3.18008 41.99V41.98Z" fill="#202020"/>
<path d="M4.52007 42.47L4.31006 43.36C4.38006 43.19 4.45007 42.87 4.52007 42.47Z" fill="#202020"/>
<path d="M49.2801 45.75L49.8301 45.42C48.9701 45.42 49.3501 45.59 49.2801 45.75Z" fill="#202020"/>
<path d="M31.3501 1.46002C30.7601 1.33002 30.2801 1.28004 29.8701 1.26004C30.5901 1.45004 31.1601 1.73002 31.3501 1.46002Z" fill="#202020"/>
<path d="M29.2601 49.55C29.5501 49.49 29.6701 49.42 29.6601 49.35C29.3601 49.41 29.1901 49.47 29.2601 49.55Z" fill="#202020"/>
<path d="M28.16 1.26004C28.26 1.29004 28.37 1.31003 28.47 1.34003C28.9 1.29003 29.34 1.24004 29.87 1.26004C29.34 1.12004 28.74 1.04004 28.16 1.26004Z" fill="#202020"/>
<path d="M95.33 26.11C95.33 26.11 95.35 26 95.37 25.96C95.33 25.95 95.32 26.01 95.33 26.11Z" fill="#202020"/>
<path d="M98.3201 5.96002C98.4101 6.20002 98.53 6.60002 98.58 6.99002C98.58 6.80002 98.5301 6.47002 98.3201 5.96002Z" fill="#202020"/>
<path d="M44.3401 1.20003C44.4101 1.16003 44.7801 1.18003 44.3401 1.20003V1.20003Z" fill="#202020"/>
<path d="M46.4901 2.48004C46.4001 2.52004 46.3201 2.56005 46.3101 2.64005C46.3501 2.56005 46.4101 2.51004 46.4901 2.48004Z" fill="#202020"/>
<path d="M23.7401 3.29004C23.7401 3.29004 23.7201 3.29004 23.7001 3.29004C23.8301 3.35004 23.8101 3.34004 23.7401 3.29004Z" fill="#202020"/>
<path d="M45.0101 1.34003C44.8401 1.30003 44.6501 1.27002 44.4401 1.24002C44.5301 1.27002 44.7001 1.30003 45.0101 1.34003Z" fill="#202020"/>
<path d="M44.92 1.19003C45.07 1.20003 45.19 1.21003 45.31 1.22003C45.37 1.17003 45.31 1.13003 44.92 1.19003Z" fill="#202020"/>
<path d="M43.7201 1.21002C43.9701 1.21002 44.2101 1.22002 44.4401 1.24002C44.3501 1.22002 44.3201 1.20003 44.3401 1.19003C44.2101 1.19003 44.0301 1.19002 43.7201 1.21002Z" fill="#202020"/>
<path d="M80.7101 46.8901C80.7101 46.8901 80.7701 46.91 80.8101 46.92C81.2601 46.78 81.0601 46.8101 80.7101 46.8901Z" fill="#202020"/>
<path d="M4.61008 18.38C4.61008 18.38 4.60007 18.35 4.59007 18.33C4.59007 18.35 4.59008 18.3801 4.58008 18.4001H4.61008V18.38Z" fill="#202020"/>
<path d="M4.86003 19.97C4.46003 19.29 4.50003 18.91 4.59003 18.39L3.65002 18.92L4.86003 19.97Z" fill="#202020"/>
<path d="M38.7901 46L37.6701 45.7101C39.0201 45.2301 39.9901 45.39 38.9501 44.98C38.7901 46 34.6101 45.08 34.4501 46.1L33.7101 45.89C33.9201 45.89 33.9501 45.84 34.1601 45.85C32.7301 45.36 33.1001 46.59 31.2501 46.44C30.6101 46.36 30.1601 46.2101 30.6001 46.0901L29.1701 46.3401C28.7501 46.3201 28.8501 46.14 29.2701 46.16L27.0801 46.24L27.1001 46.2101C26.7901 46.3701 26.0801 46.62 25.7401 46.72C25.1801 46.57 26.0201 46.61 25.8801 46.48L24.6701 46.73C24.1801 46.47 25.1801 46.21 26.0201 46.25C24.8901 45.23 25.0201 46.51 22.5801 45.91L23.7201 45.7801C22.9801 45.2001 22.0901 45.41 20.8001 45.05C21.1101 45.24 23.3901 45.9601 22.0701 46.2101C21.7001 46.1301 21.2101 46.1 20.5001 46.3C20.5001 45.94 19.8001 46.03 18.9401 46.05L19.0001 45.57C18.0601 45.71 18.1401 45.95 17.5901 46.17C16.5501 46.12 16.3301 45.75 16.0801 45.44C14.4101 45.36 17.2301 46.04 15.2601 46.13C13.8701 45.95 12.8901 46.14 11.2301 46.43C10.2601 46.26 11.4001 46.14 11.0501 46L10.1901 46.38C9.98008 46.38 10.0501 46.25 10.0801 46.19C9.35008 46.34 10.0201 46.67 8.88008 46.8C8.80008 46.93 8.62008 46.95 8.36008 46.91C8.23008 46.89 8.09007 46.86 7.93007 46.82C7.76007 46.78 7.60007 46.73 7.48007 46.68C6.93007 46.47 6.49008 46.14 5.91008 46.12C5.77008 45.88 6.17007 45.93 6.20007 45.73C5.57007 45.57 5.33008 45.3501 5.11008 45.2101C4.88008 45.0401 4.65008 44.93 4.19008 44.42C4.19008 44.04 4.23008 43.6801 4.33008 43.3401C4.17008 43.7101 3.97007 43.71 3.76007 43.43C3.55007 43.14 3.37008 42.5101 3.19008 41.9601C3.02008 42.3101 2.86007 42.62 2.79007 42.82L2.53008 41.04C2.61008 40.82 2.77008 41 2.97008 41.3C2.93008 41.18 2.89008 41.07 2.86008 40.97C3.04008 40.33 3.31008 40.66 3.58008 41.12C3.48008 41.33 3.38007 41.55 3.28008 41.76C3.57008 42.2 3.89007 42.6101 4.18007 42.5201C4.12007 42.4001 4.08008 42.18 4.05008 41.94C4.13008 42.05 4.20008 42.13 4.25008 42.08C4.30008 42.02 4.19008 41.83 4.07008 41.54L4.60008 41.14L4.39008 41.04L4.72008 38.7101C4.18008 37.0401 3.39007 35.59 3.17007 32.95C3.56007 33.61 3.81008 33.09 4.28008 33.13C3.79008 33.85 4.49008 35.18 4.39008 36.55C4.44008 35.83 4.66008 35.99 4.74008 36.17L4.29007 33.73C4.67007 33.79 4.57007 33.21 4.73007 32.57C3.98007 33.05 4.23008 30.75 4.00008 29.75C4.25008 29.69 4.51007 29.93 4.45007 31.14C5.02007 29.8 3.57008 29.41 4.05008 28.1C4.05008 28.4 4.02007 28.56 4.15007 28.67C3.93007 27.98 4.10008 26.29 4.32008 26.68V26.98C4.41008 25.01 4.33008 20.99 3.69008 20.7C3.77008 20.68 4.46007 20.96 4.59007 21.08L2.44008 17.57C2.99008 17.88 4.29008 16.69 4.60008 18.32C4.68008 17.85 4.77008 17.2701 4.58008 16.2801C4.50008 16.6001 3.79008 17.08 3.74008 16.64C4.35008 15.44 4.07007 15.81 4.59007 14.33C4.47007 14.81 3.61008 14.28 3.64008 13.52C3.77008 13.64 4.49008 13.46 4.58008 13.73L3.74008 11.85C3.89008 12.32 4.45008 11.93 4.69008 11.51C4.52008 11.71 4.71007 9.88003 4.62007 9.38003L4.42007 10.18C4.48007 9.12002 4.19008 8.59004 3.88008 8.07004C3.73008 7.79004 3.57008 7.58004 3.49008 7.26004C3.42008 6.95004 3.42007 6.55002 3.62007 6.08002C3.70007 6.42002 4.44007 6.89004 4.84007 6.26004C4.74007 6.02004 4.47007 5.37004 4.65007 4.51004C4.79007 3.67004 5.49007 2.64004 6.62007 2.26004L7.08008 2.44003C7.67008 2.30003 8.12008 2.22003 8.60008 2.13003C8.38008 2.29003 8.05007 2.50004 7.67007 2.73004C7.25007 2.97004 6.82008 3.26002 6.47008 3.62002C5.76008 4.33002 5.45008 5.20003 5.35008 5.72003C5.87008 5.49003 5.63007 5.79003 6.23007 5.34003C6.55007 5.41003 6.08007 5.83004 5.98007 5.98004C6.38007 5.67004 6.86008 5.50002 7.33008 5.49002C7.30008 5.37002 7.34007 5.26002 7.45007 5.18002C7.50007 5.14002 7.57008 5.10003 7.64008 5.06003C7.74008 5.02003 7.89008 5.00003 8.02008 4.97003C8.55008 4.85003 9.09008 4.75004 9.03008 4.54004C8.55008 4.63004 7.98008 4.71003 7.57008 4.81003C7.24008 4.90003 6.95007 5.06002 6.70007 5.24002C6.57007 5.03002 6.69008 4.56004 7.21008 4.20004C7.34008 4.10004 7.49008 4.05003 7.66008 3.97003C7.86008 3.91003 8.08008 3.86004 8.30008 3.82004C8.75008 3.74004 9.23007 3.70003 9.73007 3.72003C10.2301 3.92003 9.36007 4.62004 9.40007 4.79004C9.66007 4.62004 11.2701 4.46002 11.4501 4.58002L10.6201 4.85004C11.7101 5.04004 12.4101 4.18003 13.7201 4.66003C14.1701 4.69003 15.0801 5.31004 15.1501 5.01004C14.4101 4.43004 14.2601 2.65003 14.7601 2.22003C14.9201 2.26003 17.1401 2.77002 17.6601 3.05002C18.4101 3.50002 16.5401 4.13004 17.1701 4.51004C17.2001 4.37004 17.6101 4.20002 17.7801 4.15002C18.2601 4.27002 17.5801 4.58004 18.6201 4.51004C18.7901 4.00004 20.7301 4.55002 19.1101 4.08002C20.1201 3.93002 20.1901 4.19003 21.3801 4.16003C21.0001 3.83003 22.4501 3.04004 23.4601 2.89004C23.4001 3.02004 23.6301 3.19002 23.7401 3.27002C25.8201 3.32002 26.9301 3.55002 28.8701 3.55002C29.0501 3.67002 29.9801 3.82004 29.5901 4.04004C29.8701 3.95004 30.1201 3.78004 30.7201 3.76004C31.8801 4.20004 29.3901 3.83001 30.2701 4.36001C30.3501 4.06001 31.8201 3.95004 32.6701 3.76004C32.4101 3.30004 30.7001 3.67001 29.8501 3.86001C29.8501 3.23001 31.3301 2.56002 33.3501 2.27002C34.9601 2.11002 34.0501 2.68003 34.3301 2.59003C37.3501 2.70003 36.9101 1.48003 39.4201 1.94003C40.4201 2.34003 39.4601 2.74003 39.6901 3.03003C38.3801 3.18003 37.6801 2.77004 36.7901 2.79004L37.8801 2.98004C37.4601 3.11004 36.5901 3.22004 36.1101 3.10004C36.9401 3.46004 41.2201 3.17003 43.5501 3.50003C43.9601 3.36003 44.6801 3.22003 44.3401 3.06003L43.6001 3.12002C42.9201 2.79002 44.9901 2.67002 44.0501 2.52002C45.0401 2.29002 46.1501 1.93002 47.5401 2.12002L47.8001 2.58002C47.7701 2.45002 46.8901 2.31004 46.5001 2.45004C47.0801 2.25004 48.6401 3.07003 49.2701 2.47003L48.2901 2.15002C49.2801 1.92002 50.5101 1.43002 51.7501 1.58002C51.1901 1.13002 51.4701 1.63004 50.5901 1.10004C51.3501 1.76004 47.4301 1.07002 48.6501 1.77002C47.7501 1.15002 47.0901 1.51004 45.9101 0.98004C45.9501 1.13004 46.3301 1.27004 45.2901 1.20004C45.2401 1.24004 45.1301 1.30002 45.0601 1.33002C45.0301 1.33002 45.0201 1.33004 44.9901 1.32004L45.0501 1.34003C45.0501 1.34003 45.0001 1.37003 45.0701 1.34003C45.3201 1.41003 45.5201 1.49004 45.6001 1.57004C45.0901 1.92004 43.4401 1.91003 42.8801 2.09003C42.2601 2.02003 43.1401 1.92003 42.8001 1.75003L41.9701 2.02002C41.8901 1.68002 40.3401 1.46004 41.7801 1.26004L40.4801 1.24002C39.7101 1.05002 38.6601 0.980024 38.0001 1.12002C37.3801 1.05002 36.4501 1.49004 36.9801 1.23004L34.9301 1.44003L34.9101 1.36001C32.8901 1.32001 30.7501 1.92003 28.4501 1.31003C27.7701 1.39003 27.0701 1.50002 25.9301 1.40002L25.7101 1.11001C24.8401 1.21001 23.0901 0.820024 22.7201 1.12002C21.7801 0.340024 18.4901 0.950027 16.9501 0.810027L16.8901 1.19003C15.8301 1.17003 14.8201 1.28002 13.5101 1.43002L13.5901 1.77002C12.4601 2.05002 10.6801 1.53004 8.90007 1.57004C9.02007 1.44004 9.48008 1.48002 9.80008 1.55002C9.27008 1.36002 8.72008 1.30003 8.16008 1.31003C7.71008 1.31003 6.76008 1.40002 6.08008 1.68002C4.62008 2.23002 3.59007 3.23002 2.62007 4.12002C2.34007 4.72002 2.10008 5.11002 1.85008 5.52002C1.87008 5.46002 1.88008 5.41001 1.89008 5.36001C1.87008 5.42001 1.83007 5.52001 1.79007 5.61001C1.63007 5.86001 1.49008 6.14002 1.36008 6.46002C1.50008 6.19002 1.64008 5.95003 1.75008 5.75003C1.59008 6.23003 1.45007 7.01003 1.54007 7.75003C1.42007 7.84003 1.30007 7.91002 1.18007 7.99002C1.18007 8.04002 1.18008 8.07002 1.19008 8.12002C1.06008 8.66002 1.36008 8.56002 1.63008 8.27002C1.69008 8.55002 1.76008 8.80003 1.85008 9.00003C1.27008 9.44003 2.05007 10.45 1.42007 11.05C1.72007 11.42 1.65007 13.83 2.29007 14.13C2.21007 14.15 2.17008 14.31 2.16008 14.01C2.09008 14.63 2.01008 15.24 2.19008 15.8L1.73007 16.06L2.35008 17.41C2.07008 18.23 1.91008 18.57 1.55008 17.76C2.09008 19.72 1.75007 19.35 2.29007 21.02L1.99008 20.94C2.00008 21.54 2.40007 22.49 2.15007 22.85C1.59007 24.18 2.07008 29.45 1.55008 32.88C2.42008 32.22 1.16007 34.47 1.84007 34.61C1.63007 34.81 1.52007 35.29 1.34007 34.73C1.54007 36.48 1.01008 37.36 1.58008 38.56C1.37008 38.76 1.28007 38.19 1.15007 38.36C1.19007 38.5 1.33008 38.92 1.21008 39.1C1.09008 39.28 1.04007 38.84 0.950073 38.57C0.980073 40.36 1.62008 40.54 2.22008 40.67C1.94008 41.58 1.98007 42.03 2.37007 42.68C2.17007 43 1.97007 43.52 1.90007 42.41C1.90007 42.57 1.87008 42.8801 1.85008 43.2701C1.85008 43.7401 1.86008 44.35 2.03008 44.89C2.32008 46 3.04008 46.81 3.25008 46.68C3.28008 46.96 3.94008 47.5 4.13008 47.57C4.79008 48.11 5.22008 48.31 5.64008 48.49C6.07008 48.66 6.52008 48.8001 7.36008 48.8401C7.21008 48.8101 7.06008 48.77 6.91008 48.72C7.64008 48.23 8.16008 48.64 9.28008 48.58L9.25008 48.64C11.7901 49.06 10.3501 48.44 12.8601 48.92L12.7201 48.56C12.9501 47.79 14.9401 49.02 16.4001 48.72L15.8701 48.51C16.6701 48.25 18.0901 49.56 18.8901 49.66C19.0601 49.73 18.6201 49.77 18.3701 49.82C20.4601 50.28 18.6401 49.35 20.2001 49.24C20.4901 49.49 19.8301 49.89 20.8801 49.93C21.4001 50.14 23.9201 49.1001 25.3501 49.5901C25.0301 49.3901 24.7201 49.2 25.4501 49.05C26.5601 48.98 28.4501 49.79 29.4501 49.17C29.5901 49.22 29.6401 49.27 29.6501 49.32C30.5001 49.16 32.4101 49.06 32.9201 48.72C33.7001 49.96 38.1901 48.12 38.1701 49.26L40.7801 49.2L40.7101 49.32C42.3801 49.4 42.9701 49.12 43.5501 48.85C43.9401 48.93 43.6501 49.0301 43.6201 49.0901C46.0601 49.3201 46.3001 49.27 48.3401 48.7L48.5501 49.07C49.1001 48.85 52.0701 49.65 54.4601 49.22C54.4401 49.26 54.3901 49.33 54.2001 49.39C56.8901 48.95 60.6301 50.42 61.6201 49.07L63.3901 48.74C61.1001 48.63 63.7301 48.15 62.7901 47.93C63.6901 47.85 65.1201 48.34 64.0101 48.41L63.8401 48.3401C63.4301 49.0501 66.6901 48.59 66.6301 49.07C71.1501 49.04 75.5501 49.4301 79.7801 49.4601L79.2901 48.91L80.7701 48.94C81.1601 49.07 81.2901 49.37 80.2401 49.35C80.7901 49.66 82.0101 49.09 82.0401 48.97C84.1001 49.19 81.2401 49.61 81.8701 49.62L82.7301 49.58L82.5401 49.5201C83.2401 49.3 83.3001 49.0601 84.5601 49.0901C85.3601 49.2001 84.9701 49.43 85.2901 49.45C85.2901 49.49 85.3901 49.51 85.7701 49.47L87.6301 49.5201L86.8901 49.0901C87.7101 48.8801 88.6401 49.11 87.7801 48.62C88.4101 49 90.1401 49.07 91.8201 49.07C92.2501 49.07 92.6101 49.07 93.1501 49.04C93.6401 48.99 94.1001 48.89 94.4901 48.75C95.2801 48.48 95.8101 48.1301 96.0401 48.0301C97.0101 46.9201 97.8301 45.76 98.1301 44.06C98.0501 44.27 97.8901 44.4 97.7701 44.31C97.6501 44.22 97.6201 43.93 97.6601 43.2701C98.6601 43.71 98.1001 41.04 98.8201 40.06C98.3401 40.94 98.7001 36.6 98.0201 37.98C98.1001 36.96 98.4001 37.9201 98.6301 37.1501C98.2401 34.7301 98.8801 31.8201 98.7501 28.8401C98.6201 28.7901 98.4201 29.2901 98.2201 28.6501L98.8801 27.07C98.8201 26.48 98.1201 26.53 98.5801 25.45C98.4701 25.6 98.3001 25.83 98.2601 25.43C98.5801 22.5 98.4501 19.51 98.3901 16.51C98.3601 15.01 98.3501 13.51 98.4201 12.01C98.4601 11.26 98.5101 10.51 98.6001 9.76004C98.6401 9.39004 98.6901 9.01004 98.7501 8.64004L98.8401 8.08002L98.8901 7.80002L98.9301 7.42004C98.8801 7.71004 98.8301 7.85004 98.7901 7.89004C98.7501 7.94004 98.7201 7.93003 98.7001 7.88003C98.6601 7.79003 98.6501 7.37004 98.5901 6.98004C98.5901 7.50004 98.2701 7.00003 98.1001 7.13003C98.1501 6.12003 97.9001 5.04002 97.3501 4.08002C96.9801 4.00002 96.4201 3.37004 95.7201 2.95004C95.0401 2.51004 94.2701 2.28004 94.0601 2.48004C94.3701 2.53004 94.6901 2.62004 94.9901 2.73004C94.2901 2.73004 94.6301 3.20002 94.8901 3.71002C95.1701 4.24002 95.3201 4.86002 95.0201 5.08002C95.5901 5.16002 95.8801 5.87003 95.9001 6.56003C95.9301 6.91003 95.9001 7.25003 95.9101 7.59003C95.9101 7.73003 95.9301 7.99004 95.9801 8.23004C96.0301 8.47004 96.1001 8.71004 96.2101 8.95004C96.0601 9.37004 95.9801 8.59003 95.8101 8.81003C96.1201 9.30003 96.1801 9.89004 96.0401 10.98L95.9601 10.86C96.0401 13.93 95.7301 15.24 95.5301 18.69L95.8901 18.43C95.8401 19.17 95.7301 19.33 95.6401 19.67C96.1801 20.52 95.6701 17.59 96.2601 18.36C95.5401 19.34 96.2501 23.58 95.4301 24.25C95.4301 25.39 95.8401 23.92 95.8401 25.05L95.6201 25.35L95.9101 25.64C95.8601 26.39 95.5801 26.76 95.4001 26.79C95.4201 26.61 95.3501 26.27 95.3301 26.08C95.0701 27.05 95.4201 28.81 95.3301 29.14L95.4701 28.05C95.6801 31.16 95.3901 34.9601 95.8401 37.9601L96.0101 37.73C96.3201 40.02 95.8301 39.5701 95.9701 42.0901L95.9301 42C96.0101 42.25 96.0801 42.55 96.1201 42.86C96.1401 43.01 96.1601 43.2001 96.1601 43.3401C96.1601 43.4701 96.1601 43.61 96.1401 43.74C96.0801 43.49 95.9501 43.71 95.8201 43.88C95.6901 44.06 95.5401 44.18 95.5101 43.89C95.4701 44.71 95.3201 44.93 95.3501 45.11C95.3301 45.28 95.4701 45.42 95.1901 46.12C95.0501 46.12 94.9201 46.12 94.7801 46.1C94.6901 46.34 94.6201 46.4801 94.4901 46.6501C94.3501 46.8001 94.1201 47 93.6001 47.17C94.0001 46.94 93.7901 46.89 93.6201 46.81C93.4401 46.73 93.3101 46.65 93.6601 46.38C93.4201 46.38 93.2001 46.38 93.0001 46.38C92.8001 46.38 92.6501 46.38 92.3601 46.38C91.8501 46.4 91.4001 46.46 91.0001 46.5201C90.2001 46.64 89.5801 46.7201 88.9701 46.2801C87.7601 47.0501 91.2501 46.71 90.5801 46.87C91.1501 47.12 89.5801 47.45 88.7501 47.37C87.9101 47.35 87.3201 46.3901 85.2001 46.4001C85.4101 46.4001 85.4301 46.35 85.6401 46.35C84.8501 46.15 84.0801 46.62 83.1101 46.3C82.5601 46.77 81.8501 46.27 81.6901 46.87L83.6401 46.73C82.5401 46.89 81.5001 47.58 79.6901 47.24C79.8301 47.12 80.3701 46.96 80.7401 46.87C80.2101 46.69 79.7201 46.99 79.1701 46.81C79.3301 46.22 81.5301 46.68 82.7201 46.23C82.1501 45.98 80.4801 46.66 81.0801 46.0201C80.2301 46.84 78.9901 45.92 77.5501 46.54L77.6401 46.18C77.4101 46.24 76.9401 46.4001 76.5201 46.4001L77.2801 45.94C76.1201 46.33 75.0401 45.6 73.9201 45.81C76.2601 45.8 74.4401 46.24 75.4301 46.5C72.5501 46.98 73.7701 45.57 70.5501 45.74C70.9901 45.69 72.1901 45.95 71.5101 46.12C70.9001 46.05 70.0901 45.91 69.7101 45.72C67.5701 45.79 70.0401 46.09 69.1301 46.3C68.4001 45.87 68.0801 46.48 67.1401 46.62V46.26C64.7001 46.03 66.4901 47.01 64.3001 46.73L65.2301 46.23L64.0901 46.36L64.3301 45.95C63.0901 46.26 62.7001 46.18 61.4801 46.06C61.7601 46.31 61.3201 46.72 60.2401 46.73C59.5001 46.52 60.6501 46.39 59.1201 46.44C59.4701 46.21 59.8401 45.93 60.5101 46.26C60.5801 46.14 60.8501 46.03 60.9201 45.92C60.1301 45.67 58.9301 45.86 58.3801 45.87C58.5901 45.88 58.8501 45.9 58.9801 45.95L56.7601 46.45C56.4101 46.31 56.6901 46.21 56.9601 46.1C56.5101 46.14 56.2001 46.3101 55.5401 46.3401C55.7101 46.0501 55.6701 45.74 56.6001 45.6L54.4901 45.93C54.3501 45.8 53.4101 45.58 53.6801 45.47C52.5101 45.3 50.8101 46.04 49.2601 45.81C49.1801 45.87 49.0201 45.9201 48.6901 45.9601C47.2301 45.8901 45.9401 45.53 44.2101 45.94L43.2301 45.41C41.8801 45.53 44.5601 46.07 42.3001 46.2701C40.7001 46.44 41.7001 45.82 41.1401 45.67C40.3501 45.94 38.9701 46.48 37.5001 46.05C37.9901 45.95 38.3701 46.03 38.8201 45.99L38.7901 46ZM22.0901 46.23C22.4101 46.15 23.0601 45.92 23.3001 46.13C22.9301 46.54 22.6501 46.35 22.0901 46.23ZM3.87007 39.5201C3.99007 39.7601 3.93007 40.13 3.79007 40.55C3.76007 40.25 3.77007 39.9001 3.87007 39.5201ZM39.4801 1.48004L39.4501 1.50003C38.7301 1.36003 38.9801 1.41004 39.4801 1.48004ZM40.9801 1.64004C41.1301 1.59004 41.1201 1.54002 41.0601 1.49002C40.9601 1.58002 40.6201 1.59003 40.2401 1.56003C40.3501 1.65003 40.5401 1.72004 40.9901 1.64004H40.9801ZM85.4401 49.32L85.1501 49.23C85.8101 49.13 85.6201 49.23 85.4401 49.32Z" fill="#202020"/>
<path d="M4.37004 42.4001C4.31004 42.4901 4.24004 42.52 4.17004 42.54C4.23004 42.67 4.30004 42.6701 4.37004 42.4001Z" fill="#202020"/>
<path d="M49.17 45.81H49.22C49.22 45.81 49.26 45.77 49.27 45.75L49.17 45.81Z" fill="#202020"/>
<path d="M17.7701 4.72003C17.4601 4.67003 17.29 4.60003 17.17 4.53003C17.15 4.62003 17.2901 4.69003 17.7701 4.72003Z" fill="#202020"/>
<path d="M48.9301 1.03003L47.9701 1.12003C48.4301 1.10003 48.6001 1.18002 48.8301 1.24002C48.8101 1.16002 48.6301 1.03003 48.9301 1.03003Z" fill="#202020"/>
<path d="M57.26 3.27002C57.4 3.23002 57.56 3.27003 57.7 3.22003L57.66 3.05002C57.06 3.06002 56.64 3.20002 57.26 3.27002Z" fill="#202020"/>
<path d="M49.8101 2.24001C49.8901 2.54001 50.4901 2.44003 51.1601 2.38003C51.1201 2.38003 51.0801 2.38003 51.0401 2.38003C51.2401 1.95003 50.5201 2.10001 49.8101 2.24001Z" fill="#202020"/>
<path d="M51.3201 2.37001C51.5301 2.36001 51.7401 2.35001 51.9401 2.37001C52.0201 2.20001 51.6901 2.33001 51.3201 2.37001Z" fill="#202020"/>
<path d="M42.8801 1.45003C43.2001 1.53003 43.0801 1.06001 43.2601 1.18001C43.6201 0.79001 41.1301 1.65003 42.8801 1.45003Z" fill="#202020"/>
<path d="M50.3601 3.24002L50.1201 2.86002L49.7401 3.17004L50.3601 3.24002Z" fill="#202020"/>
<path d="M45.0501 2.96004L46.1201 3.06004C46.1001 3.00004 46.2401 2.96004 46.4101 2.93004C45.7501 2.92004 45.0201 2.84006 45.0501 2.95006V2.96004Z" fill="#202020"/>
<path d="M46.41 2.94003C46.75 2.94003 47.08 2.94004 47.27 2.88004C47.08 2.88004 46.68 2.90003 46.41 2.94003Z" fill="#202020"/>
<path d="M48.8901 3.35004L48.5701 3.27002L47.8101 3.25003L48.8901 3.35004Z" fill="#202020"/>
<path d="M33.5001 2.89005L32.3301 3.00003C32.2101 3.13003 32.5301 3.21003 32.9701 3.16003C33.2501 3.07003 33.6901 3.02002 33.5101 2.90002L33.5001 2.89005Z" fill="#202020"/>
<path d="M37.0401 3.92004C36.7201 3.84004 36.7001 3.76004 36.5201 3.63004L36.4801 4.10004L37.0301 3.92004H37.0401Z" fill="#202020"/>
<path d="M33.6201 4.03003C33.5001 4.16003 31.9201 4.40003 33.4001 4.37003C33.5201 4.24003 34.6901 4.13003 33.6201 4.03003Z" fill="#202020"/>
<path d="M15.9501 3.44003L16.2501 3.43002L16.2101 2.67004L15.9501 3.44003Z" fill="#202020"/>
<path d="M5.1301 7.92004C5.2301 7.43004 5.13009 7.46003 5.03009 7.38003C4.93009 7.33003 4.81009 7.26002 5.03009 6.93002C4.90009 6.66002 4.69009 7.51002 4.59009 7.28002C4.70009 7.80002 4.6301 8.32001 5.1301 7.93001V7.92004Z" fill="#202020"/>
<path d="M4.59004 7.27002C4.57004 7.17002 4.56004 7.07004 4.54004 6.95004C4.54004 7.13004 4.56004 7.21002 4.59004 7.27002Z" fill="#202020"/>
<path d="M95.9101 2.32004C95.5801 2.06004 95.2201 1.82004 94.8301 1.63004C95.0601 1.80004 95.2801 1.99003 95.4801 2.19003C95.6301 2.22003 95.7701 2.27004 95.9101 2.32004Z" fill="#202020"/>
<path d="M93.5701 2.05002C93.5101 1.88002 93.4401 1.70003 93.3601 1.53003C93.1001 1.64003 92.8501 1.79004 92.6201 1.92004C92.8801 1.90004 93.3901 1.90002 93.5701 2.05002Z" fill="#202020"/>
<path d="M19.61 45.26L19.54 45.38C19.68 45.51 19.89 45.52 20.31 45.54L19.61 45.2701V45.26Z" fill="#202020"/>
<path d="M31.73 45.62L31.52 45.61L31.91 46.05L31.73 45.62Z" fill="#202020"/>
<path d="M41.9001 45.06C41.4801 45.04 41.0001 45.14 40.5801 45.12C41.4801 45.04 42.0101 45.61 41.9001 45.06Z" fill="#202020"/>
</svg>
